<?xml version="1.0" encoding="utf-8"?>
<!-- Generator: Adobe Illustrator 24.3.0, SVG Export Plug-In . SVG Version: 6.00 Build 0)  -->
<svg version="1.1" id="Layer_1" xmlns="http://www.w3.org/2000/svg" xmlns:xlink="http://www.w3.org/1999/xlink" x="0px" y="0px"
	 viewBox="0 0 978.9 943.55" style="enable-background:new 0 0 978.9 943.55;" xml:space="preserve">
<g>
	<g>
		<g>
			<path d="M168.85,320.92c-33.48,0-60.72-27.24-60.72-60.72c0-33.48,27.24-60.72,60.72-60.72c33.48,0,60.72,27.24,60.72,60.72
				C229.57,293.68,202.33,320.92,168.85,320.92z M168.85,200.22c-33.07,0-59.97,26.9-59.97,59.97c0,33.07,26.9,59.97,59.97,59.97
				c33.07,0,59.97-26.9,59.97-59.97C228.82,227.13,201.92,200.22,168.85,200.22z"/>
		</g>
	</g>
	<g>
		<g>
			<path d="M168.85,302.67c-23.42,0-42.48-19.05-42.48-42.48s19.06-42.48,42.48-42.48s42.48,19.06,42.48,42.48
				S192.27,302.67,168.85,302.67z M168.85,218.47c-23.01,0-41.73,18.72-41.73,41.73s18.72,41.73,41.73,41.73
				s41.73-18.72,41.73-41.73S191.86,218.47,168.85,218.47z"/>
		</g>
	</g>
	<g>
		<g>
			<path d="M434.35,321.23c-32.31,0-58.59-26.28-58.59-58.59s26.28-58.59,58.59-58.59s58.59,26.28,58.59,58.59
				S466.66,321.23,434.35,321.23z M434.35,204.8c-31.89,0-57.84,25.95-57.84,57.84s25.95,57.84,57.84,57.84
				c31.89,0,57.84-25.95,57.84-57.84S466.24,204.8,434.35,204.8z"/>
		</g>
	</g>
	<g>
		<g>
			<path d="M434.35,303.63c-22.6,0-40.99-18.39-40.99-40.99s18.39-40.99,40.99-40.99c22.6,0,40.99,18.39,40.99,40.99
				S456.95,303.63,434.35,303.63z M434.35,222.4c-22.19,0-40.24,18.05-40.24,40.24s18.05,40.24,40.24,40.24
				c22.19,0,40.24-18.05,40.24-40.24S456.54,222.4,434.35,222.4z"/>
		</g>
	</g>
	<g>
		<g>
			<path d="M245.72,260.57c-2.53,0-15.91-8.3-17.42-9.25l0.4-0.64c4.07,2.54,15.07,9.13,17.03,9.13c2.13,0,23.28-1.04,29.08-1.33
				c-2.14-1.08-6.07-3.29-6.89-5.23c-2.41,0.18-18.69,0.99-26.54-8.9c-8.23-10.36-23.07-22.92-29.46-25.94l0.32-0.68
				c6.45,3.05,21.44,15.71,29.72,26.15c8.19,10.32,26,8.61,26.18,8.59l0.32-0.03l0.08,0.32c0.48,1.9,5.87,4.74,7.9,5.68l1.39,0.64
				l-1.53,0.08C275.16,259.22,248.2,260.57,245.72,260.57z"/>
		</g>
	</g>
	<g>
		<g>
			<path d="M261.61,246.07H261c-0.17,0-4.17-0.02-7.94-1.59c-2.2-0.92-11.09-9.38-18.93-16.85c-5.19-4.94-10.56-10.05-11.27-10.3
				c-1.18-0.26-8.3-0.11-11.9,0.01l-0.02-0.75c0.43-0.01,10.51-0.34,12.1,0.01c0.7,0.16,3.91,3.16,11.61,10.49
				c7.41,7.05,16.63,15.83,18.7,16.7c2.75,1.15,5.71,1.44,6.99,1.51c-0.63-1.04-2.14-3.17-4.1-3.6c-3.08-0.68-4.3-2.16-4.05-4.9
				l-3.47-3.47l-3.12,0.62l-26.85-27.16h-4.08l-1.85-2.33l1.27-1.81c-0.64-1.21-3.67-7.5-3.53-16.65h-18.03
				c0.31,1.76,1.2,7.47-0.15,9.21c-1.48,1.9-2.76,5.94-2.21,8.31l-0.73,0.17c-0.66-2.82,0.92-7.11,2.34-8.94
				c1.11-1.42,0.32-7.02-0.07-9.05l-0.09-0.45h19.71l-0.01,0.38c-0.25,10.16,3.5,16.79,3.54,16.85l0.12,0.21l-1.22,1.74l1.27,1.61
				h4.03l26.79,27.1l3.12-0.62l4.01,4.01l-0.02,0.18c-0.28,2.49,0.66,3.65,3.45,4.27c2.95,0.66,4.85,4.41,4.93,4.56L261.61,246.07z"
				/>
		</g>
	</g>
	<g>
		<g>
			<path d="M160.97,200.57l-0.67-0.33c0.3-0.62,7.5-15.18,17.08-19.34l0.15-0.03h5.24v-1.04H208l-4.54-15.26l0.35-0.11
				c0.44-0.13,10.52-3.19,16.45-1.38l1.69-9.2c-2.56,0.63-13.16,3.38-16.54,6.23c-4.12,3.47-12.1,8.61-15.74,8.82
				c-3.53,0.2-4.44,0.35-6.45,2.97c-1.99,2.59-7.74,3.16-8.83,3.25l-6.65,8.73l-0.17,0.01c-0.15,0.01-3.8,0.25-5.53-1.25
				c-0.55-0.48-0.86-1.09-0.9-1.8c-0.18-2.68,3.65-6.63,5.15-8.07l-2.76-0.37l0.11-0.41c0.04-0.15,4.32-15.4,15.34-22.26
				c10.47-6.52,35.17-23.22,37.27-24.64l0.23-1.82h14.01l4.15-10.57c-1.98,0.87-6.91,3.15-8.18,4.73l-0.76,0.95l0.09-1.22
				c0.01-0.13,1.08-13.46,4.39-21.32l0.07-0.11l11.9-12.75L253.6,93.8c1.17-1.25,6.04-6.02,13.26-7.32
				c8.22-1.47,12.04,2.65,12.2,2.82l0.06,0.09l2.47,5.35l4.42,4.53l-0.54,0.52l-4.54-4.68l-2.47-5.35c-0.4-0.4-4.1-3.88-11.47-2.55
				c-7.88,1.41-13.04,7.3-13.09,7.36l-0.26,0.3l-11.45-10.82l-11.34,12.15c-2.72,6.51-3.9,16.8-4.22,20.03
				c2.48-2.03,8.26-4.46,8.54-4.57l0.82-0.34l-4.99,12.7h-13.85l-0.19,1.5l-0.14,0.1c-0.26,0.18-26.54,17.96-37.44,24.75
				c-9.76,6.07-14.13,18.94-14.89,21.41l3.49,0.46l-0.61,0.54c-0.06,0.05-5.68,5.11-5.49,8.01c0.03,0.51,0.25,0.93,0.65,1.28
				c1.31,1.14,4.11,1.11,4.82,1.08l6.65-8.73l0.17-0.01c0.06,0,6.51-0.44,8.46-2.97c2.2-2.86,3.43-3.06,7-3.26
				c3.35-0.19,11.17-5.16,15.3-8.64c3.97-3.35,16.87-6.4,17.41-6.52l0.56-0.13l-2.05,11.19l-0.42-0.15
				c-5.05-1.8-14.13,0.61-16.04,1.15l4.61,15.51h-25.49v1.04h-5.91C168.31,185.72,161.05,200.42,160.97,200.57z"/>
		</g>
	</g>
	<g>
		<g>
			<path d="M285.75,106.35c-1.98,0-3.6-1.61-3.6-3.6s1.61-3.6,3.6-3.6c1.98,0,3.6,1.61,3.6,3.6S287.73,106.35,285.75,106.35z
				 M285.75,99.91c-1.57,0-2.85,1.28-2.85,2.85s1.28,2.85,2.85,2.85c1.57,0,2.85-1.28,2.85-2.85S287.32,99.91,285.75,99.91z"/>
		</g>
	</g>
	<g>
		<g>
			<path d="M384.16,233.87l-0.66-0.36c0.35-0.66,0.17-0.96,0.11-1.06c-0.48-0.77-2.56-0.98-3.77-0.94
				c-0.17,0.01-0.33-0.11-0.38-0.28c-0.04-0.17,0.04-0.35,0.2-0.43c1.07-0.53,1.56-1.25,1.47-2.12c-0.16-1.42-1.67-2.71-2.01-2.79
				c-0.1-0.02-0.22-0.12-0.27-0.21c-0.24-0.42,0.09-1.69,1.63-6.95c1.68-5.74,4.49-15.34,3.41-16.9c-1.06-1.53-1.31-3.03-0.68-4.12
				c0.52-0.9,1.58-1.35,2.89-1.25c1.5,0.12,6.06-0.16,10.48-0.43c3.48-0.21,6.76-0.41,8.41-0.41c3.57,0,15.55-4.32,22.52-7.25
				c6.19-2.6,62.3-23.84,66.13-25.29l1.2-7.24c-3.93-2.54-11.52-7.19-13.4-7.5c-1.94-0.33-12.98,3.78-17.06,5.38
				c-0.11,0.04-0.24,0.03-0.34-0.03c-0.1-0.06-0.17-0.17-0.17-0.29l-0.42-5.82c-0.01-0.17,0.09-0.32,0.24-0.38
				c0.07-0.02,6.62-2.5,9.65-5.33c2.73-2.55,7.21-3.46,8.55-3.69l-0.56-3.25c-0.03-0.2,0.09-0.39,0.29-0.43
				c4.76-1.03,12.55-2.83,13.16-3.26c0.28-0.21-0.11-1.83-0.82-3.42l-36.91,9.28c-0.11,0.03-0.24,0-0.33-0.07s-0.14-0.19-0.14-0.3
				c0.01-0.4-0.18-0.78-0.59-1.16c-5.6-5.18-43.71-5.06-62.21-3.03c-6.49,0.71-13.33,1.68-19.95,2.62
				c-14.55,2.06-29.59,4.19-41.21,3.62c-12.89-0.64-31.36-7.79-41.29-11.64c-3.13-1.21-5.6-2.17-6.82-2.51
				c-1.39-0.39-2.35-0.34-2.77,0.13c-0.59,0.67-0.13,2.16,0.09,2.68c0.06,0.15,0.02,0.33-0.1,0.43c-0.12,0.11-0.3,0.12-0.44,0.03
				c-0.06-0.04-6.31-3.95-15.97-6.61c-9.6-2.64-21.62,2.02-21.74,2.07c-0.04,0.02-0.09,0.03-0.14,0.03h-4.99
				c-0.12,0-0.23-0.05-0.3-0.15c-0.07-0.09-0.09-0.21-0.06-0.33l3.74-13.51c0.05-0.18,0.22-0.3,0.41-0.27
				c0.07,0.01,7.14,0.98,10.84-2.17c1.45-1.24,2.21-2.97,2.25-5.15c0-0.09,0.04-0.18,0.1-0.25l8.32-8.94
				c0.12-0.13,0.31-0.16,0.46-0.07c2.86,1.67,7.77,4.31,8.75,4.31c1.49,0,8.4,4.64,9.77,5.57l-0.42,0.62
				c-3.1-2.1-8.38-5.44-9.35-5.44c-1.4,0-7.39-3.41-8.87-4.27l-8.02,8.62c-0.07,2.34-0.92,4.21-2.51,5.57
				c-3.53,3.01-9.61,2.55-11.1,2.39l-3.52,12.73h4.43c1-0.38,12.68-4.67,22.14-2.07c7.71,2.12,13.28,5.04,15.32,6.2
				c-0.18-0.77-0.26-1.82,0.34-2.5c0.63-0.72,1.82-0.85,3.53-0.37c1.26,0.35,3.62,1.27,6.89,2.54c9.89,3.83,28.29,10.96,41.05,11.59
				c11.55,0.57,26.56-1.56,41.07-3.61c6.63-0.94,13.48-1.91,19.98-2.62c18.21-2,56.83-2.3,62.8,3.22c0.42,0.39,0.69,0.81,0.79,1.26
				l36.79-9.25c0.18-0.05,0.35,0.04,0.43,0.2c0.54,1.15,1.69,3.89,0.72,4.62c-0.81,0.61-10.39,2.73-13.1,3.32l0.56,3.28
				c0.02,0.1-0.01,0.2-0.07,0.29c-0.06,0.08-0.15,0.14-0.25,0.15c-0.05,0.01-5.53,0.76-8.53,3.55c-2.82,2.63-8.35,4.88-9.63,5.38
				l0.36,5.04c2.84-1.11,14.65-5.63,16.98-5.24c2.54,0.42,13.43,7.45,13.89,7.75c0.12,0.08,0.19,0.23,0.17,0.38l-1.27,7.69
				c-0.02,0.13-0.11,0.24-0.24,0.29c-0.6,0.23-59.95,22.69-66.31,25.36c-5.46,2.29-18.78,7.31-22.81,7.31c-1.63,0-4.9,0.2-8.37,0.41
				c-4.44,0.27-9.04,0.54-10.58,0.43c-1.04-0.08-1.81,0.23-2.18,0.88c-0.47,0.81-0.23,2.05,0.65,3.32
				c1.19,1.72-0.79,8.96-3.31,17.54c-0.8,2.74-1.63,5.58-1.68,6.31c0.76,0.38,2.19,1.79,2.36,3.35c0.07,0.63-0.06,1.45-0.86,2.19
				c1.12,0.08,2.67,0.37,3.23,1.27C384.56,232.57,384.54,233.18,384.16,233.87z"/>
		</g>
	</g>
	<g>
		<g>
			<rect x="254.5" y="97.66" transform="matrix(0.8178 -0.5756 0.5756 0.8178 -8.8472 168.1295)" width="13.14" height="0.75"/>
		</g>
	</g>
	<g>
		<g>
			<polygon points="257.89,103.24 256.43,101.32 257.03,100.87 258.09,102.27 269.64,95.7 270.01,96.36 			"/>
		</g>
	</g>
	<g>
		<g>
			<path d="M271.77,111.31c-0.05,0-0.11-0.01-0.16-0.02c-0.55-0.14-0.72-0.84-0.99-1.9c-0.32-1.28-0.76-3.03-1.99-3.7
				c-1.58-0.85-5.11-0.64-9.96,0.61l-0.16,0.04c-0.21,0.05-0.41,0-0.57-0.14c-0.6-0.53-0.41-2.62-0.31-3.49l0.74,0.09
				c-0.15,1.23-0.13,2.47,0.03,2.79l0.08-0.02c3.56-0.91,8.27-1.75,10.51-0.54c1.53,0.83,2.01,2.76,2.37,4.18
				c0.13,0.51,0.3,1.21,0.45,1.35c0.01-0.02,0.1-0.07,0.26-0.25c0.62-0.69,0.67-2.04,0.15-3.42c-0.62-1.63-2.18-3.47-4.69-3.76
				c-4.79-0.54-5.32-2.79-5.34-2.88l0.73-0.16c0,0.02,0.5,1.82,4.69,2.3c2.84,0.32,4.6,2.4,5.31,4.23c0.64,1.67,0.53,3.27-0.29,4.18
				C272.42,111.03,272.12,111.31,271.77,111.31z"/>
		</g>
	</g>
	<g>
		<g>
			<path d="M377.27,250.92l-23.14-8.4c-0.15-0.06-0.25-0.2-0.25-0.36l0.62-26.66l-3-3.01c-0.11-0.11-0.14-0.28-0.07-0.43l5.61-11.81
				c0.06-0.13,0.19-0.21,0.34-0.21h2.5c0.13,0,0.25,0.07,0.32,0.18c0.07,0.11,0.08,0.25,0.02,0.36l-5.16,10.7v1.15l7.48-6.72
				l2.55-1.59c0.12-0.07,0.26-0.08,0.38-0.01c0.12,0.07,0.19,0.19,0.19,0.33v2.6c0,0.15-0.09,0.29-0.23,0.35
				c-2.35,0.97-4.45,2.2-4.48,2.64c0.03,0.03,0.45,0.47,4.31,0.17c0.1-0.01,0.21,0.03,0.28,0.1c0.08,0.07,0.12,0.17,0.12,0.28v1.66
				c0,0.14-0.08,0.27-0.2,0.33c-1.82,0.95-3.36,2.19-3.24,2.59c0.01,0.03,0.26,0.68,4.6,0.24c0.11-0.01,0.21,0.02,0.29,0.09
				c0.08,0.07,0.12,0.17,0.12,0.28v2.34c0,0.17-0.11,0.32-0.28,0.36c-1.41,0.38-2.76,0.93-3.05,1.24c0.17,0.11,0.8,0.35,2.97,0.47
				c0.2,0.01,0.35,0.18,0.35,0.37v1.49c0,0.15-0.09,0.28-0.22,0.34c-0.01,0.01-1.49,0.69-1.57,1.73c-0.07,0.84,0.85,1.64,1.63,2.16
				c0.1,0.07,0.17,0.19,0.17,0.31v10.41l11.75,8.05l-0.42,0.62l-11.91-8.16c-0.1-0.07-0.16-0.19-0.16-0.31v-10.41
				c-1.26-0.89-1.87-1.8-1.79-2.73c0.1-1.19,1.29-1.96,1.79-2.24v-0.91c-2.7-0.18-3.31-0.57-3.36-1.11
				c-0.07-0.67,1.06-1.33,3.36-1.97v-1.64c-4.04,0.37-4.8-0.2-4.98-0.81c-0.35-1.16,2.12-2.67,3.41-3.36v-1.03
				c-3.88,0.27-4.56-0.22-4.69-0.79c-0.27-1.12,2.72-2.57,4.69-3.4v-1.67l-1.92,1.2l-8.06,7.24c-0.11,0.1-0.27,0.12-0.4,0.06
				c-0.14-0.06-0.22-0.19-0.22-0.34v-2.08c0-0.06,0.01-0.11,0.04-0.16l4.94-10.24h-1.66l-5.4,11.36l2.93,2.93
				c0.07,0.07,0.11,0.17,0.11,0.27l-0.62,26.55l22.89,8.31L377.27,250.92z"/>
		</g>
	</g>
	<g>
		<g>
			<path d="M371.53,278.9c-1.71,0-3.42-0.05-4.73-0.19c-3.75-0.41-9.4-10.27-10.28-11.83c-4.84-0.01-85.73-0.22-98.95-0.01
				c-13.6,0.2-28.45-1.83-28.6-1.85l0.1-0.74c0.15,0.02,14.95,2.06,28.49,1.84c13.57-0.21,98.33,0.01,99.18,0.01
				c0.14,0,0.26,0.07,0.33,0.19c1.72,3.13,6.82,11.32,9.81,11.64c3.76,0.41,11.3,0,11.38,0l0.04,0.75
				C378.09,278.72,374.83,278.9,371.53,278.9z"/>
		</g>
	</g>
	<g>
		<g>
			<path d="M253,228.4c-0.03,0-0.07,0-0.1-0.01c-0.13-0.04-0.24-0.15-0.27-0.28l-0.77-3.65h-3.65c-0.1,0-0.2-0.04-0.28-0.12
				c-5.88-6.38-17.44-18.69-19.09-19.57c-1.42-0.76-1.62-1.79-1.61-2.34c0.01-0.96,0.63-1.86,1.62-2.34
				c1.24-0.61,8.83-6.79,12.67-9.97c0.07-0.06,0.16-0.1,0.26-0.09l4.78,0.21c0.1,0,0.2,0.05,0.27,0.13s0.1,0.18,0.09,0.28l-1,9.47
				l2.01,0.44c0.49-2.21,3.03-13.78,3.03-15.98c0-2.43,2.49-4.53,6.82-5.77c3.62-1.03,26.91-5.04,27.9-5.21
				c0.2-0.03,0.38,0.09,0.43,0.28s-0.06,0.39-0.25,0.45l-12.62,4.09l-0.96,3.75c-0.03,0.12-0.12,0.22-0.25,0.26
				c-19.28,6.29-21.2,13.04-18.05,24.07c3.2,11.2,23.3,8.8,23.5,8.77c0.19-0.03,0.37,0.1,0.41,0.3c0.04,0.19-0.07,0.38-0.26,0.44
				c-0.06,0.02-6.13,1.78-12.19,2.46c-5.68,0.63-5.84,5.81-5.84,6.03c0,0.1-0.05,0.2-0.12,0.27c-0.08,0.07-0.18,0.1-0.28,0.1
				c-2.47-0.19-5.9,3.38-5.94,3.42C253.2,228.35,253.1,228.4,253,228.4z M248.38,223.7h3.79c0.18,0,0.33,0.12,0.37,0.3l0.69,3.28
				c1.04-0.98,3.5-3.08,5.67-3.16c0.15-1.33,1.06-5.78,6.48-6.38c2.96-0.33,5.92-0.92,8.17-1.44c-6.27,0.12-17.79-0.88-20.27-9.57
				c-3.27-11.46-1.33-18.47,18.34-24.93l0.96-3.75c0.03-0.12,0.13-0.22,0.25-0.26l7.79-2.53c-7.33,1.28-20.08,3.56-22.62,4.28
				c-3.93,1.12-6.28,3.01-6.28,5.05c0,2.51-3,15.94-3.13,16.51c-0.04,0.2-0.24,0.33-0.45,0.28l-2.7-0.59
				c-0.19-0.04-0.31-0.22-0.29-0.41l1-9.41l-4.24-0.18c-1.24,1.02-11.15,9.2-12.7,9.97c-0.72,0.36-1.19,1.02-1.2,1.68
				c-0.01,0.65,0.42,1.25,1.21,1.67C231.31,205.22,246.78,221.96,248.38,223.7z"/>
		</g>
	</g>
	<g>
		<g>
			<path d="M270.7,210.64c-3.03,0-6.24-0.48-8.64-2.06c-2.03-1.34-3.25-3.31-3.61-5.87c-0.66-4.64,0.22-8.16,2.61-10.46
				c2.8-2.69,7.64-3.56,13.63-2.44l3.05-0.01c0.18,0,0.34,0.13,0.37,0.31l1.87,10.23c0.03,0.19-0.08,0.37-0.26,0.43l-1.54,0.48
				l1.79,7.77c0.05,0.2-0.07,0.39-0.27,0.45C279.43,209.54,275.28,210.64,270.7,210.64z M269.88,190.09c-3.58,0-6.44,0.92-8.3,2.71
				c-2.21,2.12-3.02,5.42-2.39,9.81c0.33,2.34,1.44,4.14,3.28,5.35c5.18,3.41,14.75,1.34,16.69,0.87l-1.79-7.75
				c-0.04-0.19,0.07-0.38,0.25-0.44l1.55-0.49l-1.75-9.59h-2.81C272.94,190.24,271.35,190.09,269.88,190.09z"/>
		</g>
	</g>
	<g>
		<g>
			<path d="M329.3,246.07h-9.29l0.47-0.6c2.79-3.59,4.07-12.19,1.61-18.34c-2.38-5.94-12.87-6.62-12.98-6.63l-0.24-0.01l-0.09-0.22
				c-0.85-2.08-2.15-3.33-3.88-3.72c-5.21-1.17-12.7,5.69-12.78,5.76c-10.04,6.22-6.52,13.23-6.1,13.99
				c0.65,0.51,6.76,5.21,11.78,6.75c5.17,1.59,15.38-5.29,15.48-5.36l0.5-0.34l1.18,8.72H261v-0.75h53.11l-0.9-6.68
				c-2.18,1.41-10.73,6.63-15.62,5.12c-5.41-1.66-11.81-6.71-12.08-6.93l-0.09-0.1c-0.05-0.08-4.74-8.23,6.26-15.03
				c0.26-0.25,7.8-7.14,13.39-5.89c1.92,0.43,3.37,1.75,4.32,3.95c1.65,0.13,11.02,1.14,13.4,7.08c2.49,6.24,1.34,14.45-1.29,18.48
				h7.38l4.16-6.55h2.32c0.87-1.06,6.75-8.56,5.62-17.77l-0.06-0.45l0.45,0.03c0.05,0,5.34,0.41,5.34,4.91
				c0,4.24-8.02,19.72-8.36,20.38l-0.67-0.35c0.08-0.16,8.27-15.98,8.27-20.04c0-3.13-3.02-3.92-4.19-4.1
				c0.98,10.01-5.89,17.93-5.96,18.01l-0.11,0.13h-2.25L329.3,246.07z"/>
		</g>
	</g>
	<g>
		<g>
			<rect x="347.69" y="233.45" transform="matrix(0.3285 -0.9445 0.9445 0.3285 7.0272 489.8973)" width="0.75" height="13.11"/>
		</g>
	</g>
	<g>
		<g>
			<path d="M360.22,200.53l-0.71-0.25l0.65-1.82h-9.86c-0.16,0-0.31-0.1-0.36-0.26s0-0.32,0.13-0.42c4.46-3.3,11.75-3.58,13.11-3.61
				l0.57-0.92h-22.82c-11.11,0-13.73-6.12-14.27-8c-0.72-2.52-0.14-5.05,1.39-6l0.45-0.28c3.01-1.89,5-3.14,13.3-4.34
				c8.33-1.21,26.8-9.79,33.22-14.28c5.15-3.6,43.69-14.52,58.15-18.53c-23.54,3.87-67.3,18.03-76.92,21.82
				c-10.84,4.27-19.98,4.58-23.29,0.8c-2.12-2.42-29.07-19.24-42.76-27.71l32.46,23.84c0.12,0.09,0.17,0.23,0.15,0.38
				c-0.03,0.14-0.14,0.26-0.28,0.29l-49.51,11.85c-0.15,0.04-0.31-0.02-0.4-0.15l-1.43-2.08c-0.04-0.05-0.06-0.11-0.06-0.18
				l-1.66-17.25c-0.39-0.22-1.19-0.82-2.43-2.53c-1.71-2.35-2-8.65-2.01-8.92c-0.01-0.15,0.08-0.29,0.22-0.36
				c1.94-0.89,2.95-1.88,2.99-2.95c0.07-1.95-2.98-3.66-3.01-3.67c-0.12-0.07-0.19-0.19-0.19-0.33v-4.16
				c-0.2-2.13-6.87-4.21-9.42-4.83c-0.19-0.05-0.32-0.24-0.28-0.43l0.98-5.13l0.74,0.14l-0.91,4.78c1.9,0.49,9.38,2.58,9.65,5.44
				l0,3.98c0.74,0.45,3.28,2.15,3.2,4.25c-0.05,1.33-1.12,2.5-3.19,3.5c0.07,1.19,0.45,6.34,1.85,8.26
				c1.51,2.08,2.28,2.35,2.28,2.36c0.14,0.05,0.25,0.18,0.27,0.32l1.67,17.37l1.23,1.79l48.47-11.6l-39.27-28.84
				c-0.16-0.12-0.2-0.34-0.09-0.51c0.11-0.17,0.33-0.22,0.51-0.11c1.95,1.2,47.9,29.38,50.82,32.71c2.53,2.9,10.46,3.71,22.45-1.01
				c10.47-4.12,61.17-20.47,82.64-22.61c0.2-0.03,0.37,0.11,0.41,0.3c0.04,0.19-0.08,0.38-0.27,0.43
				c-0.57,0.16-57.18,15.63-63.3,19.9c-6.47,4.53-25.12,13.19-33.54,14.41c-8.14,1.18-9.97,2.33-13.01,4.24l-0.46,0.29
				c-1.23,0.77-1.69,2.99-1.06,5.16c0.5,1.75,2.96,7.46,13.55,7.46h23.49c0.14,0,0.26,0.07,0.33,0.19s0.06,0.26-0.01,0.38
				l-1.04,1.66c-0.07,0.11-0.19,0.18-0.32,0.18c-0.08,0-7.13,0.04-11.84,2.78h9.14c0.12,0,0.24,0.06,0.31,0.16s0.09,0.23,0.05,0.34
				L360.22,200.53z"/>
		</g>
	</g>
	<g>
		<g>
			<path d="M354.95,211.43l-0.55-0.51l9.36-10.19c0.1-0.11,0.27-0.15,0.41-0.1l2.58,0.95c2.17-2.36,24.38-26.17,43.29-34.83
				c19.75-9.05,53.35-19.46,53.69-19.56l0.22,0.72c-0.34,0.1-33.89,10.49-53.59,19.53c-19.66,9.01-42.98,34.58-43.22,34.84
				c-0.1,0.11-0.27,0.15-0.41,0.1l-2.58-0.95L354.95,211.43z"/>
		</g>
	</g>
	<g>
		<g>
			<path d="M454.46,169.77c-0.11,0-0.22-0.05-0.3-0.15c-0.1-0.14-0.1-0.32,0-0.46l13.69-17.5l0.59,0.46l-12.79,16.36
				c5.13-2.17,23.05-9.65,25.63-9.65c2.9,0,12.77,1.38,13.18,1.44l-0.1,0.74c-0.1-0.01-10.23-1.43-13.08-1.43
				c-2.24,0-18.43,6.64-26.67,10.16C454.56,169.76,454.51,169.77,454.46,169.77z"/>
		</g>
	</g>
</g>
<g>
	<g>
		<g>
			<path d="M463.38,875.79c-33.48,0-60.72-27.24-60.72-60.72s27.24-60.72,60.72-60.72c33.48,0,60.72,27.24,60.72,60.72
				S496.86,875.79,463.38,875.79z M463.38,755.1c-33.07,0-59.97,26.9-59.97,59.97s26.9,59.97,59.97,59.97s59.97-26.9,59.97-59.97
				S496.44,755.1,463.38,755.1z"/>
		</g>
	</g>
	<g>
		<g>
			<path d="M463.38,857.55c-23.42,0-42.48-19.05-42.48-42.48s19.06-42.48,42.48-42.48s42.48,19.05,42.48,42.48
				S486.8,857.55,463.38,857.55z M463.38,773.35c-23.01,0-41.73,18.72-41.73,41.73s18.72,41.73,41.73,41.73
				c23.01,0,41.73-18.72,41.73-41.73S486.38,773.35,463.38,773.35z"/>
		</g>
	</g>
	<g>
		<g>
			<path d="M197.87,876.11c-32.31,0-58.59-26.28-58.59-58.59s26.28-58.59,58.59-58.59s58.59,26.28,58.59,58.59
				S230.18,876.11,197.87,876.11z M197.87,759.68c-31.89,0-57.84,25.95-57.84,57.84c0,31.89,25.95,57.84,57.84,57.84
				s57.84-25.95,57.84-57.84C255.71,785.63,229.77,759.68,197.87,759.68z"/>
		</g>
	</g>
	<g>
		<g>
			<path d="M197.87,858.51c-22.6,0-40.99-18.39-40.99-40.99c0-22.6,18.39-40.99,40.99-40.99s40.99,18.39,40.99,40.99
				C238.86,840.12,220.48,858.51,197.87,858.51z M197.87,777.28c-22.19,0-40.24,18.05-40.24,40.24c0,22.19,18.05,40.24,40.24,40.24
				s40.24-18.05,40.24-40.24C238.11,795.33,220.06,777.28,197.87,777.28z"/>
		</g>
	</g>
	<g>
		<g>
			<path d="M386.5,815.45c-2.48,0-29.43-1.35-30.58-1.4l-1.53-0.08l1.39-0.64c2.04-0.93,7.42-3.77,7.9-5.68l0.08-0.32l0.32,0.03
				c0.18,0.02,17.98,1.73,26.18-8.59c8.29-10.43,23.27-23.1,29.73-26.15l0.32,0.68c-6.38,3.02-21.23,15.58-29.46,25.94
				c-7.85,9.89-24.13,9.07-26.54,8.9c-0.82,1.94-4.75,4.14-6.89,5.23c5.8,0.29,26.95,1.33,29.08,1.33c1.96,0,12.95-6.59,17.03-9.13
				l0.4,0.64C402.41,807.15,389.03,815.45,386.5,815.45z"/>
		</g>
	</g>
	<g>
		<g>
			<path d="M371.22,800.95h-0.61l0.27-0.54c0.08-0.16,1.98-3.91,4.93-4.56c2.79-0.62,3.73-1.78,3.45-4.27l-0.02-0.18l4.01-4.01
				l3.12,0.62l26.79-27.1h4.03l1.27-1.61l-1.22-1.74l0.12-0.21c0.04-0.07,3.79-6.69,3.54-16.85l-0.01-0.38h19.71l-0.09,0.45
				c-0.4,2.04-1.18,7.63-0.07,9.05c1.43,1.83,3.01,6.12,2.34,8.94l-0.73-0.17c0.56-2.37-0.73-6.41-2.21-8.31
				c-1.35-1.74-0.47-7.46-0.16-9.21h-18.03c0.14,9.15-2.89,15.43-3.53,16.65l1.27,1.81l-1.84,2.33h-4.08l-26.85,27.17l-3.12-0.62
				l-3.47,3.47c0.25,2.75-0.97,4.22-4.05,4.91c-1.96,0.43-3.47,2.56-4.1,3.6c1.29-0.07,4.24-0.36,6.99-1.5
				c2.07-0.86,11.29-9.64,18.7-16.7c7.7-7.33,10.91-10.33,11.61-10.49c1.59-0.35,11.67-0.02,12.1-0.01l-0.03,0.75
				c-3.6-0.12-10.71-0.27-11.91-0.01c-0.7,0.25-6.06,5.36-11.25,10.3c-7.84,7.47-16.74,15.93-18.93,16.85
				C375.39,800.93,371.39,800.95,371.22,800.95z"/>
		</g>
	</g>
	<g>
		<g>
			<path d="M471.25,755.45c-0.07-0.15-7.34-14.86-16.63-18.96h-5.91v-1.04h-25.49l4.61-15.51c-1.91-0.54-10.99-2.95-16.04-1.15
				l-0.42,0.15l-2.05-11.19l0.56,0.13c0.55,0.13,13.44,3.18,17.41,6.52c4.13,3.48,11.95,8.45,15.3,8.65c3.57,0.2,4.81,0.41,7,3.26
				c1.95,2.54,8.39,2.97,8.46,2.97l0.17,0.01l6.65,8.73c0.71,0.03,3.51,0.06,4.82-1.08c0.4-0.35,0.61-0.77,0.65-1.28
				c0.19-2.9-5.43-7.96-5.49-8.01l-0.61-0.54l3.49-0.47c-0.76-2.47-5.13-15.33-14.89-21.41c-10.9-6.79-37.17-24.57-37.44-24.75
				l-0.14-0.1l-0.19-1.5h-13.85l-4.99-12.7l0.82,0.34c0.27,0.11,6.06,2.54,8.54,4.57c-0.32-3.23-1.5-13.52-4.22-20.03l-11.34-12.15
				l-11.45,10.82l-0.26-0.3c-0.05-0.06-5.21-5.95-13.09-7.36c-7.4-1.33-11.07,2.14-11.47,2.55l-2.54,5.45l-4.47,4.57l-0.54-0.52
				l4.42-4.53l2.53-5.44c0.16-0.18,3.98-4.3,12.2-2.82c7.22,1.29,12.09,6.07,13.26,7.32l11.43-10.81l11.97,12.86
				c3.31,7.87,4.38,21.19,4.39,21.32l0.09,1.22l-0.76-0.95c-1.27-1.58-6.2-3.86-8.18-4.73l4.15,10.57h14l0.23,1.82
				c2.1,1.42,26.8,18.12,37.27,24.64c11.02,6.86,15.3,22.11,15.34,22.26l0.11,0.41l-2.76,0.37c1.5,1.44,5.33,5.39,5.15,8.08
				c-0.05,0.71-0.35,1.32-0.9,1.8c-1.73,1.51-5.37,1.26-5.53,1.25l-0.17-0.01l-6.65-8.73c-1.09-0.09-6.84-0.66-8.83-3.25
				c-2.01-2.61-3-2.77-6.45-2.97c-3.64-0.21-11.61-5.35-15.74-8.82c-3.38-2.85-13.98-5.6-16.54-6.23l1.69,9.2
				c5.94-1.81,16.02,1.25,16.45,1.38l0.35,0.11l-4.54,15.26h25.24v1.04l5.39,0.03c9.58,4.17,16.78,18.73,17.08,19.34L471.25,755.45z
				"/>
		</g>
	</g>
	<g>
		<g>
			<path d="M346.48,661.23c-1.98,0-3.6-1.61-3.6-3.6s1.61-3.6,3.6-3.6s3.6,1.61,3.6,3.6S348.46,661.23,346.48,661.23z
				 M346.48,654.79c-1.57,0-2.85,1.28-2.85,2.85s1.28,2.85,2.85,2.85s2.85-1.28,2.85-2.85S348.05,654.79,346.48,654.79z"/>
		</g>
	</g>
	<g>
		<g>
			<path d="M248.06,788.75c-0.37-0.69-0.4-1.3-0.08-1.81c0.56-0.9,2.12-1.19,3.23-1.27c-0.8-0.74-0.93-1.56-0.86-2.19
				c0.17-1.56,1.6-2.97,2.36-3.35c-0.05-0.73-0.88-3.56-1.68-6.31c-2.51-8.58-4.5-15.82-3.31-17.54c0.87-1.26,1.12-2.5,0.65-3.32
				c-0.37-0.65-1.14-0.96-2.18-0.88c-1.54,0.12-6.14-0.16-10.58-0.43c-3.47-0.21-6.74-0.41-8.37-0.41c-4.03,0-17.35-5.02-22.81-7.31
				c-6.37-2.67-65.71-25.13-66.31-25.36c-0.12-0.05-0.22-0.16-0.24-0.29l-1.27-7.69c-0.02-0.15,0.04-0.29,0.17-0.38
				c0.46-0.3,11.35-7.33,13.89-7.75c2.35-0.38,14.14,4.13,16.98,5.24l0.36-5.04c-1.28-0.5-6.81-2.75-9.63-5.38
				c-2.99-2.79-8.47-3.54-8.52-3.55c-0.1-0.01-0.19-0.07-0.25-0.15s-0.08-0.19-0.07-0.29l0.56-3.28c-2.72-0.59-12.29-2.71-13.1-3.32
				c-0.97-0.73,0.18-3.47,0.72-4.62c0.08-0.16,0.26-0.25,0.43-0.2l36.8,9.25c0.1-0.44,0.36-0.87,0.79-1.26
				c5.98-5.52,44.6-5.22,62.81-3.22c6.5,0.71,13.35,1.69,19.98,2.62c14.51,2.06,29.52,4.18,41.07,3.61
				c12.76-0.63,31.16-7.76,41.05-11.59c3.27-1.27,5.64-2.18,6.9-2.54c1.71-0.48,2.9-0.36,3.53,0.37c0.6,0.69,0.52,1.74,0.34,2.5
				c2.04-1.16,7.61-4.08,15.32-6.19c9.46-2.6,21.14,1.69,22.14,2.06h4.43l-3.52-12.73c-1.49,0.17-7.57,0.62-11.1-2.39
				c-1.59-1.36-2.44-3.23-2.51-5.57l-8.02-8.62c-1.48,0.86-7.47,4.27-8.87,4.27c-0.98,0-6.25,3.34-9.35,5.45l-0.42-0.62
				c1.37-0.93,8.28-5.57,9.77-5.57c0.99,0,5.89-2.65,8.75-4.32c0.15-0.09,0.34-0.06,0.46,0.07l8.32,8.94
				c0.06,0.07,0.1,0.16,0.1,0.25c0.04,2.18,0.79,3.92,2.25,5.15c3.7,3.15,10.77,2.18,10.84,2.17c0.19-0.03,0.36,0.09,0.42,0.27
				l3.74,13.51c0.03,0.11,0.01,0.23-0.06,0.33c-0.07,0.09-0.18,0.15-0.3,0.15h-4.99c-0.05,0-0.09-0.01-0.14-0.03
				c-0.12-0.05-12.14-4.7-21.74-2.07c-9.66,2.65-15.91,6.57-15.97,6.61c-0.14,0.09-0.32,0.08-0.44-0.03s-0.17-0.28-0.1-0.43
				c0.22-0.52,0.68-2.01,0.09-2.68c-0.42-0.48-1.37-0.53-2.76-0.13c-1.22,0.34-3.7,1.3-6.83,2.51c-9.92,3.84-28.4,11-41.28,11.64
				c-11.63,0.57-26.67-1.56-41.21-3.62c-6.62-0.94-13.47-1.91-19.95-2.62c-18.51-2.04-56.61-2.16-62.21,3.03
				c-0.41,0.38-0.61,0.76-0.59,1.16c0,0.12-0.05,0.23-0.14,0.3c-0.09,0.07-0.21,0.1-0.33,0.07l-36.91-9.28
				c-0.71,1.59-1.1,3.21-0.82,3.42c0.62,0.43,8.4,2.23,13.16,3.26c0.2,0.04,0.32,0.23,0.29,0.43l-0.56,3.25
				c1.34,0.22,5.82,1.14,8.55,3.68c3.03,2.83,9.58,5.3,9.65,5.33c0.16,0.06,0.25,0.21,0.24,0.38l-0.42,5.82
				c-0.01,0.12-0.07,0.23-0.17,0.29c-0.1,0.06-0.23,0.08-0.34,0.03c-4.08-1.61-15.08-5.71-17.06-5.38c-1.88,0.31-9.46,4.97-13.4,7.5
				l1.2,7.24c3.84,1.45,59.94,22.7,66.13,25.29c6.97,2.92,18.94,7.25,22.52,7.25c1.65,0,4.94,0.2,8.41,0.41
				c4.42,0.26,8.99,0.54,10.48,0.43c1.32-0.1,2.38,0.35,2.89,1.25c0.62,1.09,0.38,2.59-0.68,4.12c-1.08,1.56,1.73,11.16,3.41,16.9
				c1.54,5.26,1.88,6.53,1.63,6.95c-0.05,0.09-0.17,0.18-0.27,0.21c-0.34,0.08-1.86,1.38-2.01,2.79c-0.1,0.87,0.4,1.58,1.47,2.12
				c0.16,0.08,0.24,0.26,0.2,0.43c-0.04,0.17-0.19,0.29-0.38,0.28c-1.21-0.05-3.29,0.17-3.77,0.95c-0.06,0.1-0.25,0.4,0.11,1.06
				L248.06,788.75z"/>
		</g>
	</g>
	<g>
		<g>
			<rect x="370.77" y="646.34" transform="matrix(0.576 -0.8175 0.8175 0.576 -376.3593 580.2608)" width="0.75" height="13.14"/>
		</g>
	</g>
	<g>
		<g>
			<polygon points="374.33,658.12 362.21,651.23 362.58,650.58 374.13,657.15 375.19,655.75 375.79,656.2 			"/>
		</g>
	</g>
	<g>
		<g>
			<path d="M360.46,666.18c-0.35,0-0.65-0.28-0.85-0.5c-0.81-0.92-0.92-2.52-0.29-4.18c0.7-1.84,2.46-3.91,5.3-4.23
				c4.19-0.48,4.68-2.28,4.69-2.3l0.73,0.16c-0.02,0.09-0.55,2.34-5.34,2.88c-2.5,0.28-4.06,2.13-4.69,3.76
				c-0.53,1.38-0.47,2.72,0.15,3.42c0.21,0.23,0.3,0.25,0.3,0.25c0.1-0.09,0.28-0.82,0.41-1.35c0.35-1.42,0.84-3.35,2.37-4.18
				c2.23-1.21,6.94-0.37,10.5,0.54l0.08,0.02c0.16-0.32,0.18-1.57,0.03-2.79l0.74-0.09c0.11,0.88,0.29,2.97-0.31,3.49
				c-0.16,0.14-0.37,0.19-0.57,0.14l-0.17-0.04c-4.85-1.25-8.39-1.46-9.96-0.61c-1.24,0.67-1.68,2.42-2,3.7
				c-0.27,1.06-0.44,1.76-0.99,1.9C360.56,666.18,360.51,666.18,360.46,666.18z"/>
		</g>
	</g>
	<g>
		<g>
			<path d="M254.96,805.79l-0.26-0.71l22.89-8.31l-0.62-26.55c0-0.1,0.04-0.2,0.11-0.27l2.93-2.93l-5.4-11.36h-1.66l4.94,10.24
				c0.02,0.05,0.04,0.11,0.04,0.16v2.08c0,0.15-0.09,0.28-0.22,0.34c-0.13,0.06-0.29,0.03-0.4-0.06l-8.11-7.28l-1.87-1.16v1.67
				c1.97,0.83,4.96,2.28,4.69,3.4c-0.14,0.57-0.81,1.06-4.69,0.79v1.03c1.29,0.69,3.76,2.2,3.41,3.36
				c-0.18,0.61-0.93,1.18-4.98,0.81v1.64c2.3,0.64,3.43,1.31,3.36,1.97c-0.06,0.54-0.66,0.93-3.36,1.11v0.91
				c0.5,0.28,1.69,1.05,1.79,2.24c0.08,0.93-0.53,1.84-1.79,2.73v10.41c0,0.12-0.06,0.24-0.16,0.31l-11.91,8.16l-0.42-0.62
				l11.75-8.05v-10.41c0-0.12,0.06-0.24,0.17-0.31c0.78-0.52,1.69-1.32,1.63-2.16c-0.08-1.02-1.56-1.72-1.57-1.73
				c-0.13-0.06-0.22-0.19-0.22-0.34v-1.49c0-0.2,0.16-0.36,0.35-0.37c2.17-0.12,2.8-0.36,2.97-0.47c-0.29-0.31-1.64-0.86-3.05-1.24
				c-0.16-0.04-0.28-0.19-0.28-0.36v-2.34c0-0.11,0.04-0.21,0.12-0.28c0.08-0.07,0.19-0.1,0.29-0.09c4.34,0.44,4.59-0.21,4.6-0.24
				c0.12-0.4-1.42-1.63-3.24-2.59c-0.12-0.06-0.2-0.19-0.2-0.33v-1.66c0-0.1,0.04-0.2,0.12-0.28c0.08-0.07,0.18-0.11,0.28-0.1
				c3.86,0.3,4.28-0.14,4.32-0.2c-0.04-0.41-2.14-1.65-4.49-2.62c-0.14-0.06-0.23-0.19-0.23-0.35v-2.59c0-0.14,0.07-0.26,0.19-0.33
				c0.12-0.07,0.27-0.06,0.38,0.01l2.5,1.56l7.54,6.75v-1.15l-5.16-10.7c-0.06-0.12-0.05-0.25,0.02-0.36
				c0.07-0.11,0.19-0.18,0.32-0.18h2.49c0.14,0,0.28,0.08,0.34,0.21l5.61,11.81c0.07,0.14,0.04,0.31-0.07,0.43l-3.01,3l0.62,26.66
				c0,0.16-0.1,0.31-0.25,0.36L254.96,805.79z"/>
		</g>
	</g>
	<g>
		<g>
			<path d="M260.69,833.77c-3.3,0-6.56-0.17-6.77-0.19l0.04-0.75c0.08,0,7.61,0.41,11.37,0c2.98-0.32,8.09-8.51,9.81-11.64
				c0.07-0.12,0.19-0.19,0.33-0.19c0.85,0,85.61-0.22,99.18-0.02c13.52,0.21,28.34-1.82,28.48-1.84l0.1,0.74
				c-0.15,0.02-15.02,2.06-28.6,1.85c-13.22-0.2-94.11,0-98.95,0.01c-0.88,1.57-6.53,11.43-10.28,11.83
				C264.12,833.73,262.4,833.77,260.69,833.77z"/>
		</g>
	</g>
	<g>
		<g>
			<path d="M379.22,783.27c-0.1,0-0.2-0.04-0.27-0.12c-0.03-0.04-3.44-3.61-5.94-3.42c-0.09,0.01-0.21-0.03-0.28-0.1
				c-0.08-0.07-0.12-0.17-0.12-0.27c0-0.22-0.16-5.4-5.84-6.03c-6.06-0.67-12.13-2.44-12.19-2.46c-0.19-0.05-0.3-0.24-0.26-0.44
				s0.22-0.32,0.41-0.3c0.2,0.03,20.3,2.43,23.5-8.78c3.15-11.03,1.23-17.79-18.05-24.07c-0.12-0.04-0.21-0.14-0.25-0.26l-0.96-3.75
				l-12.62-4.09c-0.19-0.06-0.29-0.25-0.25-0.45c0.05-0.19,0.23-0.32,0.43-0.28c0.99,0.17,24.28,4.17,27.9,5.21
				c4.34,1.24,6.82,3.34,6.82,5.77c0,2.2,2.54,13.77,3.03,15.98l2.01-0.44l-1-9.48c-0.01-0.1,0.02-0.21,0.09-0.28
				c0.07-0.08,0.16-0.12,0.27-0.13l4.78-0.21c0.1,0,0.18,0.03,0.26,0.09c3.84,3.18,11.43,9.36,12.67,9.97
				c0.98,0.49,1.6,1.38,1.62,2.34c0.01,0.55-0.19,1.59-1.61,2.34c-1.65,0.88-13.21,13.18-19.09,19.57
				c-0.07,0.08-0.17,0.12-0.28,0.12h-3.65l-0.77,3.65c-0.03,0.14-0.13,0.25-0.27,0.28C379.29,783.27,379.26,783.27,379.22,783.27z
				 M373.33,778.98c2.17,0.08,4.63,2.18,5.67,3.16l0.69-3.28c0.04-0.17,0.19-0.3,0.37-0.3h3.79c1.6-1.74,17.07-18.48,19.17-19.6
				c0.79-0.42,1.22-1.01,1.21-1.67c-0.01-0.67-0.48-1.33-1.2-1.68c-1.56-0.77-11.47-8.95-12.7-9.97l-4.24,0.18l1,9.41
				c0.02,0.19-0.11,0.37-0.29,0.41l-2.7,0.59c-0.2,0.04-0.4-0.08-0.45-0.28c-0.13-0.57-3.13-14-3.13-16.51
				c0-2.04-2.35-3.92-6.28-5.05c-2.53-0.72-15.29-3-22.62-4.28l7.79,2.53c0.12,0.04,0.21,0.14,0.25,0.26l0.96,3.75
				c19.67,6.46,21.62,13.47,18.34,24.93c-2.48,8.7-14.02,9.68-20.27,9.57c2.25,0.52,5.21,1.11,8.17,1.44
				C372.27,773.2,373.18,777.65,373.33,778.98z"/>
		</g>
	</g>
	<g>
		<g>
			<path d="M361.52,765.52c-4.58,0-8.72-1.1-9.01-1.18c-0.19-0.05-0.31-0.25-0.27-0.45l1.79-7.77l-1.54-0.48
				c-0.18-0.06-0.29-0.24-0.26-0.42l1.87-10.23c0.03-0.18,0.19-0.31,0.37-0.31h3.12c5.92-1.11,10.76-0.24,13.56,2.45
				c2.4,2.3,3.28,5.82,2.61,10.46c-0.37,2.56-1.58,4.54-3.61,5.87C367.76,765.04,364.55,765.52,361.52,765.52z M353.06,763.71
				c1.95,0.47,11.51,2.53,16.69-0.87c1.84-1.21,2.95-3.01,3.28-5.35c0.63-4.39-0.18-7.69-2.39-9.81c-2.62-2.52-7.23-3.31-12.97-2.25
				l-2.88,0l-1.75,9.59l1.55,0.49c0.19,0.06,0.3,0.25,0.25,0.44L353.06,763.71z"/>
		</g>
	</g>
	<g>
		<g>
			<path d="M371.22,800.95h-53.97l1.18-8.72l0.5,0.34c0.1,0.07,10.3,6.95,15.48,5.36c5.01-1.54,11.13-6.25,11.78-6.75
				c0.42-0.76,3.95-7.77-6.04-13.95c-0.13-0.11-7.63-6.96-12.83-5.8c-1.72,0.38-3.03,1.63-3.88,3.72l-0.09,0.22l-0.24,0.01
				c-0.11,0.01-10.6,0.68-12.98,6.63c-2.46,6.15-1.18,14.76,1.61,18.34l0.47,0.61h-9.29l-4.16-6.55h-2.25l-0.11-0.13
				c-0.07-0.08-6.95-8-5.96-18.01c-1.17,0.19-4.19,0.98-4.19,4.1c0,4.06,8.19,19.88,8.27,20.04l-0.67,0.35
				c-0.34-0.66-8.36-16.14-8.36-20.38c0-4.5,5.29-4.9,5.34-4.91l0.45-0.03l-0.06,0.45c-1.13,9.21,4.75,16.71,5.62,17.77h2.32
				l4.16,6.55h7.38c-2.62-4.03-3.78-12.24-1.29-18.48c2.38-5.94,11.75-6.95,13.4-7.08c0.95-2.2,2.4-3.52,4.32-3.95
				c5.59-1.24,13.13,5.64,13.45,5.94c10.94,6.76,6.25,14.9,6.2,14.99l-0.09,0.1c-0.27,0.21-6.67,5.26-12.08,6.93
				c-4.89,1.51-13.44-3.72-15.62-5.12l-0.9,6.68h53.11V800.95z"/>
		</g>
	</g>
	<g>
		<g>
			<rect x="277.61" y="794.51" transform="matrix(0.9447 -0.3279 0.3279 0.9447 -244.9424 137.1319)" width="13.11" height="0.75"/>
		</g>
	</g>
	<g>
		<g>
			<path d="M272.01,755.41l-0.83-2.33c-0.04-0.11-0.02-0.24,0.05-0.34s0.18-0.16,0.31-0.16h9.14c-4.71-2.75-11.77-2.78-11.84-2.78
				c-0.13,0-0.25-0.07-0.32-0.18l-1.04-1.66c-0.07-0.12-0.08-0.26-0.01-0.38c0.07-0.12,0.19-0.19,0.33-0.19h23.49
				c10.59,0,13.04-5.71,13.55-7.46c0.62-2.17,0.17-4.39-1.06-5.16l-0.45-0.29c-3.04-1.91-4.87-3.06-13.01-4.24
				c-8.42-1.22-27.06-9.88-33.54-14.41c-6.11-4.28-62.73-19.75-63.3-19.91c-0.19-0.05-0.31-0.24-0.27-0.43
				c0.04-0.19,0.21-0.32,0.41-0.3c21.47,2.15,72.17,18.49,82.64,22.61c11.99,4.72,19.91,3.91,22.45,1.01
				c2.92-3.33,48.86-31.52,50.82-32.71c0.17-0.11,0.4-0.06,0.51,0.11s0.07,0.39-0.09,0.51l-39.27,28.84l48.47,11.6l1.23-1.79
				l1.67-17.37c0.01-0.16,0.13-0.29,0.28-0.33l0,0c0,0,0.76-0.28,2.27-2.35c1.4-1.92,1.78-7.07,1.85-8.26
				c-2.07-1-3.14-2.17-3.19-3.5c-0.08-2.1,2.47-3.8,3.2-4.25v-3.94c0.27-2.89,7.74-4.99,9.65-5.48l-0.92-4.78l0.74-0.14l0.98,5.13
				c0.04,0.2-0.08,0.39-0.28,0.43c-2.55,0.62-9.22,2.7-9.42,4.87l0,4.12c0,0.14-0.07,0.26-0.19,0.33c-0.03,0.02-3.08,1.73-3.01,3.67
				c0.04,1.07,1.04,2.06,2.99,2.95c0.14,0.06,0.22,0.2,0.22,0.36c-0.01,0.27-0.3,6.57-2.01,8.92c-1.24,1.7-2.04,2.31-2.43,2.53
				l-1.66,17.25c-0.01,0.06-0.03,0.12-0.06,0.18l-1.43,2.08c-0.09,0.13-0.25,0.19-0.4,0.15l-49.51-11.85
				c-0.14-0.03-0.25-0.15-0.28-0.29c-0.03-0.14,0.03-0.29,0.15-0.38l32.46-23.84c-13.7,8.47-40.64,25.29-42.76,27.71
				c-3.31,3.78-12.45,3.46-23.29-0.8c-9.63-3.79-53.38-17.95-76.92-21.82c14.46,4.02,53,14.93,58.15,18.53
				c6.42,4.49,24.89,13.08,33.22,14.28c8.3,1.2,10.18,2.38,13.3,4.34l0.45,0.28c1.53,0.96,2.11,3.48,1.39,6
				c-0.54,1.88-3.16,8-14.27,8h-22.82l0.57,0.92c1.36,0.02,8.65,0.31,13.11,3.61c0.13,0.1,0.18,0.27,0.13,0.42
				c-0.05,0.15-0.19,0.26-0.36,0.26h-9.86l0.65,1.82L272.01,755.41z"/>
		</g>
	</g>
	<g>
		<g>
			<path d="M277.28,766.31l-9.19-10l-2.58,0.95c-0.14,0.05-0.31,0.01-0.41-0.1c-0.23-0.26-23.56-25.83-43.22-34.84
				c-19.71-9.03-53.26-19.42-53.6-19.53l0.22-0.72c0.34,0.1,33.93,10.51,53.69,19.56c18.91,8.67,41.12,32.47,43.29,34.83l2.58-0.95
				c0.14-0.05,0.3-0.01,0.41,0.1l9.36,10.19L277.28,766.31z"/>
		</g>
	</g>
	<g>
		<g>
			<path d="M177.76,724.64c-0.05,0-0.1-0.01-0.15-0.03c-8.25-3.51-24.43-10.16-26.67-10.16c-2.85,0-12.98,1.42-13.08,1.43l-0.1-0.74
				c0.42-0.06,10.28-1.44,13.19-1.44c2.58,0,20.5,7.49,25.63,9.65L163.78,707l0.59-0.46l13.69,17.5c0.11,0.13,0.11,0.32,0,0.46
				C177.98,724.59,177.87,724.64,177.76,724.64z"/>
		</g>
	</g>
</g>
<g>
	<g>
		<g>
			<path d="M680.08,711.76c-9.84,0-20.49-1.74-29.7-7.21l-0.24-0.14l-2.57-80.17c-0.04-0.34-3.91-37.94,6.6-56.96v-30.04l19.16-0.74
				l1.36-5.44v-97.58l-8.09-7.35l3.31-30.91c-0.42-1.05-3.27-8.33-2.92-12.21c0.3-3.35,0.1-75.68,0.02-102.9
				c-0.01-5.25-0.02-8.73-0.02-9.57c0-2.55,6.15-6,13.71-7.67c5.46-1.21,23.85-3.94,31.22,11.86l0.05,0.21l0.35,40.95l59.86,2.87
				v-4.75c-0.86-0.77-4.01-3.79-3.32-6.14c0.35-1.21,1.61-1.97,3.75-2.28c5.83-0.83,18.44-0.41,25.97-0.16
				c2.54,0.08,4.54,0.15,5.62,0.15c1.96,0,3.3,0.88,3.6,2.35c0.32,1.55-0.67,3.67-3.14,4.84l-0.64,6
				c5.18-0.05,44.58-0.54,60.15-2.86v-42.29l0.14-0.15c0.11-0.11,10.93-11.26,24.37-10.43c8.07,0.5,15.42,5.14,21.84,13.78l0.1,0.13
				v112.56l-4.9,3.85l2.49,2.69l-0.16,2.05l0.15,28.37l-7.84,8.8v94.18c0.68,0.79,3.69,4.52,3.36,8.49h18.66l-0.04,0.53
				c-0.63,9.34-1.45,27.81-0.04,30.91c0.13,0.28,12.7,29.11,5.91,55.98l-0.73,69.21l-1.89,12.12l-0.31,0.09
				c-1.73,0.48-42.6,11.64-62.36-1.9l-0.18-0.12l-1.79-11.76c-6.74,1.38-76.96,15.08-145.81,0.34l-2.88,12.98l-0.26,0.09
				C711.78,706.51,697.16,711.76,680.08,711.76z M651.12,703.83c23.67,13.86,57.03,2.87,60.29,1.74l2.98-13.41l0.49,0.11
				c71.99,15.55,145.66-0.18,146.39-0.34l0.52-0.11l1.88,12.38c18.56,12.49,57.17,2.75,61.04,1.73l1.78-11.41l0.74-69.32
				c5.65-22.28-2.52-48.09-5.83-55.38c-1.74-3.83-0.33-26.92-0.08-30.86h-18.75l0.1-0.58c0.68-4.11-3.14-8.33-3.17-8.38l-0.13-0.14
				v-94.94l7.84-8.8l-0.14-28.03l0.13-1.66l-2.93-3.17l5.37-4.22V277.3c-6.22-8.31-13.28-12.76-21-13.24
				c-12.17-0.75-22.17,8.71-23.45,9.99v42.74l-0.42,0.07c-16.34,2.54-60.83,2.93-61.28,2.94l-0.56,0l0.82-7.69l0.27-0.11
				c2.15-0.91,3.06-2.66,2.82-3.84c-0.2-0.99-1.16-1.55-2.62-1.55c-1.1,0-3.11-0.07-5.65-0.15c-7.5-0.25-20.05-0.67-25.8,0.15
				c-1.71,0.25-2.7,0.77-2.93,1.57c-0.48,1.65,2.14,4.35,3.19,5.25l0.17,0.15v6.25l-60.85-2.92l0.06,7.04l58.76,1.47l-2.4,7.6
				c-2.25,7.12-22.53,14.66-23.39,14.98l-0.2,0.07l-0.19-0.09c-10.03-4.86-14.05-4.13-15.66-2.67c-2.66,2.42-0.54,8.22-0.51,8.27
				l0.17,0.45l-17.26,7.06l-0.01-0.74l-0.73-85.29c-7.09-15.01-24.78-12.38-30.05-11.21c-7.89,1.75-12.93,5.14-12.93,6.7
				c0,0.84,0.01,4.32,0.02,9.57c0.08,27.24,0.28,99.6-0.03,103c-0.35,3.86,2.86,11.78,2.9,11.86l0.05,0.12l-0.01,0.13l-3.27,30.53
				l8.04,7.31l-0.01,98.2l-1.56,6.23l-18.95,0.73v29.34l-0.06,0.11c-10.43,18.7-6.58,56.14-6.54,56.51L651.12,703.83z M712.4,324.93
				l0.3,34.66l15.01-6.14c-0.49-1.53-1.77-6.44,0.93-8.9c2.65-2.42,8.23-1.6,16.58,2.41c2.12-0.81,20.6-7.97,22.59-14.27l2-6.33
				L712.4,324.93z"/>
		</g>
	</g>
	<g>
		<g>
			<path d="M864.81,360.69l-17.89-6.76l15.05-15.05l-0.32-5.5l-5.71,2.25l-0.23-0.23c-0.05-0.05-5.04-4.85-9.43-4.57
				c-1.55,0.09-2.88,0.82-3.94,2.14l-0.08,0.1l-23.04,9.8h-2.37l-7.59-5.7l-3.91-12.9h59.45V360.69z M848.71,353.54l15.09,5.7
				v-33.96h-57.1l3.42,11.29l7.07,5.3h1.93l22.52-9.62c1.23-1.5,2.77-2.31,4.58-2.42c4.34-0.25,8.87,3.63,9.95,4.63l6.39-2.52
				l0.42,7.33L848.71,353.54z"/>
		</g>
	</g>
	<g>
		<g>
			<path d="M822.94,530.27"/>
		</g>
	</g>
	<g>
		<g>
			<path d="M826.16,566.96c-0.84,0-1.54-0.17-2.16-0.49c-1.52-0.8-2.52-2.56-3.24-5.73c-0.67-2.92-0.55-5.05,0.35-6.33
				c0.37-0.53,0.8-0.8,1.11-0.93l0.36-36.35c-2.44-0.13-3.89-0.72-4.42-1.8c-0.59-1.19,0.27-2.4,0.31-2.45l0.21-0.28l0.34,0.09
				c2.95,0.83,4.95,0.86,5.79,0.06c0.87-0.83,0.46-2.57,0.19-3.72c-0.11-0.49-0.2-0.88-0.2-1.17c0-2.05,3.72-7.38,3.76-7.43
				c1.1-1.58,1.25-22.12,0.47-26c-0.56-2.79-8.96-6.63-12.15-7.88l-0.29-0.12l-0.61-8.73h1.32v-5.41h-2.16l-0.15-0.24
				c-3.51-5.72-4.26-19.09-4.29-19.66l-0.04-0.79l0.73,0.3c4.83,1.97,9,13.03,9.57,14.6l11.76,7.05l5.65,4.32l0.05,0.12
				c1.57,3.5,3.57,5.48,5.95,5.89c4,0.69,7.86-3.25,7.9-3.29l0.92-0.96l-0.22,4.62l4.92-0.34l0.14,0.09
				c8.23,5.22,17.13,6.87,19.16,7.19l1.44-5.29c-5.39-3.99-14.31-6.47-14.41-6.49l-0.37-0.1v-7.54l0.69,0.28
				c6.1,2.46,10.02,2.3,12.15,1.79c-7.18-0.73-12.43-5.31-12.67-5.53l-0.17-0.15v-2.29h-2.54l-0.03-0.47c0-0.06-0.41-6.14-4.84-8.19
				c-3.49-1.61-11.6,1.11-15.13,2.45l5.82,0.91l-1.66,0.68c-0.93,0.38-1.52,0.95-1.76,1.69c-0.52,1.62,0.7,3.61,0.71,3.63l0.82,1.33
				l-9.54-3.98v2.1l-10.75-2.84l0.04-0.42c0.28-3.12-5.37-10.04-7.57-12.44l-0.13-0.14v-16.42l5.65,20.85h76.95v1h-7.2l-1.46,95.17
				l-0.62,24.85l-0.9-2.71c-1.15-3.46-7.52-3.51-7.59-3.51h-0.49l-0.37-18.51h-5.41l0.36,19.65l-0.35,0.12
				c-0.38,0.12-37.62,12.3-43.95,14.83C829.4,566.48,827.58,566.96,826.16,566.96z M819.1,513.75c-0.13,0.29-0.26,0.74-0.06,1.13
				c0.22,0.44,1.03,1.18,4.04,1.26l0.49,0.01l-0.38,38.13l-0.43,0.05c-0.01,0-0.47,0.08-0.87,0.68c-0.49,0.72-0.91,2.26-0.17,5.5
				c0.65,2.85,1.49,4.42,2.73,5.06c1.38,0.73,3.42,0.43,7.04-1.02c6.02-2.41,39.83-13.49,43.66-14.74l-0.37-19.93h7.41l0.37,18.52
				c1.36,0.07,5.17,0.45,7.12,2.6l0.51-20.27l1.46-95.15h-68.78c1.62,2.35,3.03,4.94,3.09,6.81l8.7,2.3v-2.3l8.29,3.45
				c-0.33-0.88-0.6-2.09-0.23-3.24c0.2-0.62,0.56-1.14,1.07-1.57l-6.21-0.97l1.61-0.68c0.52-0.22,12.72-5.38,17.63-3.11
				c4.26,1.97,5.19,6.99,5.38,8.57h2.61v2.83c1.06,0.87,6.88,5.41,14.15,5.23l1.5-0.03l-1.18,0.93c-0.18,0.14-4.38,3.29-14.47-0.58
				v5.3c1.81,0.53,9.69,2.96,14.65,6.76l0.27,0.2l-1.85,6.79l-0.43-0.05c-0.1-0.01-10.38-1.35-19.86-7.32l-5.71,0.39l0.15-3.2
				c-1.48,1.23-4.56,3.33-7.87,2.74c-2.7-0.47-4.94-2.61-6.64-6.36l-5.4-4.14l-12.02-7.21l-0.06-0.17
				c-0.04-0.12-3.93-11.01-8.32-13.79c0.23,3.06,1.18,13.27,3.94,18.07h2.6v7.41h-1.25l0.49,7.03c2.12,0.85,11.75,4.89,12.48,8.5
				c0.65,3.23,0.83,24.69-0.63,26.77c-1.48,2.12-3.57,5.65-3.57,6.86c0,0.18,0.09,0.55,0.18,0.95c0.32,1.37,0.8,3.45-0.48,4.67
				C824.38,514.51,822.29,514.61,819.1,513.75z M818.26,429.78c0.45,0.5,1.91,2.15,3.44,4.19l-3.44-12.7V429.78z"/>
		</g>
	</g>
	<g>
		<g>
			<path d="M752.52,436.33h-77.33v-1h77.06c0.97-1.52,6.32-9.47,13.06-11.98c0.57-2.06,4.58-16.12,11.36-26.28
				c2.91-4.36,7.96-6.29,13.49-5.16c7.22,1.48,15.54,8.46,17.83,20.74c3.63,19.41,3.95,23,3.96,23.14l-1,0.08
				c0-0.04-0.34-3.75-3.95-23.04c-2.21-11.82-10.16-18.53-17.05-19.94c-5.2-1.06-9.75,0.66-12.46,4.73
				c-7.2,10.8-11.25,26.08-11.29,26.24l-0.07,0.26l-0.25,0.09C758.8,426.69,753,436,752.95,436.1l-0.15,0.24H752.52z"/>
		</g>
	</g>
	<g>
		<g>
			<rect x="684.54" y="435.84" transform="matrix(1 -7.952090e-03 7.952090e-03 1 -3.5843 5.4618)" width="1" height="35.25"/>
		</g>
	</g>
	<g>
		<g>
			<path d="M750.76,565.08l2.07-10.68l-10.82,10.48l-0.29-0.1c-0.4-0.14-39.62-14.12-42.87-15.2c-2.54-0.85-10.11,2.47-12.81,3.82
				l-0.72,0.36l-0.57-72.88l1-0.01l0.56,71.29c2.38-1.13,9.9-4.51,12.86-3.52c3.11,1.03,38.96,13.81,42.59,15.11l12.65-12.25
				l-2.33,12.05l2.33-0.86c0.13-2.84,1.06-22.94,0.72-25.61c-0.13-1.03,0.5-4.23,1.64-9.8c1.5-7.36,4.28-21.05,2.49-21.88
				c-3.95-1.83-4.92-12.1-5.15-18.05c-0.48-12.47,1.37-27.77,4.57-29.56c0.55-0.31,2.17-3.24,5.22-23.6
				c0.16-1.05,0.19-1.29,0.21-1.37l0.97,0.24l-0.49-0.12l0.49,0.11c-0.02,0.09-0.09,0.55-0.2,1.28
				c-3.09,20.65-4.74,23.77-5.72,24.32c-2.51,1.41-4.56,15.87-4.07,28.66c0.37,9.6,2.08,16.03,4.57,17.19
				c2.33,1.08,0.67,10.21-1.93,22.99c-0.9,4.4-1.74,8.55-1.62,9.47c0.37,2.94-0.69,25.16-0.73,26.11l-0.02,0.33L750.76,565.08z"/>
		</g>
	</g>
	<g>
		<g>
			<path d="M682.55,482.74l-2.45-9.79l33.18-15.85c0.29-0.7,1.37-3.11,3.18-5.01c-4.74,1.37-14.81,3.98-18.02,2.53l-1.4-0.63
				l1.5-0.31c0.12-0.03,12.24-2.62,15.76-11.43l0.06-0.11c0.15-0.21,3.85-5.18,9.1-5.42c3.01-0.13,5.88,1.3,8.54,4.29l0.09,0.1
				l1.02,5.08l6.54-2.07l4.34,0.73l6.3-3.64c-0.08-0.15-0.15-0.33-0.19-0.54c-0.26-1.24,0.42-2.96,2.02-5.12l0.8,0.6
				c-1.82,2.45-1.94,3.72-1.85,4.26c0.06,0.38,0.25,0.51,0.25,0.52l0.65,0.45l-0.66,0.41l-7.12,4.12l-4.45-0.75l-7.38,2.34
				l-1.19-5.91c-2.42-2.68-5-3.98-7.65-3.86c-4.52,0.21-7.92,4.47-8.3,4.97c-2.83,6.98-10.45,10.18-14.26,11.38
				c0.07,0,0.15,0,0.22,0c4.77,0,13.8-2.5,17.48-3.67l0.39,0.91c-3.1,1.72-4.89,6.3-4.91,6.34l-0.07,0.19l-32.79,15.67l1.95,7.79
				l1.81-0.89l32.38-15.79l0.25,0.2c0.73,0.6,1.53,0.84,2.42,0.74c2.55-0.28,4.91-3.24,4.93-3.27l0.31-0.39l0.39,0.3
				c2.97,2.28,5.42,3,7.29,2.17c3.46-1.55,3.99-7.98,4-8.05l0.04-0.46h4.89l1.77-4.25l0.16-0.08c0.05-0.03,5.49-2.93,6.56-3.64
				c0.76-0.51,8.88-9.66,13.82-15.3l0.74,0.67l-0.01,0.01c-1.29,1.48-12.87,14.69-14,15.45c-1.02,0.68-5.56,3.12-6.49,3.61
				l-1.89,4.54h-4.64c-0.19,1.61-1.08,6.88-4.54,8.42c-2.14,0.96-4.81,0.28-7.93-2.01c-0.78,0.88-2.9,3.01-5.29,3.28
				c-1.06,0.12-2.03-0.14-2.91-0.76L682.55,482.74z"/>
		</g>
	</g>
	<g>
		<g>
			<path d="M799.56,708.04h-24.43c-3.3,0-5.94-3.21-7.08-8.58l0.98-0.21c1.01,4.8,3.35,7.79,6.1,7.79h24.43
				c5.71,0,6.44-7.93,6.44-8.01l1,0.08C806.99,699.2,806.17,708.04,799.56,708.04z"/>
		</g>
	</g>
	<g>
		<g>
			<polygon points="757.91,524.67 697.9,524.67 697.9,435.84 698.9,435.84 698.9,523.67 757.91,523.67 			"/>
		</g>
	</g>
	<g>
		<g>
			<polygon points="756.68,530.77 688.12,530.77 688.12,435.84 689.12,435.84 689.12,529.77 756.68,529.77 			"/>
		</g>
	</g>
	<g>
		<g>
			<rect x="823" y="523.67" width="67.8" height="1"/>
		</g>
	</g>
	<g>
		<g>
			<rect x="856.32" y="496.64" transform="matrix(7.220809e-03 -1 1 7.220809e-03 320.1267 1383.4808)" width="1" height="67.76"/>
		</g>
	</g>
	<g>
		<g>
			<rect x="886.53" y="435.1" width="1" height="89.06"/>
		</g>
	</g>
	<g>
		<g>
			<rect x="877.73" y="469.07" width="1" height="55.1"/>
		</g>
	</g>
	<g>
		<g>
			<rect x="877.73" y="435.1" width="1" height="29.93"/>
		</g>
	</g>
	<g>
		<g>
			<rect x="720.38" y="465.9" width="1" height="58.26"/>
		</g>
	</g>
	<g>
		<g>
			<rect x="720.38" y="435.84" width="1" height="1.92"/>
		</g>
	</g>
	<g>
		<g>
			<rect x="711.58" y="452.75" width="1" height="5.47"/>
		</g>
	</g>
	<g>
		<g>
			<rect x="711.58" y="467.77" width="1" height="56.39"/>
		</g>
	</g>
	<g>
		<g>
			<rect x="711.58" y="435.84" width="1" height="10.89"/>
		</g>
	</g>
	<g>
		<g>
			<rect x="863.8" y="452.51" width="1" height="6.42"/>
		</g>
	</g>
	<g>
		<g>
			<rect x="863.8" y="467.89" width="1" height="56.27"/>
		</g>
	</g>
	<g>
		<g>
			<rect x="863.8" y="435.84" width="1" height="12.09"/>
		</g>
	</g>
	<g>
		<g>
			<rect x="855.01" y="435.1" width="1" height="1.29"/>
		</g>
	</g>
	<g>
		<g>
			<rect x="855.01" y="464.58" width="1" height="59.59"/>
		</g>
	</g>
	<g>
		<g>
			<rect x="700.71" y="530.27" width="1" height="19.58"/>
		</g>
	</g>
	<g>
		<g>
			<rect x="693.19" y="530.27" width="1" height="19.46"/>
		</g>
	</g>
	<g>
		<g>
			<path d="M788.43,673.18c-2.03,0-4.07-0.17-6.08-0.52c-6.17-1.09-12.19-3.72-17.9-7.8c-5.23-3.79-9.76-8.41-13.47-13.75
				c-7.49-10.65-11.55-23.32-11.43-35.69l1-0.06c1.53,12.14,6.28,23.65,13.75,33.3c1.85,2.35,3.87,4.6,6,6.68
				c2.17,2.08,4.49,3.96,6.91,5.6c5.26,3.62,10.65,5.91,16.01,6.8c2.89,0.52,5.77,0.64,8.59,0.36c2.71-0.26,5.52-0.94,8.34-2.04
				c4.89-1.89,9.68-5.08,14.66-9.75c4.07-3.88,8.02-8.56,11.73-13.9c3.42-4.88,6.61-10.21,9.47-15.84l0.92,0.39
				c-1.88,5.51-4.47,11.09-7.91,17.04c-3.56,6.02-7.26,11-11.32,15.23c-4.77,5.04-10.07,8.83-15.75,11.26
				C797.76,672.26,793.11,673.18,788.43,673.18z M741.1,623.68c1.32,9.43,5,18.74,10.71,26.86c3.65,5.25,8.1,9.79,13.23,13.51
				c5.58,3.99,11.46,6.56,17.49,7.62c6.44,1.12,13.2,0.37,19.02-2.11c5.55-2.37,10.74-6.09,15.42-11.03
				c4.01-4.17,7.67-9.09,11.18-15.04c1.83-3.16,3.41-6.21,4.77-9.21c-1.77,3.02-3.64,5.93-5.58,8.7
				c-3.75,5.39-7.74,10.12-11.86,14.06c-5.08,4.77-9.98,8.03-14.99,9.96c-2.91,1.13-5.81,1.83-8.61,2.1
				c-2.9,0.29-5.88,0.16-8.86-0.37c-5.5-0.91-11.02-3.25-16.4-6.96c-2.46-1.67-4.83-3.59-7.04-5.71c-2.16-2.11-4.21-4.39-6.09-6.78
				C747.64,641.69,743.42,632.96,741.1,623.68z"/>
		</g>
	</g>
	<g>
		<g>
			<path d="M791.69,714.86c-4.3,0-8.56-0.08-11.89-0.15c-1.98-0.04-3.57-0.07-4.56-0.07c-6.55,0-10.94-5.2-13.05-15.47l-4.96-40.69
				l0.99-0.12l4.96,40.65c2,9.69,6.06,14.63,12.07,14.63c0.99,0,2.59,0.03,4.58,0.07c6,0.12,15.08,0.29,21.91-0.07
				c8.63-0.46,10.4-14.86,10.42-15l4.7-39.82l0.99,0.12l-4.7,39.82c-0.07,0.63-1.88,15.38-11.36,15.88
				C798.71,714.8,795.18,714.86,791.69,714.86z"/>
		</g>
	</g>
</g>
<g>
	<g>
		<g>
			<path d="M519.62,609.04l-8.28-1.72l0.34-1.21l-2.63-1.58l-1.28,1.28l-3.18-2.48l-1.44-6.54c-0.01-0.53-0.01-30.06-0.05-54.3
				l-18.87-37.61l-0.35-3.64l0.28-0.1c1.46-0.51,5.45-2.06,6.43-3.04c0.7-0.7-1.1-3.85-2.54-5.76l-0.07-0.15l-0.24-1.22l11.29-0.17
				l4.75,7.44l1.45,0.72l-0.1,0.31c-0.01,0.02-0.68,2.07-1.09,5.69c-0.25,2.18-0.35,4.48-0.3,6.85c0.06,2.98,0.09,15.75,0.12,30.51
				l0.14,0.29l-0.14,0.07c0.04,24.19,0.04,53.56,0.04,54.03l1.37,6.2l2.45,1.9l1.22-1.22l3.62,2.17l-0.28,0.98l6.73,1.4l0.35-2.1
				l2.89,2.17h6.11l0.31-2.35h4.25l0.31,2.35h6.89l-0.31-2.03h2.76l0.78,0.62h6.52c0.01-0.72,0.12-2.21,0.85-2.97
				c0.3-0.31,0.67-0.47,1.09-0.47c1.43,0,2.37,0.77,2.76,1.17l2.64-1.19c-0.07-2.43,0.92-6.7,0.96-6.88
				c-0.01-0.67-0.47-75.91,0.15-89.67c0.61-13.5-11.84-18.97-11.97-19.03l-0.66-0.28l0.61-0.38c0.04-0.03,4.53-2.83,7.73-6.5
				c3.2-3.66,5.53-18.08,6.01-24.64c0.45-6.16-7.64-13.41-13.25-16.37c-5.99-3.16-28.81-13.43-33.34-14.19
				c-4.61-0.77-47.98-2.48-48.42-2.5l-0.23-0.01l-4.23-9.39l-9.63-0.93l-2.02-2.48h-2.22l0.17-0.49c0.42-1.25-2.06-2.45-3.05-2.81
				l-0.35-0.13l0.12-0.35c1.13-3.23,7.13-6.11,12.47-7.28c4.65-1.02,4.86-4.95,4.86-5.12l0.01-0.31l0.3-0.05
				c2.68-0.42,7.81-5.79,9.4-10.69c0.43-1.32,1.13-2.11,2.1-2.34c2.18-0.53,4.82,2.08,4.93,2.19l0.1,0.1l0.01,0.14
				c0.09,1.82,1.16,2.24,3.1,3.01c1,0.39,2.24,0.88,3.6,1.69c1.48,0.89,2.35,1.93,2.59,3.09c0.2,0.95-0.07,1.73-0.27,2.14
				c3.55,2.79,7.89,2.69,7.95,2.69l0.12,0l0.1,0.06c2.95,1.92,6.27,0.25,8.7-0.96c2.58-1.29,14.17,3.79,15.49,4.37l0.11,0.05
				l0.06,0.1c0.01,0.02,1.45,2.41,3.19,2.01c0.68-0.16,1.13-0.6,1.12-1.1c-0.02-0.61-0.77-1.44-2.81-1.76l-20.33-6.19v-1.65l17.76,4
				l0.08,0.08c0.01,0.01,0.62,0.59,1.35,0.53c0.49-0.04,0.95-0.36,1.37-0.95c0.96-1.35,1.27-3.32,0.68-4.39
				c-0.31-0.57-0.85-0.84-1.6-0.8l-0.06,0l-0.06-0.02l-18.16-4.76l-0.01-0.28c0-0.02-0.2-2.13-4.92-2.73l-0.24-0.03l-0.07-0.23
				c-0.45-1.44-1.17-2.74-1.52-2.74c-1.01,0-4.22-0.81-5.74-1.27c-1.17-0.35-3.81,0.77-4.73,1.23l-0.19,0.09l-0.18-0.11
				c-0.13-0.08-3.18-1.98-4.82,0.07l-0.14,0.18l-0.23-0.05c-2.46-0.51-9.19-1.44-10.74,0.35c-0.6,0.7-1.16,1.76-1.75,2.89
				c-1.36,2.6-3.06,5.83-6.54,7.07l-0.5,0.18v-9.94l-18.85-5.21l-18.86,5.21v9.94l-0.5-0.18c-3.48-1.23-5.17-4.47-6.54-7.07
				c-0.59-1.13-1.15-2.19-1.75-2.89c-1.55-1.79-8.28-0.86-10.74-0.35l-0.23,0.05l-0.14-0.18c-1.64-2.05-4.69-0.16-4.82-0.07
				l-0.18,0.11l-0.19-0.09c-0.92-0.46-3.57-1.58-4.73-1.23c-1.52,0.45-4.73,1.27-5.74,1.27c-0.35,0-1.07,1.31-1.52,2.74l-0.07,0.23
				l-0.24,0.03c-4.72,0.6-4.92,2.72-4.92,2.74l-0.02,0.27l-0.26,0.07l-17.95,4.71l-0.06,0c-0.75-0.04-1.29,0.23-1.6,0.8
				c-0.59,1.07-0.29,3.04,0.68,4.39c0.42,0.59,0.88,0.91,1.37,0.95c0.73,0.07,1.34-0.52,1.35-0.53l0.08-0.08l0.11-0.02l17.65-3.98
				v1.65l-20.28,6.18c-2.09,0.34-2.84,1.17-2.86,1.78c-0.02,0.5,0.43,0.94,1.12,1.1c1.76,0.41,3.17-1.99,3.19-2.01l0.06-0.1
				l0.11-0.05c1.31-0.58,12.9-5.67,15.49-4.37c2.43,1.21,5.75,2.88,8.7,0.96l0.1-0.06l0.12,0c0.05,0.01,4.4,0.1,7.95-2.69
				c-0.2-0.41-0.47-1.19-0.27-2.14c0.25-1.17,1.12-2.21,2.59-3.09c1.35-0.81,2.6-1.3,3.6-1.69c1.94-0.76,3.01-1.18,3.1-3.01
				l0.01-0.14l0.1-0.1c0.11-0.11,2.75-2.72,4.93-2.19c0.97,0.23,1.67,1.02,2.1,2.34c1.58,4.9,6.72,10.27,9.4,10.69l0.3,0.05
				l0.01,0.31c0.01,0.17,0.22,4.1,4.86,5.12c5.34,1.17,11.34,4.04,12.47,7.28l0.12,0.35l-0.35,0.13c-0.99,0.36-3.47,1.56-3.05,2.81
				l0.17,0.49h-2.22l-2.02,2.48l-9.63,0.93l-4.23,9.39l-0.23,0.01c-0.44,0.02-43.81,1.73-48.42,2.5
				c-4.53,0.75-27.36,11.03-33.34,14.19c-5.61,2.96-13.7,10.21-13.25,16.37c0.48,6.55,2.81,20.98,6.01,24.64
				c3.21,3.67,7.69,6.47,7.73,6.5l0.61,0.38l-0.66,0.28c-0.13,0.05-12.57,5.54-11.97,19.03c0.62,13.76,0.16,89,0.16,89.76
				c0.03,0.1,1.02,4.36,0.95,6.8l2.64,1.19c0.39-0.4,1.33-1.17,2.75-1.17c0.43,0,0.79,0.16,1.09,0.47c0.73,0.76,0.84,2.24,0.85,2.97
				h6.53l0.78-0.62h2.76l-0.31,2.03h6.9l0.31-2.35h4.25l0.31,2.35h6.11l2.9-2.17l0.35,2.1l6.73-1.4l-0.28-0.98l3.62-2.17l1.22,1.22
				l2.45-1.9l1.38-6.28c-0.01-0.43-0.01-29.77,0.03-53.95l-0.15-0.07l0.15-0.29c0.02-14.75,0.06-27.52,0.12-30.5
				c0.05-2.36-0.05-4.66-0.3-6.85c-0.41-3.62-1.08-5.67-1.09-5.69l-0.1-0.31l1.45-0.73l4.75-7.44l11.29,0.17l-0.31,1.37
				c-1.43,1.91-3.23,5.07-2.54,5.76c0.98,0.98,4.97,2.52,6.43,3.04l0.28,0.1l-0.38,3.71l-18.84,37.54
				c-0.04,24.23-0.04,53.74-0.04,54.22l-1.45,6.62l-3.18,2.48l-1.28-1.28l-2.63,1.58l0.35,1.21l-8.28,1.72l-0.28-1.65l-2.11,1.58
				h-7.02l-0.31-2.35h-2.94l-0.31,2.35h-8.43l0.31-2.03h-1.62l-0.78,0.62h-7.56l0.02-0.39c0.03-0.57-0.04-2.18-0.64-2.81
				c-0.16-0.17-0.33-0.24-0.55-0.24c-1.5,0-2.32,1.06-2.36,1.1l-0.18,0.24l-3.64-1.63l0.02-0.26c0.15-2.26-0.92-6.88-0.93-6.92
				c0-0.85,0.45-76.06-0.17-89.81c-0.55-12.24,9.24-18.12,11.81-19.45c-1.33-0.89-4.74-3.3-7.34-6.27
				c-3.32-3.79-5.7-18.44-6.19-25.08c-0.48-6.57,7.69-13.94,13.64-17.09c5.22-2.76,28.76-13.46,33.57-14.26
				c4.53-0.76,44.48-2.35,48.28-2.5l4.22-9.37l9.75-0.94l2.05-2.52h1.61c-0.04-1.58,2.31-2.73,3.24-3.12
				c-1.34-2.82-6.96-5.41-11.78-6.46c-4.45-0.97-5.27-4.48-5.42-5.53c-3.22-0.79-8.19-6.45-9.71-11.14
				c-0.34-1.06-0.87-1.68-1.56-1.84c-1.56-0.38-3.65,1.45-4.13,1.9c-0.17,2.18-1.6,2.74-3.57,3.52c-1.02,0.4-2.18,0.86-3.48,1.64
				c-1.28,0.77-2.04,1.64-2.24,2.59c-0.23,1.06,0.32,1.87,0.33,1.87l0.19,0.28l-0.26,0.22c-3.53,2.94-7.77,3.04-8.58,3.06
				c-3.28,2.05-6.78,0.3-9.34-0.98c-1.71-0.86-9.71,2.11-14.74,4.34c-0.34,0.52-1.89,2.73-3.94,2.26c-1.04-0.24-1.73-0.99-1.7-1.85
				c0.03-0.94,0.95-2.08,3.44-2.48l19.7-6.01v-0.16l-16.64,3.75c-0.24,0.21-0.95,0.74-1.85,0.67c-0.72-0.06-1.36-0.48-1.92-1.26
				c-1.13-1.59-1.45-3.87-0.72-5.19c0.44-0.81,1.24-1.22,2.24-1.19l17.61-4.61c0.19-0.71,1.07-2.53,5.29-3.13
				c0.31-0.94,1.13-3.04,2.16-3.04c0.84,0,3.88-0.74,5.52-1.23c1.49-0.45,4.29,0.8,5.09,1.18c1.32-0.77,3.88-1.57,5.48,0.17
				c1.62-0.32,9.24-1.68,11.24,0.63c0.66,0.76,1.24,1.86,1.85,3.03c1.3,2.47,2.76,5.26,5.62,6.51v-9.43l19.61-5.42l0.1,0.03
				l19.5,5.39v9.43c2.87-1.25,4.33-4.04,5.62-6.51c0.61-1.17,1.19-2.27,1.85-3.03c2-2.31,9.62-0.95,11.24-0.63
				c1.59-1.74,4.16-0.94,5.48-0.17c0.8-0.38,3.6-1.63,5.09-1.18c1.64,0.49,4.68,1.23,5.52,1.23c1.03,0,1.85,2.1,2.16,3.04
				c4.22,0.6,5.1,2.42,5.29,3.13l17.61,4.61c1.01-0.03,1.8,0.38,2.24,1.19c0.73,1.32,0.41,3.6-0.72,5.19
				c-0.55,0.78-1.2,1.2-1.92,1.26c-0.9,0.07-1.61-0.46-1.85-0.67l-16.64-3.75v0.16l19.75,6.02c2.44,0.39,3.36,1.53,3.39,2.47
				c0.03,0.87-0.65,1.61-1.7,1.85c-2.04,0.47-3.6-1.73-3.94-2.26c-5.03-2.23-13.04-5.19-14.74-4.34c-2.56,1.28-6.06,3.03-9.34,0.98
				c-0.8,0.01-5.05-0.12-8.58-3.06l-0.27-0.22l0.2-0.28c0-0.01,0.55-0.82,0.33-1.87c-0.21-0.95-0.96-1.82-2.25-2.59
				c-1.3-0.78-2.46-1.24-3.48-1.64c-1.96-0.77-3.4-1.33-3.57-3.52c-0.48-0.44-2.55-2.28-4.13-1.9c-0.7,0.17-1.22,0.79-1.56,1.84
				c-1.51,4.69-6.49,10.35-9.71,11.14c-0.15,1.05-0.97,4.55-5.42,5.53c-4.82,1.05-10.45,3.64-11.78,6.46
				c0.93,0.39,3.27,1.53,3.24,3.12h1.61l2.05,2.52l9.75,0.94l4.22,9.37c3.8,0.15,43.75,1.74,48.28,2.5
				c4.81,0.8,28.35,11.51,33.57,14.26c5.96,3.14,14.13,10.52,13.65,17.09c-0.49,6.64-2.87,21.29-6.19,25.08
				c-2.6,2.97-6.01,5.38-7.34,6.27c2.58,1.33,12.36,7.21,11.81,19.45c-0.62,13.75-0.16,88.96-0.16,89.72
				c-0.02,0.13-1.09,4.75-0.94,7.01l0.02,0.26l-3.64,1.64l-0.18-0.24c-0.03-0.04-0.86-1.1-2.36-1.1c-0.22,0-0.39,0.08-0.55,0.24
				c-0.6,0.62-0.66,2.24-0.64,2.81l0.02,0.39h-7.56l-0.78-0.62h-1.62l0.31,2.03h-8.43l-0.31-2.35h-2.94l-0.31,2.35H522l-2.11-1.58
				L519.62,609.04z M484.97,504.67l18.14,36.14c-0.02-14.11-0.06-26.11-0.12-28.99c-0.05-2.4,0.06-4.73,0.3-6.95
				c0.33-2.93,0.82-4.82,1.03-5.53l-1.06-0.53l-4.63-7.26l-9.97,0.15l0.05,0.26c0.76,1.02,3.79,5.3,2.42,6.68
				c-1.14,1.14-5.3,2.71-6.43,3.12L484.97,504.67z M377.03,499.34c0.21,0.71,0.7,2.61,1.03,5.53c0.25,2.22,0.35,4.55,0.31,6.95
				c-0.06,2.88-0.09,14.88-0.12,28.99l18.13-36.14l0.28-2.92c-1.13-0.41-5.29-1.97-6.43-3.12c-1.38-1.38,1.66-5.66,2.42-6.68
				l0.05-0.26l-9.97-0.15l-4.63,7.26L377.03,499.34z"/>
		</g>
	</g>
	<g>
		<g>
			<path d="M377.68,504.92"/>
		</g>
	</g>
	<g>
		<g>
			<path d="M384.33,548.93h-6.47v-0.75h6.29l22.84-11.27c-2.24-2.05-2.36-6.28-2.35-7.55l-14.42-1.2l-12.04,19.97l-0.64-0.39
				l12.29-20.37l0.23,0.02l15.37,1.28l-0.02,0.36c0,0.06-0.26,5.75,2.5,7.64l0.53,0.36L384.33,548.93z"/>
		</g>
	</g>
	<g>
		<g>
			<path d="M503.67,504.92"/>
		</g>
	</g>
	<g>
		<g>
			<path d="M503.49,548.93l-6.55-0.04l-24.03-11.85l0.53-0.36c2.76-1.89,2.5-7.59,2.5-7.64l-0.02-0.36l15.6-1.3l12.28,20.37
				l-0.64,0.39l-12.04-19.97l-14.42,1.2c0.02,1.28-0.11,5.5-2.35,7.55l22.84,11.27h6.29V548.93z"/>
		</g>
	</g>
	<g>
		<g>
			<path d="M462.31,573.32h-8.62l-2.87-9.08c-1.89,0.85-10.23,4.04-20.71-0.03l-3.29,9.11h-7.78v-11.88h-1.56v-1.99
				c-4.55,1.71-10.62-2.61-11.49-3.25l-23.54-1.32l-4.41,2.6l-0.38-0.65l4.6-2.72l0.11,0.01l23.88,1.33l0.09,0.07
				c0.07,0.05,6.9,5.22,11.33,3.01l0.54-0.27v2.42h1.56v11.88h6.5l3.38-9.34l0.36,0.15c11.72,4.72,20.75,0.06,20.84,0.02l0.4-0.21
				l2.97,9.39h7.32v-11.88h1.56v-2.42l0.54,0.27c4.42,2.21,11.26-2.96,11.33-3.01l0.09-0.07l0.12-0.01l23.88-1.34l4.6,2.72
				l-0.38,0.65l-4.41-2.6l-23.54,1.32c-0.86,0.64-6.93,4.96-11.49,3.25v1.99h-1.56V573.32z"/>
		</g>
	</g>
	<g>
		<g>
			<path d="M455.65,434.64h-30.93v-5.75h31.47l3.38,2.9L455.65,434.64z M425.47,433.89h29.94l2.96-2.15l-2.45-2.1h-30.44V433.89z"/>
		</g>
	</g>
	<g>
		<g>
			<path d="M460.8,431.43l-4.78-3.26c-1.64-0.15-23.64-2.15-33.54,0.62l-0.48,0.13v-1.22l2.86-5.16l0.21-0.01
				c0.21-0.01,21.3-1.24,30.2,0l0.12,0.02l5.42,5.09V431.43z M438.28,426.58c9.11,0,17.77,0.83,17.92,0.85l0.09,0.01l3.77,2.57
				v-2.05l-5.01-4.71c-8.41-1.14-27.52-0.12-29.72,0.01l-2.56,4.67C426.81,426.9,432.63,426.58,438.28,426.58z"/>
		</g>
	</g>
	<g>
		<g>
			<path d="M321.15,454.56l-0.5-0.56c0.51-0.46,12.56-11.21,16.74-13.09c4.14-1.86,31.09-11.29,32.24-11.69l0.11-0.02l41.48-1.57
				l7.67,3.93v-4.22h-1.4v-0.75h2.15v6.2l-8.59-4.41l-41.22,1.56c-1.38,0.48-28.1,9.83-32.12,11.64
				C333.63,443.42,321.27,454.45,321.15,454.56z"/>
		</g>
	</g>
	<g>
		<g>
			<path d="M560.17,454.37c-1.14-0.48-4.29-3.27-7.32-5.97c-2.08-1.85-4.05-3.6-5.19-4.45c-2.68-1.99-35.06-13.74-36.64-14.31
				l-40.81-1.04l-9.14,4.51l0.25-5.19l1.31-1.03c-1.18-1.56-3.87-4.86-5.23-5.31c-1.94-0.65-29.96-0.9-34.3,0.01
				c-4.16,0.87-4.79,5.23-4.81,5.41l-0.74-0.1c0.01-0.05,0.71-5.07,5.4-6.05c4.39-0.92,32.73-0.64,34.7,0.01
				c1.93,0.65,5.42,5.33,5.81,5.87l0.22,0.29l-1.61,1.27l-0.17,3.57l8.16-4.03l0.09,0l41.08,1.06c1.39,0.5,34.06,12.34,36.89,14.43
				c1.17,0.87,3.15,2.63,5.24,4.49c2.85,2.54,6.09,5.41,7.12,5.84L560.17,454.37z"/>
		</g>
	</g>
	<g>
		<g>
			<polygon points="418.15,422.92 416.29,422.92 416.29,422.17 417.66,422.17 419.92,416.85 429.95,413.24 429.83,412.27 
				430.57,412.18 430.77,413.71 429.57,414.21 420.48,417.45 			"/>
		</g>
	</g>
	<g>
		<g>
			<polygon points="465.06,422.92 463.36,422.92 460.58,417.68 450.77,413.89 450.77,412.22 451.52,412.22 451.52,413.37 
				461.11,417.08 463.81,422.17 465.06,422.17 			"/>
		</g>
	</g>
</g>
<g>
	<g>
		<g>
			<path d="M245.72,609.63c-0.48,0-0.96-0.02-1.45-0.07c-13.46-1.33-22.74-12.52-22.57-27.21c0.15-12.79-0.69-86.8-0.76-93.51
				l-30.69,8.08v7.14h-4.32c-0.14,1.88-0.79,10.48-1.21,12.43c-0.46,2.15-3.27,9.99-3.39,10.32l-0.09,0.25l-18.89-0.16v-6.9h-2.01
				v6.44H153v-6.29h-1.7v6.44h-11.91v-6.44h-1.7v6.29h-7.34v-6.44h-2.01v6.9l-18.89,0.16l-0.09-0.25
				c-0.12-0.33-2.93-8.18-3.39-10.32c-0.42-1.95-1.07-10.55-1.21-12.43h-4.32v-7.14l-30.69-8.08c-0.08,6.71-0.91,80.71-0.76,93.51
				c0.17,14.69-9.12,25.88-22.57,27.21c-4.71,0.47-9.19-1.33-13.31-5.36c-5.97-5.82-9.38-14.82-9.18-17.58
				c0.33-4.46,0.59-83.49,0.15-95.95c-0.43-12.3,8.98-18.91,10.43-19.85v-22.26l-2.61-1.38V414.6c0-1.94,0-3.62,1.27-4.86
				c1.68-1.64,5.45-2.27,12.61-2.11l0.35,0.01l0.17,3.64c0.84,1.58,1.87,2.95,2.24,2.95h193.63c0.36,0,1.4-1.37,2.24-2.95l0.17-3.64
				l0.35-0.01c7.15-0.16,10.93,0.47,12.61,2.11c1.27,1.24,1.27,2.92,1.27,4.86v32.58l-2.61,1.38v22.26
				c1.45,0.94,10.86,7.54,10.43,19.85c-0.43,12.46-0.18,91.49,0.15,95.95c0.2,2.76-3.21,11.76-9.18,17.58
				C253.89,607.81,249.9,609.63,245.72,609.63z M221.68,487.87l0.01,0.48c0.01,0.8,0.92,80.66,0.77,94.01
				c-0.16,14.29,8.84,25.17,21.9,26.46c4.48,0.44,8.76-1.29,12.72-5.15c5.81-5.67,9.15-14.35,8.95-16.99
				c-0.33-4.47-0.59-83.57-0.15-96.03c0.45-12.8-10.14-19.23-10.24-19.29l-0.18-0.11v-23.13l2.61-1.38V414.6c0-1.84,0-3.3-1.05-4.32
				c-1.47-1.44-5.09-2.03-11.71-1.9l-0.18,3.18c-0.54,1.03-1.9,3.42-2.94,3.42H48.53c-1.04,0-2.4-2.39-2.94-3.42l-0.04-0.16
				l-0.14-3.02c-6.62-0.13-10.24,0.46-11.71,1.9c-1.05,1.02-1.05,2.48-1.05,4.32v32.13l2.61,1.38v23.13l-0.18,0.11
				c-0.11,0.06-10.69,6.49-10.24,19.29c0.43,12.47,0.18,91.56-0.15,96.03c-0.2,2.64,3.14,11.32,8.95,16.99
				c3.96,3.86,8.24,5.59,12.72,5.15c13.05-1.29,22.06-12.17,21.9-26.46c-0.15-13.34,0.76-93.2,0.77-94.01l0.01-0.48l32.18,8.48v6.97
				h4.27l0.03,0.35c0.01,0.11,0.77,10.58,1.22,12.68c0.4,1.89,2.78,8.59,3.27,9.97l17.61-0.15v-6.9h3.51v6.44h5.84v-6.29h3.2v6.44
				h10.41v-6.44h3.2v6.29h5.84v-6.44h3.51v6.9l17.61,0.15c0.49-1.38,2.87-8.09,3.27-9.97c0.45-2.1,1.21-12.57,1.22-12.68l0.03-0.35
				h4.27v-6.97L221.68,487.87z"/>
		</g>
	</g>
	<g>
		<g>
			<polygon points="101.2,496.64 100.45,496.64 100.45,490.57 99.53,490.57 99.53,462.51 115.08,455.01 122.13,455.01 
				122.13,455.76 115.17,455.76 100.28,462.98 100.28,489.82 101.2,489.82 			"/>
		</g>
	</g>
	<g>
		<g>
			<rect x="114.25" y="414.59" transform="matrix(0.9997 -0.0225 0.0225 0.9997 -9.7789 2.695)" width="0.75" height="40.8"/>
		</g>
	</g>
	<g>
		<g>
			<rect x="103.22" y="415.21" width="0.75" height="45.74"/>
		</g>
	</g>
	<g>
		<g>
			<path d="M64.71,365.69c-0.08-0.06-1.99-1.57-1.82-3.68c0.12-1.54,1.32-2.94,3.56-4.17l0.26-0.14l1.78,1.94l14.85,0.15l1.63-1.76
				v-5.29h16.24v2.21h-0.75v-1.46H85.71v4.83l-2.05,2.22l-15.51-0.16l-1.6-1.74c-1.84,1.06-2.82,2.21-2.92,3.43
				c-0.14,1.7,1.52,3.01,1.54,3.03L64.71,365.69z"/>
		</g>
	</g>
	<g>
		<g>
			<path d="M69.11,488.62c-8.53-9.03-8.13-16.31-6.29-20.82c2.99-7.34,11.05-11.46,13.3-11.55c3.65-0.15,27.25,0,27.48,0l0,0.75
				c-0.24,0-23.82-0.15-27.45,0c-2.06,0.08-9.82,4.15-12.64,11.09c-2.55,6.27-0.48,13.01,6.15,20.02L69.11,488.62z"/>
		</g>
	</g>
	<g>
		<g>
			<path d="M100.73,491.63l-26.79-6.93l-0.08-0.08c-4.01-4.35-5.66-8.53-4.91-12.41c1.14-5.9,7.36-8.91,7.63-9.04l0.1-0.03
				c3.97-0.61,22.43-0.76,23.21-0.77l0.01,0.75c-0.19,0-19.01,0.16-23.04,0.75c-0.57,0.29-6.15,3.22-7.17,8.48
				c-0.7,3.61,0.87,7.54,4.65,11.67l26.57,6.87L100.73,491.63z"/>
		</g>
	</g>
	<g>
		<g>
			<path d="M43.95,436.4l-3.94-3.4l2.06-20.32l3.95,1.64l4.32,4L43.95,436.4z M40.8,432.69l2.81,2.43l5.87-16.58l-3.91-3.62
				l-2.85-1.16L40.8,432.69z"/>
		</g>
	</g>
	<g>
		<g>
			<path d="M91.18,455.79c-7.44,0-16.25-2.13-20.43-8.79c-6.15-9.8-3.24-25.81-3.12-26.49l0.07-0.38l32.51,6.88l0.05,0.24
				c0.03,0.13,2.9,13.43,0,27.15l-0.05,0.22l-0.21,0.06C97.74,455.34,94.61,455.79,91.18,455.79z M68.31,421.03
				c-0.4,2.51-2.4,16.84,3.08,25.57c5.83,9.29,21.09,9.42,28.19,7.42c2.58-12.48,0.37-24.55,0-26.37L68.31,421.03z"/>
		</g>
	</g>
	<g>
		<g>
			<path d="M86.14,452.85c-7.58,0-13.75-6.04-13.75-13.46s6.17-13.46,13.75-13.46s13.75,6.04,13.75,13.46S93.72,452.85,86.14,452.85
				z M86.14,426.68c-7.17,0-13,5.7-13,12.71s5.83,12.71,13,12.71s13-5.7,13-12.71S93.31,426.68,86.14,426.68z"/>
		</g>
	</g>
	<g>
		<g>
			<path d="M86.14,443.4c-2.26,0-4.09-1.8-4.09-4.01c0-2.21,1.84-4.01,4.09-4.01c2.26,0,4.09,1.8,4.09,4.01
				C90.23,441.6,88.4,443.4,86.14,443.4z M86.14,436.13c-1.84,0-3.34,1.46-3.34,3.26s1.5,3.26,3.34,3.26c1.84,0,3.34-1.46,3.34-3.26
				S87.98,436.13,86.14,436.13z"/>
		</g>
	</g>
	<g>
		<g>
			<polygon points="103.5,424.11 91.3,420.87 91.3,414.6 92.05,414.6 92.05,420.29 103.69,423.39 			"/>
		</g>
	</g>
	<g>
		<g>
			<polygon points="190.25,496.64 189.5,496.64 189.5,489.82 190.42,489.82 190.42,462.98 175.53,455.76 168.56,455.76 
				168.56,455.01 175.78,455.05 191.17,462.51 191.17,490.57 190.25,490.57 			"/>
		</g>
	</g>
	<g>
		<g>
			<rect x="155.67" y="434.62" transform="matrix(0.0234 -0.9997 0.9997 0.0234 -262.9283 600.8259)" width="40.8" height="0.75"/>
		</g>
	</g>
	<g>
		<g>
			<rect x="186.72" y="415.21" width="0.75" height="45.74"/>
		</g>
	</g>
	<g>
		<g>
			<path d="M245.3,408.01h-0.75v-1.14l-4-1.86h-4.59v-1.96c-0.4-0.65-2.98-4.69-5.19-4.95c-2.55-0.3-37.17,0-37.52,0l-0.24,0
				l-0.1-0.22c-0.64-1.33-1.84-3.6-2.35-4.01c-0.71-0.56-4.29-3.63-4.96-4.21c-0.99,0-6.67-0.06-8.3-0.8l-0.41-0.18l0.25-0.37
				c0.05-0.07,4.95-7.29,6.02-9.58c-0.53-1.01-2.73-6.05,1.94-13.41l0.16-0.26l2.2,0.81v1.46c1.23,0.14,5.6,0.58,7.48-0.17
				l0.55-0.22l-0.33,5.05l2.45,0.73c0.47-1.17,2.19-5.02,4.59-5.58c1.07-0.25,4.04,0.13,7.79,0.61c5.58,0.72,13.23,1.7,17.21,0.77
				l0.15-0.04l3.17,1.96l3.59-1.8v-2.98l-2.1-1.97l-2.77,2.19l-30.61-1.25l0.06-0.41c0-0.01,0.03-0.38-0.32-0.82
				c-0.4-0.5-1.36-1.14-3.64-1.36l0.07-0.75c2.06,0.21,3.47,0.77,4.18,1.67c0.28,0.36,0.39,0.69,0.44,0.94l29.58,1.21l3.06-2.41
				l2.81,2.63v3.77l-4.38,2.19l-3.27-2.02c-4.14,0.9-11.44-0.04-17.32-0.79c-3.53-0.45-6.57-0.84-7.52-0.62
				c-2.38,0.56-4.16,5.39-4.18,5.44l-0.12,0.33l-3.69-1.11l0.29-4.5c-2.58,0.67-7.41,0.03-7.63,0l-0.32-0.04v-1.6l-1.14-0.42
				c-4.65,7.54-1.71,12.48-1.68,12.53l0.1,0.17l-0.08,0.18c-0.81,1.89-4.8,7.84-5.89,9.47c1.75,0.48,6.04,0.59,7.7,0.59h0.14
				l0.11,0.09c0.04,0.04,4.3,3.68,5.05,4.29c0.72,0.58,2.05,3.23,2.45,4.06c3.33-0.03,34.86-0.29,37.38,0
				c2.76,0.32,5.68,5.19,5.8,5.4l0.05,0.09v1.41l4.08,0.03l4.51,2.09V408.01z"/>
		</g>
	</g>
	<g>
		<g>
			<path d="M46.15,408.01H45.4v-1.62l4.67-2.13h3.92v-1.41l0.05-0.09c0.12-0.21,3.04-5.07,5.8-5.4c2.52-0.29,34.05-0.03,37.38,0
				c0.4-0.83,1.73-3.48,2.45-4.06c0.75-0.6,5.01-4.25,5.05-4.29l0.11-0.09h0.14c1.65,0,5.95-0.11,7.7-0.59
				c-1.1-1.63-5.08-7.58-5.89-9.47l-0.08-0.18l0.1-0.17c0.03-0.05,2.96-5.02-1.68-12.53l-1.14,0.42v1.6l-0.32,0.04
				c-0.22,0.03-5.05,0.67-7.63,0l0.29,4.5l-3.69,1.11l-0.12-0.33c-0.02-0.05-1.8-4.88-4.18-5.44c-0.94-0.22-3.99,0.17-7.52,0.62
				c-5.88,0.75-13.19,1.69-17.32,0.79l-3.27,2.02l-4.38-2.19v-3.77l2.81-2.63l3.06,2.41l29.58-1.21c0.04-0.25,0.16-0.59,0.44-0.94
				c0.67-0.86,1.96-1.41,3.85-1.64l0.15-6.79h20.45l4.79,4.47l0.03,0.1l6.65,24.2c11.14-2.04,30.46-0.51,33.18-0.28l1.49-5.95
				l5.97-4.62l4.2-9.55l5-2.39h10.15l4.31-4.48l13.62,1.73l1.82,1.97l14.85-0.15l1.78-1.94l0.26,0.14c2.24,1.23,3.44,2.63,3.56,4.17
				c0.17,2.1-1.74,3.62-1.82,3.68l-0.46-0.59c0.02-0.01,1.68-1.33,1.54-3.03c-0.1-1.22-1.08-2.37-2.92-3.42l-1.6,1.74l-15.51,0.16
				l-1.86-2.02l-12.98-1.65l-4.27,4.43h-10.39l-4.51,2.19l-4.24,9.53l-5.84,4.52l-1.58,6.32l-0.32-0.03
				c-0.22-0.02-21.86-1.96-33.63,0.3l-0.34,0.07l-6.81-24.77l-4.42-4.12H96.43l-0.15,6.71l-0.33,0.03
				c-2.27,0.23-3.23,0.87-3.64,1.36c-0.36,0.44-0.32,0.81-0.32,0.82l0.04,0.4l-0.4,0.02l-30.19,1.23l-2.77-2.19l-2.1,1.97v2.98
				l3.59,1.8l3.17-1.96l0.15,0.04c3.98,0.93,11.63-0.06,17.21-0.77c3.75-0.48,6.71-0.86,7.79-0.61c2.4,0.56,4.11,4.41,4.59,5.58
				l2.45-0.73l-0.33-5.05l0.55,0.22c1.88,0.75,6.25,0.31,7.48,0.17v-1.46l2.2-0.81l0.16,0.26c4.67,7.36,2.48,12.4,1.94,13.41
				c1.07,2.3,5.97,9.51,6.02,9.58l0.25,0.37l-0.41,0.18c-1.62,0.74-7.31,0.8-8.3,0.8c-0.68,0.58-4.26,3.65-4.96,4.21
				c-0.51,0.41-1.71,2.68-2.35,4.01l-0.1,0.22l-0.24,0c-0.35,0-34.97-0.3-37.52,0c-2.21,0.26-4.79,4.3-5.19,4.95v1.96h-4.59l-4,1.86
				V408.01z"/>
		</g>
	</g>
	<g>
		<g>
			<path d="M221.58,488.62l-0.54-0.52c6.63-7.02,8.69-13.75,6.15-20.02c-2.82-6.93-10.58-11-12.63-11.09c-3.63-0.15-27.21,0-27.45,0
				l0-0.75c0.24,0,23.84-0.15,27.48,0c2.25,0.09,10.31,4.21,13.3,11.55C229.71,472.31,230.11,479.58,221.58,488.62z"/>
		</g>
	</g>
	<g>
		<g>
			<path d="M189.97,491.63l-0.19-0.73l26.57-6.87c3.79-4.14,5.35-8.07,4.65-11.68c-1.02-5.27-6.59-8.19-7.17-8.48
				c-4.04-0.6-22.85-0.75-23.04-0.75l0.01-0.75c0.78,0.01,19.24,0.16,23.21,0.77l0.1,0.03c0.26,0.13,6.49,3.14,7.63,9.04
				c0.75,3.88-0.9,8.06-4.91,12.41l-0.08,0.08l-0.11,0.03L189.97,491.63z"/>
		</g>
	</g>
	<g>
		<g>
			<path d="M246.75,436.4l-6.4-18.08l4.43-4.07l3.84-1.57l2.06,20.32L246.75,436.4z M241.22,418.54l5.87,16.58l2.81-2.43
				l-1.92-18.93l-2.85,1.16L241.22,418.54z"/>
		</g>
	</g>
	<g>
		<g>
			<path d="M199.51,455.79c-3.42,0-6.56-0.45-8.82-1.12l-0.21-0.06l-0.05-0.22c-2.9-13.72-0.03-27.01,0-27.15l0.05-0.24l0.24-0.05
				l32.27-6.83l0.07,0.38c0.13,0.68,3.03,16.69-3.12,26.49C215.76,453.66,206.95,455.79,199.51,455.79z M191.11,454.02
				c7.1,2,22.36,1.88,28.19-7.42c5.48-8.73,3.48-23.07,3.08-25.57l-31.27,6.62C190.75,429.46,188.53,441.54,191.11,454.02z"/>
		</g>
	</g>
	<g>
		<g>
			<path d="M204.56,452.85c-7.58,0-13.75-6.04-13.75-13.46s6.17-13.46,13.75-13.46s13.75,6.04,13.75,13.46
				S212.14,452.85,204.56,452.85z M204.56,426.68c-7.17,0-13,5.7-13,12.71s5.83,12.71,13,12.71s13-5.7,13-12.71
				S211.73,426.68,204.56,426.68z"/>
		</g>
	</g>
	<g>
		<g>
			<path d="M204.56,443.4c-2.26,0-4.09-1.8-4.09-4.01c0-2.21,1.84-4.01,4.09-4.01c2.26,0,4.09,1.8,4.09,4.01
				C208.65,441.6,206.81,443.4,204.56,443.4z M204.56,436.13c-1.84,0-3.34,1.46-3.34,3.26s1.5,3.26,3.34,3.26
				c1.84,0,3.34-1.46,3.34-3.26S206.4,436.13,204.56,436.13z"/>
		</g>
	</g>
	<g>
		<g>
			<polygon points="187.19,424.11 187,423.39 198.65,420.29 198.65,414.6 199.4,414.6 199.4,420.87 			"/>
		</g>
	</g>
	<g>
		<g>
			<polygon points="175.4,398.26 171.84,392.02 163.12,386.4 127.14,386.4 118.22,391.51 114.85,397.85 97.45,398.11 97.44,397.36 
				114.39,397.11 117.66,390.97 126.94,385.65 163.34,385.65 172.45,391.57 175.83,397.51 193.24,397.36 193.25,398.11 			"/>
		</g>
	</g>
	<g>
		<g>
			<path d="M113.59,406.85l5.27-12.47l4.89-3.8l5.43-1.76l31.92,0.02l5.84,2.11l4.5,3.83l4.72,11.55L113.59,406.85z M119.48,394.85
				l-4.75,11.24l60.33-0.5l-4.27-10.44l-4.27-3.58l-5.6-2h-31.67l-5.2,1.7L119.48,394.85z"/>
		</g>
	</g>
	<g>
		<g>
			<polygon points="74.66,535.65 69.15,535.65 69.15,534.9 74.54,534.9 102.7,525.62 100.52,512.03 69.14,520.51 68.95,519.79 
				101.12,511.09 103.54,526.13 103.24,526.23 			"/>
		</g>
	</g>
	<g>
		<g>
			<polygon points="73.2,553.86 68.99,553.23 69.1,552.49 73.13,553.09 113.84,539.21 117.36,546.2 172.42,546.2 176.35,539.22 
				217.47,553.1 221.96,553.1 221.96,553.85 217.29,553.83 176.69,540.13 172.85,546.95 116.89,546.95 113.46,540.13 			"/>
		</g>
	</g>
	<g>
		<g>
			<rect x="202.97" y="496.42" transform="matrix(0.2615 -0.9652 0.9652 0.2615 -347.2929 576.8593)" width="0.75" height="37.94"/>
		</g>
	</g>
	<g>
		<g>
			<polygon points="221.8,535.76 214.94,535.74 186.41,526.02 189.36,511.63 190.09,511.78 187.28,525.52 215.12,535.01 
				221.8,535.01 			"/>
		</g>
	</g>
	<g>
		<g>
			<path d="M176.91,492.82h-64.04v-27.11l8.69-3.34l0.07,0l48.32,0.56l0.06,0.03l6.89,2.75V492.82z M113.62,492.07h62.54v-25.85
				l-6.36-2.54l-48.11-0.56l-8.07,3.1V492.07z"/>
		</g>
	</g>
	<g>
		<g>
			<polygon points="122.51,462.75 121.76,462.75 121.76,453.45 116.74,435.37 114.62,435.37 114.62,434.62 117.31,434.62 
				122.51,453.4 			"/>
		</g>
	</g>
	<g>
		<g>
			<polygon points="159.31,463.18 158.56,463.18 158.56,457.42 157.04,455.52 152.1,435.37 137.67,435.37 133.59,454.63 
				131.71,457.4 131.71,462.75 130.96,462.75 130.96,457.17 132.93,454.27 137.06,434.62 152.69,434.62 157.75,455.26 
				159.31,457.15 			"/>
		</g>
	</g>
	<g>
		<g>
			<rect x="132.59" y="455.05" width="24.81" height="0.75"/>
		</g>
	</g>
	<g>
		<g>
			<polygon points="168.93,463.29 168.18,463.29 168.2,453.09 173.27,434.62 176.07,434.62 176.07,435.37 173.84,435.37 
				168.93,453.24 			"/>
		</g>
	</g>
	<g>
		<g>
			<path d="M122.85,492.45"/>
		</g>
	</g>
	<g>
		<g>
			<polygon points="132.32,503.55 122.48,503.55 122.48,492.45 123.23,492.45 123.23,502.8 131.57,502.8 131.57,492.45 
				132.32,492.45 			"/>
		</g>
	</g>
	<g>
		<g>
			<polygon points="167.39,503.15 157.64,503.15 157.64,492.45 158.39,492.45 158.39,502.4 166.64,502.4 166.64,492.45 
				167.39,492.45 			"/>
		</g>
	</g>
	<g>
		<g>
			<path d="M113.62,504.78h-2.08v-4.26c-0.18-0.29-0.91-1.35-2.2-1.59c-1.23-0.23-2.64,0.33-4.19,1.64l0.34,3.08l-0.75,0.08
				l-0.38-3.47l0.15-0.13c1.79-1.57,3.46-2.22,4.97-1.94c1.85,0.35,2.73,1.98,2.76,2.05l0.04,0.17v3.61h0.58v-2.25h9.98v0.75h-9.23
				V504.78z"/>
		</g>
	</g>
	<g>
		<g>
			<path d="M178.84,504.78h-2.68v-3.07h-9.14v-0.75h9.89v3.07h1.18l0.03-3.66c0.03-0.06,0.7-1.56,2.35-2.01
				c1.38-0.37,3,0.12,4.79,1.44l0.12,0.09l0.57,3.73l-0.74,0.11l-0.52-3.42c-1.55-1.12-2.9-1.53-4.02-1.24
				c-1.13,0.3-1.7,1.26-1.83,1.52V504.78z"/>
		</g>
	</g>
	<g>
		<g>
			<rect x="131.95" y="501.14" width="26.07" height="0.75"/>
		</g>
	</g>
	<g>
		<g>
			<path d="M61.82,473.88c-4.72-5.33-9.67-8.03-14.72-8.03c0,0,0,0,0,0c-7.05,0-11.88,5.37-11.93,5.43l-0.56-0.5
				c0.21-0.23,5.1-5.68,12.49-5.68c0,0,0,0,0.01,0c5.27,0,10.41,2.79,15.28,8.29L61.82,473.88z"/>
		</g>
	</g>
	<g>
		<g>
			<path d="M228.84,472.71l-0.54-0.52c0.13-0.13,13.2-13.34,27.75-1.45l-0.47,0.58C241.55,459.87,228.96,472.58,228.84,472.71z"/>
		</g>
	</g>
</g>
</svg>
