<?xml version="1.0" encoding="utf-8"?>
<!-- Generator: Adobe Illustrator 24.3.0, SVG Export Plug-In . SVG Version: 6.00 Build 0)  -->
<svg version="1.1" id="Layer_1" xmlns="http://www.w3.org/2000/svg" xmlns:xlink="http://www.w3.org/1999/xlink" x="0px" y="0px"
	 viewBox="0 0 1217.83 512" style="enable-background:new 0 0 1217.83 512;" xml:space="preserve">
<g>
	<g>
		<g>
			<path d="M80.44,189.79l-0.42-0.03l-41.27-2.75l-3.64,0c-2.81,0-4.36-0.52-4.74-1.6c-0.48-1.37,1.22-2.98,1.83-3.5
				c-0.87-4.32,1.78-14.54,2.42-16.91h-4.43l-0.04-0.33c-0.01-0.08-0.91-8.37,0-14.31c0.85-5.51,3.95-9.05,4.58-9.73
				c0.04-12.53,4.48-19.53,15.81-24.95c10.45-5,73.25-24.59,73.88-24.78l7.77-0.47c76.85-58.16,118.7-59.62,152.34-60.8
				c1.88-0.07,3.72-0.13,5.54-0.2c33.56-1.37,160.2,9.98,161.48,10.09l0.7,0.06l-6.12,7.53c5.7,3.56,31.61,36.95,32.74,38.41
				l11.55,10.15l-0.46,29.73c3.55,1.8,7.97,13.74,8.62,15.51l2.24,0.49l4.29,3.34l-2.3,22.1l2.33,4.2l-3.4,6.8h-11.54l-5.97,5.97
				l-0.16,0l-13.64-0.47l-0.02-0.34c-0.96-16.84-7.64-30.61-18.81-38.77c-10.57-7.72-24.2-9.74-39.42-5.83
				c-33.25,8.54-32.29,50.56-32.28,50.99l0.01,0.39H168.63l0.01-0.38c0.45-19.32-6.51-35.96-19.11-45.66
				c-11.06-8.52-25.11-10.9-39.57-6.71c-30.99,8.98-29.56,51.93-29.54,52.36L80.44,189.79z M169.4,189.01h209.73
				c-0.02-4.31,0.74-43.11,32.85-51.35c15.45-3.96,29.3-1.91,40.05,5.95c11.28,8.24,18.05,22.08,19.1,38.99l12.8,0.44l5.96-5.96
				h11.39l3.02-6.04l-2.25-4.06l2.28-21.92l-3.89-3.03l-2.42-0.48l-0.07-0.2c-1.39-3.91-5.62-14.29-8.49-15.37l-0.25-0.09l0.46-29.9
				l-11.33-9.97c-9.86-12.71-29.36-37.04-32.91-38.46l-0.47-0.19l5.84-7.19c-10.26-0.91-128.45-11.33-160.68-10.02
				c-1.82,0.07-3.67,0.14-5.55,0.2c-33.54,1.17-75.28,2.63-152,60.71l-0.09,0.07l-7.91,0.47c-0.54,0.18-63.29,19.75-73.69,24.73
				c-11.21,5.36-15.38,11.98-15.38,24.43v0.16l-0.11,0.11c-0.04,0.04-3.59,3.66-4.48,9.42c-0.8,5.17-0.19,12.19-0.03,13.79h4.74
				l-0.13,0.48c-0.04,0.13-3.58,12.8-2.49,17.24l0.06,0.23l-0.19,0.15c-0.56,0.45-2.08,1.92-1.77,2.82c0.14,0.41,0.86,1.1,4.03,1.1
				h3.67l40.89,2.72c-0.07-4.52,0.19-44.03,30.09-52.7c14.69-4.26,28.98-1.83,40.23,6.83C162.7,152.91,169.76,169.62,169.4,189.01z"
				/>
		</g>
	</g>
	<g>
		<g>
			<path d="M124.53,206.27c-15.38,0-27.89-12.1-27.89-26.97s12.51-26.97,27.89-26.97c15.38,0,27.89,12.1,27.89,26.97
				S139.91,206.27,124.53,206.27z M124.53,153.08c-14.97,0-27.14,11.76-27.14,26.22s12.18,26.22,27.14,26.22
				c14.97,0,27.14-11.76,27.14-26.22S139.5,153.08,124.53,153.08z"/>
		</g>
	</g>
	<g>
		<g>
			<path d="M124.53,218.53c-20.94,0-37.98-17.04-37.98-37.98s17.04-37.98,37.98-37.98s37.98,17.04,37.98,37.98
				S145.47,218.53,124.53,218.53z M124.53,143.32c-20.53,0-37.23,16.7-37.23,37.23c0,20.53,16.7,37.23,37.23,37.23
				s37.23-16.7,37.23-37.23C161.76,160.02,145.06,143.32,124.53,143.32z"/>
		</g>
	</g>
	<g>
		<g>
			<path d="M426.68,205.02c-15.38,0-27.89-12.1-27.89-26.97s12.51-26.97,27.89-26.97c15.38,0,27.89,12.1,27.89,26.97
				S442.06,205.02,426.68,205.02z M426.68,151.82c-14.97,0-27.14,11.76-27.14,26.22s12.18,26.22,27.14,26.22
				c14.97,0,27.14-11.76,27.14-26.22S441.64,151.82,426.68,151.82z"/>
		</g>
	</g>
	<g>
		<g>
			<path d="M426.68,217.28c-20.94,0-37.98-17.04-37.98-37.98s17.04-37.98,37.98-37.98s37.98,17.04,37.98,37.98
				S447.62,217.28,426.68,217.28z M426.68,142.07c-20.53,0-37.23,16.7-37.23,37.23s16.7,37.23,37.23,37.23s37.23-16.7,37.23-37.23
				S447.2,142.07,426.68,142.07z"/>
		</g>
	</g>
	<g>
		<g>
			<path d="M150.8,101.94c-2.71,0-4.51-0.08-5.25-0.24c-1.89-0.41-2.92-1.17-3.05-2.24c-0.52-4.14,13.6-11.34,15.33-12.21
				c1.35-0.91,56.32-37.78,97.8-45.45c42.65-7.88,135.73-0.8,144.52,2.77c7.17,2.92,9.47,19.33,10.84,29.14
				c0.39,2.76,0.69,4.93,0.99,5.95c0.36,1.19,0.17,2.31-0.55,3.34c-2.23,3.17-8.93,4.63-14.46,4.94c-1.15,0.06-6.75,0.43-15.22,0.98
				C330.13,92.29,181.61,101.94,150.8,101.94z M309.8,38.97c-20.28,0-39.92,0.97-54.04,3.58c-41.63,7.69-96.98,44.97-97.54,45.34
				l-0.04,0.02c-4.29,2.14-15.33,8.38-14.94,11.46c0.09,0.73,0.92,1.26,2.47,1.6c5.99,1.3,85.39-3,235.98-12.79
				c8.48-0.55,14.08-0.92,15.23-0.98c6.73-0.38,12.18-2.19,13.89-4.62c0.58-0.83,0.73-1.74,0.45-2.69
				c-0.32-1.07-0.63-3.27-1.02-6.06c-1.26-9.02-3.61-25.8-10.38-28.55C394.01,42.9,350.63,38.97,309.8,38.97z"/>
		</g>
	</g>
	<g>
		<g>
			<path d="M200.05,98.38l6.84-36.7l0.13-0.09c0.26-0.18,27.07-18.49,87.93-23.17l0.46-0.04l-0.06,0.46
				c-0.27,1.96-6.76,47.99-9.51,53.78l-0.09,0.2l-0.22,0.01L200.05,98.38z M207.57,62.12l-6.61,35.45l84.29-5.46
				c2.6-6.16,8.59-48.02,9.29-52.9C236.36,43.76,209.61,60.77,207.57,62.12z"/>
		</g>
	</g>
	<g>
		<g>
			<path d="M309.54,91.04l5.9-50.94l0.36,0.03l80.1,5.83l0.04,0.3c0.04,0.3,3.98,29.95,3.6,39.05l-0.01,0.34l-0.34,0.02
				L309.54,91.04z M316.1,40.9l-5.72,49.34l88.41-5.3c0.26-8.89-3.15-35.15-3.56-38.28L316.1,40.9z"/>
		</g>
	</g>
	<g>
		<g>
			<polygon points="136.55,91.16 132.33,91.16 132.33,90.41 136.36,90.41 224.81,42.9 220.26,40.84 220.57,40.15 226.5,42.84 			"/>
		</g>
	</g>
	<g>
		<g>
			<rect x="218.58" y="40.38" transform="matrix(0.4799 -0.8773 0.8773 0.4799 75.7187 214.7218)" width="0.75" height="6.24"/>
		</g>
	</g>
	<g>
		<g>
			<path d="M195.24,182.57c-6.45,0-10.61-0.04-11.59-0.14c-5.53-0.57-8.08-13.07-10.54-25.16c-0.65-3.21-1.27-6.24-1.94-9.06
				c-2.35-9.91-1.3-33.07-0.53-49.98c0.28-6.1,0.52-11.37,0.52-14.54c0-11.58,13.74-17.04,14.44-17.31
				c34.75-18.78,45.35-23.92,81.76-29.38c37.58-5.63,129.2,3.52,136.36,6.16c7.77,2.86,15.1,36.91,14.46,49.49
				c-0.67,13.14-8.83,33.89-17.97,39.96c-8.56,5.68-20.88,19.51-25.85,31.93c-4.61,11.52-8.89,16.27-14.79,16.39
				C358.21,180.96,234.5,182.57,195.24,182.57z M298.96,36.03c-12.35,0-23.4,0.49-31.49,1.7c-36.29,5.44-46.86,10.57-81.53,29.31
				l-0.05,0.02c-0.14,0.05-13.97,5.32-13.97,16.62c0,3.18-0.24,8.46-0.52,14.57c-0.77,16.87-1.82,39.97,0.51,49.78
				c0.67,2.84,1.29,5.87,1.95,9.09c2.3,11.27,4.9,24.05,9.88,24.56c6.44,0.67,166.48-1.3,175.83-1.5
				c4.05-0.09,8.57-2.08,14.11-15.92c5.02-12.55,17.47-26.53,26.13-32.28c8.72-5.79,16.98-26.49,17.64-39.37
				c0.7-13.79-6.87-46.14-13.97-48.75C397.51,41.67,340.83,36.03,298.96,36.03z"/>
		</g>
	</g>
	<g>
		<g>
			<path d="M296.38,181.43c-10-35.25,9.43-144.74,9.62-145.84l0.74,0.13c-0.2,1.1-19.59,110.42-9.64,145.51L296.38,181.43z"/>
		</g>
	</g>
	<g>
		<g>
			<rect x="32.61" y="181.32" transform="matrix(0.9999 -0.0156 0.0156 0.9999 -2.8317 0.9046)" width="47.75" height="0.75"/>
		</g>
	</g>
	<g>
		<g>
			<path d="M181.65,182.64c-5.21,0-6.6-4.72-9.09-13.21c-0.78-2.65-1.66-5.64-2.8-9.04c-5.6-16.63-26.27-38.23-60.27-29.56
				c-34.38,8.76-33.67,50.08-33.65,50.5l-0.75,0.02c-0.01-0.42-0.75-42.33,34.22-51.25c34.49-8.79,55.47,13.16,61.16,30.05
				c1.15,3.41,2.03,6.42,2.81,9.07c2.84,9.66,4.02,13.66,10.34,12.47l0.14,0.74C182.99,182.57,182.3,182.64,181.65,182.64z"/>
		</g>
	</g>
	<g>
		<g>
			<path d="M176.18,178.86l-0.19-0.72c0.39-0.13,39.34-13,104.22-15.96c64.87-2.95,93.58,1.79,93.86,1.84l0.47,0.08l-0.19,0.44
				c-0.64,1.49-10.27,1.66-38.02,1.96c-15.61,0.17-35.05,0.37-57.01,1.02C225.63,169.11,176.67,178.77,176.18,178.86z
				 M320.34,161.97c-11.4,0-24.73,0.27-40.1,0.97c-48.99,2.23-83.16,10.12-97.06,13.88c15.55-2.72,54.41-8.82,96.12-10.05
				c21.97-0.65,41.41-0.85,57.02-1.02c17.98-0.19,32.63-0.35,36.43-1.16C368.34,163.97,351.58,161.97,320.34,161.97z"/>
		</g>
	</g>
	<g>
		<g>
			<path d="M357.86,183.65c-28.49,0-127.42-1.19-132.21-1.24l0.01-0.75c1.35,0.02,134.64,1.61,139.61,1.16
				c0.65-0.06,1.29-0.09,1.91-0.12c4.24-0.22,7.3-0.37,8.07-8.25c1.02-10.42,10.1-38.5,39.52-43.21
				c15.87-2.55,30.05,0.47,41.01,8.71c11.88,8.93,19.41,23.87,21.77,43.2l-0.74,0.09c-2.34-19.12-9.77-33.88-21.48-42.69
				c-10.79-8.12-24.78-11.08-40.44-8.57c-28.96,4.64-37.9,32.29-38.9,42.54c-0.83,8.52-4.51,8.71-8.78,8.93
				c-0.61,0.03-1.24,0.06-1.88,0.12C364.69,183.63,362.03,183.65,357.86,183.65z"/>
		</g>
	</g>
	<g>
		<g>
			<path d="M490.15,126.26l-0.7-0.26c-0.33-0.12-33.03-12.65-41.71-31.38l-0.09-0.19l2.74-4.15l0.18-0.02
				c1.03-0.09,25.27-2.1,28.56,3.55c3.2,5.48,10.5,30.66,10.81,31.73L490.15,126.26z M448.5,94.49c7.96,16.82,35.7,28.59,40.5,30.52
				c-1.25-4.28-7.68-25.94-10.53-30.83c-2.92-5-25.41-3.37-27.67-3.19L448.5,94.49z"/>
		</g>
	</g>
	<g>
		<g>
			<rect x="484.67" y="92.33" transform="matrix(0.1279 -0.9918 0.9918 0.1279 326.4799 565.9471)" width="0.75" height="10"/>
		</g>
	</g>
	<g>
		<g>
			<path d="M478.55,86.12c-0.57-0.04-14.11-0.94-17.8-2.79c-3.69-1.84-31.05-31.38-32.21-32.64l-0.28-0.31l0.33-0.25
				c4.64-3.48,16.47-3.29,16.97-3.29l-0.01,0.75c-0.12,0-11.49-0.18-16.17,2.89c3.02,3.25,28.33,30.48,31.7,32.17
				c3.56,1.78,17.37,2.7,17.51,2.71L478.55,86.12z"/>
		</g>
	</g>
	<g>
		<g>
			<path d="M476.06,83l-13.5-3.11l-0.08-0.08c-0.95-0.97-23.21-23.67-25.04-26.42c-0.36-0.54-0.27-1-0.13-1.29
				c1.05-2.24,9.74-3.18,10.72-3.28l0.08,0.75c-3.56,0.36-9.46,1.46-10.12,2.85c-0.06,0.12-0.1,0.29,0.08,0.55
				c1.74,2.61,23.4,24.73,24.87,26.24l13.29,3.06L476.06,83z"/>
		</g>
	</g>
	<g>
		<g>
			<path d="M44.53,137.87l9.56-20.32l0.14-0.05l40.13-14.9c0.32-0.05,5.82-0.71,7.99,1.95c0.68,0.83,0.92,1.87,0.71,3.01
				c-0.76,3.99-6.82,9.19-18.01,15.44c-17.5,9.77-39.55,14.67-39.77,14.71L44.53,137.87z M54.64,118.15l-8.78,18.65
				c4-0.94,23.23-5.76,38.82-14.46c13.69-7.64,17.15-12.33,17.64-14.92c0.18-0.93-0.01-1.74-0.55-2.4c-1.91-2.33-7.18-1.7-7.23-1.7
				L54.64,118.15z"/>
		</g>
	</g>
	<g>
		<g>
			<rect x="35.94" y="127.73" transform="matrix(0.9385 -0.3454 0.3454 0.9385 -41.5647 22.9428)" width="15.31" height="0.75"/>
		</g>
	</g>
	<g>
		<g>
			<rect x="35.43" y="132.01" transform="matrix(0.9683 -0.2499 0.2499 0.9683 -31.748 14.6861)" width="13.08" height="0.75"/>
		</g>
	</g>
	<g>
		<g>
			<rect x="34.97" y="134.06" transform="matrix(0.9478 -0.319 0.319 0.9478 -40.7159 20.2321)" width="12.89" height="0.75"/>
		</g>
	</g>
	<g>
		<g>
			<rect x="34.82" y="138.68" transform="matrix(0.9463 -0.3233 0.3233 0.9463 -42.7957 20.4448)" width="10.66" height="0.75"/>
		</g>
	</g>
	<g>
		<g>
			<path d="M484.45,183.43l-0.75-0.01c0-0.33,0.21-33.33-1.83-43.49c-1.87-9.35-16.03-25.33-18.25-27.79l-21.7,26.65l-0.58-0.47
				l22.25-27.32l0.29,0.32c0.68,0.74,16.66,18.17,18.72,28.47C484.66,150.02,484.45,183.1,484.45,183.43z"/>
		</g>
	</g>
	<g>
		<g>
			<path d="M494.71,169.17c-3.61,0-10.78-0.44-11-3.91c-0.13-1.99,0.23-3.33,1.13-4.22c1.04-1.03,2.74-1.41,5.54-1.22
				c4.81,0.32,6.54,8.51,6.61,8.86l0.09,0.43l-0.44,0.02C496.36,169.14,495.66,169.17,494.71,169.17z M489.11,160.52
				c-1.83,0-3.03,0.34-3.74,1.05c-0.73,0.73-1.02,1.88-0.91,3.64c0.19,2.96,8.1,3.3,11.69,3.18c-0.42-1.66-2.16-7.59-5.82-7.83
				C489.89,160.54,489.49,160.52,489.11,160.52z"/>
		</g>
	</g>
	<g>
		<g>
			<path d="M30.73,149.89l-0.09-0.74c0.24-0.03,23.96-2.99,30.67-8.66c0.43-0.36,0.87-0.74,1.33-1.14
				c6.99-6.01,18.68-16.07,49.62-19.62c23.48-2.7,126.07-10.06,187.37-14.45c23.55-1.69,40.56-2.91,42.09-3.08
				c5.3-0.6,105.32-8.03,106.33-8.1l0.06,0.75c-1.01,0.08-101.02,7.5-106.3,8.1c-1.54,0.17-18.56,1.4-42.12,3.09
				c-61.29,4.4-163.87,11.75-187.33,14.45c-30.71,3.53-42.29,13.5-49.21,19.45c-0.47,0.4-0.91,0.78-1.34,1.15
				C54.91,146.88,31.71,149.77,30.73,149.89z"/>
		</g>
	</g>
	<g>
		<g>
			<path d="M186.38,98.61c-3.36,0-5.93-0.84-6.67-2.31c-0.34-0.68-0.45-1.78,0.96-3.19c0.32-0.32,0.79-0.62,1.38-0.9
				c-0.26-1.81-1.21-10.8,5.35-12.8c5.06-1.54,10.3-2.83,13.8-0.2c2.4,1.8,3.55,5.12,3.5,10.16c0.16,1.17,0.2,2.68-0.9,4.11
				c-1.81,2.35-6.37,3.94-13.96,4.85C188.64,98.53,187.47,98.61,186.38,98.61z M204,89.8c-2.64,0.1-19.81,0.87-22.79,3.85
				c-0.6,0.6-1.23,1.49-0.82,2.32c0.69,1.36,4.2,2.4,9.37,1.63c7.38-0.88,11.78-2.37,13.46-4.56C204.05,91.95,204.11,90.81,204,89.8
				z M196.05,78.47c-2.59,0-5.53,0.8-8.43,1.68c-5.79,1.76-5.13,9.72-4.86,11.77c5.66-2.21,18.77-2.78,21.19-2.86
				c-0.01-4.54-1.08-7.64-3.2-9.22C199.44,78.84,197.83,78.47,196.05,78.47z"/>
		</g>
	</g>
	<g>
		<g>
			<polygon points="182.26,91.01 176.74,91.01 176.74,77.88 203.93,63.02 200.88,79.28 200.14,79.14 202.9,64.44 177.49,78.32 
				177.49,90.26 182.26,90.26 			"/>
		</g>
	</g>
	<g>
		<g>
			<path d="M59.94,177.38l-10.14-0.02c-3.89-1.46-3.47-7.75-3.45-8.02l0.02-0.22l13.57-6.3V177.38z M50,176.63h9.19v-12.64
				l-12.1,5.62C47.05,170.69,47.07,175.47,50,176.63z"/>
		</g>
	</g>
	<g>
		<g>
			<path d="M56.41,177.86l-0.28-0.72c-2.66-6.8-0.1-12.24,0.01-12.47l0.29-0.59l0.36,0.55c0.04,0.06,3.88,6.02,0.01,12.57
				L56.41,177.86z M56.54,165.71c-0.55,1.58-1.59,5.62,0.01,10.38C58.88,171.49,57.32,167.3,56.54,165.71z"/>
		</g>
	</g>
	<g>
		<g>
			<rect x="89.46" y="121.14" transform="matrix(0.7238 -0.69 0.69 0.7238 -67.2783 98.8579)" width="0.75" height="24.65"/>
		</g>
	</g>
	<g>
		<g>
			<path d="M277.31,113.03c-4.02,0-5.96-2.49-6.41-3.15c-1.14-0.19-6.2-1.14-6.99-2.69c-0.16-0.32-0.16-0.65,0-0.97
				c0.95-1.86,5.16-2.26,6.23-2.33c3.27-5.19,12.69-1.76,13.98-1.26c0.72-0.25,4.01-1.3,5.92-0.25c0.7,0.38,1.14,0.98,1.32,1.8
				c0.16,0.73,0.02,1.41-0.42,2.04c-1.43,2.07-5.71,2.89-6.61,3.04C283.83,109.95,281.39,113.03,277.31,113.03z M276.43,101.81
				c-2.32,0-4.57,0.61-5.74,2.62l-0.1,0.17l-0.2,0.01c-1.37,0.07-5.1,0.56-5.8,1.94c-0.05,0.1-0.05,0.19,0,0.29
				c0.5,0.99,4.32,1.95,6.61,2.32l0.17,0.03l0.09,0.15c0.07,0.12,1.78,2.93,5.86,2.93c4.11,0,6.47-3.55,6.5-3.58l0.09-0.14
				l0.17-0.03c0.05-0.01,4.89-0.75,6.27-2.75c0.32-0.46,0.41-0.93,0.3-1.45c-0.13-0.6-0.44-1.02-0.94-1.3
				c-1.82-0.99-5.4,0.33-5.44,0.35l-0.14,0.05l-0.14-0.05C283.92,103.34,280.08,101.81,276.43,101.81z"/>
		</g>
	</g>
	<g>
		<g>
			<path d="M393.93,103.4c-3.53,0-7.03-2.69-7.68-3.22c-0.92-0.03-5.09-0.28-6.28-2c-0.35-0.5-0.41-1.09-0.2-1.71
				c1.02-2.95,5.39-2.56,6.46-2.42c4.31-5.5,11.97-2.03,13.02-1.52c1.23-0.21,7.81-1.21,8.61,1.7c0.13,0.49,0.06,0.98-0.23,1.44
				c-1.24,1.99-6.31,3.12-7.36,3.33c-0.44,0.82-2.45,4.24-6.05,4.38C394.11,103.4,394.02,103.4,393.93,103.4z M384.72,94.71
				c-1.52,0-3.66,0.32-4.24,2.01c-0.14,0.39-0.1,0.73,0.11,1.04c0.89,1.28,4.5,1.64,5.81,1.68l0.13,0l0.1,0.08
				c0.04,0.03,3.93,3.31,7.54,3.12c3.55-0.14,5.47-4.08,5.49-4.12l0.08-0.17l0.19-0.04c1.63-0.31,6.07-1.45,7.05-3.03
				c0.18-0.28,0.23-0.56,0.15-0.85c-0.55-2.01-5.87-1.5-7.87-1.14l-0.13,0.02l-0.11-0.06c-0.08-0.04-8.13-4.21-12.32,1.42
				l-0.14,0.18l-0.23-0.04C386.31,94.82,385.63,94.71,384.72,94.71z"/>
		</g>
	</g>
</g>
<g>
	<g>
		<g>
			<path d="M450.81,433.12c0.02-0.43,1.46-43.38-29.54-52.36c-14.46-4.19-28.51-1.81-39.57,6.71c-12.6,9.7-19.57,26.34-19.11,45.66
				l0.01,0.38H151.33l0.01-0.39c0.01-0.42,0.97-42.45-32.28-50.99c-15.23-3.91-28.86-1.89-39.42,5.83
				c-11.17,8.16-17.85,21.93-18.81,38.77l-0.02,0.34l-13.64,0.47l-0.16,0l-5.97-5.97H29.5l-3.4-6.8l2.33-4.2l-2.3-22.1l4.29-3.34
				l2.24-0.49c0.64-1.77,5.07-13.71,8.62-15.51l-0.46-29.73l11.55-10.15c1.13-1.46,27.04-34.85,32.74-38.41l-6.12-7.53l0.7-0.06
				c1.28-0.12,127.91-11.46,161.48-10.09c1.82,0.07,3.67,0.14,5.54,0.2c33.63,1.18,75.48,2.63,152.34,60.8l7.77,0.47
				c0.63,0.2,63.43,19.79,73.88,24.78c11.33,5.42,15.77,12.42,15.81,24.95c0.64,0.68,3.73,4.22,4.58,9.73
				c0.91,5.94,0.01,14.23,0,14.31l-0.04,0.33h-4.43c0.64,2.36,3.29,12.59,2.42,16.91c0.61,0.52,2.31,2.14,1.83,3.5
				c-0.38,1.08-1.93,1.6-4.74,1.6l-3.64,0l-41.27,2.75l-0.42,0.03L450.81,433.12z M381.25,386.87c11.26-8.67,25.55-11.09,40.23-6.83
				c29.9,8.67,30.16,48.18,30.09,52.7l40.89-2.72h3.67c3.17,0,3.89-0.69,4.03-1.1c0.31-0.9-1.21-2.37-1.77-2.82l-0.19-0.15
				l0.06-0.23c1.08-4.44-2.46-17.11-2.49-17.24l-0.13-0.48h4.74c0.16-1.6,0.76-8.61-0.03-13.79c-0.89-5.76-4.44-9.39-4.48-9.42
				l-0.11-0.11v-0.16c0-12.44-4.17-19.06-15.38-24.43c-10.4-4.97-73.15-24.55-73.69-24.73l-7.91-0.47l-0.09-0.07
				c-76.72-58.08-118.46-59.54-152-60.71c-1.88-0.07-3.73-0.13-5.55-0.2c-32.22-1.31-150.42,9.11-160.68,10.02l5.84,7.19l-0.47,0.19
				c-3.55,1.42-23.05,25.74-32.91,38.46l-11.33,9.97l0.46,29.9l-0.25,0.09c-2.88,1.08-7.1,11.46-8.49,15.37l-0.07,0.2l-2.42,0.48
				l-3.89,3.03l2.28,21.92l-2.25,4.06l3.02,6.04h11.39l5.96,5.96l12.8-0.44c1.05-16.91,7.82-30.75,19.1-38.99
				c10.75-7.86,24.6-9.92,40.05-5.95c32.11,8.24,32.87,47.04,32.85,51.35h209.73C361.47,413.36,368.54,396.66,381.25,386.87z"/>
		</g>
	</g>
	<g>
		<g>
			<path d="M378.81,423.05c0-14.87,12.51-26.97,27.89-26.97c15.38,0,27.89,12.1,27.89,26.97s-12.51,26.97-27.89,26.97
				C391.32,450.02,378.81,437.92,378.81,423.05z M379.56,423.05c0,14.46,12.18,26.22,27.14,26.22c14.97,0,27.14-11.76,27.14-26.22
				s-12.18-26.22-27.14-26.22C391.74,396.82,379.56,408.59,379.56,423.05z"/>
		</g>
	</g>
	<g>
		<g>
			<path d="M368.72,424.3c0-20.94,17.04-37.98,37.98-37.98s37.98,17.04,37.98,37.98s-17.04,37.98-37.98,37.98
				S368.72,445.24,368.72,424.3z M369.47,424.3c0,20.53,16.7,37.23,37.23,37.23s37.23-16.7,37.23-37.23
				c0-20.53-16.7-37.23-37.23-37.23S369.47,403.77,369.47,424.3z"/>
		</g>
	</g>
	<g>
		<g>
			<path d="M76.67,421.79c0-14.87,12.51-26.97,27.89-26.97c15.38,0,27.89,12.1,27.89,26.97s-12.51,26.97-27.89,26.97
				C89.18,448.77,76.67,436.67,76.67,421.79z M77.42,421.79c0,14.46,12.18,26.22,27.14,26.22c14.97,0,27.14-11.76,27.14-26.22
				s-12.18-26.22-27.14-26.22C89.59,395.57,77.42,407.33,77.42,421.79z"/>
		</g>
	</g>
	<g>
		<g>
			<path d="M66.58,423.05c0-20.94,17.04-37.98,37.98-37.98s37.98,17.04,37.98,37.98s-17.04,37.98-37.98,37.98
				S66.58,443.99,66.58,423.05z M67.33,423.05c0,20.53,16.7,37.23,37.23,37.23s37.23-16.7,37.23-37.23s-16.7-37.23-37.23-37.23
				S67.33,402.52,67.33,423.05z"/>
		</g>
	</g>
	<g>
		<g>
			<path d="M149.5,332.68c-8.48-0.55-14.08-0.92-15.22-0.98c-5.53-0.31-12.24-1.77-14.46-4.94c-0.72-1.03-0.91-2.15-0.55-3.34
				c0.3-1.01,0.61-3.19,0.99-5.95c1.37-9.81,3.67-26.23,10.84-29.14c8.78-3.57,101.87-10.65,144.52-2.77
				c41.48,7.67,96.46,44.54,97.8,45.45c1.73,0.86,15.85,8.07,15.33,12.21c-0.13,1.07-1.16,1.83-3.05,2.24
				c-0.74,0.16-2.54,0.24-5.25,0.24C349.62,345.69,201.11,336.03,149.5,332.68z M131.37,289.03c-6.77,2.75-9.12,19.54-10.38,28.55
				c-0.39,2.79-0.7,4.99-1.02,6.06c-0.29,0.96-0.14,1.86,0.45,2.69c1.71,2.43,7.16,4.25,13.89,4.62c1.15,0.06,6.75,0.43,15.23,0.98
				c150.59,9.79,229.99,14.09,235.98,12.79c1.55-0.34,2.38-0.88,2.47-1.6c0.39-3.08-10.65-9.31-14.94-11.46l-0.04-0.02
				c-0.55-0.38-55.91-37.65-97.54-45.34c-14.12-2.61-33.76-3.58-54.04-3.58C180.6,282.72,137.22,286.65,131.37,289.03z"/>
		</g>
	</g>
	<g>
		<g>
			<path d="M245.71,336.59l-0.22-0.01l-0.09-0.2c-2.74-5.79-9.23-51.82-9.51-53.78l-0.06-0.46l0.46,0.04
				c60.85,4.68,87.66,22.98,87.93,23.17l0.13,0.09l6.84,36.7L245.71,336.59z M236.7,282.96c0.69,4.89,6.68,46.74,9.29,52.9
				l84.29,5.46l-6.61-35.45C321.62,304.52,294.87,287.5,236.7,282.96z"/>
		</g>
	</g>
	<g>
		<g>
			<path d="M132.05,329.41l-0.34-0.02l-0.01-0.34c-0.38-9.1,3.56-38.75,3.6-39.05l0.04-0.3l80.1-5.83l0.36-0.03l5.9,50.94
				L132.05,329.41z M136,290.4c-0.41,3.12-3.82,29.39-3.56,38.28l88.41,5.3l-5.72-49.34L136,290.4z"/>
		</g>
	</g>
	<g>
		<g>
			<polygon points="394.68,334.91 398.9,334.91 398.9,334.16 394.87,334.16 306.43,286.64 310.97,284.59 310.66,283.9 
				304.73,286.58 			"/>
		</g>
	</g>
	<g>
		<g>
			<rect x="309.17" y="286.87" transform="matrix(0.8773 -0.4799 0.4799 0.8773 -99.5364 185.0853)" width="6.24" height="0.75"/>
		</g>
	</g>
	<g>
		<g>
			<path d="M171.66,424.68c-5.89-0.13-10.18-4.88-14.79-16.39c-4.97-12.42-17.29-26.25-25.85-31.93
				c-9.14-6.07-17.31-26.82-17.97-39.96c-0.64-12.58,6.69-46.64,14.46-49.49c7.16-2.63,98.78-11.79,136.36-6.16
				c36.41,5.46,47.01,10.6,81.76,29.38c0.7,0.27,14.44,5.73,14.44,17.31c0,3.17,0.24,8.44,0.52,14.54
				c0.77,16.91,1.82,40.08-0.53,49.98c-0.67,2.82-1.29,5.85-1.94,9.06c-2.46,12.09-5.01,24.59-10.54,25.16
				c-0.98,0.1-5.14,0.14-11.59,0.14C296.73,426.32,173.02,424.7,171.66,424.68z M127.77,287.6c-7.1,2.61-14.67,34.96-13.97,48.75
				c0.66,12.89,8.92,33.59,17.64,39.37c8.66,5.75,21.11,19.72,26.13,32.28c5.54,13.85,10.05,15.84,14.11,15.92
				c9.34,0.2,169.38,2.17,175.83,1.5c4.98-0.52,7.59-13.29,9.88-24.56c0.65-3.21,1.27-6.25,1.95-9.09
				c2.33-9.8,1.27-32.91,0.51-49.78c-0.28-6.11-0.52-11.39-0.52-14.57c0-11.29-13.83-16.56-13.97-16.62l-0.05-0.02
				c-34.67-18.74-45.24-23.87-81.53-29.31c-8.09-1.21-19.14-1.7-31.49-1.7C190.41,279.78,133.72,285.41,127.77,287.6z"/>
		</g>
	</g>
	<g>
		<g>
			<path d="M234.86,425.18c10-35.25-9.43-144.74-9.62-145.84l-0.74,0.13c0.2,1.1,19.59,110.42,9.64,145.51L234.86,425.18z"/>
		</g>
	</g>
	<g>
		<g>
			<rect x="474.38" y="401.57" transform="matrix(0.0156 -0.9999 0.9999 0.0156 41.9504 893.4888)" width="0.75" height="47.75"/>
		</g>
	</g>
	<g>
		<g>
			<path d="M349.58,426.38c5.21,0,6.6-4.72,9.09-13.21c0.78-2.65,1.66-5.64,2.8-9.04c5.6-16.63,26.27-38.23,60.27-29.56
				c34.38,8.76,33.67,50.08,33.65,50.5l0.75,0.02c0.01-0.42,0.75-42.33-34.22-51.25c-34.49-8.79-55.47,13.16-61.16,30.05
				c-1.15,3.41-2.03,6.42-2.81,9.07c-2.84,9.66-4.02,13.66-10.34,12.47l-0.14,0.74C348.24,426.31,348.94,426.38,349.58,426.38z"/>
		</g>
	</g>
	<g>
		<g>
			<path d="M251.91,411.27c-21.96-0.65-41.39-0.85-57.01-1.02c-27.75-0.29-37.38-0.47-38.02-1.96l-0.19-0.44l0.47-0.08
				c0.28-0.05,28.99-4.79,93.86-1.84c64.88,2.95,103.83,15.83,104.22,15.96l-0.19,0.72C354.56,422.51,305.6,412.85,251.91,411.27z
				 M158.48,408.33c3.81,0.82,18.45,0.97,36.43,1.16c15.62,0.17,35.05,0.37,57.02,1.02c41.71,1.23,80.57,7.33,96.12,10.05
				c-13.91-3.77-48.07-11.66-97.06-13.88c-15.37-0.7-28.7-0.97-40.1-0.97C179.66,405.72,162.89,407.72,158.48,408.33z"/>
		</g>
	</g>
	<g>
		<g>
			<path d="M173.37,427.4c28.49,0,127.42-1.19,132.21-1.24l-0.01-0.75c-1.35,0.02-134.64,1.61-139.61,1.16
				c-0.65-0.06-1.29-0.09-1.91-0.12c-4.24-0.22-7.3-0.37-8.07-8.25c-1.02-10.42-10.1-38.5-39.52-43.21
				c-15.87-2.55-30.05,0.47-41.01,8.71c-11.88,8.93-19.41,23.87-21.77,43.2l0.74,0.09c2.34-19.12,9.77-33.88,21.48-42.69
				c10.79-8.12,24.78-11.08,40.44-8.57c28.96,4.64,37.9,32.29,38.9,42.54c0.83,8.52,4.51,8.71,8.78,8.93
				c0.61,0.03,1.24,0.06,1.88,0.12C166.54,427.38,169.2,427.4,173.37,427.4z"/>
		</g>
	</g>
	<g>
		<g>
			<path d="M41.3,369.29c0.31-1.07,7.62-26.25,10.81-31.73c3.29-5.64,27.53-3.64,28.56-3.55l0.18,0.02l2.74,4.15l-0.09,0.19
				c-8.68,18.73-41.38,31.25-41.71,31.38l-0.7,0.26L41.3,369.29z M80.42,334.74c-2.26-0.18-24.75-1.81-27.67,3.19
				c-2.85,4.89-9.27,26.54-10.53,30.83c4.8-1.93,32.54-13.7,40.5-30.52L80.42,334.74z"/>
		</g>
	</g>
	<g>
		<g>
			<rect x="41.19" y="340.71" transform="matrix(0.9918 -0.1279 0.1279 0.9918 -43.2378 8.7073)" width="10" height="0.75"/>
		</g>
	</g>
	<g>
		<g>
			<path d="M52.69,329.87c0.57-0.04,14.11-0.94,17.8-2.79c3.69-1.84,31.05-31.38,32.21-32.64l0.28-0.31l-0.33-0.25
				c-4.64-3.48-16.47-3.29-16.97-3.29l0.01,0.75c0.12,0,11.49-0.18,16.17,2.89c-3.02,3.25-28.33,30.48-31.7,32.17
				c-3.56,1.78-17.37,2.7-17.51,2.71L52.69,329.87z"/>
		</g>
	</g>
	<g>
		<g>
			<path d="M55.17,326.75l13.5-3.11l0.08-0.08c0.95-0.97,23.21-23.67,25.04-26.42c0.36-0.54,0.27-1,0.13-1.29
				c-1.05-2.24-9.74-3.18-10.72-3.28l-0.08,0.75c3.56,0.36,9.46,1.46,10.12,2.85c0.06,0.12,0.1,0.29-0.08,0.55
				c-1.74,2.61-23.4,24.73-24.87,26.24L55,326.02L55.17,326.75z"/>
		</g>
	</g>
	<g>
		<g>
			<path d="M485.96,381.45c-0.22-0.05-22.27-4.94-39.77-14.71c-11.19-6.25-17.25-11.44-18.01-15.44c-0.22-1.14,0.03-2.18,0.71-3.01
				c2.17-2.65,7.67-2,7.99-1.95l40.13,14.9l0.14,0.05l9.56,20.32L485.96,381.45z M436.69,347.06c-0.05,0-5.32-0.63-7.23,1.7
				c-0.54,0.66-0.73,1.47-0.55,2.4c0.49,2.59,3.95,7.28,17.64,14.92c15.59,8.7,34.82,13.52,38.82,14.46l-8.78-18.65L436.69,347.06z"
				/>
		</g>
	</g>
	<g>
		<g>
			<rect x="487.26" y="364.2" transform="matrix(0.3454 -0.9385 0.9385 0.3454 -29.7611 701.0383)" width="0.75" height="15.31"/>
		</g>
	</g>
	<g>
		<g>
			<rect x="488.89" y="369.59" transform="matrix(0.2499 -0.9683 0.9683 0.2499 2.8122 755.8888)" width="0.75" height="13.08"/>
		</g>
	</g>
	<g>
		<g>
			<rect x="489.44" y="371.74" transform="matrix(0.319 -0.9478 0.9478 0.319 -24.844 721.7891)" width="0.75" height="12.89"/>
		</g>
	</g>
	<g>
		<g>
			<rect x="490.71" y="377.47" transform="matrix(0.3233 -0.9463 0.9463 0.3233 -29.9155 723.7774)" width="0.75" height="10.66"/>
		</g>
	</g>
	<g>
		<g>
			<path d="M46.78,427.18l0.75-0.01c0-0.33-0.21-33.33,1.83-43.49c1.87-9.35,16.03-25.33,18.25-27.79l21.7,26.65l0.58-0.47
				l-22.25-27.32l-0.29,0.32c-0.68,0.74-16.66,18.17-18.72,28.47C46.58,393.77,46.78,426.84,46.78,427.18z"/>
		</g>
	</g>
	<g>
		<g>
			<path d="M34.61,412.87l-0.44-0.02l0.09-0.43c0.07-0.35,1.79-8.54,6.61-8.86c2.79-0.19,4.5,0.19,5.54,1.22
				c0.89,0.89,1.25,2.23,1.13,4.22c-0.22,3.47-7.39,3.91-11,3.91C35.58,412.92,34.87,412.89,34.61,412.87z M40.91,404.31
				c-3.66,0.24-5.4,6.17-5.82,7.83c3.58,0.12,11.5-0.23,11.69-3.18c0.11-1.76-0.18-2.91-0.91-3.64c-0.71-0.71-1.92-1.05-3.74-1.05
				C41.75,404.27,41.34,404.28,40.91,404.31z"/>
		</g>
	</g>
	<g>
		<g>
			<path d="M500.51,393.64l0.09-0.74c-0.24-0.03-23.96-2.99-30.67-8.66c-0.43-0.36-0.87-0.74-1.33-1.14
				c-6.99-6.01-18.68-16.07-49.62-19.62c-23.48-2.7-126.07-10.06-187.37-14.45c-23.55-1.69-40.56-2.91-42.09-3.08
				c-5.3-0.6-105.32-8.03-106.33-8.1l-0.06,0.75c1.01,0.08,101.02,7.5,106.3,8.1c1.54,0.17,18.56,1.4,42.12,3.09
				c61.29,4.4,163.87,11.75,187.33,14.45c30.71,3.53,42.29,13.5,49.21,19.45c0.47,0.4,0.91,0.78,1.34,1.15
				C476.33,390.62,499.52,393.52,500.51,393.64z"/>
		</g>
	</g>
	<g>
		<g>
			<path d="M341.38,342.09c-7.58-0.91-12.15-2.49-13.96-4.85c-1.1-1.43-1.06-2.95-0.9-4.11c-0.05-5.04,1.09-8.36,3.5-10.16
				c3.51-2.63,8.74-1.34,13.8,0.2c6.56,2,5.62,10.98,5.35,12.8c0.58,0.28,1.05,0.58,1.38,0.9c1.41,1.41,1.3,2.51,0.96,3.19
				c-0.74,1.47-3.31,2.31-6.67,2.31C343.77,342.36,342.6,342.28,341.38,342.09z M328.02,336.79c1.68,2.19,6.08,3.68,13.46,4.56
				c5.16,0.77,8.68-0.27,9.37-1.63c0.41-0.82-0.22-1.71-0.82-2.32c-2.99-2.99-20.15-3.75-22.79-3.85
				C327.12,334.56,327.18,335.7,328.02,336.79z M330.48,323.58c-2.12,1.58-3.19,4.69-3.2,9.22c2.42,0.09,15.53,0.66,21.19,2.86
				c0.27-2.06,0.93-10.01-4.86-11.77c-2.89-0.88-5.83-1.68-8.43-1.68C333.4,322.21,331.79,322.59,330.48,323.58z"/>
		</g>
	</g>
	<g>
		<g>
			<polygon points="348.97,334.76 354.49,334.76 354.49,321.63 327.31,306.77 330.36,323.02 331.1,322.88 328.34,308.19 
				353.74,322.07 353.74,334.01 348.97,334.01 			"/>
		</g>
	</g>
	<g>
		<g>
			<path d="M471.29,406.56l13.57,6.3l0.02,0.22c0.02,0.27,0.43,6.56-3.45,8.02l-10.14,0.02V406.56z M484.15,413.35l-12.1-5.62v12.64
				h9.19C484.16,419.21,484.18,414.43,484.15,413.35z"/>
		</g>
	</g>
	<g>
		<g>
			<path d="M474.43,420.94c-3.87-6.55-0.03-12.51,0.01-12.57l0.36-0.55l0.29,0.59c0.11,0.23,2.67,5.67,0.01,12.47l-0.28,0.72
				L474.43,420.94z M474.68,419.85c1.6-4.77,0.56-8.8,0.01-10.38C473.92,411.05,472.35,415.23,474.68,419.85z"/>
		</g>
	</g>
	<g>
		<g>
			<rect x="429.07" y="376.83" transform="matrix(0.69 -0.7238 0.7238 0.69 -136.1984 436.389)" width="24.65" height="0.75"/>
		</g>
	</g>
	<g>
		<g>
			<path d="M246.89,352.99c-0.9-0.15-5.18-0.97-6.61-3.04c-0.43-0.63-0.57-1.31-0.42-2.04c0.18-0.81,0.62-1.42,1.32-1.8
				c1.92-1.04,5.2,0,5.92,0.25c1.3-0.5,10.71-3.93,13.98,1.26c1.07,0.07,5.28,0.48,6.23,2.33c0.16,0.32,0.16,0.66,0,0.97
				c-0.78,1.55-5.85,2.5-6.99,2.69c-0.44,0.66-2.39,3.15-6.41,3.15C249.84,356.77,247.4,353.7,246.89,352.99z M247.25,347.11
				l-0.14,0.05l-0.14-0.05c-0.04-0.01-3.62-1.33-5.44-0.35c-0.5,0.27-0.81,0.7-0.94,1.3c-0.11,0.52-0.01,1,0.3,1.45
				c1.38,2,6.22,2.75,6.27,2.75l0.17,0.03l0.09,0.14c0.02,0.04,2.38,3.58,6.5,3.58c4.08,0,5.79-2.81,5.86-2.93l0.09-0.15l0.17-0.03
				c2.29-0.37,6.11-1.33,6.61-2.32c0.05-0.1,0.05-0.19,0-0.29c-0.7-1.38-4.43-1.87-5.8-1.94l-0.2-0.01l-0.1-0.17
				c-1.17-2-3.42-2.62-5.74-2.62C251.15,345.56,247.31,347.09,247.25,347.11z"/>
		</g>
	</g>
	<g>
		<g>
			<path d="M137.03,347.14c-3.59-0.14-5.61-3.56-6.05-4.38c-1.05-0.21-6.12-1.34-7.36-3.33c-0.29-0.46-0.37-0.95-0.23-1.44
				c0.8-2.91,7.37-1.91,8.61-1.7c1.05-0.51,8.71-3.98,13.02,1.52c1.06-0.14,5.44-0.53,6.46,2.42c0.21,0.62,0.15,1.21-0.2,1.71
				c-1.19,1.71-5.37,1.96-6.28,2c-0.65,0.53-4.15,3.22-7.68,3.22C137.21,347.15,137.12,347.14,137.03,347.14z M144.9,338.58
				l-0.23,0.04l-0.14-0.18c-4.19-5.63-12.24-1.46-12.32-1.42l-0.11,0.06l-0.13-0.02c-2-0.37-7.32-0.87-7.87,1.14
				c-0.08,0.28-0.03,0.56,0.15,0.85c0.98,1.58,5.42,2.72,7.05,3.03l0.19,0.04l0.08,0.17c0.02,0.04,1.94,3.98,5.49,4.12
				c3.61,0.19,7.5-3.09,7.54-3.12l0.1-0.08l0.13,0c1.32-0.03,4.93-0.4,5.81-1.68c0.21-0.3,0.24-0.64,0.11-1.04
				c-0.59-1.69-2.72-2.01-4.24-2.01C145.61,338.46,144.92,338.57,144.9,338.58z"/>
		</g>
	</g>
</g>
<g>
	<g>
		<path d="M754.58,189.94c-11.21,0-42.54-1.82-45.94-3.43c-3.8-1.78-89.24-0.42-95.68-0.19c-6.34,0.23-49.54,3.41-49.98,3.44
			l-0.22,0.02l-0.12-0.18c-0.19-0.29-4.64-7.03-4.64-11.55c0-4.41-1.14-41.25-1.15-41.62c-0.19-1.02-1.81-10.5,0.08-12.86
			c1.4-1.75,4.3-13.2,5.65-19.06c-0.1-2.42,0.17-4.75,0.81-6.93l0.72,0.21c-0.61,2.11-0.87,4.38-0.78,6.74l0,0.05l-0.01,0.05
			c-0.16,0.7-3.94,17.08-5.8,19.41c-1.42,1.77-0.43,9.49,0.08,12.31c0.02,0.43,1.16,37.27,1.16,41.7c0,3.9,3.69,9.84,4.4,10.95
			c3.37-0.25,43.67-3.21,49.78-3.42c6.58-0.24,92.02-1.61,96.02,0.26c4,1.88,46.82,4.08,49.23,3.2c2.4-0.87,3.52-6.09,4.12-8.9
			c0.66-3.07,3.49-50.77,3.66-53.49l-3.15-5.17c-0.96-3.01-5.55-17.67-5.32-19.06c0.04-0.23,0.37-2.35,0.32-4.41l0.75-0.02
			c0.04,2.08-0.27,4.15-0.33,4.55c-0.15,0.96,3.15,11.94,5.26,18.63l3.23,5.29l-0.01,0.12c-0.12,2.06-2.99,50.52-3.68,53.72
			c-0.88,4.08-2.03,8.51-4.6,9.44C758.06,189.88,756.66,189.94,754.58,189.94z"/>
	</g>
</g>
<g>
	<g>
		<path d="M756.07,93.66c-1.87-2.01-4.9-6.05-4.93-6.09l-0.06-0.13c-0.07-0.26-7.25-26.54-21.24-50.26
			c-0.52-0.31-1.13-0.6-1.82-0.86l-0.24-0.1c-17.27-6.54-85.68-5.63-105.18-4.44c-15.83,0.97-25.39,3.88-29.68,5.53
			c-1.33,0.51-2.12,0.89-2.39,1.03c-1,2.02-15.28,30.95-20.1,50.03l-0.04,0.14l-0.12,0.08c-0.02,0.01-2.16,1.47-4.04,4.47l-0.64-0.4
			c1.73-2.76,3.64-4.25,4.14-4.61c5.03-19.76,20.02-49.86,20.17-50.16l0.05-0.11l0.1-0.06c0.03-0.02,0.86-0.46,2.58-1.12
			c4.33-1.66,13.97-4.6,29.9-5.57c19.63-1.2,88.76-2.09,105.74,4.58l0.24,0.1c0.67,0.27,1.27,0.56,1.78,0.88l0.13,0.13
			c13.73,23.23,20.93,48.93,21.35,50.46c0.37,0.5,3.11,4.12,4.83,5.97L756.07,93.66z"/>
	</g>
</g>
<g>
	<g>
		<path d="M607.7,136.3l-39.29-7.81l-0.07-0.2c-4.93-13.94-0.93-21.08,1.02-23.5c1.7-2.11,3.89-3.34,5.57-3.13
			c3.72,0.46,24.29,15.04,25.16,15.66l0.11,0.08l0.03,0.13c0.04,0.14,3.91,14.41,6.81,17.98L607.7,136.3z M568.97,127.84l36.93,7.34
			c-2.77-4.37-5.96-15.89-6.36-17.33c-7.38-5.24-21.9-15.1-24.71-15.45c-1.17-0.14-3.14,0.68-4.89,2.86
			C568.08,107.57,564.27,114.39,568.97,127.84z"/>
	</g>
</g>
<g>
	<g>
		<path d="M714.12,137.4l8.81-20.48l0.08-0.06c0.82-0.63,20.01-15.23,24.45-15.23c0.04,0,0.07,0,0.11,0
			c2.06,0.12,5.2,1.81,7.23,5.21c2.22,3.72,3.78,10.51-1.41,21.71l-0.08,0.17L714.12,137.4z M723.54,117.4l-8.16,18.96l37.4-8.29
			c4.96-10.8,3.49-17.29,1.37-20.84c-1.89-3.17-4.76-4.74-6.63-4.85c-0.03,0-0.06,0-0.09,0
			C743.99,102.38,729.13,113.13,723.54,117.4z"/>
	</g>
</g>
<g>
	<g>
		<path d="M662.17,125.75c-35.86,0-62.01-7.66-62.41-7.78l0.22-0.72c0.6,0.18,60.25,17.64,123.15-0.46l0.21,0.72
			C701.83,123.71,680.7,125.75,662.17,125.75z"/>
	</g>
</g>
<g>
	<g>
		<path d="M576.82,103.01c-0.03-0.13-3.2-12.84,2.08-23.39c5.21-10.42,17.07-36.87,17.19-37.13l3.44-7.9l0.69,0.3l-3.44,7.9
			c-0.12,0.27-11.99,26.73-17.21,37.17c-5.15,10.3-2.05,22.75-2.02,22.87L576.82,103.01z"/>
	</g>
</g>
<g>
	<g>
		<path d="M747.91,102.03l-0.75-0.04c0-0.05,0.22-4.62-0.23-10.48c-0.45-5.83-20.4-48.28-20.6-48.71l-3.45-8.13l0.69-0.29l3.44,8.11
			c0.82,1.74,20.21,43,20.67,48.96C748.14,97.37,747.92,101.98,747.91,102.03z"/>
	</g>
</g>
<g>
	<g>
		<path d="M596.45,43.01l-0.04-0.75c0.95-0.05,95.14-4.76,130.31,0l-0.1,0.74C691.52,38.25,597.4,42.96,596.45,43.01z"/>
	</g>
</g>
<g>
	<g>
		<path d="M683.01,90.59c-48.36,0-102.74-2.59-103.56-2.63l-0.46-0.02l0.12-0.45c1.59-6.15,16.36-40.33,16.99-41.79l0.09-0.21
			l0.23-0.01c0.96-0.06,96.27-5.9,128.73,0l0.17,0.03l0.09,0.16c0.15,0.27,15.2,27.51,18.84,41.82l0.1,0.4l-0.41,0.06
			C730.24,89.93,707.39,90.59,683.01,90.59z M579.95,87.23c8.34,0.39,123.58,5.65,163.45,0.04c-3.64-13.75-17.36-38.86-18.58-41.08
			c-31.75-5.69-122.89-0.29-128.14,0.02C595.44,49.1,581.98,80.34,579.95,87.23z"/>
	</g>
</g>
<g>
	<g>
		<path d="M673.75,93.19c-50.21,0-96.69-2.55-97.39-2.59l0.04-0.75c1.05,0.06,105.6,5.79,170.64,0l0.07,0.75
			C725.3,92.54,699.05,93.19,673.75,93.19z"/>
	</g>
</g>
<g>
	<g>
		<path d="M566.68,102.15l-0.69-0.28c0.05-0.13,5.37-13.12,7.65-17.22c2.25-4.06,18.63-47.39,18.8-47.83l0.7,0.27
			c-0.67,1.79-16.56,43.82-18.84,47.93C572.03,89.07,566.73,102.02,566.68,102.15z"/>
	</g>
</g>
<g>
	<g>
		<path d="M754.98,102.12c-0.04-0.11-3.67-10.73-5-12.73c-1.38-2.07-21.33-51.2-22.17-53.29l0.7-0.28
			c7.18,17.68,21.03,51.55,22.1,53.16c1.39,2.08,4.94,12.46,5.09,12.91L754.98,102.12z"/>
	</g>
</g>
<g>
	<g>
		<path d="M567.48,99.12c-2.21-1.26-18.03-3.34-22.75-3.83c-4.6-0.48-6.49-4.73-6.57-4.91l-0.25-0.57l0.62,0.05
			c0.96,0.07,23.41,1.79,24.78,1.94c1.4,0.16,6.28,1.86,6.49,1.93l-0.25,0.71c-0.05-0.02-5.01-1.75-6.32-1.9
			c-1.22-0.14-20.21-1.59-24.07-1.88c0.67,1.13,2.47,3.56,5.65,3.89c4.02,0.42,20.61,2.53,23.05,3.92L567.48,99.12z"/>
	</g>
</g>
<g>
	<g>
		<path d="M563.63,92.19l-0.75-0.06l0.9-11.83c-1.06-0.53-6.37-2.76-16.2-0.77c-3.7,0.75-6.3,2.28-7.71,4.54
			c-1.81,2.89-1.03,6.02-1.02,6.05l-0.73,0.19c-0.04-0.14-0.87-3.46,1.1-6.63c1.53-2.45,4.29-4.09,8.21-4.89
			c11.32-2.3,16.71,0.83,16.93,0.96l0.2,0.12L563.63,92.19z"/>
	</g>
</g>
<g>
	<g>
		<path d="M544.69,90.78c-0.55-3.9-6.11-3.86-6.19-3.86l-0.01-0.75c0.06-0.01,6.3-0.05,6.94,4.5L544.69,90.78z"/>
	</g>
</g>
<g>
	<g>
		<path d="M754.15,98.88l-0.09-0.74c25.7-3,28.85-6.3,29.2-7.23c0.04-0.1,0.05-0.19,0.04-0.25c-1.6,0.26-9.46,1.49-16.26,1.89
			c-7.52,0.45-14.42,1.94-14.49,1.96l-0.16-0.73c0.07-0.02,7.02-1.52,14.6-1.97c7.54-0.45,16.38-1.92,16.47-1.93l0.2-0.03l0.14,0.15
			c0.16,0.17,0.36,0.62,0.15,1.19C783.21,93.18,777.42,96.16,754.15,98.88z"/>
	</g>
</g>
<g>
	<g>
		<path d="M758.25,93.16h-0.75V78.55l0.31-0.05c0.64-0.11,15.8-2.54,22.75,3.54c2.33,2.03,3.45,4.79,3.35,8.21l-0.75-0.02
			c0.09-3.18-0.95-5.75-3.1-7.62c-6.15-5.37-19.6-3.72-21.82-3.41V93.16z"/>
	</g>
</g>
<g>
	<g>
		<path d="M777.06,91.28l-0.74-0.13c0.65-3.72,6.11-5.68,6.34-5.76l0.25,0.71C782.87,86.11,777.64,87.99,777.06,91.28z"/>
	</g>
</g>
<g>
	<g>
		<path d="M656.45,146.58c-6.08,0-12.01-0.25-17.56-0.84c-28.31-3.02-38.92-5.7-51.22-8.81c-2.63-0.67-5.33-1.35-8.29-2.05
			c-16.66-3.97-20.91-14.46-20.95-14.56l0.7-0.27c0.04,0.1,4.17,10.23,20.42,14.11c2.96,0.71,5.67,1.39,8.3,2.06
			c12.27,3.1,22.86,5.78,51.11,8.79c36.04,3.85,88.47-6.73,90.69-7.18l0.97-0.2c8.04-1.62,24.76-4.98,31.83-17.62l0.65,0.37
			c-7.24,12.94-24.19,16.35-32.34,17.99l-0.96,0.19C727.93,138.93,689.98,146.58,656.45,146.58z"/>
	</g>
</g>
<g>
	<g>
		<path d="M765.45,135.88c-2.84-6.53-10.87-11.13-10.95-11.18l0.37-0.65c0.34,0.19,8.33,4.77,11.27,11.53L765.45,135.88z"/>
	</g>
</g>
<g>
	<g>
		<path d="M557.59,136.5l-0.73-0.16c1.62-7.49,9.96-12.67,10.32-12.88l0.39,0.64C567.48,124.15,559.14,129.33,557.59,136.5z"/>
	</g>
</g>
<g>
	<g>
		<path d="M557.22,123.81"/>
	</g>
</g>
<g>
	<g>
		<path d="M609.45,183.7l-50.69-1.73l0.03-0.75l47.84,1.63c-5.64-3.38-29.29-17.2-41.74-18.92l0.1-0.74
			c14.28,1.97,42.97,19.59,43.25,19.77L609.45,183.7z"/>
	</g>
</g>
<g>
	<g>
		<path d="M565.54,181.85c-2-52.29-6.23-57.63-7.48-58.02c-0.31-0.09-0.51,0.16-0.54,0.19l-0.61-0.44c0.19-0.27,0.69-0.67,1.35-0.48
			c3.82,1.14,6.6,21.44,8.02,58.71L565.54,181.85z"/>
	</g>
</g>
<g>
	<g>
		<path d="M706.04,180.74h-91.26c-4.1,0-12.95-20.1-13.95-22.39l-0.23-0.52h120.49l-0.18,0.5
			C720.58,159.25,712.8,180.74,706.04,180.74z M601.74,158.58c3.86,8.81,10.35,21.42,13.03,21.42h91.26
			c5.7,0,12.76-18.14,13.98-21.42H601.74z"/>
	</g>
</g>
<g>
	<g>
		<rect x="603.62" y="163.18" width="114.8" height="0.75"/>
	</g>
</g>
<g>
	<g>
		<rect x="605.46" y="166.92" width="111.28" height="0.75"/>
	</g>
</g>
<g>
	<g>
		<rect x="607.36" y="170.56" width="107.54" height="0.75"/>
	</g>
</g>
<g>
	<g>
		<rect x="608.76" y="173.04" width="104.73" height="0.75"/>
	</g>
</g>
<g>
	<g>
		<rect x="610.92" y="176.45" width="100.69" height="0.75"/>
	</g>
</g>
<g>
	<g>
		<path d="M714.9,183.65c-0.15,0-0.28-0.09-0.34-0.22c-0.06-0.15-0.03-0.32,0.09-0.42c6.12-5.74,29.46-15.44,38.41-19.03
			c-16.03,3.7-45.9,19.46-46.23,19.63l-0.35-0.66c0.35-0.19,34.96-18.44,49.84-20.33c0.34-5.16,0.66-10.89,0.87-16.41
			c0.61-16.21,6.27-23.46,6.51-23.76l0.59,0.47c-0.06,0.07-5.74,7.38-6.34,23.31c-0.21,5.63-0.54,11.47-0.89,16.71
			c0,0.02,0,0.05,0,0.07c-0.64,9.71-1.31,17.28-1.32,17.4c-0.02,0.18-0.16,0.33-0.35,0.34l-40.44,2.91
			C714.92,183.65,714.91,183.65,714.9,183.65z M756.25,163.51c-4.28,1.68-32.1,12.76-40.25,19.31l38.99-2.8
			C755.12,178.51,755.69,171.85,756.25,163.51z"/>
	</g>
</g>
<g>
	<g>
		<path d="M614.23,183.65c-5.16,0-10.54-11.91-14.48-20.62c-0.43-0.95-0.84-1.86-1.22-2.68c-3.56-7.72-35.41-19.8-35.73-19.92
			c-0.19-0.07-0.29-0.27-0.22-0.46c0.06-0.19,0.26-0.3,0.45-0.25c1.39,0.37,34.16,9.18,39.83,18.29l-0.64,0.4
			c-3.87-6.22-21.53-12.51-31.84-15.74c9.8,4.11,26.22,11.7,28.83,17.37c0.38,0.82,0.79,1.73,1.22,2.68
			c3.66,8.09,9.16,20.35,13.87,20.18c4.68-0.13,65.27-0.04,85.18-0.01c3.56,0.01,5.83-0.02,6.24,0.01c2.63,0,10.69-6.63,13.24-15.71
			c2.36-8.38,9.11-15.59,34.7-25.1c-19.41,3.79-35.93,16.28-36.1,16.41l-0.46-0.6c0.19-0.14,19.13-14.46,40.38-17.2
			c0.18-0.03,0.37,0.1,0.41,0.29c0.04,0.19-0.06,0.38-0.24,0.44c-28.39,10.09-35.58,17.42-37.98,25.96
			c-2.59,9.22-10.83,16.25-13.97,16.25c-0.39,0-2.68,0-6.24-0.01c-19.91-0.03-80.5-0.12-85.16,0.01
			C614.3,183.65,614.26,183.65,614.23,183.65z"/>
	</g>
</g>
<g>
	<g>
		<path d="M660.35,143.97c-15.36,0-32.92-1.68-51.03-6.73c-0.11-0.03-0.2-0.11-0.24-0.21l-4.89-11.45c-0.06-0.14-0.03-0.29,0.07-0.4
			c0.1-0.11,0.26-0.15,0.4-0.1c0.35,0.12,36.17,11.99,113.71-0.02c0.14-0.03,0.28,0.04,0.36,0.15c0.08,0.11,0.1,0.26,0.04,0.39
			l-5.51,11.45c-0.04,0.09-0.13,0.16-0.23,0.2C712.7,137.34,690.85,143.97,660.35,143.97z M609.7,136.57
			c52.25,14.5,99.87,0.92,102.95,0l5.13-10.65c-71.01,10.9-106.96,1.76-112.58,0.12L609.7,136.57z"/>
	</g>
</g>
<g>
	<g>
		<path d="M711.14,137.63l-0.69-0.3l3.67-8.42c-53.32,10.94-99.28,1.41-105.46,0.01l3.33,8.42l-0.7,0.28l-3.59-9.08
			c-0.05-0.13-0.03-0.28,0.07-0.38s0.23-0.15,0.37-0.12c0.49,0.12,49.35,11.92,106.53,0c0.14-0.03,0.28,0.02,0.37,0.13
			s0.11,0.26,0.05,0.39L711.14,137.63z"/>
	</g>
</g>
<g>
	<g>
		<path d="M667.71,137.02c-30.99,0-58.62-6.37-59.03-6.46l0.17-0.73c0.62,0.15,62.61,14.42,105,0.01l0.24,0.71
			C699.81,135.4,683.33,137.02,667.71,137.02z"/>
	</g>
</g>
<g>
	<g>
		<path d="M663.97,139.37c-30.2,0-53.67-5.49-54.02-5.57l0.17-0.73c0.53,0.12,53.16,12.43,102.33,0l0.18,0.73
			C696.11,137.98,679.18,139.37,663.97,139.37z"/>
	</g>
</g>
<g>
	<g>
		<path d="M664.76,142.02c-29.61,0-53.57-5.9-53.93-5.99l0.18-0.73c0.54,0.14,54.42,13.39,100.49-0.05l0.21,0.72
			C696.17,140.5,679.74,142.02,664.76,142.02z"/>
	</g>
</g>
<g>
	<g>
		<path d="M609.85,181.11c-20.8-12.1-44.75-17.14-44.99-17.19l0.15-0.73c0.24,0.05,24.31,5.11,45.21,17.27L609.85,181.11z"/>
	</g>
</g>
<g>
	<g>
		<path d="M575.43,177.02c-1.42,0-2.84-0.19-4.17-0.57c-5.57-1.59-5.31-12.15-5.3-12.6l0.75,0.02c0,0.1-0.25,10.42,4.76,11.85
			c5.31,1.52,12.21-0.12,13.62-4.9l0.72,0.21C584.63,175.02,580.04,177.02,575.43,177.02z"/>
	</g>
</g>
<g>
	<g>
		<path d="M573.23,175.93c-2.67,0-4.85-2.17-4.85-4.85c0-2.67,2.17-4.85,4.85-4.85s4.85,2.17,4.85,4.85
			C578.08,173.76,575.91,175.93,573.23,175.93z M573.23,166.99c-2.26,0-4.1,1.84-4.1,4.1s1.84,4.1,4.1,4.1s4.1-1.84,4.1-4.1
			S575.49,166.99,573.23,166.99z"/>
	</g>
</g>
<g>
	<g>
		<path d="M747.43,177.21c-0.12,0-0.25,0-0.37-0.01c-7.95-0.44-11.58-4.97-11.73-5.17l0.59-0.46c0.04,0.04,3.6,4.46,11.18,4.88
			c1.48,0.08,2.78-0.39,3.88-1.4c3.71-3.41,3.99-11.85,3.99-11.94l0.75,0.02c-0.01,0.36-0.29,8.84-4.23,12.47
			C750.32,176.67,748.96,177.21,747.43,177.21z"/>
	</g>
</g>
<g>
	<g>
		<path d="M748.49,176.46c-2.76,0-5-2.09-5-4.67s2.24-4.67,5-4.67s5,2.09,5,4.67S751.25,176.46,748.49,176.46z M748.49,167.88
			c-2.34,0-4.25,1.76-4.25,3.92s1.91,3.92,4.25,3.92s4.25-1.76,4.25-3.92S750.84,167.88,748.49,167.88z"/>
	</g>
</g>
<g>
	<g>
		<path d="M582.76,217.74H561c-1.7,0-3.09-1.39-3.09-3.09v-41.23h0.75v41.23c0,1.29,1.05,2.34,2.34,2.34h21.76
			c1.27,0,2.31-1.04,2.31-2.31v-26.99h0.75v26.99C585.82,216.36,584.45,217.74,582.76,217.74z"/>
	</g>
</g>
<g>
	<g>
		<path d="M759.39,217.89h-21.94c-1.93,0-3.51-1.57-3.51-3.51V189.6h0.75v24.78c0,1.52,1.24,2.76,2.76,2.76h21.94
			c1.48,0,2.68-1.2,2.68-2.68v-34.24h0.75v34.24C762.82,216.35,761.28,217.89,759.39,217.89z"/>
	</g>
</g>
<g>
	<g>
		<path d="M622.8,115.01c-0.05,0-0.1-0.01-0.15-0.03c-2.38-1.01-4.49-2.58-6.23-3.98c-1.68-1.35-3.39-2.92-5.38-4.96
			c-1.94-2.05-3.47-3.79-4.79-5.49c-1.77-2.23-3.1-4.14-4.18-6c-0.09-0.16-0.06-0.36,0.08-0.48c0.14-0.12,0.34-0.12,0.48,0
			c2.03,1.72,3.91,3.54,5.33,4.94c1.3,1.27,2.57,2.57,3.83,3.86l1.22,1.25l5.8,6.03c1.35,1.39,2.75,2.83,4.23,4.2
			c0.13,0.12,0.16,0.33,0.06,0.48C623.04,114.95,622.92,115.01,622.8,115.01z M604.08,96.36c0.78,1.17,1.69,2.39,2.75,3.74
			c1.31,1.68,2.82,3.4,4.75,5.43c1.96,2.01,3.65,3.57,5.3,4.89c1.13,0.9,2.4,1.88,3.8,2.71c-0.82-0.81-1.62-1.64-2.4-2.44
			l-0.84-0.87l-6.18-6.41c-1.26-1.29-2.53-2.58-3.82-3.85C606.5,98.63,605.35,97.51,604.08,96.36z"/>
	</g>
</g>
<g>
	<g>
		<path d="M701.4,115.01c-0.12,0-0.24-0.06-0.31-0.17c-0.1-0.15-0.07-0.36,0.06-0.48c1.48-1.36,2.88-2.8,4.23-4.19l0.85-0.87
			l6.17-6.4c1.27-1.3,2.54-2.6,3.85-3.88c1.41-1.4,3.3-3.22,5.33-4.94c0.14-0.12,0.34-0.12,0.48,0c0.14,0.12,0.18,0.32,0.08,0.48
			c-1.08,1.86-2.41,3.77-4.18,6c-1.33,1.7-2.85,3.44-4.79,5.48c-1.99,2.04-3.7,3.62-5.38,4.96c-1.75,1.4-3.85,2.97-6.23,3.98
			C701.5,115,701.45,115.01,701.4,115.01z M720.12,96.36c-1.26,1.15-2.41,2.27-3.35,3.2c-1.3,1.27-2.57,2.57-3.83,3.86l-1.21,1.24
			l-5.81,6.04c-0.78,0.8-1.58,1.62-2.4,2.44c1.4-0.84,2.67-1.81,3.8-2.71c1.65-1.32,3.34-2.88,5.31-4.9
			c1.92-2.02,3.43-3.75,4.74-5.42C718.43,98.75,719.34,97.52,720.12,96.36z"/>
	</g>
</g>
<g>
	<g>
		<path d="M750.75,439.47h-11.69c-0.11,0-0.21-0.04-0.28-0.12l-2.18-2.4l-156.12,0.23l-2.44,1.33c-0.06,0.03-0.12,0.05-0.18,0.05
			h-11.92c-0.16,0-0.3-0.1-0.35-0.25l-9.86-28.2l-2.31-26.23c-0.01-0.09,0.02-0.18,0.07-0.26c1.95-2.6,7.41-22.32,7.72-23.44v-5.91
			c0-0.09,0.04-0.19,0.1-0.26l3.11-3.33v-1.92c0-0.08,0.03-0.16,0.08-0.23l3.18-4.08c0.88-2.35,15.64-41.8,18.35-46.55
			c2.74-4.8,8.06-6.99,22.74-9.36c14.12-2.28,94.95-0.73,100.77,0c0.47,0.06,0.97,0.12,1.49,0.18c5.55,0.65,13.95,1.64,18.24,6.36
			c4.58,5.04,20.27,47.61,20.94,49.42l3.17,4.74l3.19,4.11c0.05,0.07,0.08,0.15,0.08,0.23c0,11.94,7.01,29.49,7.08,29.67
			c0.02,0.05,0.03,0.1,0.03,0.16l-1.15,25.68c0,0.04-0.01,0.08-0.02,0.12l-11.47,30.04C751.04,439.37,750.91,439.47,750.75,439.47z
			 M739.22,438.72h11.27l11.35-29.74l1.14-25.54c-0.51-1.28-7.06-18.07-7.1-29.74l-3.13-4.03l-3.23-4.84
			c-0.2-0.52-16.35-44.32-20.83-49.26c-4.1-4.51-12.33-5.48-17.77-6.12c-0.52-0.06-1.02-0.12-1.49-0.18
			c-5.81-0.73-86.47-2.28-100.56,0c-14.41,2.32-19.6,4.42-22.21,8.99c-2.71,4.73-18.16,46.08-18.32,46.49
			c-0.01,0.04-0.03,0.07-0.06,0.1l-3.13,4.03v1.93c0,0.09-0.04,0.19-0.1,0.26l-3.11,3.33v5.81c0,0.03,0,0.07-0.01,0.1
			c-0.23,0.84-5.63,20.43-7.77,23.62l2.28,26l9.75,27.86h11.56l2.44-1.33c0.06-0.03,0.12-0.05,0.18-0.05l156.38-0.23h0
			c0.11,0,0.21,0.04,0.28,0.12L739.22,438.72z"/>
	</g>
</g>
<g>
	<g>
		<path d="M597.12,383.75c0,0-0.01,0-0.01,0c-11.93-0.46-27.29-8.74-29.45-13.29c-1.92-4.06-3.03-18.68-3.22-21.31l-2.22,0.2
			c-0.11,0.01-0.21-0.03-0.29-0.1s-0.12-0.17-0.12-0.28V336.5c-2.38-0.1-15.93-0.56-20.43,1.21c-2.92,1.15-4.5,4.56-4.55,7.33
			c-0.04,2.29,0.9,4.01,2.58,4.75c4.63,2.02,22.04,4.08,22.21,4.1l-0.09,0.74c-0.72-0.08-17.69-2.09-22.42-4.16
			c-1.97-0.86-3.07-2.84-3.03-5.45c0.05-3.02,1.8-6.74,5.02-8.01c5.06-1.99,20.45-1.28,21.1-1.25c0.2,0.01,0.36,0.17,0.36,0.38
			v12.43l2.19-0.19c0.11-0.01,0.2,0.02,0.28,0.09c0.08,0.07,0.12,0.16,0.13,0.26c0.01,0.17,1.17,17.18,3.18,21.42
			c2.04,4.32,16.57,12.12,28.17,12.83c-3.39-7.4-9.1-30.44-9.59-32.42l-2.37-2.37l-16.63-3.19l0.14-0.74l16.74,3.21
			c0.07,0.01,0.14,0.05,0.19,0.1l2.52,2.52c0.05,0.05,0.08,0.11,0.1,0.17c0.06,0.26,6.45,26.18,9.83,32.94
			c0.06,0.12,0.05,0.26-0.02,0.37C597.36,383.69,597.25,383.75,597.12,383.75z"/>
	</g>
</g>
<g>
	<g>
		<path d="M720.25,383.75c-0.13,0-0.24-0.06-0.31-0.17c-0.08-0.12-0.08-0.26-0.02-0.38c2.92-5.4,9.98-32.89,10.06-33.16
			c0.02-0.07,0.05-0.12,0.1-0.17l2.52-2.52c0.05-0.05,0.12-0.09,0.2-0.1l16.97-2.98l0.13,0.74l-16.85,2.96l-2.37,2.37
			c-0.52,2.03-6.74,26.12-9.79,32.61c3.58-0.41,20.46-2.87,27.44-12.78l4.34-20.79c0.04-0.17,0.19-0.3,0.37-0.3
			c0.09,0,2.23-0.03,2.62-1.84c0.45-2.08,0.75-11.31,0.76-11.4c0.01-0.2,0.16-0.35,0.36-0.36c0.85-0.04,20.91-0.86,24.19,5.24
			c1.28,2.37,1.57,4.42,0.88,6.09c-0.83,1.99-2.98,3.43-6.76,4.54c-5.16,1.52-18.61,3.81-18.75,3.83l-0.13-0.74
			c0.13-0.02,13.54-2.31,18.66-3.81c3.55-1.04,5.54-2.35,6.28-4.11c0.61-1.47,0.34-3.25-0.85-5.44c-2.84-5.27-20.45-4.94-23.15-4.86
			c-0.06,1.74-0.35,9.24-0.76,11.18c-0.37,1.74-2.01,2.33-3.04,2.42l-4.3,20.58c-0.01,0.05-0.03,0.1-0.06,0.14
			c-7.96,11.41-28.5,13.21-28.71,13.23C720.27,383.75,720.26,383.75,720.25,383.75z"/>
	</g>
</g>
<g>
	<g>
		<path d="M667.04,345.16c-21.32,0-51.01-2.28-67.97-3.59c-7-0.54-12.06-0.93-13.53-0.93c-2.61,0-4.76-1.25-5.88-3.43
			c-0.83-1.62-0.95-3.55-0.27-4.5c0.89-1.25,7.98-16.03,11.63-23.73c0.07-0.57,0.86-2.91,8.77-4.62c8.84-1.91,113.63-1.91,120.56,0
			c7.02,1.93,15.75,24.35,16.66,27.78c0.69,2.6,0.46,4.99-0.61,6.39c-0.6,0.78-1.42,1.19-2.39,1.19c-0.65,0-3.07,0.29-6.74,0.74
			c-9.88,1.2-30.43,3.69-51.48,4.54C673.09,345.11,670.15,345.16,667.04,345.16z M660.83,303.76c-28.26,0-56.78,0.44-60.88,1.33
			c-7.92,1.71-8.19,3.98-8.19,4c0,0.05-0.02,0.11-0.04,0.15c-0.43,0.91-10.58,22.29-11.73,23.9c-0.44,0.62-0.44,2.22,0.33,3.72
			c0.58,1.13,2.03,3.03,5.21,3.03c1.5,0,6.57,0.39,13.59,0.93c19.42,1.49,55.56,4.27,76.62,3.43c21.02-0.84,41.56-3.33,51.42-4.53
			c3.83-0.46,6.14-0.75,6.83-0.75c0.73,0,1.33-0.3,1.79-0.9c0.92-1.19,1.1-3.39,0.48-5.74c-1.1-4.15-9.74-25.49-16.13-27.25
			C716.95,304.2,689.02,303.76,660.83,303.76z"/>
	</g>
</g>
<g>
	<g>
		<path d="M570.85,345.27l-0.68-0.32c0.15-0.32,15.16-31.95,17.2-36.48c2.84-6.3,9.11-10.08,18.64-11.22
			c11.54-1.38,69.8-2.06,83.98-1.61c16.84,0.54,36.68,2.32,40.69,11.46c4.08,9.29,16.62,37.57,16.74,37.86l-0.69,0.3
			c-0.13-0.29-12.66-28.57-16.74-37.86c-3.84-8.75-23.41-10.48-40.03-11.01c-14.17-0.45-72.35,0.22-83.87,1.6
			c-9.25,1.11-15.33,4.74-18.05,10.79C586.02,313.32,571.01,344.95,570.85,345.27z"/>
	</g>
</g>
<g>
	<g>
		<rect x="595.85" y="291.53" width="0.75" height="14.18"/>
	</g>
</g>
<g>
	<g>
		<rect x="719.88" y="290.66" width="0.75" height="14.07"/>
	</g>
</g>
<g>
	<g>
		<path d="M693.34,338.88c-13.6,0-38.56-0.51-59.31-0.93c-16.14-0.33-30.08-0.6-32.55-0.52c-3.93,0.14-7.45-0.89-9.39-2.76
			c-0.86-0.83-1.31-1.75-1.31-2.66c0-2.57,7.95-20.04,8.29-20.79c1.22-2.7,8.12-4.06,18.47-3.66c4.39,0.17,17.91-0.01,33.57-0.22
			c25.54-0.35,57.33-0.78,61.66,0.23c7.26,1.69,13.48,18.96,14.5,23.44c0.23,1,0.02,1.92-0.61,2.73
			c-2.35,3.03-10.79,4.64-26.58,5.07C698.39,338.85,696.1,338.88,693.34,338.88z M603.04,336.66c4.56,0,16.46,0.24,31.01,0.54
			c24.94,0.5,55.98,1.14,66.01,0.86c15.33-0.42,23.84-1.98,26.01-4.78c0.49-0.63,0.64-1.32,0.47-2.1
			c-1.3-5.71-7.55-21.39-13.94-22.88c-4.25-0.99-35.98-0.56-61.48-0.21c-15.67,0.21-29.2,0.4-33.61,0.22
			c-11.83-0.46-16.96,1.44-17.76,3.22l0,0c-2.29,5.02-8.22,18.48-8.22,20.48c0,0.7,0.38,1.43,1.08,2.12
			c1.39,1.34,4.44,2.71,8.85,2.55C601.8,336.67,602.33,336.66,603.04,336.66z"/>
	</g>
</g>
<g>
	<g>
		<rect x="576.74" y="342.7" transform="matrix(0.3516 -0.9362 0.9362 0.3516 55.3871 766.1152)" width="7.95" height="0.75"/>
	</g>
</g>
<g>
	<g>
		<rect x="736.72" y="338.34" transform="matrix(0.9619 -0.2735 0.2735 0.9619 -65.5859 214.6224)" width="0.75" height="8.48"/>
	</g>
</g>
<g>
	<g>
		<path d="M660.3,353.6c-41.38,0-72.61-2.83-73.08-2.87l0.07-0.75c0.72,0.06,72.55,6.57,143.01-0.23l0.07,0.75
			C706.21,352.83,681.87,353.6,660.3,353.6z"/>
	</g>
</g>
<g>
	<g>
		<path d="M710.39,397.74C710.39,397.74,710.39,397.74,710.39,397.74l-105.48-1.15c-0.13,0-0.25-0.07-0.32-0.18l-7.8-12.84
			l0.64-0.39l7.69,12.66l105.11,1.14c0.92-0.94,7.32-7.63,9.67-13.74l0.7,0.27c-2.57,6.71-9.65,13.82-9.94,14.12
			C710.59,397.7,710.49,397.74,710.39,397.74z"/>
	</g>
</g>
<g>
	<g>
		<path d="M621.63,402.48c-10.44,0-17.79-0.04-18.82-0.16c-4-0.47-11.19-17.63-12-19.59l0.69-0.29c2.15,5.2,8.37,18.77,11.39,19.13
			c2.23,0.26,35.04,0.15,63.99,0.04c21.14-0.07,39.4-0.14,41.92-0.04c5.67,0.23,7.96-2.64,15.23-19.13l0.69,0.3
			c-7.45,16.89-9.82,19.82-15.95,19.58c-2.5-0.1-20.75-0.03-41.89,0.04C651.09,402.42,634.15,402.48,621.63,402.48z"/>
	</g>
</g>
<g>
	<g>
		<path d="M630.09,390.83c-2.86,0-8.38-0.65-9.03-3.24c-0.68-2.73-6.59-30-6.65-30.28c-0.02-0.11,0.01-0.23,0.08-0.32
			s0.19-0.14,0.3-0.13c0.54,0.03,54.71,2.49,88.23,0c0.11-0.01,0.23,0.04,0.31,0.13s0.11,0.21,0.08,0.32
			c-0.03,0.16-3.46,16.13-5.05,22.94c-1.62,6.96-3.3,10.49-7.93,10.49c-0.86,0-3.61-0.01-7.48-0.03
			c-14.99-0.07-50.1-0.24-51.38,0.02C631.32,390.79,630.78,390.83,630.09,390.83z M615.24,357.63c0.8,3.67,5.92,27.26,6.54,29.78
			c0.6,2.38,8.03,2.93,9.65,2.59c1.17-0.25,26.71-0.16,51.54-0.04c3.87,0.02,6.61,0.03,7.47,0.03c4.16,0,5.63-3.2,7.2-9.91
			c1.43-6.12,4.35-19.69,4.94-22.43C670.69,359.96,620.72,357.87,615.24,357.63z"/>
	</g>
</g>
<g>
	<g>
		<path d="M645.09,386.38c-7.97,0-14.27-0.03-15.66-0.1c-4.32-0.24-7.35-25.79-7.68-28.7l0.75-0.08c1.23,10.76,4.2,27.88,6.98,28.04
			c3.31,0.18,36.01,0.07,49.98,0.02c3.55-0.01,6.06-0.02,6.87-0.02c3.82,0,4.66-2.62,6.28-10.7c1.59-7.94,3.86-17.19,3.89-17.28
			l0.73,0.18c-0.02,0.09-2.29,9.32-3.88,17.25c-1.53,7.64-2.46,11.31-7.02,11.31c-0.81,0-3.32,0.01-6.87,0.02
			C670.62,386.32,656.22,386.38,645.09,386.38z"/>
	</g>
</g>
<g>
	<g>
		<rect x="551.08" y="376.7" transform="matrix(0.7245 -0.6893 0.6893 0.7245 -105.3763 490.5103)" width="19.63" height="0.75"/>
	</g>
</g>
<g>
	<g>
		<path d="M568.77,438.21c-5.03-56.09-9.53-63.15-10.79-63.97c-0.12-0.08-0.19-0.08-0.21-0.08c-0.14,0.12-0.33,0.11-0.47-0.01
			c-0.14-0.12-0.15-0.34-0.05-0.5l8.4-13.12l0.63,0.4l-8.05,12.58c1.79,0.88,6.31,9.11,11.29,64.63L568.77,438.21z"/>
	</g>
</g>
<g>
	<g>
		<path d="M763.03,386.18c-4.72-8.66-14.46-15.5-14.56-15.57l0.43-0.62c0.1,0.07,9.99,7.01,14.79,15.82L763.03,386.18z"/>
	</g>
</g>
<g>
	<g>
		<rect x="754.68" y="359.21" transform="matrix(0.7835 -0.6214 0.6214 0.7835 -64.1151 548.4718)" width="0.75" height="14.08"/>
	</g>
</g>
<g>
	<g>
		<path d="M749.06,439.12l-0.75-0.05c3.86-52.91,11.12-64.93,11.43-65.42l0.63,0.4C760.3,374.17,752.9,386.5,749.06,439.12z"/>
	</g>
</g>
<g>
	<g>
		<path d="M703.05,426.63h-85.07c-8.26,0-13.42-5.32-16.57-9.31c-2.64-3.35-24.25-6.3-35.3-7.4c-0.2-0.02-0.35-0.19-0.34-0.39
			c0.01-0.2,0.17-0.36,0.37-0.36c1.26-0.02,30.68,0.01,35.98,3.23c1.1,0.67,2.3,1.45,3.57,2.28c4.71,3.07,10.56,6.89,14.82,7.07
			c4.58,0.19,52.58,0.07,70.65,0.02c3.6-0.01,5.99-0.02,6.6-0.02c2.33,0,7.14-3.14,11.39-5.9c2.3-1.5,4.46-2.91,6.32-3.91
			c5.52-2.99,34.93-2.78,36.18-2.77c0.2,0,0.36,0.16,0.37,0.35c0.01,0.2-0.13,0.37-0.32,0.4c-0.27,0.04-26.84,3.67-33.36,6.81
			c-3.02,1.46-5.62,3.65-7.92,5.58C707.67,424.63,705.3,426.63,703.05,426.63z M573.59,410.02c9.76,1.23,25.94,3.7,28.41,6.83
			c3.06,3.88,8.05,9.03,15.99,9.03h85.07c1.97,0,4.25-1.92,6.89-4.14c2.33-1.96,4.98-4.19,8.08-5.68
			c4.88-2.35,20.17-4.89,28.34-6.12c-8.97,0.08-26.55,0.51-30.52,2.66c-1.83,0.99-3.98,2.39-6.27,3.88
			c-4.55,2.96-9.25,6.02-11.8,6.02c-0.61,0-3.01,0.01-6.6,0.02c-18.08,0.05-66.09,0.17-70.69-0.02c-4.47-0.19-10.42-4.07-15.2-7.19
			c-1.27-0.83-2.46-1.61-3.55-2.27C598.23,410.91,582.95,410.23,573.59,410.02z"/>
	</g>
</g>
<g>
	<g>
		<path d="M580.72,473.41h-20.41c-2.55,0-4.62-2.07-4.62-4.62v-58.82h0.75v58.82c0,2.13,1.73,3.87,3.87,3.87h20.41
			c1.75,0,3.18-1.43,3.18-3.18V436.8h0.75v32.68C584.65,471.64,582.89,473.41,580.72,473.41z"/>
	</g>
</g>
<g>
	<g>
		<path d="M755.75,473.41h-18.64c-2.55,0-4.62-2.07-4.62-4.62v-32.21h0.75v32.21c0,2.13,1.73,3.87,3.87,3.87h18.64
			c2.17,0,3.93-1.76,3.93-3.93v-57.83h0.75v57.83C760.43,471.31,758.33,473.41,755.75,473.41z"/>
	</g>
</g>
<g>
	<g>
		<path d="M597.12,424.26h-24.38c-0.59,0-1.1-0.23-1.52-0.68c-1.75-1.87-1.43-7.14-1.41-7.36c0-0.06,0.02-0.12,0.06-0.18
			c0.04-0.07,1.05-1.59,3.73-0.92c0.9,0.22,3.04,0.6,5.51,1.04c4.28,0.76,9.6,1.7,12.16,2.48c4.15,1.25,6.1,4.92,6.19,5.08
			c0.06,0.12,0.06,0.25-0.01,0.37C597.37,424.19,597.25,424.26,597.12,424.26z M570.54,416.38c-0.04,0.76-0.18,5.19,1.22,6.69
			c0.28,0.3,0.6,0.45,0.98,0.45h23.71c-0.7-1.04-2.48-3.28-5.4-4.16c-2.52-0.76-7.82-1.7-12.07-2.46c-2.49-0.44-4.64-0.82-5.56-1.05
			C571.57,415.38,570.75,416.13,570.54,416.38z"/>
	</g>
</g>
<g>
	<g>
		<path d="M738.1,424.53c-6.58,0-15.33-0.21-17.85-0.27c-0.11,0-0.21-0.05-0.28-0.14c-0.07-0.08-0.1-0.2-0.08-0.3
			c0.03-0.15,0.69-3.6,3.47-4.44c2.13-0.64,21.61-5.26,23.28-4.39c0.56,0.29,0.84,1.12,0.86,2.53c0.04,2.24-0.7,6.13-1.68,6.7
			C745.39,424.45,742.16,424.53,738.1,424.53z M720.73,423.52c9.58,0.24,23.74,0.43,24.73,0.03c0.47-0.27,1.33-3.48,1.29-6.03
			c-0.02-1.21-0.26-1.77-0.46-1.88c-1.33-0.61-19.4,3.44-22.71,4.45C721.75,420.65,720.98,422.64,720.73,423.52z"/>
	</g>
</g>
<g>
	<g>
		<path d="M584.3,445.43l-0.05-0.75c0.24-0.02,24.1-1.62,29.27-3.08c3.25-0.92,34.74-1.01,48.18-1.01c0.02,0,0.03,0,0.04,0
			c20.7,0,44.67,0.23,45.98,0.56c0.34,0.09,0.7,0.21,1.12,0.36c2.44,0.88,6.99,2.51,23.98,1.13l0.06,0.75
			c-17.15,1.39-21.8-0.27-24.29-1.17c-0.4-0.14-0.73-0.26-1.05-0.34c-0.99-0.25-21.21-0.53-45.8-0.53c-0.02,0-0.03,0-0.05,0
			c-27.85,0-45.78,0.37-47.97,0.99C608.48,443.8,585.29,445.37,584.3,445.43z"/>
	</g>
</g>
<g>
	<g>
		<g>
			<path d="M881.16,432.73c0-10.26,0.16-22.89,0.28-32.07c0.07-5.5,0.13-9.85,0.13-11.92c0-4.72,0.8-13.15,1.57-21.3
				c0.59-6.27,1.16-12.2,1.26-15.56c0.23-7.55-0.07-163.51-0.08-165.08l0.75,0c0,1.58,0.3,157.55,0.08,165.11
				c-0.1,3.38-0.66,9.32-1.26,15.6c-0.77,8.13-1.57,16.54-1.57,21.23c0,2.08-0.06,6.43-0.13,11.93
				c-0.21,16.45-0.56,43.97,0.12,49.01c0.98,7.16,6.2,20.36,8.07,21.43c0.4,0.23,1.17,0.75,2.23,1.48
				c4.83,3.3,16.14,11.02,26.19,13.77c13,3.55,20.49,4.82,23.58,3.97c1.53-0.42,4.73,0.1,9.15,0.83c5.74,0.94,13.61,2.22,22.44,2.22
				c10.35,0,28.23-1.09,40.06-1.8c6.14-0.37,10.57-0.64,11.92-0.64c0.88,0,1.77,0.06,2.72,0.12c3.37,0.22,7.56,0.5,14.91-1.64
				c9.42-2.73,35.09-14.35,36.86-15.83c1.82-1.52,9.05-15.56,9.34-20.6c0.34-5.92,0.89-71.59,0-77.2
				c-0.93-5.87-2.76-42.19-3.37-71.29c-0.61-29.03,1.81-116.84,1.83-117.73l0.75,0.02c-0.02,0.88-2.44,88.68-1.83,117.69
				c0.61,29.07,2.43,65.33,3.36,71.19c0.89,5.63,0.35,71.43,0,77.36c-0.3,5.24-7.61,19.46-9.61,21.13
				c-1.94,1.61-27.51,13.18-37.13,15.97c-7.48,2.17-11.74,1.89-15.17,1.66c-0.93-0.06-1.81-0.12-2.67-0.12
				c-1.32,0-5.98,0.28-11.87,0.64c-11.84,0.72-29.73,1.81-40.1,1.81c-8.89,0-16.79-1.29-22.56-2.23c-4.33-0.71-7.45-1.22-8.83-0.84
				c-3.27,0.89-10.66-0.34-23.97-3.97c-10.17-2.78-21.55-10.55-26.41-13.87c-1.05-0.72-1.81-1.24-2.18-1.45
				c-2.37-1.36-7.57-15.57-8.44-21.98C881.26,447.53,881.16,440.88,881.16,432.73z"/>
		</g>
	</g>
	<g>
		<g>
			<path d="M1043.6,36.69c0-0.09,0.03-0.18,0.1-0.26c0.12-0.13,0.3-0.15,0.46-0.07c1.29,0.71,31.65,17.6,34.72,26.81
				c3.05,9.14,1.91,28.96,1.85,29.8c-0.01,0.14-0.1,0.27-0.23,0.32c-0.13,0.05-0.29,0.03-0.39-0.07l-7.95-7.18
				c-0.03-0.03-0.06-0.06-0.08-0.1c-0.17-0.3-16.52-30.44-18.03-32.85c-1.51-2.42-10.3-16.06-10.39-16.2
				C1043.62,36.83,1043.6,36.76,1043.6,36.69z M1080.22,83.65c0-6.62-0.37-15.2-2.05-20.24c-2.62-7.87-27.06-22.22-33.05-25.64
				c2.24,3.47,8.34,12.95,9.58,14.93c1.5,2.4,17,30.95,18.02,32.83l7.32,6.61C1080.09,90.72,1080.22,87.52,1080.22,83.65z"/>
		</g>
	</g>
	<g>
		<g>
			<path d="M892.83,63.46c0-3.17,0.62-10.93,6.31-15.14c6.73-4.98,35.1-19.19,52.1-23.91c15.92-4.42,41.89-4.72,58.23-2.76
				c16.95,2.03,50.19,18.73,56.69,22.05c11.8,6.05,13.84,23.45,14.05,25.73c1.18,0.44,6.39,2.56,7.53,6.13
				c1.18,3.7,4.48,7.63,4.51,7.67l-0.57,0.48c-0.14-0.16-3.43-4.08-4.66-7.92c-1.15-3.6-7.23-5.71-7.29-5.74
				c-0.14-0.05-0.24-0.18-0.25-0.33c-0.01-0.19-1.47-19.11-13.67-25.36c-6.47-3.32-39.62-19.96-56.43-21.97
				c-16.28-1.95-42.12-1.66-57.94,2.74c-16.93,4.7-45.15,18.84-51.85,23.79c-6.78,5.01-5.97,15.76-5.96,15.87l-0.75,0.06
				C892.87,64.76,892.83,64.25,892.83,63.46z"/>
		</g>
	</g>
	<g>
		<g>
			<path d="M891.35,92.95c0-0.01,0-0.01,0-0.02l1.53-28.13c0-0.03,0.01-0.06,0.02-0.09c3.37-11.03,34.33-27.65,35.65-28.35
				c0.15-0.08,0.34-0.05,0.46,0.08c0.12,0.13,0.13,0.32,0.03,0.46c-0.21,0.29-20.53,29.22-26.86,48.21
				c-0.02,0.07-0.07,0.13-0.12,0.18l-10.09,7.95c-0.12,0.09-0.27,0.11-0.41,0.04C891.42,93.22,891.35,93.09,891.35,92.95z
				 M893.62,64.89l-1.48,27.25l9.35-7.37c5.62-16.77,21.98-41.11,26.01-46.99C921.32,41.21,896.57,55.45,893.62,64.89z"/>
		</g>
	</g>
	<g>
		<g>
			<path d="M1047.62,364.16c0-53.75,1.93-124.14,3.32-139.48c1.32-14.54,6.99-37.26,11.99-57.31c3.11-12.48,5.8-23.26,6.97-30.16
				c3.02-17.8,2.15-51.11,2.14-51.44l0.75-0.02c0.01,0.33,0.88,33.72-2.15,51.59c-1.17,6.93-3.87,17.72-6.98,30.22
				c-4.99,20.02-10.65,42.71-11.97,57.19c-2.04,22.43-5.22,162.69-1.83,196.21l-0.75,0.08
				C1048.03,410.41,1047.62,389.07,1047.62,364.16z"/>
		</g>
	</g>
	<g>
		<g>
			<path d="M900.39,111.37c0-13.68,1.03-26.19,1.05-26.4l0.75,0.06c-0.03,0.36-3,36.51,1.21,53.07
				c4.18,16.42,18.01,80.57,19.57,89.61c1.52,8.8,1.24,185.76,1.23,193.29l-0.75,0c0-1.84,0.29-184.43-1.22-193.16
				c-1.56-9.04-15.38-73.14-19.56-89.55C900.91,131.37,900.39,121.07,900.39,111.37z"/>
		</g>
	</g>
	<g>
		<g>
			<path d="M907.24,446.48c0-0.04,0-0.09,0-0.13c0.31-5.22,12.67-27.06,13.19-27.98c0.05-0.09,0.14-0.16,0.24-0.18
				c0.1-0.02,0.21,0,0.3,0.06c36.83,25.97,70.64,24.59,92.52,18.87c23.73-6.21,38.95-18.73,39.1-18.85c0.08-0.07,0.2-0.1,0.31-0.08
				c0.11,0.02,0.2,0.09,0.26,0.18c1.51,2.65,14.74,25.95,13.17,29.68c-1.45,3.48-45.92,26.29-93.01,22.55
				c-25.38-2.02-41.42-7.3-50.42-11.38C912.09,454.31,907.24,449.22,907.24,446.48z M920.89,419.1c-1.64,2.92-12.62,22.6-12.9,27.3
				c-0.3,5.04,19.37,19.79,65.39,23.45c46.78,3.72,90.84-18.67,92.26-22.09c1.04-2.54-7.06-18.36-12.91-28.64
				c-2.41,1.9-17.11,12.98-39.01,18.71C991.75,443.59,957.83,444.99,920.89,419.1z"/>
		</g>
	</g>
	<g>
		<g>
			<path d="M918.84,444.65c0-10.18,10.37-20,10.82-20.42l0.51,0.55c-0.11,0.1-11.14,10.57-10.56,20.69
				c0.6,10.22,39.63,19.78,67.24,19.19c28.92-0.62,64.8-11.04,65.94-15.01c1.17-4.1-1.74-13.07-5.12-18.34
				c-3.15-4.91-5.9-4.97-5.93-4.97l-0.01-0.75c0.13,0,3.16,0,6.57,5.31c3.47,5.41,6.43,14.67,5.21,18.96
				c-1.34,4.7-38.48,14.95-66.64,15.56c-28.53,0.61-67.37-9.11-68-19.89C918.85,445.22,918.84,444.94,918.84,444.65z"/>
		</g>
	</g>
	<g>
		<g>
			<path d="M900.61,126.21c0.44-0.18,44.1-18.04,85.25-17.13c41.13,0.91,85.37,16.96,85.81,17.12l-0.26,0.7
				c-0.44-0.16-44.56-16.17-85.57-17.08c-40.99-0.91-84.51,16.89-84.95,17.07L900.61,126.21z"/>
		</g>
	</g>
	<g>
		<g>
			<path d="M903.27,133c0-0.11,0.05-0.22,0.14-0.29c0.49-0.39,12.62-9.61,65.93-15.09c53.29-5.48,99.1,14.83,99.56,15.04
				c0.16,0.07,0.25,0.25,0.21,0.43l-18.34,77.96c-0.02,0.1-0.09,0.19-0.18,0.24s-0.2,0.06-0.29,0.04
				c-64.26-18.71-127.56-0.19-128.2,0c-0.1,0.03-0.21,0.02-0.29-0.03c-0.09-0.05-0.15-0.14-0.18-0.24l-18.34-77.96
				C903.27,133.06,903.27,133.03,903.27,133z M1068.3,133.22c-3.94-1.7-47.99-20.09-98.89-14.85
				c-49.51,5.09-63.62,13.62-65.35,14.79l18.2,77.33c5.39-1.52,66.12-17.83,127.86,0L1068.3,133.22z"/>
		</g>
	</g>
	<g>
		<g>
			<path d="M920.38,216.82c66.34-21.09,131.35-0.21,132,0l-0.23,0.71c-0.65-0.21-65.44-21.02-131.54,0L920.38,216.82z"/>
		</g>
	</g>
	<g>
		<g>
			<path d="M923.66,409.4l0.36-0.66c34.01,18.89,66.04,17.89,86.92,13.72c22.64-4.52,37.42-13.62,37.57-13.71l0.4,0.64
				c-0.15,0.09-15.02,9.26-37.79,13.81C990.1,427.39,957.88,428.4,923.66,409.4z"/>
		</g>
	</g>
	<g>
		<g>
			<path d="M930.17,40.34c0-0.03,0-0.07,0.01-0.1l1.53-5.64c0.03-0.11,0.11-0.2,0.21-0.25c60.32-26.53,111.72,1.73,112.23,2.02
				l-0.37,0.65c-0.51-0.29-51.51-28.31-111.4-2.06l-1.29,4.74c61.51-24.7,114.84,0.04,115.38,0.29l-0.32,0.68
				c-0.53-0.25-53.98-25.03-115.47,0.01c-0.13,0.05-0.28,0.03-0.39-0.07C930.22,40.55,930.17,40.44,930.17,40.34z"/>
		</g>
	</g>
	<g>
		<g>
			<path d="M923.7,44.69c35.15-14.68,67.48-13.89,88.41-10.65c22.68,3.51,37.25,10.59,37.4,10.66l-0.33,0.67
				c-0.57-0.28-58.23-27.94-125.19,0.01L923.7,44.69z"/>
		</g>
	</g>
	<g>
		<g>
			<path d="M1047.61,28.13c0-0.05,0.01-0.1,0.03-0.14c0.07-0.17,0.25-0.26,0.42-0.22l7.31,1.53l-0.15,0.73l-5.36-1.12l23.88,15.6
				l-7.95-7.54l0.52-0.54l10.95,10.4c0.14,0.13,0.16,0.35,0.04,0.5c-0.12,0.15-0.34,0.19-0.5,0.08l-29.01-18.96
				C1047.67,28.38,1047.61,28.26,1047.61,28.13z"/>
		</g>
	</g>
	<g>
		<g>
			<path d="M896.24,47.09c0-0.09,0.03-0.18,0.09-0.25l8.36-9.48l0.56,0.5l-6.71,7.6l25.17-15.43h-8.15v-0.75h9.48
				c0.17,0,0.32,0.11,0.36,0.27c0.04,0.16-0.02,0.33-0.17,0.42l-28.43,17.43c-0.16,0.1-0.36,0.06-0.48-0.08
				C896.27,47.26,896.24,47.17,896.24,47.09z"/>
		</g>
	</g>
	<g>
		<g>
			<path d="M889.28,49.53"/>
		</g>
	</g>
	<g>
		<g>
			<path d="M890.39,153.48c0-9.41,0.56-18.08,2.5-21.29c0.08-0.13,0.22-0.2,0.37-0.18s0.27,0.12,0.31,0.27
				c0.09,0.31,9.25,31.38,11.97,46.2c2.08,11.33,8.87,48.86,8.87,56.02v47.39c0,0.13-0.06,0.24-0.17,0.31
				c-0.11,0.07-0.24,0.08-0.35,0.03l-18.96-8.25c-0.13-0.06-0.22-0.18-0.23-0.33c-0.15-3.55-3.67-86.89-3.36-89.94
				c0.07-0.68-0.06-3.43-0.24-7.23C890.81,170.28,890.39,161.6,890.39,153.48z M893.12,133.41c-2.98,7.08-1.83,31.2-1.27,43.05
				c0.19,3.98,0.31,6.6,0.24,7.34c-0.3,2.93,3.14,84.58,3.36,89.6l18.21,7.93V234.5c0-7.1-6.78-44.57-8.86-55.88
				C902.35,165.26,894.65,138.66,893.12,133.41z"/>
		</g>
	</g>
	<g>
		<g>
			<path d="M882.74,157.99c0.21-0.02,20.93-2,23.41,11.94c0.63,3.53,1.68,9.12,2.91,15.6c3.65,19.33,8.64,45.79,9.33,54.45
				c0.55,6.91,0.96,60.22,1.19,154.16l0.01,4.85c0.02,5.72,1.54,19.39,1.55,19.53l-0.75,0.08c-0.01-0.14-1.53-13.84-1.55-19.61
				l-0.01-4.85c-0.23-92.58-0.65-147.31-1.19-154.1c-0.68-8.62-5.67-35.06-9.32-54.37c-1.22-6.48-2.28-12.07-2.91-15.61
				c-2.36-13.25-22.39-11.34-22.59-11.32L882.74,157.99z"/>
		</g>
	</g>
	<g>
		<g>
			<rect x="901.44" y="273.36" transform="matrix(0.2526 -0.9676 0.9676 0.2526 392.5167 1089.979)" width="0.75" height="35.1"/>
		</g>
	</g>
	<g>
		<g>
			<path d="M892.84,166.32c0-0.11,0.05-0.21,0.13-0.28c0.09-0.08,0.22-0.11,0.33-0.08l9.85,2.44l-0.18,0.73l-9.33-2.31l1.8,19.71
				l12,3.59l-0.21,0.72l-12.25-3.67c-0.15-0.04-0.25-0.17-0.27-0.33l-1.87-20.48C892.84,166.35,892.84,166.33,892.84,166.32z"/>
		</g>
	</g>
	<g>
		<g>
			<path d="M863.05,189.98c0-5.69,4.04-10.23,4.25-10.46c0.04-0.04,0.08-0.07,0.13-0.09c0.07-0.03,7.01-3.07,9.99-5.74
				c2.99-2.69,8.11-2.57,8.77-2.54l7.22-2.03l0.2,0.72l-7.28,2.05c-0.04,0.01-0.08,0.02-0.12,0.01c-0.05,0-5.39-0.26-8.29,2.35
				c-2.93,2.64-9.29,5.48-10.11,5.84c-0.55,0.64-5.3,6.41-3.64,12.66l24.39-8.13l6.18-1.26l0.15,0.73l-6.14,1.25l-24.72,8.24
				c-0.1,0.03-0.2,0.02-0.29-0.02s-0.16-0.13-0.19-0.22C863.19,192.19,863.05,191.06,863.05,189.98z"/>
		</g>
	</g>
	<g>
		<g>
			<path d="M886.15,171.89l0.14-0.74c0.04,0.01,1.1,0.22,2.03,1.58c1.1,1.63,2.13,5.08,0.72,12.31l-0.74-0.14
				C890.63,172.97,886.19,171.9,886.15,171.89z"/>
		</g>
	</g>
	<g>
		<g>
			<path d="M1068.37,190.17c0-0.02,0-0.04,0-0.06l3.8-22.62c0.03-0.18,0.19-0.31,0.37-0.31h6.29c0.21,0,0.38,0.17,0.38,0.38v17.73
				c0,0.14-0.08,0.27-0.21,0.34l-10.09,4.89c-0.13,0.06-0.28,0.05-0.39-0.04C1068.42,190.4,1068.37,190.29,1068.37,190.17z
				 M1072.86,167.92l-3.62,21.6l9.22-4.47v-17.12H1072.86z"/>
		</g>
	</g>
	<g>
		<g>
			<path d="M879.19,119.35c0-7.13,0.19-15.9,0.34-23.21c0.11-5.01,0.2-9.33,0.2-11.76c0-8.52,3.94-31.35,9.33-35.16
				c1.68-1.19,5.51-4.12,9.94-7.52c9.56-7.33,21.45-16.45,23.78-17.29c3.14-1.14,18.07-4.27,41.98-6.14
				c23.05-1.8,72.84,2.66,78.7,4.29c5.5,1.53,37.58,23.87,38.94,24.82c0.05,0.04,0.1,0.09,0.13,0.15c0.09,0.2,9.21,20.42,9.82,35.91
				c0.59,15.08-0.58,53.62-1.23,58.76c-0.6,4.82-2.12,29.08-2.14,29.33c-0.01,0.2-0.18,0.35-0.37,0.35c-1.86,0-9.54-1.77-9.87-1.84
				l0.17-0.73c0.08,0.02,7.08,1.63,9.35,1.81c0.19-3.08,1.56-24.49,2.12-29.01c0.64-5.13,1.81-43.58,1.22-58.64
				c-0.58-14.8-9.03-34.03-9.71-35.54c-1.88-1.31-33.38-23.19-38.63-24.65c-5.84-1.62-55.46-6.06-78.44-4.27
				c-23.84,1.86-38.68,4.96-41.79,6.09c-2.21,0.81-14.56,10.27-23.58,17.18c-4.44,3.4-8.27,6.34-9.97,7.54
				c-4.93,3.48-9.01,25.02-9.01,34.55c0,2.43-0.09,6.76-0.2,11.77c-0.29,13.55-0.69,32.11,0.19,35.84
				c1.26,5.37,3.66,32.01,2.76,39.57l-0.74-0.09c0.9-7.5-1.49-33.97-2.74-39.31C879.32,130.4,879.19,125.48,879.19,119.35z"/>
		</g>
	</g>
	<g>
		<g>
			<path d="M1078.76,184.12l0.13-0.74l4.65,0.82c-0.33-1.72-1.09-6.99,1.04-10.36c0.91-1.43,2.24-2.34,3.95-2.69
				c0.06-0.01,0.12-0.01,0.18,0.01c0.64,0.19,15.78,4.69,18.87,10.27c3.07,5.52,3.1,11.84,3.1,12.11c0,0.12-0.06,0.23-0.16,0.3
				s-0.22,0.09-0.34,0.05l-26.29-8.87L1078.76,184.12z M1088.6,171.91c-1.46,0.33-2.59,1.11-3.37,2.34
				c-2.13,3.35-1.11,9.01-0.88,10.14l25.58,8.62c-0.08-1.63-0.52-6.76-2.99-11.21C1104.11,176.7,1089.87,172.29,1088.6,171.91z"/>
		</g>
	</g>
	<g>
		<g>
			<path d="M1057.97,282.61c0,0,0-0.01,0-0.01c0.04-1.03,4.17-103.74,20.5-150.64c0.06-0.17,0.23-0.27,0.41-0.25
				c0.62,0.09,5.93,1.9,2.09,38.41l-0.75-0.08c3.24-30.81-0.16-36.43-1.2-37.4c-15.54,45.14-19.93,141-20.29,149.4l19.71-8.05
				l1.77-89.94l0.75,0.01l-1.77,90.18c0,0.15-0.09,0.28-0.23,0.34l-20.48,8.36c-0.12,0.05-0.25,0.03-0.36-0.04
				C1058.03,282.85,1057.97,282.73,1057.97,282.61z"/>
		</g>
	</g>
	<g>
		<g>
			<path d="M1071.43,161.38c7.33-2.21,17.88-2.89,17.99-2.9l0.05,0.75c-0.1,0.01-10.57,0.68-17.82,2.86L1071.43,161.38z"/>
		</g>
	</g>
	<g>
		<g>
			<path d="M1065.45,196.06c3.89-2.02,14.91-6.2,15.02-6.24l0.27,0.7c-0.11,0.04-11.09,4.21-14.94,6.21L1065.45,196.06z"/>
		</g>
	</g>
	<g>
		<g>
			<path d="M1052.93,370.69c0-31.53,0.55-100.62,1.98-127.95c1.53-29.3,11.03-69.89,16.13-91.69c1.03-4.38,1.84-7.85,2.37-10.33
				c3.17-14.62,3.51-50.17,3.51-50.53l0.75,0.01c0,0.36-0.35,35.99-3.53,50.68c-0.54,2.49-1.35,5.95-2.38,10.34
				c-5.1,21.78-14.59,62.33-16.11,91.56c-1.81,34.73-2.22,136.91-1.87,143.66c0.4,7.58,4.87,13.97,11.97,17.1l8.22,3.63l6.5-0.93
				c0.64-0.32,7.94-4.15,9.77-15.26l0.74,0.12c-1.97,11.98-10.16,15.8-10.24,15.84c-0.03,0.01-0.07,0.02-0.1,0.03l-6.66,0.95
				c-0.07,0.01-0.14,0-0.2-0.03l-8.32-3.67c-7.37-3.25-12.01-9.88-12.42-17.75C1052.97,385.03,1052.93,379.24,1052.93,370.69z"/>
		</g>
	</g>
	<g>
		<g>
			<path d="M1079.73,71.88l0.75-0.07c0.06,0.7,6.36,70.46,6.36,99.45h-0.75C1086.08,142.31,1079.8,72.58,1079.73,71.88z"/>
		</g>
	</g>
	<g>
		<g>
			<path d="M1078.45,274.25C1078.45,274.24,1078.45,274.24,1078.45,274.25l0.29-14.68c0-0.07,0.02-0.14,0.06-0.2l4.17-6.19
				c0.06-0.08,0.15-0.14,0.25-0.16c0.1-0.02,0.2,0.01,0.29,0.07l3.77,2.78l-0.45,0.6l-3.46-2.55l-3.89,5.77l-0.28,14.44l4.27,5.86
				h2.99v0.75h-3.18c-0.12,0-0.23-0.06-0.3-0.15l-4.46-6.11C1078.48,274.4,1078.45,274.33,1078.45,274.25z"/>
		</g>
	</g>
	<g>
		<g>
			<path d="M1078.45,391.65v-16.2c0-0.07,0.02-0.14,0.05-0.2l4.12-6.73c0.11-0.18,0.34-0.23,0.51-0.12l3.52,2.14
				c0.12,0.07,0.2,0.2,0.18,0.34l-1.52,23.85c0,0.09-0.04,0.17-0.1,0.23l-2.3,2.45c-0.08,0.08-0.19,0.13-0.3,0.12
				c-0.11-0.01-0.22-0.07-0.28-0.16l-3.82-5.5C1078.48,391.8,1078.45,391.72,1078.45,391.65z M1079.2,375.55v15.98l3.49,5.03
				l1.89-2.01l1.5-23.49l-3.01-1.83L1079.2,375.55z"/>
		</g>
	</g>
	<g>
		<g>
			<path d="M1053.91,293.73c11.57-0.31,32.44-9.64,32.65-9.74l0.31,0.68c-0.21,0.1-21.22,9.49-32.94,9.81L1053.91,293.73z"/>
		</g>
	</g>
	<g>
		<g>
			
				<rect x="1050.89" y="219.06" transform="matrix(0.0468 -0.9989 0.9989 0.0468 814.9261 1292.8572)" width="67.97" height="0.75"/>
		</g>
	</g>
	<g>
		<g>
			<rect x="1038.94" y="324.17" transform="matrix(3.857305e-03 -1 1 3.857305e-03 754.4 1406.3956)" width="88.36" height="0.75"/>
		</g>
	</g>
	<g>
		<g>
			<path d="M1082.65,397.15"/>
		</g>
	</g>
	<g>
		<g>
			<path d="M1047.61,474.5C1047.61,474.5,1047.61,474.5,1047.61,474.5c0-0.17,0.11-0.31,0.27-0.36c7.98-2.36,10.09-9.13,10.11-9.2
				c0.03-0.09,0.09-0.17,0.18-0.22c0.06-0.03,5.6-3.12,10.49-4.34c3.82-0.96,7.5-14.9,8.59-20.2c0.02-0.1,0.08-0.19,0.17-0.24
				l2.88-1.83c0.11-0.07,0.25-0.08,0.36-0.02s0.2,0.17,0.21,0.29c0.02,0.14,1.62,14.34-6.78,25.04
				c-8.09,10.3-17.4,14.36-26.22,11.44C1047.71,474.81,1047.61,474.66,1047.61,474.5z M1058.66,465.31c-0.35,1-2.61,6.65-9.42,9.17
				c8.15,2.12,16.72-1.94,24.26-11.52c7.24-9.21,6.87-21.09,6.68-23.88l-2.23,1.42c-0.42,1.98-4.23,19.4-9.11,20.62
				C1064.45,462.2,1059.5,464.85,1058.66,465.31z"/>
		</g>
	</g>
	<g>
		<g>
			<path d="M889.92,440.75c0-1.17,0.17-2.07,0.56-2.56c0.07-0.09,0.18-0.14,0.29-0.14h3.09c0.16,0,0.3,0.1,0.36,0.26
				c2.68,8.04,7.43,20.22,9.54,20.85c3.07,0.92,8.94,4.5,9.18,4.65c0.09,0.06,0.15,0.15,0.17,0.25c0.77,4.25,10.2,9.71,10.87,10.09
				c66.67,19.29,123.31,0.19,123.88-0.01c0.12-0.04,0.25-0.02,0.35,0.05c0.1,0.07,0.15,0.19,0.15,0.32c0,0.08-0.43,7.63-7.34,9.52
				c-6.47,1.77-38.83,6.75-62.17,6.13c-21.04-0.56-50.15-4.33-52.87-7.76c-2.1-2.65-2.45-6.29-2.5-7.5
				c-1.83,0.12-8.44,0.52-9.6-0.07c-0.17-0.09-0.54-0.25-1.06-0.47c-3.22-1.38-11.76-5.06-14.96-9.08
				C894.9,461.57,889.92,447.08,889.92,440.75z M890.98,438.8c-1.74,3.07,3.93,21.58,7.46,26.02c3.08,3.88,11.5,7.5,14.67,8.86
				c0.54,0.23,0.92,0.4,1.1,0.49c0.73,0.36,5.12,0.24,8.39,0.04c-2.64-1.61-9.32-6-10.19-9.84c-0.92-0.55-6.15-3.67-8.87-4.49
				c-3.05-0.91-8.93-18.07-9.95-21.08H890.98z M1047.55,475.04c-6.02,1.92-60.14,18.09-123.32-0.03c0.08,1.25,0.46,4.58,2.33,6.93
				c2.15,2.71,27.9,6.82,52.3,7.48c23.27,0.62,55.51-4.34,61.96-6.1C1046.22,481.84,1047.33,476.74,1047.55,475.04z"/>
		</g>
	</g>
	<g>
		<g>
			<path d="M916.72,469.98l0.25-0.71c70.09,24.45,138.37-0.35,139.05-0.6l0.26,0.7C1055.59,469.63,987.07,494.52,916.72,469.98z"/>
		</g>
	</g>
	<g>
		<g>
			<path d="M1055.72,388.39c0-0.26,0.02-0.52,0.06-0.77c0.96-6.32,2.18-104.03,2.2-105.01l0.75,0.01
				c-0.05,4.03-1.24,98.74-2.2,105.12c-0.6,3.87,3.97,7.6,13.54,11.07l0.38,0.14c0.81,0.3,2,0.51,3.06-0.19
				c1.3-0.86,2.06-2.9,2.2-5.9c0.3-6.34,2.73-117.49,2.75-118.61l0.75,0.02c-0.02,1.12-2.45,112.28-2.75,118.63
				c-0.16,3.29-1.01,5.47-2.54,6.48c-1.03,0.68-2.36,0.78-3.73,0.27l-0.38-0.14C1060.45,396.11,1055.72,392.38,1055.72,388.39z"/>
		</g>
	</g>
	<g>
		<g>
			<rect x="1057.65" y="300.93" transform="matrix(0.9612 -0.2757 0.2757 0.9612 -41.6713 306.1852)" width="21.06" height="0.75"/>
		</g>
	</g>
	<g>
		<g>
			<rect x="1065.86" y="371.11" transform="matrix(0.263 -0.9648 0.9648 0.263 417.6759 1309.91)" width="0.75" height="20.92"/>
		</g>
	</g>
	<g>
		<g>
			<rect x="1060.91" y="417.41" transform="matrix(0.0522 -0.9986 0.9986 0.0522 607.9238 1476.089)" width="41.33" height="0.75"/>
		</g>
	</g>
	<g>
		<g>
			<rect x="1036.06" y="419.56" transform="matrix(0.0267 -0.9996 0.9996 0.0267 636.3779 1493.4883)" width="98.2" height="0.75"/>
		</g>
	</g>
	<g>
		<g>
			<path d="M1080.05,447.69c4.46-0.62,9.99-9.37,10.04-9.46l0.63,0.4c-0.23,0.37-5.77,9.14-10.57,9.81L1080.05,447.69z"/>
		</g>
	</g>
	<g>
		<g>
			<rect x="901.99" y="454.73" transform="matrix(0.3326 -0.9431 0.9431 0.3326 176.4758 1159.5803)" width="11.05" height="0.75"/>
		</g>
	</g>
	<g>
		<g>
			<path d="M893.16,190.1c4.65-0.63,15.3,7.4,15.75,7.75l-0.45,0.6c-0.11-0.08-10.85-8.19-15.2-7.6L893.16,190.1z"/>
		</g>
	</g>
	<g>
		<g>
			<path d="M894.43,298.4c0-0.11,0.05-0.22,0.14-0.29c0.09-0.08,0.22-0.1,0.33-0.07l22.04,5.81c0.17,0.04,0.3,0.19,0.28,0.38
				l-2.8,74.6c-0.01,0.15-0.1,0.29-0.25,0.34l-15.29,5.52c-0.11,0.04-0.24,0.03-0.33-0.04c-0.1-0.07-0.16-0.18-0.17-0.29
				l-3.95-85.92C894.43,298.41,894.43,298.41,894.43,298.4z M916.45,304.5l-21.25-5.6l3.9,84.9l14.57-5.26L916.45,304.5z"/>
		</g>
	</g>
	<g>
		<g>
			<path d="M897.45,390.74c0-1.9,0.26-4.07,0.95-6.52l0.72,0.2c-2.39,8.5,0.62,13.69,1.31,14.74c1.66-0.42,11.17-2.96,13.31-5.9
				c2.32-3.19-0.04-14.26-0.06-14.38l0.73-0.16c0.1,0.47,2.45,11.51-0.06,14.98c-2.5,3.43-13.52,6.14-13.98,6.25
				c-0.14,0.03-0.29-0.02-0.38-0.13C899.84,399.65,897.45,396.49,897.45,390.74z"/>
		</g>
	</g>
	<g>
		<g>
			<path d="M884.58,278.65l0.51-0.55l3.53,3.29c0.6-0.55,2.24-2.32,3.12-5.86c1.05-4.2-1.04-17.73-1.31-19.4l-2.65-1.62l-2.79,1.71
				l-0.39-0.64l2.98-1.83c0.12-0.07,0.27-0.07,0.39,0l2.99,1.83c0.09,0.06,0.16,0.15,0.17,0.26c0.1,0.62,2.47,15.26,1.32,19.87
				c-1.17,4.67-3.55,6.41-3.65,6.48c-0.14,0.1-0.34,0.09-0.47-0.03L884.58,278.65z"/>
		</g>
	</g>
	<g>
		<g>
			<path d="M887.41,395.09v-24.99c0-0.11,0.05-0.21,0.13-0.28c1.28-1.11,2.33-0.93,2.99-0.59c2.67,1.4,3.92,7.99,3.05,16.05
				c-1.18,11-3.9,11.54-4.2,11.57c-0.1,0.01-0.2-0.02-0.28-0.09l-1.57-1.38C887.46,395.3,887.41,395.2,887.41,395.09z
				 M888.16,370.27v24.65l1.28,1.12c0.5-0.27,2.44-1.88,3.4-10.85c0.92-8.55-0.68-14.27-2.66-15.3
				C889.56,369.56,888.88,369.69,888.16,370.27z"/>
		</g>
	</g>
	<g>
		<g>
			<rect x="886.63" y="185.78" transform="matrix(0.9997 -0.0234 0.0234 0.9997 -4.9096 20.8438)" width="0.75" height="68.3"/>
		</g>
	</g>
	<g>
		<g>
			
				<rect x="844.09" y="325.62" transform="matrix(9.299812e-03 -1 1 9.299812e-03 553.9557 1211.1165)" width="88.21" height="0.75"/>
		</g>
	</g>
	<g>
		<g>
			<path d="M888.97,396.47l0.75-0.02c0.36,15.41,1.48,40.36,2.94,41.69l-0.51,0.55C889.98,436.71,889.07,400.59,888.97,396.47z"/>
		</g>
	</g>
	<g>
		<g>
			<path d="M881.57,388.83l0.73-0.17c3.04,13.34,7.94,17.81,8.7,18.43c1.25-0.07,10.71-0.75,17.5-4.53
				c7.21-4.02,10.33-11.88,10.36-11.96l0.7,0.27c-0.03,0.08-3.26,8.2-10.7,12.34c-7.4,4.12-17.87,4.63-17.97,4.63
				c-0.08,0-0.17-0.02-0.23-0.07C890.43,407.61,884.93,403.55,881.57,388.83z"/>
		</g>
	</g>
	<g>
		<g>
			<rect x="886.67" y="399.56" transform="matrix(0.999 -0.0442 0.0442 0.999 -18.3479 39.657)" width="0.75" height="69.84"/>
		</g>
	</g>
	<g>
		<g>
			<path d="M881.18,436.95l0.71-0.25c1.75,4.89,9.98,11.91,10.06,11.98l-0.48,0.57C891.11,448.95,883,442.03,881.18,436.95z"/>
		</g>
	</g>
	<g>
		<g>
			<path d="M895.07,115.17c0-11.84,1.1-25.27,1.17-26.11l0.75,0.06c-0.03,0.31-2.56,31.42-0.01,41.03
				c2.57,9.68,8.23,36.55,8.29,36.82l-0.73,0.15c-0.06-0.27-5.71-27.12-8.28-36.78C895.37,127.02,895.07,121.31,895.07,115.17z"/>
		</g>
	</g>
	<g>
		<g>
			<path d="M879.82,83.24c0.05-0.07,5.48-7.19,6.84-10.32c1.49-3.44,6.14-2.68,6.34-2.64c0.1,0.02,0.19,0.08,0.25,0.16
				c0.06,0.08,0.08,0.19,0.06,0.29c-0.06,0.28-6.1,28.96-6.71,87.52l-0.75-0.01c0.57-54.9,5.91-83.59,6.64-87.27
				c-1.08-0.09-4.11-0.13-5.14,2.25c-1.4,3.21-6.71,10.18-6.93,10.47L879.82,83.24z"/>
		</g>
	</g>
	<g>
		<g>
			<path d="M882.29,156.36c0.03-0.62,2.49-62.23,3.55-76.74c1.06-14.53,4.53-31.09,4.56-31.26l0.73,0.15
				c-0.04,0.17-3.5,16.68-4.55,31.16c-1.06,14.5-3.52,76.1-3.55,76.72L882.29,156.36z"/>
		</g>
	</g>
	<g>
		<g>
			<path d="M924.67,97.53c0-0.03,0-0.06,0.01-0.1c0.53-1.97,12.97-48.37,19.5-50.7c0.13-0.05,0.29-0.02,0.39,0.08
				c0.1,0.1,0.14,0.25,0.09,0.38l-17.58,54.11c-0.05,0.15-0.18,0.25-0.33,0.26c-0.15,0.01-0.3-0.08-0.36-0.22l-1.68-3.67
				C924.68,97.64,924.67,97.59,924.67,97.53z M943.63,47.95c-5.1,4.49-13.98,33.79-18.19,49.55l1.22,2.67L943.63,47.95z"/>
		</g>
	</g>
	<g>
		<g>
			<path d="M1028.01,47.09c0-0.09,0.04-0.19,0.1-0.26c0.1-0.1,0.24-0.14,0.37-0.1c0.3,0.08,7.45,2.6,19.86,50.87
				c0.03,0.1,0.01,0.2-0.04,0.29l-1.66,2.75c-0.08,0.12-0.22,0.19-0.36,0.18c-0.15-0.02-0.27-0.11-0.31-0.25l-17.94-53.35
				C1028.02,47.17,1028.01,47.13,1028.01,47.09z M1047.58,97.63c-9.72-37.74-16.21-47.2-18.45-49.49l17.29,51.41L1047.58,97.63z"/>
		</g>
	</g>
</g>
</svg>
