<?xml version="1.0" encoding="utf-8"?>
<!-- Generator: Adobe Illustrator 24.3.0, SVG Export Plug-In . SVG Version: 6.00 Build 0)  -->
<svg version="1.1" id="Layer_1" xmlns="http://www.w3.org/2000/svg" xmlns:xlink="http://www.w3.org/1999/xlink" x="0px" y="0px"
	 viewBox="0 0 1499.58 1103.39" style="enable-background:new 0 0 1499.58 1103.39;" xml:space="preserve">
<g>
	<g>
		<g>
			<path d="M1083.01,728.39c0-4.39,2.03-13.82,2.23-14.7l2.75-303.23l0.31-29.66c0-0.24-0.01-24.77-0.61-28.97
				c-0.59-4.1-3.74-86.71,1.22-124.26l0.02-0.15l4.61-5.22c0.57-2.23,8.96-34.17,25.45-53.89c16.66-19.93,55.05-33.67,57.01-34.37
				c0.8-0.6,7.96-5.86,12.77-5.86c0.94,0,4.12-0.23,8.52-0.55c18.27-1.34,61.06-4.47,82.97-1.27c24.49,3.58,28.86,6.9,29.59,7.73
				c3.17,1.31,46.52,19.44,58.8,36.81c12.56,17.77,21.78,43.82,22.41,48.84c0.57,4.59,5.23,7.56,5.27,7.59l0.22,0.14l0.01,0.26
				c0.05,1.01,4.56,101.14,2.14,118.41c-2.41,17.19,0.69,180.79,0.72,182.44v183.75c0.02,0.27,2.04,30.3,2.34,36.05
				c0.31,5.77-2.48,77.11-2.6,80.15l-0.02,0.13c-0.07,0.23-7.18,23.56-7.78,29.26c-0.59,5.61-8.78,45.15-15.64,58.87
				c-6.63,13.26-29.62,26.01-47.11,30.22c-16.71,4.02-86.1,10.71-128.58,5.82c-42.54-4.9-73.02-11.38-83.52-27.12
				c-10.57-15.85-12.7-24.72-16.58-40.82c-1.07-4.43-2.29-10.15-3.59-16.21c-3.4-15.88-7.63-35.65-10.66-38.9l-0.13-0.14l0-0.19
				c-0.02-0.96-1.84-96.3-2.44-99.59C1083.04,729.38,1083.01,728.92,1083.01,728.39z M1089.3,380.8l-0.31,29.66l-2.75,303.34
				l-0.01,0.05c-0.03,0.12-2.72,12.47-2.14,15.7c0.6,3.32,2.33,93.57,2.45,99.57c3.21,3.82,7.23,22.62,10.78,39.23
				c1.29,6.05,2.52,11.76,3.58,16.18c3.85,15.99,5.97,24.8,16.44,40.5c10.28,15.42,40.54,21.82,82.8,26.69
				c42.38,4.88,111.57-1.79,128.23-5.8c17.28-4.16,39.95-16.7,46.45-29.7c6.81-13.63,14.95-52.95,15.54-58.53
				c0.6-5.7,7.3-27.76,7.8-29.38c0.1-2.55,2.89-74.35,2.6-79.99c-0.3-5.74-2.32-35.77-2.34-36.07l0-183.78
				c-0.03-1.64-3.14-165.33-0.71-182.59c2.35-16.76-1.88-112.31-2.13-117.97c-1-0.68-4.95-3.65-5.51-8.16
				c-0.62-4.96-9.76-30.74-22.23-48.39c-12.31-17.41-58.02-36.32-58.48-36.51l-0.16-0.06l-0.08-0.15c-0.09-0.12-2.9-3.59-28.99-7.4
				c-21.8-3.18-64.51-0.05-82.75,1.28c-4.58,0.34-7.61,0.56-8.59,0.56c-4.67,0-12.16,5.65-12.23,5.71l-0.14,0.07
				c-0.4,0.14-39.81,13.95-56.65,34.09c-16.85,20.16-25.19,53.28-25.27,53.61l-0.03,0.12l-4.57,5.17
				c-4.93,37.55-1.79,119.75-1.2,123.84C1089.29,355.95,1089.3,379.79,1089.3,380.8z"/>
		</g>
	</g>
	<g>
		<g>
			<path d="M1344.21,578.41c0-31.54,1.38-56.4,3.35-68.67c3.81-23.79,24.07-116.23,30.7-123.17l0.86-0.9v22.02h-1v-19.15
				c-6.91,12.7-25.5,95.95-29.58,121.36c-3.98,24.74-5.55,100.93,1.83,179.64c6.74,71.82,15.38,117.36,16.65,123.88
				c2.98-3.01,3.82-13.25,4.38-20.18c0.2-2.47,0.38-4.6,0.61-5.91c0.86-4.89,6.1-175.95,6.1-198.94V423.81h1V588.4
				c0,23.01-5.26,194.21-6.12,199.12c-0.22,1.26-0.39,3.37-0.59,5.81c-0.65,8.01-1.55,18.99-5.44,21.42l-0.61,0.38l-0.14-0.71
				c-0.09-0.47-9.57-47.39-16.83-124.79C1345.66,649.82,1344.21,610.63,1344.21,578.41z"/>
		</g>
	</g>
	<g>
		<g>
			<path d="M1372.29,418.36l1.65-13.55l0.63,0.31c1.35,0.66,33.13,16.27,37.4,19.94c4.45,3.81,2.98,12.05,2.92,12.39l-0.1,0.56
				l-0.54-0.17c-1.03-0.33-25.15-7.98-28.52-9.82c-0.86-0.47-1.73-0.76-2.57-1.04c-2.37-0.79-4.82-1.61-7.35-6.38L1372.29,418.36z
				 M1374.76,406.33l-1.41,11.52l3.21,2.04l0.06,0.12c2.37,4.52,4.54,5.25,6.85,6.02c0.88,0.29,1.79,0.6,2.73,1.11
				c3.01,1.64,24.06,8.38,27.79,9.57c0.24-1.88,0.72-7.99-2.67-10.89C1407.47,422.51,1379.36,408.59,1374.76,406.33z"/>
		</g>
	</g>
	<g>
		<g>
			<rect x="1365.3" y="429.22" width="13.33" height="1"/>
		</g>
	</g>
	<g>
		<g>
			<rect x="1342.48" y="569.71" transform="matrix(0.8828 -0.4697 0.4697 0.8828 -108.266 706.4587)" width="38.4" height="1"/>
		</g>
	</g>
	<g>
		<g>
			<rect x="1344.5" y="591.42" transform="matrix(0.979 -0.2039 0.2039 0.979 -92.0885 290.1159)" width="34.5" height="1"/>
		</g>
	</g>
	<g>
		<g>
			<rect x="1362.38" y="693.82" transform="matrix(0.7163 -0.6978 0.6978 0.7163 -109.6045 1152.7256)" width="1" height="34.69"/>
		</g>
	</g>
	<g>
		<g>
			<path d="M1351.67,711.49l0.75-0.66l22.47,25.47c3.08,2.03,11.45,7.01,14.01,6.31c1.45-0.4,2.92-6.93,4.22-12.69
				c1.42-6.31,3.03-13.46,5.36-17.94l0.89,0.46c-2.27,4.36-3.87,11.44-5.27,17.69c-1.85,8.23-2.99,12.91-4.93,13.44
				c-3.48,0.95-13.72-5.72-14.88-6.48l-0.1-0.09L1351.67,711.49z"/>
		</g>
	</g>
	<g>
		<g>
			<path d="M1328.24,936.78l7.9-10.99l0.17-0.05c0.08-0.02,8.34-2.21,20.05-9.12c11.61-6.84,18.07-32.15,18.13-32.4l0.3-1.2
				l0.62,1.07c0.14,0.24,3.4,5.97,3.71,10.92c0.15,2.36-1,10.36-7.98,19c-8.7,10.75-22.7,18.31-41.63,22.49L1328.24,936.78z
				 M1336.74,926.67l-6.16,8.57c47.21-10.93,47.57-39.86,47.55-40.16c-0.22-3.47-2.03-7.47-2.99-9.37
				c-1.47,5.29-7.67,25.54-18.27,31.78C1345.98,923.92,1338.02,926.31,1336.74,926.67z"/>
		</g>
	</g>
	<g>
		<g>
			<path d="M1317.75,145.62l1.17,0.53c0.11,0.05,10.94,5.02,29.69,15.61c18.87,10.65,33.68,39.36,33.83,39.65l0.05,0.19
				c0.13,1.81,0.71,10.95-0.91,12.69c-0.29,0.31-0.6,0.38-0.82,0.38c-1.37,0-2.29-1.22-5.35-5.25c-2.54-3.36-6.79-8.97-14.12-17.55
				c-15.18-17.75-35.27-27.29-35.47-27.39l-0.17-0.08L1317.75,145.62z M1381.5,201.78c-0.92-1.77-15.3-28.93-33.39-39.14
				c-15.2-8.58-25.17-13.46-28.44-15.02l6.76,16.05c2.03,0.99,21.07,10.53,35.63,27.56c7.35,8.6,11.61,14.23,14.16,17.59
				c2.68,3.53,3.68,4.86,4.55,4.86c0.02,0,0.06-0.03,0.08-0.06C1381.87,212.53,1381.79,205.83,1381.5,201.78z"/>
		</g>
	</g>
	<g>
		<g>
			<path d="M1101.56,207.09c0-2.59,0.17-4.97,0.21-5.48l0.06-0.19c0.15-0.29,15.35-29,34.72-39.65
				c19.25-10.59,30.37-15.56,30.48-15.61l1.17-0.52l-8.12,18.78l-0.17,0.08c-0.21,0.09-20.83,9.65-36.41,27.39
				c-7.52,8.57-11.89,14.19-14.5,17.55c-3.13,4.03-4.08,5.25-5.47,5.25c-0.22,0-0.54-0.07-0.84-0.39
				C1101.78,213.32,1101.56,210.07,1101.56,207.09z M1102.75,201.79c-0.3,4.03-0.38,10.71,0.66,11.82c0.03,0.03,0.07,0.07,0.1,0.07
				c0.91,0,1.93-1.32,4.68-4.86c2.61-3.36,6.99-9,14.54-17.59c14.95-17.03,34.51-26.58,36.57-27.56l6.94-16.06
				c-3.33,1.54-13.58,6.43-29.22,15.03C1118.46,172.85,1103.71,200,1102.75,201.79z"/>
		</g>
	</g>
	<g>
		<g>
			<path d="M1374.66,883.96c3.36-2.87,7.54-35.66,10.9-85.56c2.44-36.32,4.46-112.31,5.11-165.37c0.6-48.27-0.54-218.18-1.83-275.45
				c-1.26-55.5-8.49-142.49-8.56-143.36l1-0.08c0.07,0.87,7.3,87.89,8.56,143.42c1.3,57.28,2.43,227.2,1.83,275.48
				c-0.66,53.07-2.67,129.09-5.12,165.43c-1.65,24.45-6.03,81.81-11.24,86.26L1374.66,883.96z"/>
		</g>
	</g>
	<g>
		<g>
			<path d="M1390.83,724.64v-26.4h3.54v26.4H1390.83z M1391.83,699.24v24.4h1.54v-24.4H1391.83z"/>
		</g>
	</g>
	<g>
		<g>
			<path d="M1393.37,556.34v-26.4h3.54v26.4H1393.37z M1394.37,530.93v24.4h1.54v-24.4H1394.37z"/>
		</g>
	</g>
	<g>
		<g>
			<path d="M1378.62,573.6c12.94-0.22,19.9-6.01,19.97-6.07l0.65,0.76c-0.29,0.25-7.28,6.08-20.6,6.31L1378.62,573.6z"/>
		</g>
	</g>
	<g>
		<g>
			<path d="M1106.09,589.29V424.7h1v164.59c0,23,5.25,194.06,6.1,198.94c0.23,1.3,0.41,3.43,0.61,5.9
				c0.56,6.92,1.4,17.17,4.38,20.18c1.28-6.52,9.92-52.07,16.65-123.88c7.38-78.72,5.81-154.91,1.83-179.64
				c-4.07-25.41-22.66-108.66-29.58-121.36v19.15h-1v-22.02l0.86,0.9c6.63,6.94,26.89,99.38,30.7,123.17
				c3.98,24.79,5.56,101.1-1.83,179.9c-7.26,77.4-16.73,124.33-16.83,124.79l-0.14,0.71l-0.61-0.38c-3.9-2.44-4.79-13.41-5.44-21.42
				c-0.2-2.44-0.37-4.56-0.59-5.81C1111.35,783.51,1106.09,612.31,1106.09,589.29z"/>
		</g>
	</g>
	<g>
		<g>
			<path d="M1070.04,434.86c0-2.81,0.55-6.64,3.2-8.91c4.28-3.67,36.05-19.28,37.4-19.94l0.63-0.31l1.65,13.55l-3.52,2.24
				c-2.53,4.77-4.98,5.59-7.36,6.39c-0.84,0.28-1.71,0.57-2.57,1.04c-3.37,1.84-27.5,9.5-28.52,9.82l-0.54,0.17l-0.1-0.56
				C1070.3,438.21,1070.04,436.77,1070.04,434.86z M1110.46,407.22c-4.59,2.27-32.7,16.18-36.56,19.49
				c-3.38,2.9-2.91,9.01-2.67,10.89c3.72-1.19,24.78-7.93,27.79-9.57c0.94-0.51,1.85-0.82,2.73-1.11c2.3-0.77,4.48-1.5,6.85-6.02
				l0.06-0.12l3.21-2.04L1110.46,407.22z"/>
		</g>
	</g>
	<g>
		<g>
			<rect x="1106.59" y="430.11" width="13.33" height="1"/>
		</g>
	</g>
	<g>
		<g>
			<rect x="1123.04" y="551.9" transform="matrix(0.4705 -0.8824 0.8824 0.4705 90.9894 1293.8223)" width="1" height="38.4"/>
		</g>
	</g>
	<g>
		<g>
			<rect x="1122.97" y="575.56" transform="matrix(0.2033 -0.9791 0.9791 0.2033 314.6911 1572.3436)" width="1" height="34.5"/>
		</g>
	</g>
	<g>
		<g>
			<rect x="1105" y="711.55" transform="matrix(0.6979 -0.7162 0.7162 0.6979 -170.9258 1018.8533)" width="34.69" height="1"/>
		</g>
	</g>
	<g>
		<g>
			<path d="M1085.86,713.34l0.89-0.46c2.33,4.47,3.94,11.63,5.36,17.94c1.3,5.76,2.76,12.3,4.22,12.69
				c2.56,0.7,10.92-4.28,14.01-6.31l22.47-25.47l0.75,0.66l-22.61,25.61c-1.16,0.76-11.4,7.43-14.88,6.48
				c-1.94-0.53-3.08-5.21-4.93-13.44C1089.73,724.78,1088.13,717.7,1085.86,713.34z"/>
		</g>
	</g>
	<g>
		<g>
			<path d="M1106.08,896.32c0-0.15,0-0.29,0.01-0.42c0.31-4.95,3.57-10.68,3.71-10.92l0.62-1.07l0.3,1.2
				c0.06,0.25,6.53,25.56,18.13,32.4c11.71,6.91,19.97,9.1,20.05,9.12l0.17,0.05l7.9,10.99l-1.28-0.28
				c-18.93-4.18-32.94-11.75-41.63-22.49C1107.45,906.72,1106.08,899.1,1106.08,896.32z M1110.08,886.6
				c-0.96,1.9-2.78,5.91-2.99,9.37c-0.02,0.29,0.35,29.23,47.55,40.16l-6.16-8.57c-1.27-0.36-9.23-2.75-20.13-9.18
				C1117.75,912.13,1111.55,891.88,1110.08,886.6z"/>
		</g>
	</g>
	<g>
		<g>
			<path d="M1093.39,595.19c0-69.63,0.94-190.25,2-236.74c1.26-55.53,8.49-142.55,8.56-143.42l1,0.08
				c-0.07,0.87-7.3,87.86-8.56,143.36c-1.3,57.29-2.43,227.19-1.83,275.45c0.66,53.06,2.67,129.05,5.11,165.37
				c3.36,49.91,7.53,82.69,10.9,85.56l-0.65,0.76c-5.21-4.45-9.6-61.8-11.25-86.26c-2.44-36.34-4.46-112.36-5.11-165.43
				C1093.44,624.83,1093.39,611.38,1093.39,595.19z"/>
		</g>
	</g>
	<g>
		<g>
			<path d="M1090.85,725.53v-26.4h3.54v26.4H1090.85z M1091.85,700.13v24.4h1.54v-24.4H1091.85z"/>
		</g>
	</g>
	<g>
		<g>
			<path d="M1088.31,557.23v-26.4h3.54v26.4H1088.31z M1089.31,531.82v24.4h1.54v-24.4H1089.31z"/>
		</g>
	</g>
	<g>
		<g>
			<path d="M1085.98,569.18l0.65-0.76c0.07,0.06,7.03,5.85,19.97,6.07l-0.02,1C1093.26,575.26,1086.27,569.43,1085.98,569.18z"/>
		</g>
	</g>
	<g>
		<g>
			<path d="M1180.22,143.51c0-0.25,0.01-0.5,0.03-0.76c0.46-6.5,6.22-13.98,6.47-14.3l0.79,0.61c-0.06,0.07-5.82,7.56-6.26,13.75
				c-0.13,1.9,0.28,3.33,1.28,4.35c1.99,2.05,6.46,2.77,14.94,2.41c11.95-0.51,82.52-0.4,89.24-0.19l1.89,0.06
				c6.52,0.24,13.26,0.48,14.6-3.03c1.5-3.95-4.15-15.73-4.21-15.85l0.9-0.44c0.24,0.5,5.91,12.28,4.25,16.64
				c-1.6,4.18-8.7,3.92-15.57,3.67l-1.88-0.07c-6.71-0.21-77.22-0.33-89.16,0.19c-8.91,0.38-13.46-0.4-15.7-2.71
				C1180.74,146.78,1180.22,145.35,1180.22,143.51z"/>
		</g>
	</g>
	<g>
		<g>
			<path d="M1184.47,141.47c0-4.69,5.25-12.85,5.5-13.23l0.84,0.54c-0.06,0.1-6.29,9.79-5.22,13.65c0.62,2.21,8.6,1.78,18.71,1.23
				c6.33-0.34,14.21-0.77,22.54-0.68c8.01,0.08,19.36,0.46,30.33,0.83c18.9,0.63,40.32,1.35,42.12,0.38
				c1.76-0.95-1.24-9.02-3.93-14.45l0.9-0.44c1.15,2.33,6.75,14.03,3.51,15.78c-1.9,1.02-17.37,0.58-42.63-0.26
				c-10.97-0.37-22.31-0.75-30.3-0.83c-8.3-0.08-16.16,0.34-22.48,0.68c-11.79,0.64-18.9,1.02-19.73-1.97
				C1184.52,142.32,1184.47,141.91,1184.47,141.47z"/>
		</g>
	</g>
	<g>
		<g>
			<rect x="1311.55" y="138.28" transform="matrix(0.3596 -0.9331 0.9331 0.3596 703.0826 1318.4579)" width="1" height="17.5"/>
		</g>
	</g>
	<g>
		<g>
			<rect x="1165.1" y="146.67" transform="matrix(0.9286 -0.3711 0.3711 0.9286 29.1687 445.9211)" width="16.2" height="1"/>
		</g>
	</g>
	<g>
		<g>
			<path d="M1114.56,377.37l5.01-9.2l0.17-0.07c37.93-14.63,82.06-27.69,147.63-24.19c62.39,3.33,97.84,25.23,98.2,25.45l0.16,0.16
				l4.88,7.82l-0.05,0.2l-25.47,106.61l-0.51-0.16c-0.25-0.08-25.66-7.99-76.36-12.51c-50.7-4.53-126.98,12.35-127.75,12.52
				l-0.48,0.11L1114.56,377.37z M1120.27,368.97l-4.65,8.54l25.11,105.42c6.6-1.44,78.84-16.79,127.57-12.44
				c46.89,4.19,72.21,11.27,76.06,12.4l25.17-105.37l-4.6-7.37c-2.08-1.26-37.1-22.01-97.62-25.24
				C1202.03,341.43,1158.05,354.41,1120.27,368.97z"/>
		</g>
	</g>
	<g>
		<g>
			<path d="M1121.32,385.45v-10.42l0.22-0.15c12.1-8.05,48.93-26.72,129.3-26.38c70.55,0.3,114.28,24.89,114.71,25.14l0.25,0.14
				l-0.01,6.52l-24.96,102.11l-0.97-0.24l24.95-102.05v-5.76c-3.66-2-46.47-24.57-113.97-24.86
				c-79.61-0.34-116.27,17.99-128.52,26.06v9.76l22.91,97.15l-0.97,0.23L1121.32,385.45z"/>
		</g>
	</g>
	<g>
		<g>
			<path d="M1139.84,849.47l0.02-0.32l7.48-115.81l0.55,0.09c1.17,0.2,117.5,19.63,188.42,0.01l0.58-0.16l10.17,115.56l-0.26,0.16
				c-0.29,0.18-30.29,18.12-101.15,18.42c-70.85,0.3-105.18-17.61-105.52-17.79L1139.84,849.47z M1148.27,734.51l-7.39,114.38
				c3.43,1.71,37.59,17.82,104.76,17.53c67.03-0.29,97.27-16.36,100.37-18.12L1336,734.57
				C1267.33,753.29,1157.03,735.94,1148.27,734.51z"/>
		</g>
	</g>
	<g>
		<g>
			<path d="M1332.52,610.61c0-104.58,9.74-127.55,9.87-127.84l0.91,0.41c-0.17,0.37-16.77,39.83-6.36,250.71l-1,0.05
				C1333.46,683.72,1332.52,643.2,1332.52,610.61z"/>
		</g>
	</g>
	<g>
		<g>
			<path d="M1142.46,483.15l0.94-0.36c0.21,0.57,21.49,59.2,4.91,251.17l-1-0.09C1163.86,542.22,1142.67,483.72,1142.46,483.15z"/>
		</g>
	</g>
	<g>
		<g>
			<path d="M1155.68,937.39l0.26-0.96c92.84,25.17,172.52-0.62,173.31-0.88l0.31,0.95C1328.77,936.75,1248.82,962.64,1155.68,937.39
				z"/>
		</g>
	</g>
	<g>
		<g>
			<path d="M1111.41,890.87l0.84-0.55c21.68,33.1,88.87,44.18,194.33,32.05c50.93-5.86,65.94-31.75,66.09-32.02l0.87,0.49
				c-0.15,0.27-15.36,26.6-66.84,32.52C1200.83,935.54,1133.31,924.31,1111.41,890.87z"/>
		</g>
	</g>
	<g>
		<g>
			<path d="M1192.17,940.12c0-1.32,1.07-2.39,2.39-2.39h96.42c1.32,0,2.39,1.07,2.39,2.39s-1.07,2.39-2.39,2.39h-96.42
				C1193.24,942.51,1192.17,941.44,1192.17,940.12z M1292.37,940.12c0-0.77-0.62-1.39-1.39-1.39h-96.42c-0.77,0-1.39,0.62-1.39,1.39
				s0.62,1.39,1.39,1.39h96.42C1291.75,941.51,1292.37,940.89,1292.37,940.12z"/>
		</g>
	</g>
	<g>
		<g>
			<polygon points="1087.77,381.55 1088.1,380.61 1106.44,387.23 1112.88,379.86 1113.63,380.52 1106.74,388.4 			"/>
		</g>
	</g>
	<g>
		<g>
			<path d="M1329.57,166.3l0.95-0.33c19.71,57.21,39.29,205.6,40.03,211.25l8.23,9.11l18.34-6.61l0.34,0.94l-18.97,6.84l-8.89-9.85
				l-0.02-0.15C1369.38,375.98,1349.53,224.23,1329.57,166.3z"/>
		</g>
	</g>
	<g>
		<g>
			<path d="M1325.56,164.15l0.98-0.22c0.38,1.7,37.87,169.99,39.27,205.85l-1,0.04C1363.41,334.05,1325.94,165.84,1325.56,164.15z"
				/>
		</g>
	</g>
	<g>
		<g>
			<path d="M1119.42,368.5c5.83-39.12,39.43-202.91,39.77-204.56l0.98,0.2c-0.34,1.65-33.94,165.42-39.76,204.51L1119.42,368.5z"/>
		</g>
	</g>
	<g>
		<g>
			<path d="M1114.59,377.41c4.54-67.44,39.41-209.56,39.76-210.98l0.97,0.24c-0.35,1.43-35.2,143.46-39.73,210.81L1114.59,377.41z"
				/>
		</g>
	</g>
</g>
<g>
	<g>
		<g>
			<path d="M413.45,470.75l-0.11-0.15c-0.22-0.47-5.29-11.51-6.2-13.78c-0.54-1.38-7.38-14.45-13.41-25.98
				c-1.89-3.62-3.76-7.19-5.42-10.37l-0.06-0.12c-1.84-3.51-3.41-6.55-4.49-8.66c-5.04-9.87-15.75-8.3-16.21-8.22l-0.08,0.01
				l-0.08-0.01c-80.26-13.28-171.58-0.14-172.49-0.01l-0.08,0.01l-0.08-0.01c-0.45-0.07-11.17-1.64-16.21,8.22
				c-1.08,2.12-2.66,5.16-4.51,8.68l-0.04,0.09c-1.68,3.22-3.57,6.83-5.48,10.5c-6,11.47-12.8,24.48-13.34,25.85
				c-0.92,2.28-5.99,13.32-6.2,13.79l-0.1,0.14l-0.37-0.36l-0.44-0.2c0.05-0.11,5.28-11.48,6.18-13.74
				c0.56-1.42,7.08-13.88,13.38-25.94c1.9-3.63,3.77-7.21,5.43-10.4v-0.01l0.06-0.11c1.86-3.55,3.45-6.62,4.54-8.75
				c5.14-10.06,16.12-8.91,17.17-8.77c3.02-0.43,93.21-13.12,172.65,0.01c1.09-0.14,12.04-1.28,17.17,8.77
				c1.09,2.13,2.68,5.2,4.54,8.75l0.06,0.12c1.64,3.15,3.49,6.68,5.37,10.28c6.33,12.12,12.88,24.65,13.45,26.07
				c0.9,2.25,6.13,13.62,6.18,13.73l-0.44,0.2L413.45,470.75z"/>
		</g>
	</g>
	<g>
		<g>
			<path d="M140.95,481.86l-1.73-1.32c-1.64-0.22-17.92-2.35-23.95-2.56c-2.58-0.09-4.53-1.5-5.5-3.96
				c-1.29-3.28-0.45-7.57,1.95-9.96c4.09-4.09,22.79-8.87,30.2-8.41c1.56,0.1,2.82,0.76,3.74,1.96c2.63,3.42,1.73,10.31,1.4,12.31
				c0.3,0.01,0.74,0.02,1.27-0.03l0.17-0.02c2.05-0.19,5.18-1.04,8.42-4c4.17-3.83,12.13-30.57,16.17-45.77l0.04-0.11l0.39,0.19
				h0.57l-0.04,0.15l0.01,0c-1.13,4.23-11.12,41.35-16.46,46.26c-3.34,3.05-6.59,4-8.79,4.24c-0.94,1.14-6.64,8.11-7.59,10.41
				L140.95,481.86z M140.85,456.62c-7.69,0-24.73,4.45-28.42,8.14c-2.1,2.1-2.86,6-1.73,8.89c0.81,2.07,2.45,3.25,4.6,3.33
				c6.37,0.22,24,2.56,24.18,2.58l0.13,0.02l0.94,0.72c1.31-2.45,5.24-7.36,6.88-9.37c-0.64,0-1.02-0.06-1.04-0.07l-0.51-0.08
				l0.1-0.51c0.02-0.08,1.65-8.47-1.11-12.06c-0.75-0.97-1.73-1.49-3.01-1.57C141.54,456.63,141.2,456.62,140.85,456.62z"/>
		</g>
	</g>
	<g>
		<g>
			<path d="M168.3,645.13h-42.96l0-0.5l0.22-71.54l-2.3-55.97l3.21-2.29c-0.58-14.91,4.09-22.62,4.83-23.75v-3.25l0.13-0.14
				c0.03-0.04,3.24-3.47,5.05-5.28c0.46-0.46,1.4-1.44,2.57-2.68l0.73,0.69c-1.17,1.24-2.13,2.24-2.59,2.7
				c-1.59,1.59-4.27,4.44-4.89,5.11v3.17l-0.09,0.13c-0.05,0.08-5.4,7.88-4.73,23.54l0.01,0.27l-3.21,2.29l1.81,43.97l1.46-20.79
				l1,0c0.02,0.34,2.21,34.03,8.83,49.36c5.84,13.53,12.77,13.16,25.36,12.48c1.59-0.09,3.27-0.18,5.05-0.25l0.52-0.02V645.13z
				 M126.34,644.13h40.96v-40.71c-1.58,0.06-3.08,0.15-4.51,0.22c-12.61,0.68-20.21,1.09-26.33-13.08
				c-4.88-11.32-7.38-32.45-8.37-43.14l-1.63,23.16l0.1,2.49L126.34,644.13z"/>
		</g>
	</g>
	<g>
		<g>
			<path d="M196.44,514l-51.15-1.64l-0.01-0.48c0-0.19-0.14-19.55,7.89-31.09c8.08-11.61,30.4-12.49,31.35-12.52l0.41-0.01l0.1,0.4
				c0.08,0.33,8.06,33.59,11.23,44.69L196.44,514z M146.28,511.39l48.82,1.57c-3.09-11-10.05-39.91-10.96-43.67
				c-3.09,0.18-22.95,1.7-30.16,12.07C146.84,491.63,146.32,508.36,146.28,511.39z"/>
		</g>
	</g>
	<g>
		<g>
			<path d="M128.89,548.8l-0.44-0.9c0.11-0.05,10.83-5.28,13.93-10.15c3.09-4.86,2.91-25.66,2.9-25.87l1-0.01
				c0.01,0.87,0.19,21.3-3.06,26.41C139.97,543.39,129.34,548.58,128.89,548.8z"/>
		</g>
	</g>
	<g>
		<g>
			<path d="M378.01,469.3l-0.27-0.03c-77.35-9.58-192.02-0.1-193.17-0.01l-0.26,0.02l-6.49-7.94l0.03-0.21
				c0.25-1.91,6.29-46.81,14.06-58.57l0.83,0.55c-7.38,11.17-13.41,54.5-13.88,57.94l5.89,7.2c6.2-0.51,117.19-9.32,192.84,0
				l5.88-7.19c-0.47-3.44-6.5-46.77-13.88-57.94l0.83-0.55c7.77,11.76,13.81,56.67,14.06,58.57l0.03,0.21L378.01,469.3z"/>
		</g>
	</g>
	<g>
		<g>
			<rect x="154.5" y="464.1" transform="matrix(0.9603 -0.2791 0.2791 0.9603 -123.0484 64.9777)" width="24.33" height="1"/>
		</g>
	</g>
	<g>
		<g>
			<path d="M421.39,481.87l-0.25-0.6c-0.95-2.3-6.66-9.27-7.59-10.41c-2.21-0.24-5.46-1.19-8.79-4.24
				c-5.35-4.91-15.34-42.03-16.46-46.25l-0.03-0.17h0.5l0.46-0.19l0.04,0.09c4.05,15.21,12,41.95,16.17,45.78
				c3.24,2.96,6.36,3.81,8.42,4l0.19,0.03c0.52,0.04,0.95,0.04,1.25,0.02c-0.33-2-1.24-8.89,1.4-12.31c0.92-1.2,2.18-1.86,3.74-1.96
				c7.42-0.48,26.11,4.32,30.19,8.41c2.4,2.4,3.24,6.68,1.95,9.96c-0.97,2.46-2.92,3.87-5.5,3.96c-6.03,0.21-22.31,2.34-23.95,2.56
				L421.39,481.87z M414.91,470.94c1.64,2.01,5.57,6.92,6.88,9.37l0.94-0.72l0.13-0.02c0.18-0.02,17.81-2.36,24.18-2.58
				c2.16-0.08,3.79-1.26,4.6-3.33c1.13-2.89,0.37-6.79-1.73-8.89c-3.86-3.86-22.35-8.55-29.42-8.12c-1.28,0.08-2.26,0.59-3.01,1.57
				c-2.76,3.59-1.13,11.97-1.11,12.06l0.1,0.51l-0.51,0.08C415.93,470.88,415.55,470.94,414.91,470.94z"/>
		</g>
	</g>
	<g>
		<g>
			<path d="M437,645.14h-42.96v-42.75l0.52,0.02c1.77,0.07,3.45,0.16,5.05,0.25c12.59,0.69,19.52,1.06,25.36-12.48
				c6.62-15.33,8.8-49.02,8.83-49.36l1,0l1.47,20.79l1.81-43.98l-3.21-2.29l0.01-0.27c0.67-15.66-4.67-23.46-4.73-23.54l-0.09-0.13
				v-3.17c-0.63-0.67-3.3-3.52-4.89-5.11c-0.46-0.46-1.42-1.46-2.59-2.7l0.73-0.69c1.17,1.24,2.11,2.22,2.57,2.68
				c1.82,1.82,5.02,5.25,5.05,5.28l0.13,0.14v3.25c0.74,1.13,5.41,8.84,4.83,23.75l3.21,2.29l-0.01,0.27l-2.29,55.72L437,645.14z
				 M395.04,644.14H436l-0.22-71.04l0.1-2.51l-1.63-23.16c-1,10.69-3.49,31.82-8.37,43.14c-6.11,14.17-13.72,13.76-26.33,13.08
				c-1.43-0.08-2.93-0.16-4.51-0.22V644.14z"/>
		</g>
	</g>
	<g>
		<g>
			<path d="M365.9,514.01l0.19-0.66c3.17-11.1,11.15-44.36,11.23-44.69l0.1-0.4l0.41,0.01c0.95,0.03,23.27,0.91,31.35,12.52
				c8.02,11.54,7.89,30.9,7.88,31.09l-0.01,0.48L365.9,514.01z M378.19,469.29c-0.91,3.76-7.87,32.67-10.96,43.67l48.82-1.57
				c-0.04-3.03-0.56-19.76-7.7-30.03C401.14,471,381.29,469.47,378.19,469.29z"/>
		</g>
	</g>
	<g>
		<g>
			<path d="M433.45,548.8c-0.45-0.22-11.08-5.41-14.33-10.51c-3.25-5.11-3.07-25.55-3.06-26.41l1,0.01c0,0.21-0.19,21,2.9,25.87
				c3.1,4.87,13.82,10.1,13.93,10.15L433.45,548.8z"/>
		</g>
	</g>
	<g>
		<g>
			<path d="M376.3,420.69c-148.7-16.18-189.73-0.19-190.13-0.03l-0.38-0.92c0.4-0.16,41.54-16.26,190.62-0.04L376.3,420.69z"/>
		</g>
	</g>
	<g>
		<g>
			<path d="M407.21,468.5l-23.36-6.81c-15.25-1.33-203.39-1.66-205.28-1.66l0-1c1.9,0,190.08,0.33,205.47,1.68l23.45,6.83
				L407.21,468.5z"/>
		</g>
	</g>
	<g>
		<g>
			<path d="M411.05,484.98c-7.45,0-16.4-0.54-24.34-1.01c-6.4-0.38-11.93-0.71-15.61-0.71c-2.29,0-10.15-0.06-22.03-0.15
				c-52.92-0.4-176.85-1.35-184.55,0.14c-9.42,1.82-28.83,1.37-29.03,1.36l0.03-1c0.19,0.01,19.5,0.46,28.81-1.35
				c7.79-1.51,131.79-0.56,184.74-0.16c11.88,0.09,19.74,0.15,22.03,0.15c3.71,0,9.25,0.33,15.67,0.72
				c15.03,0.9,33.73,2.02,38.48-0.64l0.49,0.87C423.36,484.54,417.82,484.98,411.05,484.98z"/>
		</g>
	</g>
	<g>
		<g>
			<rect x="188.35" y="483.98" width="185.34" height="1"/>
		</g>
	</g>
	<g>
		<g>
			<path d="M324.02,515.97c-3.25,0-80.57-0.93-88.42-1.99c-8.25-1.1-11.02-28.29-11.13-29.45l1-0.1
				c0.75,7.66,4.07,27.73,10.27,28.56c7.82,1.04,85.04,1.98,88.29,1.98c2.04,0,8.07-6.3,8.98-11.81c0.91-5.46,4.25-18.66,4.29-18.79
				l0.97,0.25c-0.03,0.13-3.37,13.29-4.27,18.71C333.08,508.78,326.94,515.97,324.02,515.97z"/>
		</g>
	</g>
	<g>
		<g>
			<path d="M322.07,512.37h-81.55c-3.79,0-6.88-3.09-6.88-6.88v-21.01h1v21.01c0,3.24,2.64,5.88,5.88,5.88h81.55
				c2.6,0,4.8-1.95,5.12-4.53l2.75-22.42l0.99,0.12l-2.75,22.42C327.81,510.05,325.18,512.37,322.07,512.37z"/>
		</g>
	</g>
	<g>
		<g>
			<rect x="167.8" y="602.41" width="226.74" height="1"/>
		</g>
	</g>
	<g>
		<g>
			<path d="M409.06,603.76c-20.55-12.66-20.66-18.33-20.75-22.88c-0.01-0.5-0.02-0.99-0.06-1.48c-0.35-4.41-8.79-9.32-14.6-9.63
				c-2.35-0.13-30.58-0.25-63.26-0.4c-45.41-0.21-101.92-0.46-109.61-0.82c-10.01-0.45-19.83,3.17-23.53,6.97
				c-0.92,0.95-1.38,1.84-1.33,2.59c0.31,4.32-2.47,12.24-4.88,13.9c-2.19,1.51-15.65,11.21-15.78,11.3l-0.58-0.81
				c0.14-0.1,13.6-9.8,15.8-11.32c1.98-1.36,4.76-8.71,4.45-13c-0.08-1.06,0.47-2.19,1.61-3.36c3.85-3.95,14-7.75,24.29-7.27
				c7.67,0.36,64.17,0.61,109.57,0.82c32.7,0.15,60.94,0.28,63.31,0.4c5.7,0.31,15.12,5.26,15.54,10.55
				c0.04,0.51,0.05,1.02,0.06,1.54c0.09,4.31,0.19,9.67,20.27,22.04L409.06,603.76z"/>
		</g>
	</g>
	<g>
		<g>
			<rect x="174.97" y="582.19" width="213.93" height="1"/>
		</g>
	</g>
	<g>
		<g>
			<path d="M259.47,529.25c-16.11,0-29.63-0.03-34.52-0.14c-14.71-0.31-28.95-14.67-29.54-15.28l0.71-0.7
				c0.14,0.15,14.55,14.69,28.85,14.98c11.88,0.25,75.01,0.09,101.97,0.03c6.42-0.02,10.91-0.03,12.36-0.03
				c7.53,0,24.98-8.12,26.78-14.76l0.96,0.26c-1.93,7.13-19.75,15.5-27.74,15.5c-1.45,0-5.94,0.01-12.36,0.03
				C311.06,529.18,282.6,529.25,259.47,529.25z"/>
		</g>
	</g>
	<g>
		<g>
			<path d="M129.48,553.79l-0.59-0.81c0.19-0.14,19.02-13.54,57.87-12.64c24.32,0.57,93.09,0.28,143.31,0.06
				c31.11-0.13,55.67-0.24,60.31-0.11c12.33,0.35,39.32,7.8,43.16,12.78l-0.79,0.61c-3.64-4.71-30.54-12.06-42.4-12.4
				c-4.62-0.13-29.18-0.03-60.28,0.11c-50.22,0.21-119,0.51-143.34-0.06C148.19,540.43,129.66,553.66,129.48,553.79z"/>
		</g>
	</g>
</g>
<g>
	<g>
		<g>
			<path d="M239.55,304.09c-22.95,0-41.62-18.67-41.62-41.62s18.67-41.62,41.62-41.62s41.62,18.67,41.62,41.62
				S262.5,304.09,239.55,304.09z M239.55,221.85c-22.4,0-40.62,18.22-40.62,40.62s18.22,40.62,40.62,40.62s40.62-18.22,40.62-40.62
				S261.94,221.85,239.55,221.85z"/>
		</g>
	</g>
	<g>
		<g>
			<path d="M239.55,319.99c-31.72,0-57.52-25.8-57.52-57.52s25.8-57.52,57.52-57.52s57.52,25.8,57.52,57.52
				S271.26,319.99,239.55,319.99z M239.55,205.95c-31.16,0-56.52,25.35-56.52,56.52c0,31.17,25.35,56.52,56.52,56.52
				s56.52-25.35,56.52-56.52C296.06,231.3,270.71,205.95,239.55,205.95z"/>
		</g>
	</g>
	<g>
		<g>
			<path d="M707.32,304.09c-22.95,0-41.62-18.67-41.62-41.62s18.67-41.62,41.62-41.62s41.62,18.67,41.62,41.62
				S730.27,304.09,707.32,304.09z M707.32,221.85c-22.4,0-40.62,18.22-40.62,40.62s18.22,40.62,40.62,40.62s40.62-18.22,40.62-40.62
				S729.71,221.85,707.32,221.85z"/>
		</g>
	</g>
	<g>
		<g>
			<path d="M707.32,319.99c-31.72,0-57.52-25.8-57.52-57.52s25.8-57.52,57.52-57.52s57.52,25.8,57.52,57.52
				S739.03,319.99,707.32,319.99z M707.32,205.95c-31.16,0-56.52,25.35-56.52,56.52c0,31.17,25.35,56.52,56.52,56.52
				c31.17,0,56.52-25.35,56.52-56.52C763.84,231.3,738.48,205.95,707.32,205.95z"/>
		</g>
	</g>
	<g>
		<g>
			<path d="M301.51,285.93l0.07-0.57c3.54-30.24-5.67-57.9-24.63-74.01c-15.25-12.95-35.38-16.73-56.68-10.63
				c-23.14,6.63-50.08,25.1-47.07,75.44l0.05,0.79c0.25,4.41-0.17,6.6-1.51,7.83c-1.86,1.7-5.22,1.21-11.31,0.33
				c-1.29-0.19-2.71-0.39-4.25-0.6c-13.57-1.81-63.65-3.04-64.15-3.05l-0.2-0.05l-19.24-9v-8.16h1.53v-13.5L71.68,250l-0.02-0.35
				c-0.61-11.7,2.12-24.46,2.15-24.59l0.08-0.35l4-0.46l1.71-5.98l-1.85-8.64l4.52-7.1l5.79-0.61l2.25-3.94v-2.84l4.83-4.53
				c-0.05-0.31-0.05-0.79,0.2-1.41c1.12-2.71,6.52-7.1,25.9-12.67c28.45-8.17,161.39-24.92,162.73-25.09l12.46,0.6
				c3.46-2.28,69.15-45.35,109.12-58.97c38.54-13.13,127.96-27.8,216.39-14.39c83.01,12.59,173.31,53.57,175.88,54.74
				c10.95,2.41,60.82,5.75,61.33,5.79l0.21,0.06c6.8,3.71,13.98,20.92,14.29,21.65l0.29,0.69h-4.42c4.18,20.43,5.86,25.9,6.45,27.36
				l0.38-0.5l1,14.65l8.56,11.62l0.01,0.15c2.65,47.02-14.34,48.78-22.5,49.62c-0.41,0.04-0.81,0.08-1.17,0.13
				c-7.55,0.91-89.65,13.02-90.48,13.14l-0.7,0.1l0.13-0.69c4.21-22.17-3.84-46.62-20.51-62.27c-15.93-14.96-37.2-20-59.9-14.2
				c-27.56,7.05-39.12,28.44-43.97,45.14c-5.27,18.16-3.98,34.88-3.96,35.05l0.04,0.53l-0.54,0.01L301.51,285.93z M92.15,280.47
				c2.6,0.06,50.83,1.28,64.15,3.06c1.55,0.21,2.97,0.41,4.26,0.6c5.6,0.82,8.98,1.31,10.49-0.07c1.07-0.98,1.42-3.02,1.19-7.04
				l-0.05-0.78c-3.05-51,24.31-69.73,47.8-76.46c21.63-6.2,42.08-2.35,57.6,10.83c19.1,16.22,28.44,43.97,25.04,74.32l339.19-4.45
				c-0.17-3.01-0.76-18.34,4.03-34.84c4.92-16.97,16.66-38.7,44.69-45.86c23.04-5.89,44.64-0.76,60.83,14.44
				c16.74,15.72,24.91,40.17,20.93,62.49c8.02-1.18,82.63-12.18,89.82-13.05c0.37-0.04,0.77-0.09,1.19-0.13
				c7.85-0.81,24.16-2.5,21.61-48.42l-8.56-11.62l-0.92-13.42c-0.67-1-2.31-5.68-7.04-28.85l-0.12-0.6h4.13
				c-1.42-3.27-7.72-17.17-13.45-20.41c-2.67-0.18-50.75-3.44-61.42-5.81l-0.1-0.03c-0.91-0.42-92.02-42-175.66-54.69
				c-88.25-13.38-177.47,1.25-215.92,14.35c-40.74,13.88-108.35,58.5-109.03,58.95l-0.14,0.09l-12.7-0.62
				c-1.25,0.16-134.11,16.9-162.49,25.05c-19.72,5.66-24.25,9.93-25.21,11.97c-0.33,0.7-0.17,1.06-0.17,1.08l0.15,0.32l-0.25,0.26
				l-4.73,4.44v2.67l-2.64,4.62l-5.82,0.61l-4.04,6.35l1.82,8.48l-1.96,6.86l-3.95,0.46c-0.42,2.1-2.55,13.24-2.07,23.63l2.46,0.77
				v15.24h-1.53v6.52L92.15,280.47z"/>
		</g>
	</g>
	<g>
		<g>
			<path d="M332.31,158.61l0.89-0.91c0.08-0.08,8.32-8.39,22.52-19.07l0.6,0.8c-11.42,8.59-18.96,15.64-21.48,18.06l157.68-6.97
				l6.43-0.17l172.41-4.52l-25.44-45.43l1.14,0.31c0.57,0.15,57.64,15.57,90.66,38.59l0.21,0.15v5.64l-0.49,0.01l-64.39,1.69
				c0.14,0.15,0.43,0.46,0.81,0.91l72.55-2.66v-2.59c-0.57-0.33-1.38-0.82-2.42-1.45c-37.89-22.82-72.74-37.39-103.57-43.3
				C583.91,86.89,496.9,80.39,437.65,97.7c-24.83,7.25-49.41,19.28-73.04,35.75l-0.57-0.82c23.72-16.53,48.4-28.61,73.34-35.89
				c59.42-17.36,146.62-10.86,203.23-0.01c30.95,5.93,65.91,20.54,103.9,43.43c1.2,0.72,2.09,1.26,2.65,1.58l0.25,0.14v4.13
				l-74.01,2.72l-0.16-0.19c-0.57-0.71-0.98-1.12-0.98-1.12l-0.08-0.11l-0.26-0.47l-179.36,4.7L332.31,158.61z M647.95,102
				l24.54,43.81l64.44-1.69v-4.14C706.63,118.94,656.19,104.3,647.95,102z"/>
		</g>
	</g>
	<g>
		<g>
			<path d="M327.97,271.68l-0.1-0.39c-3.91-15.77-8.21-44.29-6.47-90.57l0.04-1.06c1.34-6.97,6.51-18.68,6.73-19.17l0.14-0.32
				l2.22,0.13l343.33-12.6l0.16,0.19c1.9,2.32,4.98,6.98,4.29,12.06c-0.49,3.61-10.43,21.19-20.95,39.79
				c-9.58,16.94-19.48,34.46-23.11,42.89c-7.58,17.57-18.46,23.51-44.78,24.45c-25.39,0.91-258.75,4.54-261.1,4.58L327.97,271.68z
				 M328.95,161.22c-0.85,1.95-5.32,12.4-6.51,18.57l-0.03,0.98c-1.72,45.79,2.48,74.12,6.35,89.9
				c10.96-0.17,235.79-3.68,260.68-4.57c25.84-0.93,36.51-6.72,43.9-23.85c3.65-8.48,13.57-26.02,23.16-42.99
				c10.01-17.7,20.36-36.01,20.83-39.43c0.63-4.57-2.11-8.85-3.92-11.1l-342.88,12.58L328.95,161.22z"/>
		</g>
	</g>
	<g>
		<g>
			<path d="M526.67,150.21l-0.99-0.13l8.09-61.94l0.45,0.01c0.69,0.02,69.73,1.97,101.53,10.41l0.21,0.05l26.39,47.72l-0.88,0.48
				l-26.19-47.35c-30.43-8.01-94.62-10.13-100.65-10.31L526.67,150.21z"/>
		</g>
	</g>
	<g>
		<g>
			<path d="M499.44,151.01l-0.95-0.3l18.77-59.77c-7.46-0.61-81.34-5.22-149.16,42.77l-0.58-0.82
				C438.99,82.31,517.19,89.91,517.97,90l0.61,0.06L499.44,151.01z"/>
		</g>
	</g>
	<g>
		<g>
			<path d="M358.32,157.47l-0.14-0.01c-3.45-0.86-5.29-3.14-6.22-4.91c-1.04-1.97-1.24-3.76-1.25-3.83l-0.01-0.14l7.24-14.46
				l0.12-0.07c1.33-0.84,3.54-1.37,6.24-1.49c1.22-0.05,2.49-0.02,3.8,0.08c4.15,0.35,9.3,1.72,10.19,4.42
				c1.39,4.15,1.18,13.44,1.17,13.83l-0.01,0.29l-0.26,0.14c-0.08,0.04-8.27,4.43-15,5.9l-0.21-0.98
				c5.93-1.29,13.05-4.92,14.48-5.67c0.02-1.63,0.07-9.61-1.13-13.2c-0.59-1.79-4.41-3.32-9.31-3.74c-1.28-0.1-2.51-0.13-3.68-0.08
				c-2.46,0.11-4.45,0.56-5.65,1.26l-6.98,13.94c0.07,0.44,0.33,1.84,1.12,3.33c1.22,2.31,3.09,3.79,5.58,4.41l-0.11,0.45
				L358.32,157.47z"/>
		</g>
	</g>
	<g>
		<g>
			<path d="M352.52,152.79l-0.23-0.97c0.83-0.2,20.39-4.75,26.9-1.4l-0.46,0.89C372.55,148.12,352.72,152.74,352.52,152.79z"/>
		</g>
	</g>
	<g>
		<g>
			<path d="M311.66,154.97c-7.24,0-14.75-1.81-15.22-1.93l0.24-0.97c0.17,0.04,17.34,4.18,24.56,0.05c1.43-0.82,4.81-3.04,9.49-6.12
				c20.17-13.27,61.85-40.68,88.37-49.51L411,92.21l0.47-0.88l10.21,5.4l-1.14,0.36c-26.33,8.37-68.83,36.32-89.25,49.75
				c-4.69,3.09-8.08,5.32-9.54,6.15C319.15,154.48,315.44,154.97,311.66,154.97z"/>
		</g>
	</g>
	<g>
		<g>
			<path d="M781.36,138.42l-0.18-0.13c-13.24-9.03-109.53-41.8-110.5-42.13l-0.86-0.29l7.78-6.26l0.63,0.78l-6.37,5.12
				c10.22,3.48,96.23,32.93,109.7,41.83l15.99-3.92l0.24,0.97L781.36,138.42z"/>
		</g>
	</g>
	<g>
		<g>
			<path d="M759.6,224.83l-0.11-0.99c66.64-7.3,66.75-8.74,67.6-19.93l0.02-0.33c0.93-12.05-6.2-31.42-8.78-35.14
				c-2.93-4.24-0.01-7.9,0.02-7.94c8.58-7.06,39.24-20.66,40.54-21.24l0.4,0.91c-0.32,0.14-31.83,14.12-40.24,21.02
				c-0.03,0.06-2.4,3.06,0.09,6.67c2.63,3.79,9.9,23.52,8.95,35.79l-0.02,0.32C827.18,215.91,827.07,217.44,759.6,224.83z"/>
		</g>
	</g>
	<g>
		<g>
			<rect x="767.96" y="220.85" transform="matrix(0.994 -0.1094 0.1094 0.994 -19.2472 91.7526)" width="117.8" height="1"/>
		</g>
	</g>
	<g>
		<g>
			<path d="M161.25,193.4l-0.24-0.97c16.93-4.23,72.75-13.74,95.78-15.3c10.6-0.72,39.09-2.22,69.24-3.81
				c33.87-1.79,68.9-3.63,79.95-4.45c17.59-1.29,92.55-3.43,142.16-4.84c8.86-0.25,16.79-0.48,23.27-0.67
				c43.15-1.26,158.18-3.67,209.14-3.67c51.67,0,90.86-2.12,91.25-2.14l0.05,1c-0.39,0.02-39.61,2.14-91.3,2.14
				c-50.95,0-165.96,2.41-209.11,3.67c-6.48,0.19-14.41,0.41-23.27,0.67c-49.6,1.41-124.55,3.54-142.11,4.84
				c-11.06,0.81-46.09,2.66-79.97,4.45c-30.15,1.59-58.64,3.09-69.23,3.81C233.87,179.68,178.14,189.18,161.25,193.4z"/>
		</g>
	</g>
	<g>
		<g>
			<path d="M97.09,216.73c-0.6,0-1.14-0.33-1.53-0.96c-1.24-1.99-0.82-6.94,3.16-10.69c5.12-4.82,12.13-12.43,12.2-12.51l0.15-0.16
				h46.69c1.45,0,2.91,0.08,3.36,1.06c0.5,1.06-0.34,2.7-2.98,5.87c-4.49,5.39-8.76,14.48-8.8,14.57l-0.13,0.28l-0.31,0.01
				c-19.63,0.61-49.47,1.76-51.2,2.41C97.5,216.7,97.29,216.73,97.09,216.73z M111.51,193.41c-1.05,1.13-7.37,7.94-12.1,12.4
				c-3.72,3.5-3.93,7.94-3,9.43c0.4,0.64,0.81,0.49,0.95,0.44c2.41-0.9,44.95-2.27,51.22-2.47c0.76-1.58,4.68-9.55,8.8-14.51
				c2.7-3.23,3.03-4.4,2.84-4.81c-0.23-0.49-1.85-0.49-2.46-0.49H111.51z"/>
		</g>
	</g>
	<g>
		<g>
			<path d="M74.61,265.26l-0.02-1l2.96-0.06c-5.26-43.38,16.73-67.87,20-71.25l-2.17-1.79l0.64-0.77l3.04,2.5l-0.41,0.39
				c-0.26,0.24-25.88,24.93-20.02,71.34l0.07,0.55L74.61,265.26z"/>
		</g>
	</g>
	<g>
		<g>
			<path d="M74.1,250.39c-0.1-22.34,13.68-47.98,13.82-48.24l0.88,0.48c-0.14,0.25-13.79,25.68-13.7,47.76L74.1,250.39z"/>
		</g>
	</g>
	<g>
		<g>
			<path d="M80.98,249.61l0-15.19c-0.08-6.96,6.69-15.97,6.98-16.35l0.11-0.14l9.34-2.26l0.24,0.97l-9,2.17
				c-0.86,1.18-6.74,9.43-6.67,15.6l0,14.16c5.4-0.17,51.09-1.6,53.65-1.82c2.33-0.19,2.98-3.68,2.99-3.72
				c0.29-1.01,6.78-23.69,9.83-29.57l0.89,0.46c-3.01,5.79-9.68,29.1-9.75,29.33c-0.02,0.12-0.78,4.23-3.88,4.49
				c-2.73,0.23-52.12,1.77-54.22,1.84L80.98,249.61z"/>
		</g>
	</g>
	<g>
		<g>
			<rect x="81.46" y="243.78" transform="matrix(0.9992 -0.04 0.04 0.9992 -9.6938 4.6129)" width="57.68" height="1"/>
		</g>
	</g>
	<g>
		<g>
			<path d="M107.07,228.27H96.65l3.83-9.71h12.21L107.07,228.27z M98.12,227.27h8.38l4.47-7.71h-9.8L98.12,227.27z"/>
		</g>
	</g>
	<g>
		<g>
			<path d="M110.11,264.57c-3.75,0-6.81-3.05-6.81-6.81c0-3.75,3.05-6.81,6.81-6.81s6.81,3.05,6.81,6.81
				C116.91,261.52,113.86,264.57,110.11,264.57z M110.11,251.96c-3.2,0-5.81,2.6-5.81,5.81c0,3.2,2.6,5.81,5.81,5.81
				s5.81-2.6,5.81-5.81C115.91,254.57,113.31,251.96,110.11,251.96z"/>
		</g>
	</g>
	<g>
		<g>
			<path d="M110.11,266.79c-4.98,0-9.02-4.05-9.02-9.02c0-4.97,4.05-9.02,9.02-9.02s9.02,4.05,9.02,9.02
				C119.13,262.74,115.08,266.79,110.11,266.79z M110.11,249.75c-4.42,0-8.02,3.6-8.02,8.02c0,4.42,3.6,8.02,8.02,8.02
				s8.02-3.6,8.02-8.02C118.13,253.34,114.53,249.75,110.11,249.75z"/>
		</g>
	</g>
	<g>
		<g>
			<polygon points="110.66,264.55 110.65,264.55 110.65,263.55 			"/>
		</g>
	</g>
	<g>
		<g>
			<path d="M116.41,266.79c-1.17,0-2.3-0.22-3.34-0.65l0.38-0.92c0.92,0.38,1.92,0.57,2.96,0.57c3.73,0,6.93-2.52,7.79-6.14
				l0.97,0.23C124.21,263.95,120.61,266.79,116.41,266.79z"/>
		</g>
	</g>
	<g>
		<g>
			<path d="M122.53,252.58c-1.53-1.8-3.76-2.83-6.12-2.83c-1.04,0-2.04,0.19-2.96,0.57l-0.38-0.92c1.04-0.43,2.17-0.65,3.34-0.65
				c2.66,0,5.16,1.16,6.88,3.19L122.53,252.58z"/>
		</g>
	</g>
	<g>
		<g>
			<path d="M73.08,268.17l-0.02-1c0.42-0.01,41.96-0.77,49.5-1.37c7.35-0.59,9.08-2.46,10.88-8.17c1.81-5.76,3.08-10.9,3.1-10.95
				l0.97,0.24c-0.01,0.05-1.3,5.22-3.11,11.01c-1.88,6-3.94,8.25-11.75,8.87C115.07,267.39,73.5,268.16,73.08,268.17z"/>
		</g>
	</g>
	<g>
		<g>
			<rect x="79.56" y="257.6" transform="matrix(0.0498 -0.9988 0.9988 0.0498 -173.3819 333.9618)" width="18.53" height="1"/>
		</g>
	</g>
	<g>
		<g>
			<rect x="81.48" y="255.09" width="20.39" height="1"/>
		</g>
	</g>
	<g>
		<g>
			<rect x="83.01" y="260.9" width="19.39" height="1"/>
		</g>
	</g>
	<g>
		<g>
			<rect x="125.43" y="242.83" transform="matrix(0.0314 -0.9995 0.9995 0.0314 -130.2491 370.2845)" width="1" height="19.04"/>
		</g>
	</g>
	<g>
		<g>
			<rect x="118.38" y="259.27" width="15.12" height="1"/>
		</g>
	</g>
	<g>
		<g>
			<path d="M121.03,282.24c-0.08-0.08-7.96-8.19-16.1-10.27c-8.2-2.09-31.56,0.6-31.79,0.62l-0.12-0.99
				c0.97-0.11,23.78-2.74,32.15-0.6c8.42,2.15,16.25,10.21,16.57,10.55L121.03,282.24z"/>
		</g>
	</g>
	<g>
		<g>
			<path d="M167.72,262.97h-35.88v-1h34.94c0.39-5.16,4.87-50.46,43.1-64.02c23.36-8.28,48.44-5.9,67.09,6.39
				c12.39,8.16,27.57,24.52,29.78,56.17c11-0.27,201.69-5.03,205.9-5.03c4.17,0,120.04-8.95,127.47-9.52
				c1.04-4.24,11.79-43.62,52.89-52.3c30.28-6.4,56.47,5.31,75.73,33.84l0.17,0.25l-3.22,6.24l-0.89-0.46l2.94-5.71
				c-19-27.99-44.77-39.46-74.53-33.18c-42.58,9-52.11,51.47-52.2,51.9l-0.08,0.37l-0.37,0.03c-5.04,0.39-123.58,9.56-127.91,9.56
				c-4.3,0-204.34,4.99-206.36,5.04l-0.48,0.01l-0.03-0.48c-1.63-24.98-11.78-44.3-29.36-55.88c-18.39-12.11-43.14-14.46-66.2-6.28
				c-39.72,14.09-42.45,63.11-42.47,63.6L167.72,262.97z"/>
		</g>
	</g>
	<g>
		<g>
			<path d="M306.59,261.4l-0.64-0.77c5.74-4.79,19.76-5.57,27.61-5.62c7.47-0.04,139.38-5.68,147.61-6.65
				c7.72-0.91,143.58-7.28,144.95-7.34l0.09,0l14.46,4.92l-0.32,0.95l-14.28-4.86c-4.28,0.2-137.18,6.44-144.79,7.33
				c-8.24,0.97-140.25,6.61-147.72,6.65C325.85,256.06,312.1,256.81,306.59,261.4z"/>
		</g>
	</g>
	<g>
		<g>
			<path d="M509.73,268.5c-4.98-6.58-5.38-17.87-5.38-30.87c0-12.92,2.72-62.26,3.68-66.83c0.91-4.33,4.57-16.71,4.6-16.83
				l0.96,0.28c-0.04,0.12-3.68,12.47-4.58,16.76c-0.86,4.11-3.66,52.55-3.66,66.62c0,12.82,0.39,23.94,5.18,30.27L509.73,268.5z"/>
		</g>
	</g>
	<g>
		<g>
			<polygon points="506.7,150.79 505.74,150.54 522.12,88.16 531.57,88.16 521.85,150.74 520.86,150.59 530.4,89.16 522.89,89.16 
							"/>
		</g>
	</g>
	<g>
		<g>
			<path d="M420.54,97.08l-0.31-0.95c0.27-0.09,27.46-8.78,71.75-13.21c40.87-4.08,105.09-5.27,178.97,12.28l-0.23,0.97
				c-73.74-17.51-137.84-16.33-178.64-12.26C447.89,88.34,420.81,97,420.54,97.08z"/>
		</g>
	</g>
	<g>
		<g>
			<path d="M113.67,192.74l-0.81-0.58c7.13-10.01,43.96-14.84,61.66-17.17c18.45-2.42,152.72-14.67,154.07-14.79l0.09,1
				c-1.35,0.12-135.6,12.37-154.03,14.79C158.45,178.11,120.54,183.08,113.67,192.74z"/>
		</g>
	</g>
	<g>
		<g>
			<path d="M126.12,185.49l-0.38-0.92c32.11-13.38,181.19-30.43,182.7-30.6l0.11,0.99C307.04,155.13,158.1,172.17,126.12,185.49z"/>
		</g>
	</g>
	<g>
		<g>
			<path d="M312.96,183.78h-7.87c-1.27,0-2.3-1.03-2.3-2.3c0-1.27,1.03-2.3,2.3-2.3h7.87c1.27,0,2.3,1.03,2.3,2.3
				C315.26,182.75,314.23,183.78,312.96,183.78z M305.09,180.19c-0.72,0-1.3,0.58-1.3,1.3c0,0.71,0.58,1.3,1.3,1.3h7.87
				c0.71,0,1.3-0.58,1.3-1.3c0-0.72-0.58-1.3-1.3-1.3H305.09z"/>
		</g>
	</g>
	<g>
		<g>
			<path d="M485.34,184.42c-1.75,0-3.56-0.11-5.26-0.22c-1.5-0.1-2.92-0.19-4.13-0.19c-4.2,0-6.56-6.48-6.66-6.75l-0.24-0.67h28.06
				l-0.29,0.69c-0.1,0.23-2.44,5.75-6.77,6.72C488.63,184.32,487.01,184.42,485.34,184.42z M470.51,177.59
				c0.69,1.58,2.66,5.42,5.45,5.42c1.24,0,2.67,0.09,4.19,0.19c3.25,0.21,6.92,0.44,9.69-0.18c2.98-0.66,4.98-3.97,5.73-5.43H470.51
				z"/>
		</g>
	</g>
	<g>
		<g>
			<path d="M496.83,173.69h-27.85l0.33-0.71c0.18-0.38,2.1-3.73,14.67-3.73c8.11,0,11.14,1.42,12.26,2.61
				c0.64,0.68,0.63,1.25,0.62,1.36L496.83,173.69z M470.97,172.69h24.67c-0.62-0.82-2.96-2.44-11.66-2.44
				C475.69,170.25,472.28,171.76,470.97,172.69z"/>
		</g>
	</g>
	<g>
		<g>
			<path d="M652.58,179.06c-1.75,0-3.56-0.11-5.26-0.22c-1.5-0.1-2.92-0.19-4.13-0.19c-4.2,0-6.56-6.48-6.66-6.75l-0.24-0.67h28.06
				l-0.29,0.69c-0.1,0.23-2.44,5.75-6.77,6.72C655.87,178.95,654.25,179.06,652.58,179.06z M637.74,172.23
				c0.69,1.58,2.66,5.42,5.45,5.42c1.24,0,2.67,0.09,4.19,0.19c3.25,0.21,6.92,0.44,9.69-0.18c2.98-0.66,4.98-3.97,5.74-5.43H637.74
				z"/>
		</g>
	</g>
	<g>
		<g>
			<path d="M664.06,168.33h-27.85l0.33-0.71c0.18-0.38,2.1-3.73,14.67-3.73c8.11,0,11.14,1.42,12.26,2.61
				c0.64,0.68,0.63,1.25,0.62,1.36L664.06,168.33z M638.2,167.33h24.67c-0.62-0.82-2.96-2.44-11.66-2.44
				C642.93,164.89,639.52,166.4,638.2,167.33z"/>
		</g>
	</g>
	<g>
		<g>
			<path d="M876.73,203.8c-0.18-0.04-4.49-1.13-7.3-8.17c-2.73-6.84-9.38-35.69-9.66-36.92l0.97-0.22c0.07,0.3,6.91,30,9.61,36.77
				c2.61,6.52,6.57,7.56,6.61,7.57L876.73,203.8z"/>
		</g>
	</g>
	<g>
		<g>
			<rect x="846.21" y="166.71" transform="matrix(0.0498 -0.9988 0.9988 0.0498 616.976 1024.1522)" width="1" height="42.26"/>
		</g>
	</g>
	<g>
		<g>
			<polygon points="746.91,146.03 746.91,145.03 839.24,144.94 784.45,137.63 784.58,136.64 846.77,144.94 846.71,145.93 			"/>
		</g>
	</g>
	<g>
		<g>
			<rect x="302.78" y="270.26" transform="matrix(0.9999 -0.0146 0.0146 0.9999 -3.9151 6.9516)" width="339.69" height="1"/>
		</g>
	</g>
	<g>
		<g>
			<path d="M850.36,266.25l-0.54-0.84c0.1-0.06,9.94-6.45,15.94-14.02c6.18-7.81,17.69-8.5,18.18-8.53l0.05,1
				c-0.11,0.01-11.55,0.69-17.45,8.15C860.44,259.71,850.46,266.19,850.36,266.25z"/>
		</g>
	</g>
</g>
<g>
	<g>
		<g>
			<path d="M706.67,939.78c0-22.95,18.67-41.62,41.62-41.62s41.62,18.67,41.62,41.62s-18.67,41.62-41.62,41.62
				S706.67,962.73,706.67,939.78z M707.67,939.78c0,22.4,18.22,40.62,40.62,40.62s40.62-18.22,40.62-40.62s-18.22-40.62-40.62-40.62
				S707.67,917.39,707.67,939.78z"/>
		</g>
	</g>
	<g>
		<g>
			<path d="M690.78,939.78c0-31.72,25.8-57.52,57.52-57.52s57.52,25.8,57.52,57.52s-25.8,57.52-57.52,57.52
				S690.78,971.5,690.78,939.78z M691.78,939.78c0,31.17,25.35,56.52,56.52,56.52s56.52-25.35,56.52-56.52
				c0-31.16-25.35-56.52-56.52-56.52S691.78,908.62,691.78,939.78z"/>
		</g>
	</g>
	<g>
		<g>
			<path d="M238.9,939.78c0-22.95,18.67-41.62,41.62-41.62s41.62,18.67,41.62,41.62s-18.67,41.62-41.62,41.62
				S238.9,962.73,238.9,939.78z M239.9,939.78c0,22.4,18.22,40.62,40.62,40.62s40.62-18.22,40.62-40.62s-18.22-40.62-40.62-40.62
				S239.9,917.39,239.9,939.78z"/>
		</g>
	</g>
	<g>
		<g>
			<path d="M223.01,939.78c0-31.72,25.8-57.52,57.52-57.52s57.52,25.8,57.52,57.52s-25.8,57.52-57.52,57.52
				S223.01,971.5,223.01,939.78z M224.01,939.78c0,31.17,25.35,56.52,56.52,56.52c31.16,0,56.52-25.35,56.52-56.52
				c0-31.16-25.35-56.52-56.52-56.52C249.36,883.26,224.01,908.62,224.01,939.78z"/>
		</g>
	</g>
	<g>
		<g>
			<path d="M345.49,958.78l-0.54-0.01l0.04-0.53c0.01-0.17,1.31-16.88-3.96-35.05c-4.85-16.71-16.41-38.1-43.97-45.14
				c-22.7-5.8-43.97-0.76-59.9,14.2c-16.67,15.65-24.72,40.09-20.51,62.27l0.13,0.69l-0.7-0.1c-0.83-0.12-82.93-12.24-90.48-13.14
				c-0.37-0.04-0.76-0.08-1.17-0.13c-8.16-0.84-25.15-2.6-22.5-49.62l0.01-0.15l8.56-11.62l1-14.65l0.38,0.5
				c0.59-1.46,2.27-6.94,6.45-27.36h-4.42l0.29-0.69c0.3-0.73,7.48-17.94,14.29-21.65l0.21-0.06c0.5-0.03,50.38-3.38,61.33-5.79
				c2.57-1.17,92.88-42.16,175.88-54.74c88.43-13.41,177.85,1.26,216.39,14.39c39.98,13.62,105.67,56.7,109.12,58.97l12.46-0.6
				c1.34,0.17,134.28,16.91,162.73,25.09c19.38,5.57,24.79,9.96,25.9,12.67c0.26,0.62,0.26,1.1,0.2,1.41l4.83,4.53v2.84l2.25,3.94
				l5.79,0.61l4.52,7.1l-1.85,8.64l1.71,5.98l4,0.46l0.08,0.35c0.03,0.13,2.76,12.89,2.15,24.59l-0.02,0.35l-2.43,0.76v13.5h1.53
				v8.16l-19.24,9l-0.2,0.05c-0.5,0.01-50.58,1.24-64.15,3.05c-1.54,0.21-2.96,0.41-4.25,0.6c-6.1,0.89-9.45,1.38-11.31-0.33
				c-1.34-1.23-1.76-3.42-1.51-7.83l0.05-0.79c3.01-50.34-23.94-68.81-47.07-75.44c-21.29-6.1-41.42-2.33-56.68,10.63
				c-18.96,16.1-28.17,43.77-24.63,74.01l0.07,0.57L345.49,958.78z M914.27,949.1v-6.52h-1.53v-15.24l2.46-0.77
				c0.48-10.39-1.65-21.53-2.07-23.63l-3.95-0.46l-1.96-6.86l1.82-8.48l-4.04-6.35l-5.82-0.61l-2.64-4.62v-2.67l-4.73-4.44
				l-0.25-0.26l0.15-0.32c0.01-0.02,0.16-0.37-0.17-1.08c-0.95-2.04-5.49-6.31-25.21-11.97c-28.37-8.15-161.23-24.89-162.49-25.05
				l-12.7,0.62l-0.14-0.09c-0.68-0.45-68.29-45.07-109.03-58.95c-38.44-13.1-127.67-27.73-215.92-14.35
				c-83.65,12.68-174.75,54.27-175.66,54.69l-0.1,0.03c-10.67,2.37-58.75,5.63-61.42,5.81c-5.73,3.24-12.03,17.14-13.45,20.41h4.13
				l-0.12,0.6c-4.73,23.16-6.36,27.85-7.04,28.85l-0.92,13.42l-8.56,11.62c-2.55,45.92,13.77,47.61,21.61,48.42
				c0.42,0.04,0.82,0.08,1.19,0.13c7.19,0.86,81.8,11.86,89.82,13.05c-3.98-22.32,4.2-46.77,20.93-62.49
				c16.19-15.2,37.79-20.33,60.83-14.44c28.02,7.17,39.77,28.89,44.69,45.86c4.78,16.51,4.2,31.83,4.03,34.84l339.19,4.45
				c-3.4-30.35,5.94-58.1,25.04-74.32c15.52-13.18,35.97-17.02,57.6-10.83c23.49,6.73,50.85,25.46,47.8,76.46l-0.05,0.78
				c-0.23,4.01,0.12,6.05,1.19,7.04c1.51,1.38,4.89,0.89,10.49,0.07c1.29-0.19,2.71-0.4,4.26-0.6c13.33-1.78,61.56-2.99,64.15-3.06
				L914.27,949.1z"/>
		</g>
	</g>
	<g>
		<g>
			<path d="M495.29,828.84l-179.36-4.7l-0.26,0.47l-0.08,0.11c0,0-0.41,0.41-0.98,1.12l-0.16,0.19l-74.01-2.72v-4.13l0.25-0.14
				c0.56-0.32,1.46-0.86,2.65-1.58c37.99-22.88,72.95-37.49,103.9-43.43c56.62-10.84,143.81-17.35,203.23,0.01
				c24.94,7.28,49.61,19.36,73.34,35.89l-0.57,0.82c-23.63-16.47-48.21-28.5-73.04-35.75c-59.25-17.31-146.26-10.81-202.77,0.01
				c-30.83,5.91-65.68,20.48-103.57,43.3c-1.04,0.63-1.85,1.12-2.42,1.45v2.59l72.55,2.66c0.38-0.46,0.67-0.77,0.81-0.91
				l-64.39-1.69l-0.49-0.01v-5.64l0.21-0.15c33.02-23.02,90.08-38.44,90.66-38.59l1.14-0.31l-25.44,45.43l172.41,4.52l6.43,0.17
				L653,834.82c-2.51-2.43-10.06-9.47-21.48-18.06l0.6-0.8c14.2,10.68,22.43,18.99,22.52,19.07l0.89,0.91L495.29,828.84z
				 M250.91,817.29v4.14l64.44,1.69l24.54-43.81C331.65,781.62,281.21,796.26,250.91,817.29z"/>
		</g>
	</g>
	<g>
		<g>
			<path d="M659.47,948.99c-2.35-0.04-235.71-3.67-261.1-4.58c-26.32-0.94-37.2-6.88-44.78-24.45
				c-3.63-8.43-13.53-25.95-23.11-42.89c-10.52-18.61-20.45-36.18-20.95-39.79c-0.7-5.08,2.39-9.74,4.29-12.06l0.16-0.19
				l343.33,12.6l2.22-0.13l0.14,0.32c0.22,0.5,5.39,12.2,6.73,19.17l0.04,1.06c1.73,46.28-2.56,74.8-6.47,90.57l-0.1,0.39
				L659.47,948.99z M657.32,838.62l-342.88-12.58c-1.8,2.26-4.54,6.53-3.92,11.1c0.47,3.42,10.82,21.73,20.83,39.43
				c9.59,16.96,19.51,34.51,23.16,42.99c7.39,17.13,18.06,22.92,43.9,23.85c24.89,0.89,249.72,4.4,260.68,4.57
				c3.87-15.79,8.07-44.11,6.35-89.9l-0.03-0.98c-1.19-6.17-5.67-16.62-6.51-18.57L657.32,838.62z"/>
		</g>
	</g>
	<g>
		<g>
			<path d="M461.17,827.53l0.99-0.13l-8.09-61.94l-0.45,0.01c-0.69,0.02-69.73,1.97-101.53,10.41l-0.21,0.05l-26.39,47.72l0.88,0.48
				l26.19-47.35c30.43-8.01,94.62-10.13,100.65-10.31L461.17,827.53z"/>
		</g>
	</g>
	<g>
		<g>
			<path d="M488.4,828.33l0.95-0.3l-18.77-59.77c7.46-0.61,81.34-5.22,149.16,42.77l0.58-0.82
				c-71.48-50.58-149.67-42.98-150.46-42.89l-0.61,0.06L488.4,828.33z"/>
		</g>
	</g>
	<g>
		<g>
			<path d="M629.52,834.78l0.14-0.01c3.45-0.86,5.29-3.14,6.22-4.91c1.04-1.97,1.24-3.76,1.25-3.83l0.01-0.14l-7.24-14.46
				l-0.12-0.07c-1.33-0.84-3.54-1.37-6.24-1.49c-1.22-0.05-2.49-0.02-3.8,0.08c-4.15,0.35-9.3,1.72-10.19,4.42
				c-1.39,4.15-1.18,13.44-1.17,13.83l0.01,0.29l0.26,0.14c0.08,0.04,8.27,4.43,15,5.9l0.21-0.98c-5.93-1.29-13.05-4.92-14.48-5.67
				c-0.02-1.63-0.07-9.61,1.13-13.2c0.59-1.79,4.41-3.32,9.31-3.74c1.28-0.1,2.51-0.13,3.68-0.08c2.46,0.11,4.45,0.56,5.65,1.26
				l6.98,13.94c-0.07,0.44-0.33,1.84-1.12,3.33c-1.22,2.31-3.09,3.79-5.58,4.41l0.11,0.45L629.52,834.78z"/>
		</g>
	</g>
	<g>
		<g>
			<path d="M635.32,830.11l0.23-0.97c-0.83-0.2-20.39-4.75-26.9-1.4l0.46,0.89C615.29,825.44,635.12,830.06,635.32,830.11z"/>
		</g>
	</g>
	<g>
		<g>
			<path d="M676.18,832.29c7.24,0,14.75-1.81,15.22-1.93l-0.24-0.97c-0.17,0.04-17.34,4.18-24.56,0.05
				c-1.43-0.82-4.81-3.04-9.49-6.12c-20.17-13.27-61.85-40.68-88.37-49.51l8.11-4.29l-0.47-0.88l-10.21,5.4l1.14,0.36
				c26.33,8.37,68.83,36.32,89.25,49.75c4.69,3.09,8.08,5.32,9.54,6.15C668.69,831.79,672.4,832.29,676.18,832.29z"/>
		</g>
	</g>
	<g>
		<g>
			<path d="M206.48,815.74l0.18-0.13c13.24-9.03,109.53-41.8,110.5-42.13l0.86-0.29l-7.78-6.26l-0.63,0.78l6.37,5.12
				c-10.22,3.48-96.23,32.93-109.7,41.83l-15.99-3.92l-0.24,0.97L206.48,815.74z"/>
		</g>
	</g>
	<g>
		<g>
			<path d="M228.24,902.14l0.11-0.99c-66.64-7.3-66.75-8.74-67.6-19.93l-0.02-0.33c-0.93-12.05,6.2-31.42,8.78-35.14
				c2.93-4.24,0.01-7.9-0.02-7.94c-8.58-7.06-39.24-20.66-40.54-21.24l-0.4,0.91c0.32,0.14,31.83,14.12,40.24,21.02
				c0.03,0.06,2.4,3.06-0.09,6.67c-2.63,3.79-9.9,23.52-8.95,35.79l0.02,0.32C160.66,893.22,160.77,894.76,228.24,902.14z"/>
		</g>
	</g>
	<g>
		<g>
			<rect x="160.48" y="839.76" transform="matrix(0.1094 -0.994 0.994 0.1094 -749.8948 960.4028)" width="1" height="117.8"/>
		</g>
	</g>
	<g>
		<g>
			<path d="M826.59,870.71l0.24-0.97c-16.93-4.23-72.75-13.74-95.78-15.3c-10.6-0.72-39.09-2.22-69.24-3.81
				c-33.87-1.79-68.9-3.63-79.95-4.45c-17.59-1.29-92.55-3.43-142.16-4.84c-8.86-0.25-16.79-0.48-23.27-0.67
				c-43.15-1.26-158.18-3.67-209.14-3.67c-51.67,0-90.86-2.12-91.25-2.14l-0.05,1c0.39,0.02,39.61,2.14,91.3,2.14
				c50.95,0,165.96,2.41,209.11,3.67c6.48,0.19,14.41,0.41,23.27,0.67c49.6,1.41,124.55,3.54,142.11,4.84
				c11.06,0.81,46.09,2.66,79.97,4.45c30.15,1.59,58.64,3.09,69.23,3.81C753.97,856.99,809.7,866.49,826.59,870.71z"/>
		</g>
	</g>
	<g>
		<g>
			<path d="M890.13,893.93c-1.74-0.65-31.57-1.8-51.2-2.41l-0.31-0.01l-0.13-0.28c-0.04-0.09-4.31-9.18-8.8-14.57
				c-2.64-3.17-3.48-4.81-2.98-5.87c0.46-0.98,1.91-1.06,3.36-1.06h46.69l0.15,0.16c0.07,0.08,7.08,7.69,12.2,12.51
				c3.99,3.75,4.4,8.7,3.16,10.69c-0.39,0.63-0.94,0.96-1.53,0.96C890.55,894.05,890.34,894.01,890.13,893.93z M830.08,870.73
				c-0.61,0-2.23,0-2.46,0.49c-0.19,0.41,0.15,1.57,2.84,4.81c4.13,4.95,8.04,12.92,8.8,14.51c6.27,0.2,48.81,1.56,51.22,2.47
				c0.14,0.05,0.55,0.21,0.95-0.44c0.93-1.5,0.73-5.93-3-9.43c-4.73-4.46-11.06-11.27-12.1-12.4H830.08z"/>
		</g>
	</g>
	<g>
		<g>
			<path d="M913.23,942.58l0.02-1l-2.96-0.06c5.26-43.38-16.73-67.87-20-71.25l2.17-1.79l-0.64-0.77l-3.04,2.5l0.41,0.39
				c0.26,0.24,25.88,24.93,20.02,71.34l-0.07,0.55L913.23,942.58z"/>
		</g>
	</g>
	<g>
		<g>
			<path d="M913.74,927.71c0.1-22.34-13.68-47.98-13.82-48.24l-0.88,0.48c0.14,0.25,13.79,25.68,13.7,47.76L913.74,927.71z"/>
		</g>
	</g>
	<g>
		<g>
			<path d="M906.86,926.92l0-15.19c0.08-6.96-6.69-15.97-6.98-16.35l-0.11-0.14l-9.34-2.26l-0.24,0.97l9,2.17
				c0.86,1.18,6.74,9.43,6.67,15.6l0,14.16c-5.4-0.17-51.09-1.6-53.65-1.82c-2.33-0.19-2.98-3.68-2.99-3.72
				c-0.29-1.01-6.78-23.69-9.83-29.57l-0.89,0.46c3.01,5.79,9.68,29.1,9.75,29.33c0.02,0.12,0.78,4.23,3.88,4.49
				c2.73,0.23,52.12,1.77,54.22,1.84L906.86,926.92z"/>
		</g>
	</g>
	<g>
		<g>
			<rect x="877.04" y="892.75" transform="matrix(0.04 -0.9992 0.9992 0.04 -78.452 1761.5264)" width="1" height="57.68"/>
		</g>
	</g>
	<g>
		<g>
			<path d="M875.15,895.87h12.21l3.83,9.71h-10.42L875.15,895.87z M886.68,896.87h-9.8l4.47,7.71h8.38L886.68,896.87z"/>
		</g>
	</g>
	<g>
		<g>
			<path d="M870.93,935.08c0-3.75,3.05-6.81,6.81-6.81s6.81,3.05,6.81,6.81c0,3.75-3.05,6.81-6.81,6.81S870.93,938.84,870.93,935.08
				z M871.93,935.08c0,3.2,2.6,5.81,5.81,5.81s5.81-2.6,5.81-5.81c0-3.2-2.6-5.81-5.81-5.81S871.93,931.88,871.93,935.08z"/>
		</g>
	</g>
	<g>
		<g>
			<path d="M868.71,935.08c0-4.97,4.05-9.02,9.02-9.02s9.02,4.05,9.02,9.02c0,4.98-4.05,9.02-9.02,9.02S868.71,940.06,868.71,935.08
				z M869.71,935.08c0,4.42,3.6,8.02,8.02,8.02s8.02-3.6,8.02-8.02c0-4.42-3.6-8.02-8.02-8.02S869.71,930.66,869.71,935.08z"/>
		</g>
	</g>
	<g>
		<g>
			<polygon points="877.18,941.86 877.19,941.86 877.19,940.86 			"/>
		</g>
	</g>
	<g>
		<g>
			<path d="M871.43,944.1c1.17,0,2.3-0.22,3.34-0.65l-0.38-0.92c-0.92,0.38-1.92,0.57-2.96,0.57c-3.73,0-6.93-2.52-7.79-6.14
				l-0.97,0.23C863.63,941.26,867.23,944.1,871.43,944.1z"/>
		</g>
	</g>
	<g>
		<g>
			<path d="M865.31,929.9c1.53-1.8,3.76-2.83,6.12-2.83c1.04,0,2.04,0.19,2.96,0.57l0.38-0.92c-1.04-0.43-2.17-0.65-3.34-0.65
				c-2.66,0-5.16,1.16-6.88,3.19L865.31,929.9z"/>
		</g>
	</g>
	<g>
		<g>
			<path d="M914.76,945.48l0.02-1c-0.42-0.01-41.96-0.77-49.5-1.37c-7.35-0.59-9.08-2.46-10.88-8.17c-1.81-5.76-3.08-10.9-3.1-10.95
				l-0.97,0.24c0.01,0.05,1.3,5.22,3.11,11.01c1.88,6,3.94,8.25,11.75,8.87C872.77,944.71,914.34,945.47,914.76,945.48z"/>
		</g>
	</g>
	<g>
		<g>
			<rect x="898.52" y="926.15" transform="matrix(0.9988 -0.0498 0.0498 0.9988 -45.4607 45.9238)" width="1" height="18.53"/>
		</g>
	</g>
	<g>
		<g>
			<rect x="885.97" y="932.4" width="20.39" height="1"/>
		</g>
	</g>
	<g>
		<g>
			<rect x="885.44" y="938.21" width="19.39" height="1"/>
		</g>
	</g>
	<g>
		<g>
			<rect x="852.39" y="929.16" transform="matrix(0.9995 -0.0314 0.0314 0.9995 -28.7784 27.5343)" width="19.04" height="1"/>
		</g>
	</g>
	<g>
		<g>
			<rect x="854.34" y="936.59" width="15.12" height="1"/>
		</g>
	</g>
	<g>
		<g>
			<path d="M866.82,959.56c0.08-0.08,7.96-8.19,16.1-10.27c8.2-2.09,31.56,0.6,31.79,0.62l0.12-0.99
				c-0.97-0.11-23.78-2.74-32.15-0.6c-8.42,2.15-16.25,10.21-16.57,10.55L866.82,959.56z"/>
		</g>
	</g>
	<g>
		<g>
			<path d="M820.12,940.28h35.88v-1h-34.94c-0.39-5.16-4.87-50.46-43.1-64.02c-23.36-8.28-48.44-5.9-67.09,6.39
				c-12.39,8.16-27.57,24.52-29.78,56.17c-11-0.27-201.69-5.03-205.9-5.03c-4.17,0-120.04-8.95-127.47-9.52
				c-1.04-4.24-11.79-43.62-52.89-52.3c-30.28-6.4-56.47,5.31-75.73,33.84l-0.17,0.25l3.22,6.24l0.89-0.46l-2.94-5.71
				c19-27.99,44.77-39.46,74.53-33.18c42.58,9,52.11,51.47,52.2,51.9l0.08,0.37l0.37,0.03c5.04,0.39,123.58,9.56,127.91,9.56
				c4.3,0,204.34,4.99,206.36,5.04l0.48,0.01l0.03-0.48c1.63-24.98,11.78-44.3,29.36-55.88c18.39-12.11,43.14-14.46,66.2-6.28
				c39.72,14.09,42.45,63.11,42.47,63.6L820.12,940.28z"/>
		</g>
	</g>
	<g>
		<g>
			<path d="M681.25,938.72l0.64-0.77c-5.74-4.79-19.76-5.57-27.61-5.62c-7.47-0.04-139.38-5.68-147.61-6.65
				c-7.72-0.91-143.58-7.28-144.95-7.34l-0.09,0l-14.46,4.92l0.32,0.95l14.28-4.86c4.28,0.2,137.18,6.44,144.79,7.33
				c8.24,0.97,140.25,6.61,147.72,6.65C661.99,933.37,675.74,934.13,681.25,938.72z"/>
		</g>
	</g>
	<g>
		<g>
			<path d="M478.11,945.81c4.98-6.58,5.38-17.87,5.38-30.87c0-12.92-2.72-62.26-3.68-66.83c-0.91-4.33-4.57-16.71-4.6-16.83
				l-0.96,0.28c0.04,0.12,3.68,12.47,4.58,16.76c0.86,4.11,3.66,52.55,3.66,66.62c0,12.82-0.39,23.94-5.18,30.27L478.11,945.81z"/>
		</g>
	</g>
	<g>
		<g>
			<polygon points="481.14,828.11 482.1,827.86 465.73,765.48 456.27,765.48 465.99,828.06 466.98,827.91 457.44,766.48 
				464.95,766.48 			"/>
		</g>
	</g>
	<g>
		<g>
			<path d="M567.3,774.4l0.31-0.95c-0.27-0.09-27.46-8.78-71.75-13.21c-40.87-4.08-105.09-5.27-178.97,12.28l0.23,0.97
				c73.74-17.51,137.84-16.33,178.64-12.26C539.95,765.65,567.03,774.31,567.3,774.4z"/>
		</g>
	</g>
	<g>
		<g>
			<path d="M874.17,870.05l0.81-0.58c-7.13-10.01-43.96-14.84-61.66-17.17c-18.45-2.42-152.72-14.67-154.07-14.79l-0.09,1
				c1.35,0.12,135.6,12.37,154.03,14.79C829.39,855.42,867.3,860.4,874.17,870.05z"/>
		</g>
	</g>
	<g>
		<g>
			<path d="M861.72,862.81l0.38-0.92c-32.11-13.38-181.19-30.43-182.7-30.6l-0.11,0.99C680.8,832.44,829.74,849.48,861.72,862.81z"
				/>
		</g>
	</g>
	<g>
		<g>
			<path d="M672.59,858.8c0-1.27,1.03-2.3,2.3-2.3h7.87c1.27,0,2.3,1.03,2.3,2.3c0,1.27-1.03,2.3-2.3,2.3h-7.87
				C673.62,861.1,672.59,860.07,672.59,858.8z M674.88,857.51c-0.71,0-1.3,0.58-1.3,1.3c0,0.71,0.58,1.3,1.3,1.3h7.87
				c0.72,0,1.3-0.58,1.3-1.3c0-0.72-0.58-1.3-1.3-1.3H674.88z"/>
		</g>
	</g>
	<g>
		<g>
			<path d="M497.79,861.32c-4.33-0.96-6.68-6.48-6.77-6.72l-0.29-0.69h28.06l-0.24,0.67c-0.1,0.28-2.46,6.75-6.66,6.75
				c-1.21,0-2.63,0.09-4.13,0.19c-1.69,0.11-3.51,0.22-5.26,0.22C500.83,861.74,499.21,861.63,497.79,861.32z M492.27,854.91
				c0.75,1.46,2.76,4.77,5.73,5.43c2.76,0.61,6.44,0.38,9.69,0.18c1.52-0.1,2.95-0.19,4.19-0.19c2.79,0,4.76-3.84,5.45-5.42H492.27z
				"/>
		</g>
	</g>
	<g>
		<g>
			<path d="M490.98,850.54c-0.01-0.11-0.01-0.68,0.62-1.36c1.12-1.19,4.15-2.61,12.26-2.61c12.57,0,14.49,3.35,14.67,3.73l0.33,0.71
				h-27.85L490.98,850.54z M503.86,847.57c-8.7,0-11.03,1.62-11.66,2.44h24.67C515.56,849.08,512.15,847.57,503.86,847.57z"/>
		</g>
	</g>
	<g>
		<g>
			<path d="M330.56,855.95c-4.33-0.96-6.68-6.48-6.77-6.72l-0.29-0.69h28.06l-0.24,0.67c-0.1,0.28-2.46,6.75-6.66,6.75
				c-1.21,0-2.63,0.09-4.13,0.19c-1.7,0.11-3.51,0.22-5.26,0.22C333.59,856.37,331.97,856.27,330.56,855.95z M325.04,849.54
				c0.75,1.46,2.76,4.77,5.74,5.43c2.76,0.61,6.44,0.38,9.69,0.18c1.52-0.1,2.95-0.19,4.19-0.19c2.79,0,4.76-3.84,5.45-5.42H325.04z
				"/>
		</g>
	</g>
	<g>
		<g>
			<path d="M323.75,845.18c-0.01-0.11-0.01-0.68,0.62-1.36c1.11-1.19,4.15-2.61,12.26-2.61c12.57,0,14.49,3.35,14.67,3.73l0.33,0.71
				h-27.85L323.75,845.18z M336.63,842.21c-8.7,0-11.03,1.62-11.66,2.44h24.67C348.32,843.71,344.92,842.21,336.63,842.21z"/>
		</g>
	</g>
	<g>
		<g>
			<path d="M111.11,881.11c0.18-0.04,4.49-1.13,7.3-8.17c2.73-6.84,9.38-35.69,9.66-36.92l-0.97-0.22c-0.07,0.3-6.91,30-9.61,36.77
				c-2.61,6.52-6.57,7.56-6.61,7.57L111.11,881.11z"/>
		</g>
	</g>
	<g>
		<g>
			<rect x="120" y="864.65" transform="matrix(0.9988 -0.0498 0.0498 0.9988 -42.868 8.093)" width="42.26" height="1"/>
		</g>
	</g>
	<g>
		<g>
			<polygon points="240.93,823.34 240.93,822.34 148.61,822.26 203.39,814.94 203.26,813.95 141.07,822.25 141.13,823.25 			"/>
		</g>
	</g>
	<g>
		<g>
			<rect x="514.71" y="778.23" transform="matrix(0.0146 -0.9999 0.9999 0.0146 -440.3081 1449.3462)" width="1" height="339.69"/>
		</g>
	</g>
	<g>
		<g>
			<path d="M137.48,943.57l0.54-0.84c-0.1-0.06-9.94-6.45-15.94-14.02c-6.18-7.81-17.69-8.5-18.18-8.53l-0.05,1
				c0.11,0.01,11.55,0.69,17.45,8.15C127.4,937.03,137.38,943.5,137.48,943.57z"/>
		</g>
	</g>
</g>
<g>
	<g>
		<g>
			<path d="M543.84,471.8c-0.55,0-1.17-0.03-1.87-0.11c-5.67-0.6-29.05-3.34-29.28-3.36l0.12-0.99c0.24,0.03,23.6,2.76,29.27,3.36
				c5.07,0.54,5.49-1.25,5.5-1.27l0.03-0.11l2.14-5.04l0.92,0.39l-2.12,4.99C548.46,470.1,547.82,471.8,543.84,471.8z"/>
		</g>
	</g>
	<g>
		<g>
			<path d="M553.59,465.67l-0.94-0.35c1.01-2.71,24.92-66.47,42.47-67.39c0.91-0.13,95.87-13.18,180.37-0.54
				c17.5,0.92,41.42,64.67,42.43,67.39l-0.94,0.35c-0.25-0.66-24.69-65.85-41.59-66.74c-84.41-12.62-179.23,0.41-180.18,0.54
				C578.28,399.82,553.84,465.01,553.59,465.67z"/>
		</g>
	</g>
	<g>
		<g>
			<path d="M603.66,536.74c-4.59,0-12.51-0.29-26.23-1.11c-15.76-0.94-31.68-2.17-31.84-2.18l-0.43-0.03l-0.03-0.43
				c-0.16-2.11-1.38-20.67,5.01-21.63c6.09-0.91,50.18-0.04,52.06-0.01l0.35,0.01l0.12,0.33c0.79,2.23,7.67,21.89,7.36,24.08
				C609.96,536.21,609.88,536.74,603.66,536.74z M546.09,532.49c24.02,1.84,59.89,4.1,62.94,2.98c-0.08-2.12-4.35-15-7.2-23.11
				c-4.25-0.08-45.82-0.86-51.54,0C545.76,513.03,545.71,526.72,546.09,532.49z"/>
		</g>
	</g>
	<g>
		<g>
			<rect x="541.32" y="486.69" transform="matrix(0.9068 -0.4217 0.4217 0.9068 -160.6671 275.1662)" width="1" height="28.32"/>
		</g>
	</g>
	<g>
		<g>
			<path d="M571.84,587.11c-4.7,0-8.53-4.03-8.53-8.98c0-4.95,3.83-8.98,8.53-8.98s8.53,4.03,8.53,8.98
				C580.37,583.08,576.55,587.11,571.84,587.11z M571.84,570.14c-4.15,0-7.53,3.58-7.53,7.98c0,4.4,3.38,7.98,7.53,7.98
				c4.15,0,7.53-3.58,7.53-7.98C579.37,573.72,575.99,570.14,571.84,570.14z"/>
		</g>
	</g>
	<g>
		<g>
			<path d="M622.56,570.15l-0.51-0.01l-75.39-1.85v-4.68l75.9,2.94V570.15z M547.66,567.32l73.9,1.81v-1.61l-73.9-2.87V567.32z"/>
		</g>
	</g>
	<g>
		<g>
			<path d="M615.85,575.68c-0.8-2.37-1.76-4.43-2.77-5.97l0.84-0.55c1.06,1.61,2.06,3.75,2.89,6.19L615.85,575.68z"/>
		</g>
	</g>
	<g>
		<g>
			<path d="M617.15,580.43c-0.2-1-0.45-2.04-0.76-3.11l0.96-0.28c0.32,1.09,0.58,2.17,0.78,3.19L617.15,580.43z"/>
		</g>
	</g>
	<g>
		<g>
			<path d="M581.06,590.33c-5.29,0-10.43-0.1-14.82-0.31c-18.75-0.93-19.58-21.98-19.58-22.19l1-0.03
				c0.02,0.83,0.82,20.34,18.63,21.23c18.41,0.92,47.64-0.34,50.38-1.49c0.74-0.31,1.07-1.88,0.88-4.19l1-0.08
				c0.23,2.89-0.29,4.69-1.49,5.19C614.68,589.44,597.15,590.33,581.06,590.33z"/>
		</g>
	</g>
	<g>
		<g>
			<path d="M622.74,589.21c-2.77,0-5.48-0.62-5.94-0.73c-1.76-0.01-40.39-0.19-53.03-1.38c-3.33-0.31-5.99-1.68-7.91-4.08
				c-4.5-5.6-3.43-14.75-3.38-15.14l0.99,0.12c-0.01,0.09-1.06,9.13,3.17,14.4c1.75,2.17,4.18,3.42,7.22,3.71
				c12.82,1.21,52.6,1.37,53,1.37l0.12,0.01c0.08,0.02,8.1,1.96,10.56-0.6c0.73-0.76,0.88-1.86,0.45-3.37
				c-0.7-2.45-17.25-60.21-24.25-71.82c-6.53-10.85-39.1-36.12-39.43-36.37l0.61-0.79c1.35,1.04,33.05,25.64,39.68,36.65
				c7.06,11.73,23.65,69.61,24.35,72.07c0.53,1.85,0.29,3.31-0.7,4.33C627.06,588.84,624.88,589.21,622.74,589.21z"/>
		</g>
	</g>
	<g>
		<g>
			<rect x="548.15" y="573.29" width="16.81" height="1"/>
		</g>
	</g>
	<g>
		<g>
			<rect x="551.8" y="581.33" width="12.83" height="1"/>
		</g>
	</g>
	<g>
		<g>
			<rect x="580.44" y="568.61" transform="matrix(0.9989 -0.0478 0.0478 0.9989 -26.9405 28.4013)" width="1" height="18.86"/>
		</g>
	</g>
	<g>
		<g>
			<rect x="583.12" y="568.62" transform="matrix(0.9945 -0.1046 0.1046 0.9945 -57.2453 64.1943)" width="1" height="18.88"/>
		</g>
	</g>
	<g>
		<g>
			<polygon points="626.59,577.83 583.47,577.18 583.48,576.18 619.97,576.73 618.02,576.1 583.14,574.29 583.2,573.29 
				618.26,575.13 			"/>
		</g>
	</g>
	<g>
		<g>
			<polygon points="626.54,583.93 584.11,583.27 584.13,582.27 622.47,582.86 618.72,580.83 583.86,580.83 583.86,579.83 
				618.97,579.83 			"/>
		</g>
	</g>
	<g>
		<g>
			<path d="M546.67,564.26c-2.89-11.64-1.56-31.15-1.54-31.34l1,0.07c-0.01,0.19-1.34,19.55,1.51,31.03L546.67,564.26z"/>
		</g>
	</g>
	<g>
		<g>
			<path d="M571.81,640.46h-41.65l-0.01-0.49L528,513.51l2.13-2.44c-0.52-13.75,4.46-22.04,5.21-23.21v-3.75l0.17-0.15
				c3.67-3.2,7.65-7.09,8.27-8.32l-0.07-0.01c-13.68-1.03-30.21-2.88-31.28-5.81c-0.58-1.6,0.14-5.05,2.63-8.28
				c3.42-4.44,12.54-11.58,35.18-9.51l0.45,0.04v12.03l5.33,1.88l-4.44,13l-0.95-0.32l4.12-12.06l-5.06-1.79V453
				c-21.83-1.9-30.57,4.91-33.84,9.16c-2.41,3.13-2.91,6.17-2.49,7.33c0.49,1.35,8.75,3.51,30.41,5.15l0.34,0.03
				c0.49,0.04,0.65,0.36,0.7,0.5c0.42,1.26-4.34,5.77-8.49,9.4v3.6l-0.09,0.13c-0.06,0.08-5.71,8.61-5.11,22.93l0.01,0.2l-2.14,2.45
				l0.68,40.05l1.3-15.97l1,0.02c0.02,0.55,1.92,55.15,10.39,63.17c8.41,7.97,28.59,2.31,28.8,2.25l0.64-0.18V640.46z
				 M531.14,639.46h39.67v-34.92c-3.62,0.94-21.07,4.97-29.12-2.66c-6.84-6.48-9.48-40.37-10.34-56.01l-1.48,18.28L531.14,639.46z"
				/>
		</g>
	</g>
	<g>
		<g>
			<path d="M584.61,550.19h-8.32c-2.12,0-4-1.42-4.68-3.52l-0.98-3.04c-0.38-1.19-0.18-2.5,0.55-3.5c0.68-0.94,1.73-1.48,2.86-1.48
				h9.47c2.16,0,4.07,1.44,4.77,3.59l0.57,1.76c0.48,1.48,0.22,3.11-0.68,4.36C587.31,549.52,586.01,550.19,584.61,550.19z
				 M571.58,543.32l0.98,3.04c0.55,1.69,2.05,2.83,3.73,2.83h8.32c1.08,0,2.08-0.52,2.74-1.43c0.72-0.99,0.92-2.28,0.54-3.46
				l-0.57-1.76c-0.56-1.73-2.09-2.9-3.82-2.9h-9.47c-0.81,0-1.55,0.39-2.05,1.07C571.45,541.46,571.3,542.43,571.58,543.32
				L571.58,543.32z"/>
		</g>
	</g>
	<g>
		<g>
			<path d="M596.65,511.47l-1-0.05c0.44-9.65-35.88-35.82-36.25-36.08l0.58-0.81C561.5,475.62,597.11,501.28,596.65,511.47z"/>
		</g>
	</g>
	<g>
		<g>
			<path d="M603.64,539.04c-10,0-23.6-2.91-25.82-3.4l0.21-0.98c8.96,1.98,32.77,5.98,35.29,0.82l0.9,0.44
				C613.08,538.25,608.85,539.04,603.64,539.04z"/>
		</g>
	</g>
	<g>
		<g>
			<rect x="575.59" y="509.32" transform="matrix(0.0392 -0.9992 0.9992 0.0392 0.6716 1107.1914)" width="1" height="87.84"/>
		</g>
	</g>
	<g>
		<g>
			<path d="M826.74,471.26c-3.98,0-4.61-1.69-4.71-2.14l-2.12-4.99l0.92-0.39l2.18,5.17c0,0,0.43,1.79,5.49,1.25
				c5.67-0.6,29.04-3.34,29.27-3.36l0.12,0.99c-0.24,0.03-23.61,2.76-29.28,3.36C827.91,471.22,827.29,471.26,826.74,471.26z"/>
		</g>
	</g>
	<g>
		<g>
			<path d="M766.93,536.2c-6.23,0-6.3-0.53-6.36-0.96c-0.31-2.2,6.57-21.85,7.36-24.08l0.12-0.33l0.35-0.01
				c1.87-0.04,45.97-0.91,52.06,0.01c6.39,0.96,5.17,19.51,5.01,21.63l-0.03,0.43l-0.43,0.03c-0.16,0.01-16.08,1.23-31.84,2.18
				C779.44,535.91,771.51,536.2,766.93,536.2z M761.55,534.92c3.06,1.12,38.92-1.13,62.94-2.98c0.38-5.77,0.33-19.46-4.19-20.14
				c-5.72-0.86-47.3-0.08-51.54,0C765.9,519.92,761.62,532.8,761.55,534.92z"/>
		</g>
	</g>
	<g>
		<g>
			<rect x="814.61" y="499.81" transform="matrix(0.422 -0.9066 0.9066 0.422 25.4348 1040.5105)" width="28.32" height="1"/>
		</g>
	</g>
	<g>
		<g>
			<path d="M798.74,586.57c-4.7,0-8.53-4.03-8.53-8.98c0-4.95,3.83-8.98,8.53-8.98s8.53,4.03,8.53,8.98
				C807.27,582.54,803.44,586.57,798.74,586.57z M798.74,569.6c-4.15,0-7.53,3.58-7.53,7.98c0,4.4,3.38,7.98,7.53,7.98
				c4.15,0,7.53-3.58,7.53-7.98C806.27,573.18,802.89,569.6,798.74,569.6z"/>
		</g>
	</g>
	<g>
		<g>
			<path d="M748.02,569.61v-3.59l75.9-2.94v4.68L748.02,569.61z M749.02,566.98v1.61l73.9-1.81v-2.66L749.02,566.98z"/>
		</g>
	</g>
	<g>
		<g>
			<path d="M754.73,575.13l-0.95-0.32c0.83-2.45,1.83-4.59,2.89-6.19l0.84,0.55C756.49,570.7,755.53,572.76,754.73,575.13z"/>
		</g>
	</g>
	<g>
		<g>
			<path d="M753.44,579.89l-0.98-0.19c0.2-1.03,0.46-2.1,0.78-3.19l0.96,0.28C753.89,577.85,753.63,578.89,753.44,579.89z"/>
		</g>
	</g>
	<g>
		<g>
			<path d="M789.52,589.79c-16.1,0-33.62-0.88-36-1.88c-1.21-0.5-1.72-2.3-1.49-5.19l1,0.08c-0.18,2.31,0.15,3.88,0.88,4.19
				c2.75,1.15,31.97,2.41,50.38,1.49c17.82-0.89,18.61-20.4,18.63-21.23l1,0.03c-0.01,0.21-0.84,21.26-19.58,22.19
				C799.95,589.69,794.81,589.79,789.52,589.79z"/>
		</g>
	</g>
	<g>
		<g>
			<path d="M747.84,588.67c-2.14,0-4.31-0.37-5.52-1.62c-0.99-1.03-1.22-2.49-0.7-4.33c0.7-2.46,17.29-60.34,24.35-72.07
				c6.63-11.01,38.33-35.61,39.68-36.65l0.61,0.79c-0.33,0.25-32.9,25.52-39.43,36.37c-7,11.62-23.55,69.37-24.25,71.82
				c-0.43,1.5-0.28,2.6,0.45,3.37c2.47,2.56,10.48,0.62,10.56,0.6l0.12-0.01c0.4,0,40.18-0.17,53-1.37
				c3.04-0.29,5.48-1.53,7.22-3.71c4.23-5.26,3.18-14.3,3.17-14.4l0.99-0.12c0.05,0.39,1.12,9.55-3.38,15.14
				c-1.92,2.39-4.58,3.76-7.91,4.08c-12.64,1.19-51.27,1.37-53.03,1.38C753.32,588.05,750.61,588.67,747.84,588.67z"/>
		</g>
	</g>
	<g>
		<g>
			<rect x="805.63" y="572.75" width="16.81" height="1"/>
		</g>
	</g>
	<g>
		<g>
			<rect x="805.96" y="580.79" width="12.83" height="1"/>
		</g>
	</g>
	<g>
		<g>
			<rect x="780.22" y="577" transform="matrix(0.0479 -0.9989 0.9989 0.0479 174.9944 1338.577)" width="18.86" height="1"/>
		</g>
	</g>
	<g>
		<g>
			<rect x="777.52" y="577.02" transform="matrix(0.1045 -0.9945 0.9945 0.1045 130.3427 1299.8051)" width="18.88" height="1"/>
		</g>
	</g>
	<g>
		<g>
			<polygon points="743.99,577.29 752.45,574.56 787.39,572.75 787.44,573.75 752.57,575.56 750.61,576.19 787.1,575.64 
				787.12,576.64 			"/>
		</g>
	</g>
	<g>
		<g>
			<polygon points="744.04,583.38 751.61,579.29 786.73,579.29 786.73,580.29 751.86,580.29 748.11,582.32 786.46,581.73 
				786.47,582.73 			"/>
		</g>
	</g>
	<g>
		<g>
			<path d="M823.91,563.71l-0.97-0.24c2.85-11.48,1.53-30.83,1.51-31.03l1-0.07C825.47,532.57,826.8,552.08,823.91,563.71z"/>
		</g>
	</g>
	<g>
		<g>
			<path d="M840.43,639.92h-41.65v-37.24l0.64,0.18c0.2,0.06,20.39,5.71,28.8-2.25c8.47-8.02,10.37-62.62,10.39-63.17l1-0.02
				l1.3,15.97l0.68-40.05l-2.14-2.45l0.01-0.2c0.6-14.32-5.05-22.85-5.11-22.93l-0.09-0.13v-3.6c-4.15-3.63-8.91-8.14-8.49-9.4
				c0.05-0.14,0.21-0.46,0.7-0.5l0.34-0.03c21.66-1.64,29.92-3.8,30.41-5.15c0.42-1.16-0.07-4.2-2.49-7.33
				c-3.28-4.25-12.02-11.06-33.84-9.16v11.82l-5.06,1.79l4.12,12.06l-0.95,0.32l-4.44-13l5.33-1.88v-12.03l0.45-0.04
				c22.64-2.08,31.76,5.06,35.18,9.51c2.49,3.23,3.22,6.68,2.63,8.28c-1.06,2.93-17.59,4.77-31.28,5.81l-0.07,0.01
				c0.62,1.22,4.61,5.12,8.28,8.32l0.17,0.15v3.75c0.75,1.17,5.73,9.46,5.21,23.21l2.13,2.44l0,0.19L840.43,639.92z M799.78,638.92
				h39.67l1.28-75.31l-1.48-18.28c-0.86,15.64-3.5,49.53-10.34,56.01c-8.06,7.63-25.5,3.6-29.12,2.66V638.92z"/>
		</g>
	</g>
	<g>
		<g>
			<path d="M794.29,549.65h-8.32c-1.4,0-2.7-0.67-3.55-1.84c-0.91-1.25-1.16-2.88-0.68-4.36l0.57-1.76
				c0.69-2.15,2.61-3.59,4.77-3.59h9.47c1.13,0,2.17,0.54,2.86,1.48c0.73,1,0.93,2.31,0.55,3.5l-0.98,3.04
				C798.29,548.23,796.41,549.65,794.29,549.65z M787.08,539.1c-1.72,0-3.26,1.16-3.82,2.9l-0.57,1.76
				c-0.38,1.18-0.18,2.48,0.54,3.46c0.66,0.91,1.66,1.43,2.74,1.43h8.32c1.68,0,3.18-1.14,3.73-2.83l0.98-3.04
				c0.29-0.89,0.14-1.86-0.41-2.6c-0.49-0.68-1.24-1.07-2.05-1.07H787.08z"/>
		</g>
	</g>
	<g>
		<g>
			<path d="M773.94,510.93c-0.47-10.19,35.15-35.85,36.67-36.94l0.58,0.81c-0.37,0.26-36.69,26.43-36.25,36.08L773.94,510.93z"/>
		</g>
	</g>
	<g>
		<g>
			<path d="M766.95,538.5c-5.21,0-9.44-0.79-10.58-3.12l0.9-0.44c2.52,5.16,26.33,1.16,35.29-0.82l0.21,0.98
				C790.55,535.59,776.95,538.5,766.95,538.5z"/>
		</g>
	</g>
	<g>
		<g>
			<rect x="750.57" y="552.2" transform="matrix(0.9992 -0.0391 0.0391 0.9992 -20.9879 31.4635)" width="87.84" height="1"/>
		</g>
	</g>
	<g>
		<g>
			<path d="M565.05,475.32c-2.35,0-3.9-0.56-4.78-1.71c-1.98-2.58,0.04-7.41,3.09-13.95c4.38-9.36,19.2-44.87,19.34-45.23l0.12-0.28
				l0.31-0.02c1.39-0.1,139.58-9.69,203.89-1.22l0.21,0.03l0.13,0.17c5.29,7.01,23.24,55.41,24,57.47l0.03,0.12
				c0.08,0.75-0.15,1.42-0.69,1.97c-3.47,3.53-20.14,1.96-36.27,0.45c-6.06-0.57-11.79-1.11-16.34-1.32
				c-18.03-0.83-176.51,0.9-188.83,3.09C567.64,475.18,566.24,475.32,565.05,475.32z M583.51,415.11
				c-1.42,3.4-15.07,36.05-19.24,44.98c-2.81,6.02-4.84,10.79-3.21,12.91c1.04,1.36,3.74,1.66,8.02,0.9
				c12.99-2.31,170.19-3.97,189.05-3.11c4.58,0.21,10.31,0.75,16.39,1.32c14.4,1.36,32.33,3.04,35.46-0.15
				c0.32-0.32,0.45-0.68,0.42-1.1c-0.74-2-18.43-49.62-23.71-56.99C723.86,405.66,590.87,414.61,583.51,415.11z"/>
		</g>
	</g>
	<g>
		<g>
			<path d="M581.48,419.38l-0.17-0.99c68.97-12.12,206.55-1.75,207.93-1.65l-0.08,1C787.77,417.64,650.32,407.28,581.48,419.38z"/>
		</g>
	</g>
	<g>
		<g>
			<path d="M571.31,603.88"/>
		</g>
	</g>
	<g>
		<g>
			<rect x="571.31" y="603.11" transform="matrix(1 -1.953121e-03 1.953121e-03 1 -1.1776 1.3396)" width="227.97" height="1"/>
		</g>
	</g>
	<g>
		<g>
			<path d="M573.64,603.94l-0.99-0.11c0.05-0.49,1.37-12.06,7.84-12.06h209.6c5.97,0,6.73,6.19,6.73,11.57h-1
				c0-7.41-1.71-10.57-5.73-10.57h-209.6C574.91,592.76,573.65,603.82,573.64,603.94z"/>
		</g>
	</g>
	<g>
		<g>
			<rect x="622.72" y="597.44" transform="matrix(0.2841 -0.9588 0.9588 0.2841 -123.2708 1030.7765)" width="11.83" height="1"/>
		</g>
	</g>
	<g>
		<g>
			<path d="M725.21,589.22c-0.05,0-0.1,0-0.15,0c-1.35-0.08-10.93-0.11-23.05-0.15c-17.82-0.06-39.99-0.14-48.17-0.39
				c-13.78-0.43-16.64-3.3-17.3-8.82c-0.6-5.04-13.61-53.62-13.75-54.11l-0.02-0.09l0.01-0.1c0.09-0.74,0.17-1.44,0.25-2.1
				c0.94-8.17,1.19-10.37,14.84-12.5c13.17-2.06,77.05-0.53,96.31-0.02l0.39,0.01c7.46,0.2,12.65,3.65,13.22,8.8
				c0.31,2.86-2.98,17.44-6.17,31.54c-1.97,8.72-3.83,16.95-4.43,20.72C735.67,581.66,728.93,589.22,725.21,589.22z M623.79,525.58
				c0.82,3.06,13.15,49.1,13.75,54.15c0.52,4.37,2,7.5,16.33,7.94c8.17,0.25,30.33,0.33,48.14,0.39c12.14,0.04,21.73,0.08,23.1,0.15
				c0.03,0,0.07,0,0.1,0c2.94,0,9.47-6.75,10.99-16.36c0.6-3.81,2.47-12.05,4.44-20.78c3.02-13.36,6.44-28.51,6.15-31.21
				c-0.51-4.62-5.31-7.73-12.25-7.91l-0.39-0.01c-19.24-0.52-83.04-2.04-96.13,0c-12.9,2.01-13.09,3.67-14.01,11.62
				C623.96,524.2,623.88,524.87,623.79,525.58z"/>
		</g>
	</g>
	<g>
		<g>
			<path d="M720.69,586.57c-0.07,0-0.13,0-0.2,0c-0.72-0.02-4.29-0.07-9.51-0.14c-19.56-0.27-60.26-0.83-66.03-1.31
				c-7.5-0.62-15.85-51.04-16.8-56.95c-0.15-0.52-1.69-6.08-0.03-8.87c0.48-0.81,1.19-1.32,2.09-1.52
				c4.04-0.87,14.61-1.81,27.59-2.46c8.33-0.42,80.11-1.21,84.42,3.84c2.85,3.33-0.37,16.48-3.77,30.4
				c-1.5,6.13-3.05,12.47-4.01,17.78C731.33,584.57,723.94,586.57,720.69,586.57z M680.83,515.96c-9.95,0-18.48,0.15-22.97,0.37
				c-12.93,0.65-23.45,1.58-27.44,2.44c-0.63,0.14-1.1,0.48-1.44,1.05c-1.48,2.48,0.12,8.05,0.14,8.1l0.01,0.06
				c3.6,22.33,10.81,55.72,15.91,56.14c5.74,0.48,46.42,1.04,65.96,1.3c5.23,0.07,8.8,0.12,9.52,0.14
				c2.86,0.06,9.9-1.58,12.95-18.39c0.97-5.34,2.52-11.69,4.02-17.84c3.19-13.06,6.49-26.56,3.98-29.51
				C738.95,516.87,705.51,515.96,680.83,515.96z"/>
		</g>
	</g>
	<g>
		<g>
			<rect x="628.63" y="518.96" width="113.22" height="1"/>
		</g>
	</g>
	<g>
		<g>
			<rect x="684.84" y="466.08" transform="matrix(4.721976e-03 -1 1 4.721976e-03 158.5389 1206.4404)" width="1" height="114.99"/>
		</g>
	</g>
	<g>
		<g>
			<rect x="628.63" y="527.56" width="113.89" height="1"/>
		</g>
	</g>
	<g>
		<g>
			<rect x="685.06" y="475.17" transform="matrix(4.815006e-03 -1 1 4.815006e-03 150.7074 1214.5449)" width="1" height="112.77"/>
		</g>
	</g>
	<g>
		<g>
			<rect x="684.96" y="480.09" transform="matrix(9.781673e-03 -1 1 9.781673e-03 143.0826 1215.8922)" width="1" height="111.22"/>
		</g>
	</g>
	<g>
		<g>
			<rect x="684.87" y="484.98" transform="matrix(0.0113 -0.9999 0.9999 0.0113 137.9223 1219.0062)" width="1" height="109.57"/>
		</g>
	</g>
	<g>
		<g>
			<rect x="631.49" y="543.37" width="107.83" height="1"/>
		</g>
	</g>
	<g>
		<g>
			<rect x="632.32" y="547.5" width="106.01" height="1"/>
		</g>
	</g>
	<g>
		<g>
			<rect x="684.9" y="522.04" transform="matrix(6.790055e-03 -1 1 6.790055e-03 110.7972 1251.483)" width="1" height="95.86"/>
		</g>
	</g>
	<g>
		<g>
			<rect x="639.15" y="574.47" width="92.83" height="1"/>
		</g>
	</g>
	<g>
		<g>
			<rect x="640.35" y="577.72" width="90.27" height="1"/>
		</g>
	</g>
	<g>
		<g>
			<rect x="684.58" y="538.3" transform="matrix(6.271166e-03 -1 1 6.271166e-03 99.2008 1263.0101)" width="1" height="86.58"/>
		</g>
	</g>
</g>
</svg>
