<?xml version="1.0" encoding="utf-8"?>
<!-- Generator: Adobe Illustrator 24.3.0, SVG Export Plug-In . SVG Version: 6.00 Build 0)  -->
<svg version="1.1" id="Layer_1" xmlns="http://www.w3.org/2000/svg" xmlns:xlink="http://www.w3.org/1999/xlink" x="0px" y="0px"
	 viewBox="0 0 252.74 225.63" style="enable-background:new 0 0 252.74 225.63;" xml:space="preserve">
<g>
	<g>
		<g>
			<g>
				<path d="M121.3,217.67c-5.17,0-9.37-4.11-9.37-9.17c0-5.06,4.2-9.17,9.37-9.17s9.37,4.11,9.37,9.17
					C130.67,213.56,126.47,217.67,121.3,217.67z M121.3,199.73c-4.95,0-8.97,3.93-8.97,8.77c0,4.84,4.02,8.77,8.97,8.77
					s8.97-3.93,8.97-8.77C130.27,203.66,126.25,199.73,121.3,199.73z"/>
			</g>
		</g>
	</g>
</g>
<g>
	<g>
		<g>
			<g>
				<path d="M121.3,221.9c-7.23,0-13.12-5.88-13.12-13.12c0-7.23,5.88-13.12,13.12-13.12s13.12,5.88,13.12,13.12
					C134.42,216.02,128.53,221.9,121.3,221.9z M121.3,196.07c-7.01,0-12.72,5.71-12.72,12.72c0,7.01,5.71,12.72,12.72,12.72
					s12.72-5.71,12.72-12.72C134.02,201.77,128.31,196.07,121.3,196.07z"/>
			</g>
		</g>
	</g>
</g>
<g>
	<g>
		<g>
			<g>
				<path d="M215.77,217.37c-5.17,0-9.37-4.11-9.37-9.17s4.2-9.17,9.37-9.17s9.37,4.11,9.37,9.17S220.94,217.37,215.77,217.37z
					 M215.77,199.42c-4.95,0-8.97,3.93-8.97,8.77s4.02,8.77,8.97,8.77s8.97-3.93,8.97-8.77S220.72,199.42,215.77,199.42z"/>
			</g>
		</g>
	</g>
</g>
<g>
	<g>
		<g>
			<g>
				<path d="M215.77,221.59c-7.23,0-13.12-5.88-13.12-13.12c0-7.23,5.88-13.12,13.12-13.12c7.23,0,13.12,5.88,13.12,13.12
					C228.89,215.71,223,221.59,215.77,221.59z M215.77,195.76c-7.01,0-12.72,5.71-12.72,12.72c0,7.01,5.71,12.72,12.72,12.72
					c7.01,0,12.72-5.71,12.72-12.72C228.49,201.46,222.78,195.76,215.77,195.76z"/>
			</g>
		</g>
	</g>
</g>
<g>
	<g>
		<g>
			<g>
				<path d="M231.82,214.06c-0.07,0-0.13-0.03-0.17-0.09l-1.79-2.64c-0.02-0.03-0.03-0.07-0.03-0.1l-0.05-1.03
					c0.42-6.34-1.97-11.72-6.55-14.8c-4.12-2.77-9.37-3.19-13.69-1.08c-8.72,4.25-8.04,16.76-8.03,16.89c0,0.06-0.02,0.11-0.05,0.15
					c-0.04,0.04-0.09,0.06-0.15,0.06h-65.35c-0.06,0-0.11-0.02-0.15-0.07c-0.04-0.04-0.06-0.1-0.05-0.16
					c0.02-0.14,1.46-13.97-8.69-16.98c-5.68-1.68-10.8-1.12-14.44,1.59c-3.66,2.73-5.6,7.55-5.6,13.93c0,0.1-0.08,0.19-0.18,0.2
					c-0.08,0.01-8.54,0.86-12.35-5.48c-0.02-0.03-0.03-0.07-0.03-0.1v-6.08c0-0.09,0.06-0.17,0.15-0.19c0.01,0,0.34-0.09,0.51-0.45
					c0.19-0.39,0.12-0.97-0.19-1.68c-0.01-0.03-0.02-0.06-0.02-0.09c0-0.1,0.16-2.39,3.23-3.91l0.32-1.8
					c-0.11-0.35-0.73-2.45-0.37-4.46c-0.25-0.09-0.67-0.3-0.98-0.77c-0.38-0.57-0.46-1.34-0.24-2.28c0.01-0.04,0.03-0.07,0.06-0.1
					l3.55-3.32c0.04-0.03,0.09-0.05,0.14-0.05h4.15c0.87-0.93,10.88-11.4,19.43-12.61c9.36-1.32,44.78-2.13,54.53,0
					c9.67,2.11,29.44,13.7,30.51,14.33c0.98,0.04,15.46,0.63,26.38,4.71c11.32,4.23,12.24,7.23,12.28,7.36
					c0,0.02,0.01,0.03,0.01,0.05v3.89c0.36,0.21,1.35,0.95,1.14,2.67c-0.21,1.83-0.02,8.02,0,8.59l0.5,1.04
					c0.01,0.03,0.02,0.06,0.02,0.1c-0.01,0.12-0.18,2.88-5,3.29c-4.64,0.4-12.69,1.48-12.77,1.49
					C231.84,214.06,231.83,214.06,231.82,214.06z M230.23,211.16l1.69,2.49c1.04-0.14,8.33-1.1,12.67-1.47
					c4.16-0.36,4.59-2.5,4.63-2.86l-0.5-1.03c-0.01-0.02-0.02-0.05-0.02-0.08c-0.01-0.27-0.23-6.75,0-8.7
					c0.21-1.77-0.98-2.29-1.03-2.31c-0.07-0.03-0.12-0.1-0.12-0.18v-3.98c-0.1-0.26-1.45-3.12-12.02-7.07
					c-11.19-4.18-26.16-4.68-26.3-4.69c-0.03,0-0.07-0.01-0.1-0.03c-0.21-0.12-20.61-12.16-30.44-14.31
					c-9.71-2.12-45.05-1.31-54.39,0c-8.77,1.24-19.15,12.44-19.26,12.55c-0.04,0.04-0.09,0.06-0.15,0.06h-4.16l-3.45,3.23
					c-0.17,0.8-0.11,1.44,0.2,1.91c0.35,0.54,0.91,0.66,0.92,0.66c0.05,0.01,0.1,0.04,0.13,0.09c0.03,0.04,0.04,0.1,0.03,0.15
					c-0.44,2.1,0.33,4.46,0.34,4.48c0.01,0.03,0.01,0.06,0.01,0.1l-0.34,1.95c-0.01,0.06-0.05,0.12-0.11,0.15
					c-2.74,1.32-3.06,3.25-3.09,3.57c0.35,0.81,0.41,1.48,0.16,1.98c-0.17,0.35-0.45,0.52-0.62,0.6v5.88
					c3.39,5.58,10.53,5.34,11.75,5.26c0.04-6.42,2.03-11.27,5.76-14.06s8.99-3.37,14.79-1.65c9.75,2.89,9.13,15.36,8.99,17.19h64.92
					c-0.05-1.69-0.06-13.01,8.26-17.06c4.45-2.16,9.84-1.74,14.09,1.11c4.7,3.15,7.15,8.67,6.72,15.13L230.23,211.16z"/>
			</g>
		</g>
	</g>
</g>
<g>
	<g>
		<g>
			<g>
				<path d="M116.37,170.02l-2.84-1.81c-0.08-0.05-0.13-0.15-0.11-0.25c0.02-0.1,0.09-0.18,0.19-0.2c0.27-0.06,6.57-1.54,8.58-0.75
					l-0.18,0.47c-1.53-0.6-6.07,0.29-7.7,0.65l2.33,1.49L116.37,170.02z"/>
			</g>
		</g>
	</g>
</g>
<g>
	<g>
		<g>
			<g>
				<path d="M102.48,179.48l-0.42-0.27c2.9-4.62,12.27-10.42,12.67-10.67l0.26,0.43C114.89,169.03,105.32,174.96,102.48,179.48z"/>
			</g>
		</g>
	</g>
</g>
<g>
	<g>
		<g>
			<g>
				<path d="M138.96,210.14c-0.07,0-0.13-0.03-0.18-0.08c-0.05-0.05-0.07-0.12-0.07-0.18c0.33-7.08-1.55-12.64-5.45-16.06
					c-3.83-3.37-9.4-4.52-16.11-3.32c-13.38,2.38-12.95,17.25-12.94,17.4l-0.5,0.02c-0.01-0.15-0.46-15.46,13.35-17.91
					c6.87-1.22,12.58-0.03,16.53,3.44c3.97,3.49,5.91,9.08,5.63,16.2l62.1-0.3l0,0.5L138.96,210.14L138.96,210.14z"/>
			</g>
		</g>
	</g>
</g>
<g>
	<g>
		<g>
			<g>
				<path d="M232.38,210.43l-0.5-0.02c0.35-8.46-1.6-14.38-5.8-17.59c-5.67-4.34-13.87-2.66-18.26-1.27
					c-10.08,3.19-8.71,17.87-8.69,18.02l-0.5,0.05c-0.02-0.15-1.43-15.23,9.04-18.54c4.48-1.42,12.86-3.12,18.71,1.35
					C230.72,195.74,232.74,201.8,232.38,210.43z"/>
			</g>
		</g>
	</g>
</g>
<g>
	<g>
		<g>
			<g>
				<path d="M240.38,209.56c-0.07,0-0.15-0.03-0.19-0.09c-0.08-0.1-2.04-2.52-2.04-6.46c0-0.07,0.03-0.13,0.08-0.18
					c0.05-0.05,0.12-0.07,0.19-0.07c0.16,0.01,4.01,0.23,5.24,0.54c1.22,0.3,2.83,0.84,2.85,0.85c0.08,0.03,0.15,0.1,0.17,0.19
					c0.03,0.14,0.71,3.49-0.89,4.36C244.29,209.51,240.54,209.56,240.38,209.56C240.38,209.56,240.38,209.56,240.38,209.56z
					 M238.65,203.27c0.08,3.19,1.52,5.32,1.86,5.78c0.66-0.01,3.79-0.12,5.03-0.8c1-0.55,0.84-2.72,0.67-3.68
					c-0.41-0.14-1.68-0.54-2.67-0.79C242.53,203.53,239.56,203.33,238.65,203.27z"/>
			</g>
		</g>
	</g>
</g>
<g>
	<g>
		<g>
			<g>
				<path d="M224.94,191.76"/>
			</g>
		</g>
	</g>
</g>
<g>
	<g>
		<g>
			<g>
				<path d="M246.16,210.67c-0.02,0-0.04,0-0.07,0c-1.05-0.07-15.96-0.23-16.11-0.23l0.01-0.5c0.62,0.01,15.08,0.15,16.14,0.23
					c0.57,0.05,1.58-0.92,2.25-1.73h-0.82c-0.14,0-0.25-0.11-0.25-0.25v-7.71c0-0.14,0.11-0.25,0.25-0.25h1.27v0.5h-1.02v7.21h1.09
					c0.09,0,0.18,0.05,0.22,0.14c0.04,0.08,0.03,0.19-0.02,0.26C248.92,208.59,247.33,210.67,246.16,210.67z"/>
			</g>
		</g>
	</g>
</g>
<g>
	<g>
		<g>
			<g>
				<path d="M247.57,202.8c-4.29,0-7.97-1.34-12.3-4.48c-4.67-3.39-9.44-5.7-9.49-5.72l0.22-0.45c0.05,0.02,4.86,2.35,9.56,5.77
					c4.24,3.07,7.83,4.39,12.01,4.39V202.8z"/>
			</g>
		</g>
	</g>
</g>
<g>
	<g>
		<g>
			<g>
				<path d="M239.61,196.82c-3.46,0-6.25-0.97-6.42-1.03c-0.07-0.02-0.12-0.08-0.15-0.15l-1.45-3.8c-0.02-0.06-0.02-0.13,0.01-0.19
					c0.03-0.06,0.08-0.11,0.14-0.13c0.11-0.04,2.72-0.92,8.57-0.77c0.03,0,0.05,0.01,0.08,0.02c0.18,0.06,4.38,1.63,4.06,5.15
					c-0.01,0.1-0.08,0.18-0.17,0.22C242.7,196.64,241.09,196.82,239.61,196.82z M233.47,195.36c0.8,0.26,5.86,1.78,10.5,0.35
					c0.13-2.86-3.32-4.3-3.71-4.46c-4.72-0.12-7.33,0.46-8.1,0.67L233.47,195.36z"/>
			</g>
		</g>
	</g>
</g>
<g>
	<g>
		<g>
			<g>
				<path d="M198.71,209.51l-1.51-1.11c-0.06-0.05-0.1-0.12-0.1-0.19c-0.01-0.37-0.27-9.22,2.72-13.52
					c2.48-3.56,3.42-7.27,2.8-11.04c-1.03-0.91-14.11-12.28-28.33-15.4c-11.29-1.37-27.1-0.6-35.59-0.18
					c-2.79,0.14-4.63,0.23-5.26,0.19c-0.02,0-0.03,0-0.05,0c-2.35,0-8.11,10.11-8.79,14.54c-0.66,4.36,0.88,7.07,0.89,7.1
					l-0.43,0.25c-0.07-0.12-1.65-2.88-0.96-7.43c0.68-4.43,6.48-14.97,9.29-14.97c0.02,0,0.04,0,0.07,0
					c0.61,0.04,2.54-0.06,5.21-0.19c8.51-0.42,24.34-1.19,35.7,0.19c14.9,3.27,28.51,15.46,28.65,15.58
					c0.04,0.04,0.07,0.09,0.08,0.14c0.67,3.93-0.29,7.8-2.87,11.5c-2.71,3.9-2.65,12.01-2.63,13.09l1.41,1.04L198.71,209.51z"/>
			</g>
		</g>
	</g>
</g>
<g>
	<g>
		<g>
			<g>
				<path d="M196.2,185.14c-0.01,0-0.02,0-0.02,0l-26.37-2.45l-44.67-2.52l0.03-0.5l44.68,2.52l26.34,2.44l6.61-1.37l0.1,0.49
					l-6.65,1.38C196.24,185.14,196.22,185.14,196.2,185.14z"/>
			</g>
		</g>
	</g>
</g>
<g>
	<g>
		<g>
			<g>
				<path d="M157.68,167.22"/>
			</g>
		</g>
	</g>
</g>
<g>
	<g>
		<g>
			<g>
				<polygon points="142.01,208.73 142.01,208.23 197.35,207.94 197.35,208.44 				"/>
			</g>
		</g>
	</g>
</g>
<g>
	<g>
		<g>
			<g>
				<path d="M159.5,208.39c-0.58-2.5-0.19-9,0.16-14.74c0.16-2.7,0.32-5.26,0.37-7.24c0.15-6.17-2.57-19.01-2.59-19.14l0.49-0.1
					c0.03,0.13,2.76,13.04,2.6,19.26c-0.05,1.99-0.2,4.55-0.37,7.26c-0.35,5.7-0.74,12.16-0.17,14.59L159.5,208.39z"/>
			</g>
		</g>
	</g>
</g>
<g>
	<g>
		<g>
			<g>
				<path d="M127.19,180.1l-0.48-0.14c0.1-0.34,2.44-8.45,6.04-11.39c0.04-0.03,0.09-0.05,0.15-0.06c0.31-0.01,30.66-1.13,39.19,0
					c8.85,1.18,18.98,6.91,19.61,9.44l-0.48,0.12c-0.59-2.35-10.68-7.93-19.19-9.06c-8.27-1.1-37.23-0.07-39.02,0
					C129.57,171.9,127.22,180.02,127.19,180.1z"/>
			</g>
		</g>
	</g>
</g>
<g>
	<g>
		<g>
			<g>
				<path d="M189.07,184.48c-0.02,0-0.05,0-0.07,0l0.05-0.5c0.04,0.01,0.17,0.02,0.28-0.22c0.28-0.59,0.11-1.85-0.48-2.43
					c-0.89-0.89-2.24-1.75-2.25-1.76c-0.06-0.04-0.1-0.1-0.11-0.17c-0.01-0.07,0.01-0.14,0.05-0.2c0.03-0.04,3.29-3.91,10.28,0.85
					l-0.28,0.41c-5.72-3.89-8.66-1.85-9.42-1.15c0.45,0.3,1.38,0.97,2.08,1.66c0.75,0.75,0.93,2.25,0.58,3
					C189.62,184.3,189.36,184.48,189.07,184.48z"/>
			</g>
		</g>
	</g>
</g>
<g>
	<g>
		<g>
			<g>
				<path d="M193.39,183.85c-1.65,0-2.89-0.23-2.97-0.24c-0.05-0.01-0.1-0.04-0.14-0.08l-0.84-0.95l0.38-0.33l0.78,0.89
					c0.48,0.08,3,0.46,5.48-0.01c0.87-0.16,1.32-0.65,1.24-1.34c-0.11-0.97-1.41-2.28-3.56-2.18c-3.44,0.15-4.53,1.67-4.54,1.69
					l-0.41-0.28c0.05-0.07,1.21-1.74,4.93-1.91c2.3-0.1,3.92,1.28,4.08,2.62c0.09,0.75-0.3,1.63-1.65,1.89
					C195.21,183.79,194.25,183.85,193.39,183.85z"/>
			</g>
		</g>
	</g>
</g>
<g>
	<g>
		<g>
			<g>
				<path d="M247.53,192.87c-2.55,0-4.59-1.17-6.39-2.2c-0.4-0.23-0.8-0.46-1.19-0.66c-2.15-1.14-8.67-2.61-17.88-4.03
					c-8.72-1.35-12.07-4.16-12.6-4.65l-10.25-0.51l0.03-0.5l10.34,0.52c0.06,0,0.12,0.03,0.17,0.07c0.03,0.03,3.21,3.16,12.39,4.58
					c9.27,1.43,15.84,2.92,18.04,4.09c0.39,0.21,0.79,0.44,1.2,0.67c1.83,1.05,3.72,2.13,6.14,2.13c0.01,0,0.02,0,0.04,0l0,0.5
					C247.56,192.87,247.54,192.87,247.53,192.87z"/>
			</g>
		</g>
	</g>
</g>
<g>
	<g>
		<g>
			<g>
				<path d="M157.62,181.76l-0.5-0.04c0.52-6.91-1.87-13.31-1.89-13.38l0.47-0.18C155.72,168.24,158.15,174.74,157.62,181.76z"/>
			</g>
		</g>
	</g>
</g>
<g>
	<g>
		<g>
			<g>
				<path d="M162.83,182.04l-0.5,0c0.01-5.12-2.8-13.62-2.83-13.71l0.47-0.16C160.01,168.26,162.84,176.83,162.83,182.04z"/>
			</g>
		</g>
	</g>
</g>
<g>
	<g>
		<g>
			<g>
				<path d="M204.87,181.07c-0.16-0.09-15.57-8.9-21.68-11.54c-6.08-2.63-19.08-3.74-19.21-3.75l0.04-0.5
					c0.13,0.01,13.21,1.13,19.36,3.79c6.13,2.65,21.57,11.48,21.73,11.57L204.87,181.07z"/>
			</g>
		</g>
	</g>
</g>
<g>
	<g>
		<g>
			<g>
				<path d="M122.51,179.6c-0.49,0-8.26-0.04-10.56-2.41c-0.07-0.07-0.09-0.18-0.05-0.28c0.03-0.08,3.5-7.57,16.87-8.75
					c0.09-0.01,0.18,0.04,0.23,0.11c0.05,0.08,0.05,0.18,0.01,0.26l-6.27,10.94c-0.04,0.08-0.13,0.13-0.22,0.13
					C122.52,179.6,122.51,179.6,122.51,179.6z M112.43,176.97c2.17,1.96,8.87,2.12,9.94,2.13l5.96-10.39
					C116.72,169.89,112.99,175.92,112.43,176.97z"/>
			</g>
		</g>
	</g>
</g>
<g>
	<g>
		<g>
			<g>
				<path d="M97.57,198.7c-0.92,0-1.88-0.06-2.9-0.18l0.06-0.5c5.06,0.6,8.87-0.33,11.32-2.75c3.16-3.13,3.08-7.85,3.02-8.91
					c-1.68-0.12-4.74-1.5-5.46-1.83c-1.02,0.76-4.77,1.21-5.21,1.27l-0.06-0.5c1.71-0.2,4.58-0.71,5.04-1.23
					c0.07-0.08,0.2-0.11,0.3-0.06c0.04,0.02,3.94,1.86,5.62,1.86c0.13,0,0.23,0.1,0.25,0.22c0.03,0.24,0.59,5.84-3.14,9.53
					C104.34,197.67,101.38,198.7,97.57,198.7z"/>
			</g>
		</g>
	</g>
</g>
<g>
	<g>
		<g>
			<g>
				<path d="M99.89,185.32"/>
			</g>
		</g>
	</g>
</g>
<g>
	<g>
		<g>
			<g>
				<path d="M102.78,193.21c-0.76,0-1.44-0.14-2.05-0.41c-1.83-0.81-2.24-2.55-2.26-2.62l0.49-0.11c0,0.02,0.38,1.57,1.98,2.28
					c1.78,0.79,4.46,0.25,7.73-1.58l0.24,0.44C106.52,192.54,104.47,193.21,102.78,193.21z"/>
			</g>
		</g>
	</g>
</g>
<g>
	<g>
		<g>
			<g>
				<path d="M99.3,191.12l-0.43-0.25c1.12-1.91,0.78-5.48,0.78-5.52l0.5-0.05C100.16,185.45,100.5,189.07,99.3,191.12z"/>
			</g>
		</g>
	</g>
</g>
<g>
	<g>
		<g>
			<g>
				<path d="M102.02,191.15c-1.65,0-2.61-0.79-2.66-0.84l0.32-0.38c0.06,0.05,1.61,1.3,4.19,0.38c2.73-0.99,5.27-1.67,5.3-1.68
					l0.13,0.48c-0.02,0.01-2.54,0.69-5.26,1.67C103.28,191.05,102.6,191.15,102.02,191.15z"/>
			</g>
		</g>
	</g>
</g>
<g>
	<g>
		<g>
			<g>
				<path d="M103.77,190.73c-3.11-3.02-0.43-6.62-0.4-6.65l0.4,0.3c-0.1,0.13-2.43,3.28,0.35,5.99L103.77,190.73z"/>
			</g>
		</g>
	</g>
</g>
<g>
	<g>
		<g>
			<g>
				<path d="M98.09,205.91c-0.2,0-0.4-0.02-0.61-0.05c-0.05-0.01-0.09-0.03-0.13-0.06c-0.14-0.13-1.36-1.27-1.1-2.19
					c0.12-0.44,0.53-0.72,1.22-0.86c2.44-0.47,4.82,0.96,4.92,1.03c0.07,0.04,0.11,0.12,0.12,0.2c0,0.08-0.03,0.16-0.1,0.21
					C102.32,204.27,100.2,205.91,98.09,205.91z M97.64,205.38c1.61,0.23,3.43-0.87,4.15-1.35c-0.72-0.36-2.49-1.12-4.22-0.78
					c-0.49,0.09-0.77,0.26-0.83,0.5C96.6,204.25,97.32,205.07,97.64,205.38z"/>
			</g>
		</g>
	</g>
</g>
<g>
	<g>
		<g>
			<g>
				<path d="M142.01,213.65h-6.42c-0.07,0-0.14-0.03-0.19-0.09s-0.07-0.13-0.05-0.2l0.38-2.18l0.49,0.09l-0.33,1.88h6.04l2.99-2.13
					l0.29,0.41l-3.06,2.18C142.12,213.63,142.06,213.65,142.01,213.65z"/>
			</g>
		</g>
	</g>
</g>
<g>
	<g>
		<g>
			<g>
				<path d="M201.32,213.27h-4.65c-0.04,0-0.08-0.01-0.12-0.03l-3.37-1.8l0.23-0.44l3.31,1.77h4.34v-1.55h0.5v1.8
					C201.57,213.16,201.46,213.27,201.32,213.27z"/>
			</g>
		</g>
	</g>
</g>
<g>
	<g>
		<g>
			<g>
				<path d="M138.96,210.14h-2.9v-0.5h2.85l2.66-1.23l-2.86-2.6l0.34-0.37l3.14,2.86c0.06,0.06,0.09,0.14,0.08,0.22
					s-0.07,0.15-0.14,0.19l-3.06,1.41C139.03,210.13,138.99,210.14,138.96,210.14z"/>
			</g>
		</g>
	</g>
</g>
<g>
	<g>
		<g>
			<g>
				<path d="M170.11,188.89h-5.34c-0.56,0-1.08-0.35-1.28-0.88l-0.72-1.91c-0.12-0.33-0.07-0.69,0.13-0.97
					c0.21-0.28,0.55-0.44,0.89-0.41l5.63,0.36c0.51,0.03,0.95,0.36,1.12,0.83l0.57,1.54c0.12,0.33,0.07,0.69-0.13,0.98
					S170.46,188.89,170.11,188.89z M163.73,185.22c-0.17,0-0.32,0.08-0.42,0.21c-0.11,0.15-0.13,0.33-0.07,0.49c0,0,0,0,0,0
					l0.72,1.91c0.13,0.33,0.45,0.56,0.81,0.56h5.34c0.19,0,0.36-0.09,0.47-0.24c0.11-0.15,0.13-0.35,0.07-0.52l-0.57-1.54
					c-0.11-0.29-0.37-0.49-0.68-0.51l-5.63-0.36C163.75,185.22,163.74,185.22,163.73,185.22z"/>
			</g>
		</g>
	</g>
</g>
<g>
	<g>
		<g>
			<g>
				<path d="M136.26,187.45h-5.58c-0.58,0-1.11-0.35-1.32-0.88l-0.76-1.91c0,0,0,0,0,0c-0.13-0.32-0.08-0.67,0.12-0.95
					c0.21-0.29,0.55-0.45,0.93-0.43l5.89,0.36c0.52,0.03,0.98,0.36,1.16,0.83l0.59,1.54c0.12,0.32,0.08,0.68-0.12,0.96
					C136.98,187.27,136.64,187.45,136.26,187.45z M129.08,184.48l0.76,1.91c0.13,0.34,0.48,0.56,0.86,0.56h5.58
					c0.21,0,0.4-0.1,0.51-0.26c0.1-0.15,0.13-0.33,0.06-0.5l-0.59-1.54c-0.11-0.29-0.4-0.49-0.72-0.51l-5.89-0.36
					c-0.19,0-0.38,0.07-0.5,0.23C129.03,184.15,129.01,184.32,129.08,184.48z"/>
			</g>
		</g>
	</g>
</g>
<g>
	<g>
		<g>
			<g>
				<path d="M118.75,188.41h-4.92c-0.87,0-1.61-0.65-1.72-1.5c-0.12-0.87-0.27-2.03-0.39-2.94l0,0c-0.06-0.45,0.08-0.91,0.38-1.26
					c0.3-0.35,0.74-0.54,1.2-0.54h5.11c0.85,0,1.55,0.66,1.61,1.51l0.19,3.18c0.02,0.41-0.12,0.8-0.4,1.09
					C119.53,188.24,119.15,188.41,118.75,188.41z M112.21,183.89c0.12,0.92,0.27,2.07,0.39,2.94c0.08,0.61,0.61,1.07,1.23,1.07h4.92
					c0.27,0,0.52-0.11,0.7-0.3c0.18-0.2,0.28-0.45,0.26-0.72l-0.19-3.18c-0.03-0.58-0.52-1.04-1.11-1.04h-5.11
					c-0.32,0-0.62,0.14-0.83,0.37C112.27,183.27,112.17,183.58,112.21,183.89L112.21,183.89z"/>
			</g>
		</g>
	</g>
</g>
<g>
	<g>
		<g>
			<g>
				<path d="M129.37,180.19c-0.22-3.74,0.28-7.44,0.29-7.47l0.5,0.07c-0.01,0.04-0.5,3.69-0.28,7.37L129.37,180.19z"/>
			</g>
		</g>
	</g>
</g>
<g>
	<g>
		<g>
			<g>
				<path d="M222.83,149.11c-5.17,0-9.37-4.11-9.37-9.17s4.2-9.17,9.37-9.17s9.37,4.11,9.37,9.17S227.99,149.11,222.83,149.11z
					 M222.83,131.17c-4.95,0-8.97,3.93-8.97,8.77s4.02,8.77,8.97,8.77s8.97-3.93,8.97-8.77S227.77,131.17,222.83,131.17z"/>
			</g>
		</g>
	</g>
</g>
<g>
	<g>
		<g>
			<g>
				<path d="M222.83,153.34c-7.23,0-13.12-5.88-13.12-13.12s5.88-13.12,13.12-13.12c7.23,0,13.12,5.88,13.12,13.12
					S230.06,153.34,222.83,153.34z M222.83,127.5c-7.01,0-12.72,5.71-12.72,12.72s5.71,12.72,12.72,12.72
					c7.01,0,12.72-5.7,12.72-12.72S229.84,127.5,222.83,127.5z"/>
			</g>
		</g>
	</g>
</g>
<g>
	<g>
		<g>
			<g>
				<path d="M128.36,148.8c-5.17,0-9.37-4.11-9.37-9.17s4.2-9.17,9.37-9.17s9.37,4.11,9.37,9.17S133.52,148.8,128.36,148.8z
					 M128.36,130.86c-4.95,0-8.97,3.93-8.97,8.77c0,4.84,4.02,8.77,8.97,8.77s8.97-3.93,8.97-8.77
					C137.33,134.8,133.3,130.86,128.36,130.86z"/>
			</g>
		</g>
	</g>
</g>
<g>
	<g>
		<g>
			<g>
				<path d="M128.36,153.03c-7.23,0-13.12-5.88-13.12-13.12s5.88-13.12,13.12-13.12c7.23,0,13.12,5.88,13.12,13.12
					S135.59,153.03,128.36,153.03z M128.36,127.2c-7.01,0-12.72,5.7-12.72,12.72s5.71,12.72,12.72,12.72
					c7.01,0,12.72-5.71,12.72-12.72S135.37,127.2,128.36,127.2z"/>
			</g>
		</g>
	</g>
</g>
<g>
	<g>
		<g>
			<g>
				<path d="M112.3,145.5c-0.01,0-0.02,0-0.03,0c-0.08-0.01-8.13-1.09-12.77-1.49c-4.82-0.41-5-3.17-5-3.29
					c0-0.03,0.01-0.07,0.02-0.1l0.5-1.04c0.02-0.57,0.21-6.76,0-8.59c-0.2-1.72,0.79-2.46,1.14-2.67v-3.89c0-0.02,0-0.04,0.01-0.05
					c0.03-0.13,0.96-3.13,12.28-7.36c10.92-4.08,25.4-4.68,26.38-4.71c1.08-0.63,20.84-12.22,30.51-14.33
					c9.75-2.13,45.17-1.32,54.53,0c8.56,1.21,18.56,11.68,19.43,12.61h4.16c0.05,0,0.1,0.02,0.14,0.05l3.55,3.33
					c0.03,0.03,0.05,0.06,0.06,0.1c0.21,0.94,0.13,1.71-0.24,2.28c-0.31,0.47-0.74,0.68-0.98,0.77c0.36,2.01-0.26,4.1-0.37,4.46
					l0.32,1.8c3.08,1.53,3.23,3.82,3.23,3.91c0,0.03,0,0.06-0.02,0.09c-0.31,0.71-0.38,1.29-0.19,1.68c0.17,0.36,0.5,0.45,0.52,0.45
					c0.09,0.02,0.15,0.1,0.15,0.19v6.08c0,0.04-0.01,0.07-0.03,0.1c-3.8,6.34-12.26,5.49-12.35,5.48c-0.1-0.01-0.18-0.1-0.18-0.2
					c0-6.38-1.94-11.19-5.6-13.93c-3.63-2.71-8.76-3.28-14.44-1.59c-10.15,3.01-8.7,16.84-8.69,16.98c0.01,0.06-0.01,0.11-0.05,0.16
					s-0.09,0.07-0.15,0.07H142.8c-0.06,0-0.11-0.02-0.15-0.06c-0.04-0.04-0.06-0.09-0.05-0.15c0.01-0.13,0.69-12.64-8.03-16.89
					c-4.32-2.1-9.56-1.69-13.69,1.08c-4.58,3.07-6.96,8.46-6.55,14.77l-0.05,1.05c0,0.04-0.01,0.07-0.03,0.1l-1.79,2.64
					C112.43,145.47,112.37,145.5,112.3,145.5z M94.91,140.75c0.04,0.36,0.47,2.5,4.63,2.86c4.34,0.37,11.64,1.34,12.67,1.48
					l1.69-2.49l0.04-0.98c-0.42-6.44,2.03-11.96,6.73-15.11c4.24-2.85,9.64-3.28,14.08-1.11c8.32,4.05,8.31,15.37,8.26,17.06h64.92
					c-0.14-1.83-0.76-14.3,8.99-17.19c5.8-1.72,11.05-1.14,14.79,1.65c3.73,2.79,5.72,7.65,5.76,14.06
					c1.22,0.08,8.37,0.31,11.75-5.26v-5.88c-0.17-0.08-0.45-0.25-0.62-0.6c-0.24-0.5-0.19-1.16,0.16-1.98
					c-0.03-0.33-0.35-2.25-3.09-3.58c-0.06-0.03-0.1-0.08-0.11-0.15l-0.34-1.95c-0.01-0.03,0-0.07,0.01-0.1
					c0.01-0.02,0.78-2.38,0.34-4.48c-0.01-0.05,0-0.11,0.03-0.15c0.03-0.04,0.08-0.08,0.13-0.09c0.01,0,0.57-0.12,0.92-0.66
					c0.3-0.47,0.37-1.11,0.2-1.91l-3.45-3.23h-4.16c-0.06,0-0.11-0.02-0.15-0.06c-0.1-0.11-10.49-11.31-19.26-12.55
					c-9.33-1.32-44.67-2.12-54.39,0c-9.83,2.15-30.23,14.19-30.44,14.31c-0.03,0.02-0.06,0.03-0.1,0.03
					c-0.15,0-15.12,0.51-26.31,4.69c-10.55,3.94-11.92,6.8-12.02,7.07v3.98c0,0.08-0.05,0.15-0.12,0.18
					c-0.05,0.02-1.23,0.55-1.03,2.31c0.23,1.94,0.01,8.42,0,8.7c0,0.03-0.01,0.06-0.02,0.08L94.91,140.75z"/>
			</g>
		</g>
	</g>
</g>
<g>
	<g>
		<g>
			<g>
				<path d="M227.76,101.46l-0.27-0.42l2.33-1.49c-1.62-0.35-6.17-1.24-7.7-0.65l-0.18-0.47c2.01-0.78,8.31,0.69,8.58,0.75
					c0.1,0.02,0.17,0.1,0.19,0.2c0.02,0.1-0.03,0.2-0.11,0.25L227.76,101.46z"/>
			</g>
		</g>
	</g>
</g>
<g>
	<g>
		<g>
			<g>
				<path d="M241.65,110.92c-2.84-4.52-12.41-10.45-12.5-10.51l0.26-0.43c0.4,0.24,9.76,6.05,12.67,10.67L241.65,110.92z"/>
			</g>
		</g>
	</g>
</g>
<g>
	<g>
		<g>
			<g>
				<path d="M205.17,141.57L205.17,141.57l-62.37-0.31l0-0.5l62.1,0.3c-0.28-7.12,1.66-12.71,5.63-16.2
					c3.95-3.47,9.67-4.66,16.53-3.44c13.81,2.46,13.36,17.76,13.35,17.91l-0.5-0.02c0.01-0.15,0.44-15.02-12.94-17.4
					c-6.71-1.19-12.28-0.05-16.11,3.32c-3.9,3.43-5.79,8.98-5.45,16.06c0,0.07-0.02,0.14-0.07,0.18
					C205.3,141.55,205.24,141.57,205.17,141.57z"/>
			</g>
		</g>
	</g>
</g>
<g>
	<g>
		<g>
			<g>
				<path d="M111.75,141.87c-0.36-8.63,1.66-14.69,6-18.01c5.85-4.47,14.23-2.77,18.71-1.35c10.47,3.31,9.06,18.39,9.04,18.54
					L145,141c0.02-0.15,1.39-14.83-8.69-18.02c-4.39-1.39-12.59-3.07-18.26,1.27c-4.2,3.21-6.15,9.13-5.8,17.59L111.75,141.87z"/>
			</g>
		</g>
	</g>
</g>
<g>
	<g>
		<g>
			<g>
				<path d="M103.74,141C103.74,141,103.74,141,103.74,141c-0.16,0-3.9-0.04-5.39-0.86c-1.6-0.88-0.92-4.22-0.89-4.36
					c0.02-0.09,0.08-0.16,0.17-0.19c0.02-0.01,1.63-0.54,2.85-0.85c1.23-0.31,5.08-0.53,5.24-0.54c0.08,0,0.14,0.02,0.19,0.07
					s0.08,0.11,0.08,0.18c0,3.94-1.96,6.36-2.04,6.46C103.89,140.96,103.82,141,103.74,141z M97.92,136.01
					c-0.17,0.96-0.34,3.13,0.67,3.68c1.24,0.68,4.37,0.78,5.03,0.8c0.34-0.46,1.78-2.59,1.86-5.78c-0.91,0.06-3.88,0.26-4.88,0.51
					C99.6,135.47,98.34,135.88,97.92,136.01z"/>
			</g>
		</g>
	</g>
</g>
<g>
	<g>
		<g>
			<g>
				<path d="M119.18,123.2"/>
			</g>
		</g>
	</g>
</g>
<g>
	<g>
		<g>
			<g>
				<path d="M97.96,142.11c-1.17,0-2.76-2.09-2.94-2.33c-0.06-0.08-0.07-0.18-0.02-0.26c0.04-0.08,0.13-0.14,0.22-0.14h1.09v-7.21
					h-1.02v-0.5h1.27c0.14,0,0.25,0.11,0.25,0.25v7.71c0,0.14-0.11,0.25-0.25,0.25h-0.82c0.68,0.81,1.66,1.77,2.25,1.73
					c1.07-0.08,15.53-0.22,16.14-0.23l0.01,0.5c-0.15,0-15.06,0.15-16.11,0.23C98.01,142.11,97.99,142.11,97.96,142.11z"/>
			</g>
		</g>
	</g>
</g>
<g>
	<g>
		<g>
			<g>
				<path d="M96.56,134.24v-0.5c4.18,0,7.77-1.31,12.01-4.39c4.7-3.41,9.51-5.74,9.56-5.77l0.22,0.45
					c-0.05,0.02-4.82,2.33-9.49,5.72C104.53,132.9,100.85,134.24,96.56,134.24z"/>
			</g>
		</g>
	</g>
</g>
<g>
	<g>
		<g>
			<g>
				<path d="M104.52,128.26c-1.49,0-3.1-0.18-4.67-0.69c-0.1-0.03-0.16-0.12-0.17-0.22c-0.32-3.51,3.88-5.08,4.06-5.15
					c0.02-0.01,0.05-0.01,0.08-0.02c5.85-0.16,8.46,0.73,8.57,0.77c0.06,0.02,0.12,0.07,0.14,0.13c0.03,0.06,0.03,0.13,0.01,0.19
					l-1.45,3.8c-0.03,0.07-0.08,0.12-0.15,0.15C110.77,127.29,107.98,128.26,104.52,128.26z M100.16,127.15
					c4.64,1.42,9.7-0.09,10.5-0.35l1.31-3.43c-0.77-0.21-3.39-0.79-8.1-0.67C103.48,122.85,100.03,124.29,100.16,127.15z"/>
			</g>
		</g>
	</g>
</g>
<g>
	<g>
		<g>
			<g>
				<path d="M145.42,140.95l-0.3-0.4l1.41-1.04c0.02-1.08,0.08-9.2-2.63-13.09c-2.58-3.7-3.54-7.57-2.87-11.5
					c0.01-0.06,0.04-0.11,0.08-0.14c0.14-0.12,13.75-12.31,28.62-15.57c11.38-1.39,27.22-0.61,35.72-0.19
					c2.67,0.13,4.6,0.22,5.21,0.19c0.02,0,0.04,0,0.07,0c2.81,0,8.62,10.54,9.29,14.97c0.69,4.54-0.89,7.31-0.96,7.43l-0.43-0.25
					c0.02-0.03,1.56-2.74,0.89-7.1c-0.68-4.43-6.43-14.54-8.79-14.54c-0.02,0-0.03,0-0.05,0c-0.63,0.04-2.47-0.05-5.26-0.19
					c-8.49-0.42-24.3-1.19-35.62,0.19c-14.2,3.12-27.28,14.48-28.31,15.4c-0.62,3.77,0.32,7.48,2.8,11.04
					c2.99,4.3,2.73,13.14,2.72,13.52c0,0.08-0.04,0.15-0.1,0.19L145.42,140.95z"/>
			</g>
		</g>
	</g>
</g>
<g>
	<g>
		<g>
			<g>
				<path d="M147.92,116.58c-0.02,0-0.03,0-0.05-0.01l-6.65-1.38l0.1-0.49l6.61,1.37l26.33-2.44l44.69-2.52l0.03,0.5l-44.68,2.52
					l-26.36,2.45C147.94,116.58,147.93,116.58,147.92,116.58z"/>
			</g>
		</g>
	</g>
</g>
<g>
	<g>
		<g>
			<g>
				<path d="M186.45,98.66"/>
			</g>
		</g>
	</g>
</g>
<g>
	<g>
		<g>
			<g>
				<polygon points="202.11,140.16 146.78,139.88 146.78,139.38 202.12,139.66 				"/>
			</g>
		</g>
	</g>
</g>
<g>
	<g>
		<g>
			<g>
				<path d="M184.62,139.83l-0.49-0.11c0.57-2.43,0.17-8.89-0.17-14.59c-0.16-2.71-0.32-5.27-0.37-7.26
					c-0.15-6.22,2.58-19.13,2.6-19.26l0.49,0.1c-0.03,0.13-2.74,12.98-2.59,19.14c0.05,1.98,0.2,4.54,0.37,7.24
					C184.81,130.83,185.21,137.33,184.62,139.83z"/>
			</g>
		</g>
	</g>
</g>
<g>
	<g>
		<g>
			<g>
				<path d="M216.93,111.54c-0.02-0.08-2.37-8.2-5.82-11.09c-1.79-0.07-30.76-1.1-39.02,0c-8.51,1.13-18.6,6.71-19.19,9.06
					l-0.48-0.12c0.63-2.53,10.76-8.26,19.61-9.44c8.53-1.13,38.88-0.01,39.19,0c0.05,0,0.11,0.02,0.15,0.06
					c3.6,2.94,5.95,11.05,6.04,11.39L216.93,111.54z"/>
			</g>
		</g>
	</g>
</g>
<g>
	<g>
		<g>
			<g>
				<path d="M155.06,115.92c-0.3,0-0.55-0.18-0.71-0.51c-0.35-0.75-0.17-2.25,0.58-3c0.7-0.7,1.64-1.36,2.08-1.66
					c-0.75-0.7-3.69-2.75-9.42,1.15l-0.28-0.41c6.99-4.76,10.25-0.89,10.28-0.85c0.04,0.06,0.06,0.13,0.05,0.2
					c-0.01,0.07-0.05,0.13-0.11,0.17c-0.01,0.01-1.36,0.88-2.25,1.76c-0.58,0.58-0.75,1.85-0.48,2.43c0.11,0.24,0.24,0.23,0.28,0.22
					l0.05,0.5C155.11,115.91,155.08,115.92,155.06,115.92z"/>
			</g>
		</g>
	</g>
</g>
<g>
	<g>
		<g>
			<g>
				<path d="M150.73,115.29c-0.85,0-1.81-0.06-2.78-0.24c-1.35-0.25-1.73-1.14-1.65-1.89c0.16-1.34,1.78-2.72,4.08-2.62
					c3.72,0.16,4.89,1.84,4.93,1.91l-0.41,0.28c-0.01-0.02-1.1-1.54-4.54-1.69c-2.15-0.1-3.44,1.2-3.56,2.18
					c-0.08,0.69,0.37,1.17,1.24,1.34c2.48,0.47,5,0.1,5.48,0.01l0.78-0.89l0.38,0.33l-0.84,0.95c-0.04,0.04-0.09,0.07-0.14,0.08
					C153.62,115.06,152.38,115.29,150.73,115.29z"/>
			</g>
		</g>
	</g>
</g>
<g>
	<g>
		<g>
			<g>
				<path d="M96.59,124.31c-0.01,0-0.02,0-0.04,0l0-0.5c2.44,0.03,4.33-1.08,6.17-2.13c0.41-0.23,0.81-0.46,1.2-0.67
					c2.2-1.17,8.77-2.66,18.04-4.09c9.19-1.42,12.36-4.55,12.39-4.58c0.04-0.04,0.1-0.07,0.17-0.07l10.34-0.52l0.03,0.5l-10.25,0.52
					c-0.53,0.49-3.88,3.3-12.6,4.65c-9.22,1.42-15.73,2.89-17.88,4.03c-0.39,0.21-0.79,0.43-1.19,0.66
					C101.18,123.15,99.14,124.31,96.59,124.31z"/>
			</g>
		</g>
	</g>
</g>
<g>
	<g>
		<g>
			<g>
				<path d="M186.51,113.2c-0.53-7.02,1.9-13.53,1.92-13.59l0.47,0.18c-0.02,0.06-2.41,6.47-1.89,13.38L186.51,113.2z"/>
			</g>
		</g>
	</g>
</g>
<g>
	<g>
		<g>
			<g>
				<path d="M181.29,113.48c-0.01-5.2,2.82-13.78,2.85-13.86l0.47,0.16c-0.03,0.08-2.84,8.58-2.83,13.71L181.29,113.48z"/>
			</g>
		</g>
	</g>
</g>
<g>
	<g>
		<g>
			<g>
				<path d="M139.26,112.51l-0.25-0.43c0.16-0.09,15.59-8.92,21.73-11.57c6.16-2.66,19.23-3.78,19.36-3.79l0.04,0.5
					c-0.13,0.01-13.12,1.12-19.21,3.75C154.83,103.61,139.42,112.42,139.26,112.51z"/>
			</g>
		</g>
	</g>
</g>
<g>
	<g>
		<g>
			<g>
				<path d="M221.62,111.04c-0.01,0-0.01,0-0.01,0c-0.09,0-0.17-0.05-0.22-0.13l-6.27-10.94c-0.05-0.08-0.04-0.18,0.01-0.26
					c0.05-0.08,0.14-0.12,0.23-0.11c13.37,1.18,16.84,8.68,16.87,8.75c0.04,0.09,0.02,0.2-0.05,0.28
					C229.87,111,222.12,111.04,221.62,111.04z M215.79,100.15l5.96,10.39c1.07-0.01,7.77-0.17,9.94-2.13
					C231.13,107.36,227.41,101.32,215.79,100.15z"/>
			</g>
		</g>
	</g>
</g>
<g>
	<g>
		<g>
			<g>
				<path d="M246.55,130.13c-3.8,0-6.77-1.03-8.83-3.08c-3.73-3.69-3.17-9.29-3.14-9.53c0.01-0.13,0.12-0.22,0.25-0.22
					c1.68,0,5.59-1.84,5.62-1.86c0.1-0.05,0.22-0.02,0.3,0.06c0.46,0.52,3.33,1.03,5.04,1.23l-0.06,0.5
					c-0.45-0.05-4.19-0.51-5.21-1.27c-0.72,0.33-3.77,1.71-5.46,1.83c-0.06,1.06-0.14,5.78,3.02,8.91
					c2.45,2.43,6.26,3.35,11.32,2.75l0.06,0.5C248.44,130.07,247.47,130.13,246.55,130.13z"/>
			</g>
		</g>
	</g>
</g>
<g>
	<g>
		<g>
			<g>
				<path d="M244.23,116.76"/>
			</g>
		</g>
	</g>
</g>
<g>
	<g>
		<g>
			<g>
				<path d="M241.35,124.65c-1.69,0-3.74-0.67-6.13-2l0.24-0.44c3.28,1.82,5.95,2.37,7.74,1.57c1.6-0.71,1.97-2.26,1.97-2.27
					l0.49,0.11c-0.02,0.07-0.43,1.81-2.26,2.62C242.79,124.51,242.1,124.65,241.35,124.65z"/>
			</g>
		</g>
	</g>
</g>
<g>
	<g>
		<g>
			<g>
				<path d="M244.83,122.56c-1.2-2.05-0.86-5.67-0.84-5.82l0.5,0.05c0,0.04-0.34,3.61,0.78,5.52L244.83,122.56z"/>
			</g>
		</g>
	</g>
</g>
<g>
	<g>
		<g>
			<g>
				<path d="M242.11,122.59c-0.59,0-1.26-0.1-2.01-0.37c-2.71-0.98-5.23-1.66-5.26-1.67l0.13-0.48c0.03,0.01,2.56,0.69,5.3,1.68
					c2.57,0.93,4.12-0.32,4.19-0.38l0.32,0.38C244.72,121.8,243.76,122.59,242.11,122.59z"/>
			</g>
		</g>
	</g>
</g>
<g>
	<g>
		<g>
			<g>
				<path d="M240.36,122.17l-0.35-0.36c2.79-2.71,0.45-5.86,0.35-5.99l0.4-0.3C240.79,115.55,243.46,119.14,240.36,122.17z"/>
			</g>
		</g>
	</g>
</g>
<g>
	<g>
		<g>
			<g>
				<path d="M246.03,137.35c-2.11,0-4.23-1.64-4.33-1.72c-0.06-0.05-0.1-0.13-0.1-0.21c0-0.08,0.05-0.16,0.12-0.2
					c0.1-0.06,2.48-1.49,4.92-1.03c0.69,0.13,1.1,0.42,1.22,0.86c0.26,0.92-0.96,2.06-1.1,2.19c-0.04,0.03-0.08,0.05-0.13,0.06
					C246.44,137.34,246.24,137.35,246.03,137.35z M242.33,135.47c0.72,0.49,2.55,1.58,4.15,1.35c0.33-0.32,1.04-1.13,0.9-1.63
					c-0.07-0.24-0.35-0.41-0.83-0.5C244.82,134.35,243.05,135.1,242.33,135.47z"/>
			</g>
		</g>
	</g>
</g>
<g>
	<g>
		<g>
			<g>
				<path d="M208.53,145.09h-6.42c-0.05,0-0.1-0.02-0.15-0.05l-3.06-2.18l0.29-0.41l2.99,2.13h6.04l-0.33-1.89l0.49-0.09l0.38,2.18
					c0.01,0.07-0.01,0.15-0.05,0.2S208.61,145.09,208.53,145.09z"/>
			</g>
		</g>
	</g>
</g>
<g>
	<g>
		<g>
			<g>
				<path d="M147.46,144.71h-4.65c-0.14,0-0.25-0.11-0.25-0.25v-1.8h0.5v1.55h4.34l3.31-1.77l0.23,0.44l-3.37,1.8
					C147.54,144.7,147.5,144.71,147.46,144.71z"/>
			</g>
		</g>
	</g>
</g>
<g>
	<g>
		<g>
			<g>
				<path d="M208.07,141.57h-2.9c-0.04,0-0.07-0.01-0.1-0.02l-3.06-1.41c-0.08-0.04-0.13-0.11-0.14-0.19s0.02-0.17,0.08-0.22
					l3.14-2.86l0.34,0.37l-2.86,2.6l2.67,1.23h2.85V141.57z"/>
			</g>
		</g>
	</g>
</g>
<g>
	<g>
		<g>
			<g>
				<path d="M179.35,120.33h-5.34c-0.35,0-0.68-0.17-0.88-0.46c-0.2-0.29-0.25-0.65-0.13-0.98l0.57-1.54
					c0.17-0.48,0.61-0.8,1.12-0.83l5.63-0.36c0.35-0.02,0.68,0.13,0.89,0.41s0.26,0.64,0.13,0.97l-0.72,1.91
					C180.43,119.97,179.92,120.33,179.35,120.33z M180.4,116.65c-0.01,0-0.02,0-0.04,0l-5.63,0.36c-0.31,0.02-0.58,0.22-0.68,0.51
					l-0.57,1.54c-0.07,0.18-0.04,0.37,0.07,0.52c0.11,0.15,0.28,0.24,0.47,0.24h5.34c0.36,0,0.68-0.22,0.81-0.56l0.72-1.91
					c0,0,0,0,0,0c0.06-0.17,0.04-0.35-0.07-0.49C180.72,116.73,180.57,116.65,180.4,116.65z"/>
			</g>
		</g>
	</g>
</g>
<g>
	<g>
		<g>
			<g>
				<path d="M213.44,118.89h-5.58c-0.37,0-0.72-0.18-0.92-0.48c-0.2-0.29-0.24-0.64-0.11-0.96l0.59-1.54
					c0.18-0.47,0.64-0.8,1.16-0.83l5.89-0.36c0.38-0.02,0.72,0.14,0.93,0.43c0.2,0.28,0.25,0.63,0.12,0.95c0,0,0,0,0,0l-0.75,1.91
					C214.55,118.54,214.02,118.89,213.44,118.89z M214.53,115.22c-0.01,0-0.02,0-0.04,0l-5.89,0.36c-0.33,0.02-0.61,0.22-0.72,0.51
					l-0.59,1.54c-0.07,0.17-0.04,0.35,0.06,0.5c0.11,0.16,0.3,0.26,0.51,0.26h5.58c0.38,0,0.72-0.23,0.86-0.56l0.75-1.91
					c0.06-0.16,0.04-0.33-0.06-0.47C214.88,115.3,214.71,115.22,214.53,115.22z"/>
			</g>
		</g>
	</g>
</g>
<g>
	<g>
		<g>
			<g>
				<path d="M230.3,119.85h-4.92c-0.41,0-0.79-0.16-1.07-0.46c-0.28-0.3-0.42-0.69-0.4-1.09l0.19-3.18
					c0.05-0.85,0.76-1.51,1.61-1.51h5.11c0.46,0,0.9,0.2,1.2,0.54c0.3,0.34,0.44,0.8,0.38,1.26l0,0c-0.12,0.92-0.27,2.07-0.39,2.94
					C231.9,119.2,231.16,119.85,230.3,119.85z M225.71,114.1c-0.58,0-1.07,0.46-1.11,1.04l-0.19,3.18
					c-0.02,0.27,0.08,0.52,0.26,0.72c0.18,0.2,0.43,0.3,0.7,0.3h4.92c0.62,0,1.14-0.46,1.23-1.07c0.12-0.87,0.27-2.02,0.39-2.94
					c0.04-0.31-0.06-0.63-0.26-0.86c-0.21-0.24-0.51-0.37-0.83-0.37H225.71z"/>
			</g>
		</g>
	</g>
</g>
<g>
	<g>
		<g>
			<g>
				<path d="M214.76,111.63l-0.5-0.03c0.22-3.69-0.28-7.34-0.28-7.37l0.5-0.07C214.48,104.2,214.98,107.89,214.76,111.63z"/>
			</g>
		</g>
	</g>
</g>
<g>
	<g>
		<g>
			<g>
				<path d="M71.36,74.42c-5.47,0-10.34-0.6-12.68-2.94C55.79,68.61,46.45,57.9,47.3,41.04c-0.16-10.77,5.14-22.02,8.52-26.59
					c3.41-4.62,10.05-6.14,12.27-5.99c0.14,0,15.06,0.44,31.18,0.6l-0.01,0.5c-16.12-0.16-31.04-0.6-31.19-0.6
					c-2.05-0.15-8.59,1.39-11.84,5.79c-3.34,4.51-8.58,15.64-8.42,26.3c-0.84,16.68,8.39,27.24,11.24,30.09
					c3.47,3.48,13.58,2.9,21.7,2.43c2.07-0.12,4.03-0.23,5.79-0.28c2.78-0.08,8.08-0.04,12.39,0l0,0.5c-4.3-0.04-9.6-0.08-12.37,0
					c-1.75,0.05-3.7,0.16-5.77,0.28C77.66,74.24,74.41,74.42,71.36,74.42z"/>
			</g>
		</g>
	</g>
</g>
<g>
	<g>
		<g>
			<g>
				<path d="M132.41,74.24c-2.12,0-6.95-0.08-12.84-0.17c-4-0.06-8.47-0.14-12.85-0.19l0.01-0.5c4.38,0.06,8.85,0.13,12.85,0.19
					c6.86,0.11,12.27,0.2,13.64,0.17c0.81-0.02,2.5-0.09,4.63-0.19c7.86-0.36,22.49-1.02,29.33-0.42c2.97,0.26,6.12,0.25,9.38-0.04
					c4.14-0.35,7.03-1.02,7.05-1.02c1.62-0.82,8.7-0.92,14.34-0.85l0.32,0c0.3,0,1.41-1.03,2.26-1.99c0,0,0.58-1.07,1.54-6.83
					c2.47-14.61,1.05-32.3,0.54-36.24l-0.07-0.54c-0.45-3.45-1.39-10.63-1.75-11.46c-0.28-0.67-2.1-1.9-2.88-2.37
					c-5.41,0.66-14.04-0.76-14.12-0.77c-0.02,0-0.04-0.01-0.06-0.02c-3.22-1.47-6.43-1.28-9.54-1.09c-1.03,0.06-2.09,0.12-3.12,0.12
					c-1.06,0-3.69-0.05-7.33-0.11c-10.44-0.18-29.87-0.52-45.7-0.35c-3.54,0.04-7.25,0.05-11.02,0.03l0-0.5
					c3.77,0.02,7.48,0.01,11.02-0.03c15.84-0.17,35.28,0.17,45.72,0.35c3.64,0.06,6.27,0.11,7.33,0.11c1.02,0,2.07-0.06,3.09-0.12
					c3.16-0.19,6.43-0.38,9.75,1.12c0.59,0.09,8.87,1.41,14.04,0.75c0.05-0.01,0.11,0,0.16,0.03c0.28,0.17,2.75,1.68,3.15,2.65
					c0.35,0.82,1.11,6.42,1.79,11.59l0.07,0.54c0.52,3.95,1.94,21.71-0.54,36.38c-0.99,5.94-1.61,7-1.63,7.04
					c-0.48,0.54-1.99,2.19-2.66,2.19l-0.32,0c-7.78-0.09-12.94,0.21-14.17,0.82c-0.08,0.03-3,0.7-7.18,1.06
					c-3.28,0.29-6.47,0.3-9.46,0.04c-6.8-0.6-21.41,0.06-29.26,0.42c-2.14,0.1-3.83,0.17-4.65,0.19
					C133.04,74.24,132.76,74.24,132.41,74.24z"/>
			</g>
		</g>
	</g>
</g>
<g>
	<g>
		<g>
			<g>
				<path d="M176.34,73.43c-0.43-1.23-0.92-2.33-1.42-3.32c-1.88,0.16-18.82,1.58-27.57,1.23c-23.34,0.45-51.76-0.45-52.05-0.46
					c-0.11,0-0.21-0.08-0.24-0.19c-0.03-0.11,0.02-0.22,0.12-0.28c0.2-0.11,4.82-2.7,9.4-2.56c0.76-0.31,9.66-3.86,24.8-4.66
					c15.72-0.83,39.6-0.69,39.84-0.69c0.04,0,0.09,0.01,0.13,0.04c0.19,0.12,4.73,2.97,7.46,10.72L176.34,73.43z M96.3,70.4
					c5.21,0.15,30.17,0.83,51.06,0.43c8.48,0.35,24.64-0.98,27.31-1.21c-2.36-4.39-5.1-6.34-5.52-6.62
					c-1.48-0.01-24.46-0.12-39.73,0.69c-15.66,0.83-24.59,4.6-24.68,4.64c-0.03,0.01-0.07,0.02-0.11,0.02
					C101.33,68.24,97.86,69.66,96.3,70.4z"/>
			</g>
		</g>
	</g>
</g>
<g>
	<g>
		<g>
			<g>
				<path d="M101.98,70.82l-0.5-0.03c0.16-2.44,3.09-2.92,3.12-2.93l0.08,0.49C104.57,68.37,102.12,68.78,101.98,70.82z"/>
			</g>
		</g>
	</g>
</g>
<g>
	<g>
		<g>
			<g>
				<path d="M107.87,80.12c-7.12,0-10.54-9.25-10.58-9.35l0.47-0.17c0.04,0.1,3.62,9.82,11.02,8.97c0.07-0.6,0.07-2.98-3.24-7.13
					c-0.46,0.14-1.79,0.5-2.89,0.5c-1.47,0-2.05-2.09-2.08-2.18l0.48-0.13c0,0.02,0.5,1.81,1.59,1.81c1.25,0,2.89-0.52,2.91-0.52
					c0.1-0.03,0.21,0,0.27,0.08c4.16,5.16,3.44,7.76,3.41,7.87c-0.03,0.09-0.11,0.16-0.21,0.18
					C108.63,80.1,108.24,80.12,107.87,80.12z"/>
			</g>
		</g>
	</g>
</g>
<g>
	<g>
		<g>
			<g>
				<path d="M108.93,78.44c-3.29,0-5.12-1.34-5.92-2.14c-0.13-0.13-0.25-0.2-0.32-0.17c-0.21,0.08-0.41,0.74-0.46,1.31l-0.5-0.05
					c0.02-0.25,0.17-1.51,0.79-1.73c0.18-0.07,0.48-0.07,0.84,0.29c0.74,0.74,2.45,1.99,5.57,1.99V78.44z"/>
			</g>
		</g>
	</g>
</g>
<g>
	<g>
		<g>
			<g>
				<path d="M124.87,73.96c-0.01-0.03-0.06-0.34,0.2-0.7c0.41-0.55,1.31-0.9,2.69-1.05c2.32-0.24,5.07-0.08,5.99,0.85
					c0.25,0.25,0.36,0.55,0.33,0.88l-0.5-0.05c0.02-0.18-0.04-0.33-0.18-0.47c-0.67-0.68-3.02-0.97-5.58-0.7
					c-1.59,0.17-2.14,0.59-2.32,0.82c-0.15,0.19-0.13,0.33-0.13,0.34L124.87,73.96z"/>
			</g>
		</g>
	</g>
</g>
<g>
	<g>
		<g>
			<g>
				<path d="M170,73.58l-0.49-0.1c0.04-0.21,0.07-0.62-0.05-0.79c-0.03-0.05-0.07-0.07-0.13-0.08l-0.19-0.03
					c-0.69-0.12-2.31-0.39-4.74-0.33c-2.42,0.07-2.83,0.98-2.83,0.98l-0.47-0.17c0.04-0.13,0.52-1.23,3.29-1.31
					c2.46-0.07,4.12,0.21,4.83,0.33l0.18,0.03c0.19,0.03,0.35,0.13,0.46,0.29C170.16,72.81,170.02,73.51,170,73.58z"/>
			</g>
		</g>
	</g>
</g>
<g>
	<g>
		<g>
			<g>
				<path d="M176.94,70.19c-0.12,0-0.22-0.08-0.25-0.2c-0.37-1.98-4.42-7.03-4.46-7.08c-0.06-0.07-0.07-0.17-0.04-0.26
					c0.04-0.09,0.12-0.14,0.21-0.15c0.25-0.02,6.22-0.44,7.82,0.34c1.55,0.76,7.67,4.89,7.93,5.06c0.08,0.06,0.13,0.16,0.1,0.26
					s-0.1,0.18-0.2,0.19l-11.08,1.83C176.97,70.19,176.96,70.19,176.94,70.19z M172.93,62.96c0.92,1.18,3.68,4.81,4.21,6.69
					l10.23-1.69c-1.55-1.04-6.08-4.06-7.35-4.68C178.78,62.68,174.38,62.87,172.93,62.96z"/>
			</g>
		</g>
	</g>
</g>
<g>
	<g>
		<g>
			<g>
				<path d="M135.13,73.92c-0.36-6.18,1.66-10.85,1.68-10.9l0.46,0.2c-0.02,0.05-2,4.61-1.64,10.67L135.13,73.92z"/>
			</g>
		</g>
	</g>
</g>
<g>
	<g>
		<g>
			<g>
				<path d="M137.48,71.22c-0.38-4.17,0.99-8.19,1.01-8.23l0.47,0.16c-0.01,0.04-1.35,3.96-0.98,8.02L137.48,71.22z"/>
			</g>
		</g>
	</g>
</g>
<g>
	<g>
		<g>
			<g>
				<rect x="129.81" y="66.92" transform="matrix(0.3027 -0.9531 0.9531 0.3027 29.4548 174.5947)" width="8.49" height="0.5"/>
			</g>
		</g>
	</g>
</g>
<g>
	<g>
		<g>
			<g>
				<path d="M173.17,70c-0.31-3.4-4.45-7.03-4.49-7.06l0.33-0.38c0.18,0.15,4.33,3.8,4.66,7.4L173.17,70z"/>
			</g>
		</g>
	</g>
</g>
<g>
	<g>
		<g>
			<g>
				<path d="M165.15,20.47c-7.65,0-23.81-0.08-35.48-0.7c-15.13-0.8-24.04-4.35-24.8-4.66c-4.58,0.13-9.21-2.45-9.4-2.56
					c-0.1-0.06-0.15-0.17-0.12-0.28c0.03-0.11,0.12-0.19,0.24-0.19c0.28-0.01,28.71-0.91,52.06-0.46
					c8.74-0.36,25.68,1.07,27.55,1.23c0.5-0.99,0.99-2.09,1.42-3.32l0.47,0.17c-2.73,7.75-7.27,10.6-7.46,10.72
					c-0.04,0.02-0.08,0.04-0.13,0.04C169.44,20.46,167.81,20.47,165.15,20.47z M104.91,14.61c0.03,0,0.07,0.01,0.1,0.02
					c0.09,0.04,9.02,3.81,24.68,4.64c15.28,0.81,38.26,0.7,39.73,0.69c0.42-0.28,3.16-2.23,5.52-6.62
					c-2.67-0.23-18.82-1.56-27.3-1.21c-20.91-0.41-45.87,0.27-51.07,0.43C98.14,13.3,101.62,14.73,104.91,14.61
					C104.91,14.61,104.91,14.61,104.91,14.61z"/>
			</g>
		</g>
	</g>
</g>
<g>
	<g>
		<g>
			<g>
				<path d="M104.88,15.11c-0.03,0-2.96-0.49-3.12-2.93l0.5-0.03c0.14,2.04,2.59,2.45,2.7,2.47L104.88,15.11z"/>
			</g>
		</g>
	</g>
</g>
<g>
	<g>
		<g>
			<g>
				<path d="M98.04,12.36l-0.47-0.17c0.04-0.1,3.83-10.36,11.74-9.27c0.1,0.01,0.18,0.08,0.21,0.18c0.03,0.11,0.75,2.71-3.41,7.87
					c-0.06,0.08-0.17,0.11-0.27,0.08c-0.02-0.01-1.66-0.52-2.91-0.52c-1.09,0-1.59,1.79-1.59,1.81l-0.48-0.13
					c0.02-0.09,0.6-2.18,2.08-2.18c1.1,0,2.43,0.36,2.89,0.5c3.3-4.15,3.31-6.53,3.24-7.13C101.67,2.54,98.08,12.26,98.04,12.36z"/>
			</g>
		</g>
	</g>
</g>
<g>
	<g>
		<g>
			<g>
				<path d="M103,7.34c-0.08,0-0.14-0.01-0.2-0.04c-0.62-0.23-0.77-1.48-0.79-1.73l0.5-0.05c0.05,0.57,0.25,1.23,0.46,1.31
					c0.07,0.02,0.18-0.04,0.32-0.17c0.8-0.8,2.63-2.13,5.92-2.14v0.5c-3.11,0-4.82,1.25-5.56,1.99C103.39,7.26,103.17,7.34,103,7.34
					z"/>
			</g>
		</g>
	</g>
</g>
<g>
	<g>
		<g>
			<g>
				<path d="M129.95,10.85c-0.64,0-1.29-0.04-1.9-0.1c-1.38-0.15-2.29-0.5-2.69-1.05c-0.26-0.36-0.21-0.67-0.2-0.7l0.49,0.1
					l-0.25-0.05l0.25,0.04c0,0.01-0.02,0.15,0.13,0.34c0.19,0.24,0.74,0.66,2.32,0.82c2.56,0.27,4.91-0.03,5.58-0.7
					c0.14-0.15,0.2-0.29,0.18-0.47l0.5-0.05c0.04,0.32-0.08,0.63-0.33,0.88C133.36,10.58,131.7,10.85,129.95,10.85z"/>
			</g>
		</g>
	</g>
</g>
<g>
	<g>
		<g>
			<g>
				<path d="M165.45,11.22c-0.25,0-0.51,0-0.77-0.01c-2.77-0.08-3.24-1.18-3.29-1.31l0.47-0.17c0,0.01,0.41,0.92,2.83,0.98
					c2.43,0.07,4.04-0.21,4.74-0.33l0.19-0.03c0.06-0.01,0.09-0.03,0.13-0.08c0.12-0.18,0.1-0.58,0.05-0.79l0.49-0.1
					c0.02,0.08,0.15,0.77-0.13,1.18c-0.11,0.16-0.27,0.26-0.46,0.29l-0.18,0.03C168.88,10.99,167.49,11.22,165.45,11.22z"/>
			</g>
		</g>
	</g>
</g>
<g>
	<g>
		<g>
			<g>
				<path d="M176.35,20.6c-1.82,0-3.53-0.12-3.66-0.13c-0.09-0.01-0.17-0.06-0.21-0.15c-0.04-0.08-0.02-0.18,0.04-0.26
					c0.04-0.05,4.09-5.11,4.46-7.08c0.03-0.13,0.16-0.23,0.29-0.2l11.08,1.83c0.1,0.02,0.18,0.09,0.2,0.19s-0.02,0.2-0.1,0.26
					c-0.26,0.18-6.38,4.3-7.93,5.06C179.75,20.5,178,20.6,176.35,20.6z M173.2,20c1.46,0.09,5.85,0.28,7.09-0.32
					c1.26-0.62,5.8-3.64,7.35-4.68l-10.23-1.69C176.89,15.19,174.13,18.82,173.2,20z"/>
			</g>
		</g>
	</g>
</g>
<g>
	<g>
		<g>
			<g>
				<path d="M137.09,19.94c-0.02-0.05-2.05-4.72-1.68-10.9l0.5,0.03c-0.36,6.06,1.62,10.62,1.64,10.67L137.09,19.94z"/>
			</g>
		</g>
	</g>
</g>
<g>
	<g>
		<g>
			<g>
				<path d="M138.77,19.97c-0.01-0.04-1.39-4.06-1.01-8.23l0.5,0.05c-0.37,4.06,0.97,7.98,0.98,8.02L138.77,19.97z"/>
			</g>
		</g>
	</g>
</g>
<g>
	<g>
		<g>
			<g>
				<rect x="134.08" y="11.55" transform="matrix(0.953 -0.303 0.303 0.953 1.5275 41.4384)" width="0.5" height="8.49"/>
			</g>
		</g>
	</g>
</g>
<g>
	<g>
		<g>
			<g>
				<path d="M169.28,20.4l-0.33-0.38c0.04-0.04,4.18-3.67,4.49-7.06l0.5,0.05C173.61,16.6,169.46,20.25,169.28,20.4z"/>
			</g>
		</g>
	</g>
</g>
<g>
	<g>
		<g>
			<g>
				<path d="M51.36,25.51h-0.83v-0.5h0.69c0.6-0.98,4.71-7.7,5.66-9.31c0.29-0.5,0.38-0.89,0.25-1.12c-0.16-0.3-0.64-0.33-0.64-0.33
					l0.03-0.5c0.03,0,0.76,0.05,1.05,0.6c0.22,0.41,0.13,0.95-0.26,1.62c-1.02,1.73-5.69,9.36-5.73,9.44
					C51.53,25.47,51.45,25.51,51.36,25.51z"/>
			</g>
		</g>
	</g>
</g>
<g>
	<g>
		<g>
			<g>
				<path d="M56.85,69.24l-0.18-0.47c0.02-0.01,0.59-0.23,0.52-0.69c-0.12-0.52-3.74-6.08-6.01-9.5l-1.15-0.68l0.26-0.43l1.2,0.71
					c0.03,0.02,0.06,0.05,0.08,0.08c1,1.51,6,9.05,6.11,9.74C57.8,68.69,57.19,69.12,56.85,69.24z"/>
			</g>
		</g>
	</g>
</g>
<g>
	<g>
		<g>
			<g>
				<path d="M68.3,71.03c-7.6,0-9.3-2.54-11.41-5.67c-0.22-0.33-0.45-0.67-0.69-1.01c-0.28-0.4-0.58-0.81-0.89-1.23
					c-2.57-3.52-6.09-8.34-6.88-19.69c-0.69-9.94,2.38-18.8,9.38-27.08c4.73-5.59,12.61-4.45,12.69-4.43
					c0.05,0.01,0.09,0.03,0.13,0.06l2.06,1.83c0.08,0.07,0.11,0.19,0.06,0.29c-0.04,0.1-0.14,0.15-0.25,0.15
					c-8.53-0.83-10.01,1.8-11.73,4.84c-1.63,2.89-5.99,3.4-6.83,3.48c-3.89,6.47-5.54,13.35-5.02,20.84
					c0.61,8.81,2.8,13.51,5.01,16.9c0.8,0.09,5.19,0.7,6.73,3.32c1.47,2.53,3.24,4.9,6.15,5.14c2.85,0.24,5.66,0,5.69,0
					c0.12-0.01,0.2,0.05,0.25,0.14s0.03,0.21-0.04,0.28l-1.61,1.68c-0.04,0.05-0.1,0.07-0.17,0.08C69.99,71,69.11,71.03,68.3,71.03z
					 M54.32,60.85c0.48,0.7,0.95,1.35,1.4,1.97c0.31,0.42,0.61,0.83,0.89,1.24c0.24,0.34,0.47,0.68,0.69,1.02
					c2.23,3.32,4,5.95,13.51,5.37l1.09-1.15c-1.01,0.06-3.06,0.13-5.13-0.04c-3.15-0.26-5.07-2.87-6.54-5.39
					C59.02,61.78,55.64,61.06,54.32,60.85z M68.7,12.31c-2.53,0-7.28,0.56-10.49,4.36c-1.48,1.75-2.79,3.53-3.92,5.34
					c1.29-0.17,4.73-0.83,6.06-3.18c1.68-2.97,3.27-5.78,11.46-5.15l-1.44-1.28C70.16,12.37,69.56,12.31,68.7,12.31z"/>
			</g>
		</g>
	</g>
</g>
<g>
	<g>
		<g>
			<g>
				<path d="M94.88,68.31c-2.18,0-4.04-0.16-4.71-0.44c-0.12-0.06-9.8-5.15-17.71-7.79c-7.89-2.63-19.98-1.82-20.1-1.81l-0.04-0.5
					c0.12-0.01,12.32-0.83,20.3,1.83c7.95,2.65,17.67,7.76,17.77,7.81c1.3,0.55,9.2,0.62,12.72-0.49c0.36-0.11,0.77-0.25,1.24-0.4
					c4.02-1.32,11.51-3.78,23.5-5.02c10.5-1.08,31.27-0.84,41.26-0.73c2.78,0.03,4.79,0.06,5.54,0.04c3.61-0.08,5.39-0.2,6.44-2.16
					c1.16-2.16,2.18-13.63,1.73-23.95c-0.35-7.91-1.95-10.83-3.24-11.9c-0.55-0.46-1.14-0.64-1.75-0.55
					c-2.15,0.32-28.09,0.23-46.14-0.53c-12.23-0.52-18.98-2.55-24.93-4.35c-2.84-0.86-5.52-1.67-8.5-2.21
					c-5.77-1.05-8.72,0.54-13.19,2.94c-2.55,1.37-5.43,2.92-9.54,4.37c-11.23,3.95-23.1,2.77-23.21,2.75l0.05-0.5
					c0.12,0.01,11.87,1.18,23-2.73c4.07-1.43,6.94-2.97,9.47-4.34c4.39-2.37,7.57-4.08,13.51-3c3.01,0.55,5.7,1.36,8.56,2.22
					c5.93,1.79,12.64,3.82,24.81,4.33c17.6,0.74,43.96,0.85,46.04,0.54c0.75-0.11,1.48,0.12,2.14,0.66
					c1.37,1.13,3.07,4.17,3.42,12.26c0.45,10.39-0.6,21.99-1.79,24.21c-1.23,2.3-3.47,2.35-6.87,2.42
					c-0.77,0.02-2.78-0.01-5.56-0.04c-9.97-0.11-30.73-0.35-41.2,0.72c-11.93,1.23-19.39,3.68-23.4,4.99
					c-0.46,0.15-0.88,0.29-1.24,0.4C101.27,68.03,97.79,68.31,94.88,68.31z"/>
			</g>
		</g>
	</g>
</g>
<g>
	<g>
		<g>
			<g>
				<path d="M90.06,67.78c-0.09-0.13-8.83-13.1-7.53-28.82c1.29-15.72,7.76-23.76,7.82-23.84l0.39,0.32
					c-0.06,0.08-6.44,8.02-7.71,23.56c-1.28,15.55,7.36,28.37,7.45,28.5L90.06,67.78z"/>
			</g>
		</g>
	</g>
</g>
<g>
	<g>
		<g>
			<g>
				<path d="M94.56,67.41c-0.38,0-0.75-0.01-1.1-0.03c-3.9-0.22-4.58-5.32-5.43-11.78c-0.85-6.4-0.06-25.12,0.53-31.09
					c0.61-6.14,2.66-8.17,2.75-8.26c0.03-0.03,0.07-0.05,0.11-0.06c3.65-0.97,10.27-0.74,14.62,1.31c4.62,2.18,15.2,4.03,28.3,4.94
					c14.08,0.98,43.37,0.31,43.66,0.31l0.01,0.5c-0.29,0.01-29.6,0.68-43.71-0.31c-13.16-0.92-23.81-2.78-28.48-4.99
					c-4.22-1.99-10.63-2.23-14.21-1.3c-0.29,0.32-2.01,2.46-2.56,7.9c-0.6,5.95-1.38,24.61-0.54,30.97
					c0.83,6.23,1.48,11.16,4.96,11.35c3.96,0.22,10.02-0.85,14.73-2.61c4.55-1.7,17.02-4.6,34.86-4.68
					c16.69-0.08,34.75,0.23,34.93,0.23l-0.01,0.5c-0.18,0-18.22-0.3-34.92-0.23c-17.77,0.08-30.17,2.96-34.69,4.65
					C104.04,66.37,98.55,67.41,94.56,67.41z"/>
			</g>
		</g>
	</g>
</g>
<g>
	<g>
		<g>
			<g>
				<path d="M177.76,60.9c-1.51-15.55-0.24-38.67-0.23-38.9l0.5,0.03c-0.01,0.23-1.28,23.31,0.23,38.82L177.76,60.9z"/>
			</g>
		</g>
	</g>
</g>
<g>
	<g>
		<g>
			<g>
				<path d="M118.24,62.01c-4.91-24.42-0.04-40.96,0.01-41.13l0.48,0.14c-0.05,0.16-4.88,16.6,0.01,40.88L118.24,62.01z"/>
			</g>
		</g>
	</g>
</g>
<g>
	<g>
		<g>
			<g>
				<path d="M89.35,45.82c-1.08-6.5,0.61-19.94,0.63-20.08l0.5,0.06c-0.02,0.13-1.7,13.51-0.63,19.93L89.35,45.82z"/>
			</g>
		</g>
	</g>
</g>
<g>
	<g>
		<g>
			<g>
				<path d="M91.72,65.04c-2.63-5.49-3.21-17.31-3.23-17.81l0.5-0.02c0.01,0.12,0.6,12.22,3.19,17.62L91.72,65.04z"/>
			</g>
		</g>
	</g>
</g>
<g>
	<g>
		<g>
			<g>
				<path d="M89.5,56.74c0,0-2.43-6.57-3.14-8.46c-0.71-1.9-1.45-13.4-1.48-13.89c0-0.07,0.02-0.14,0.07-0.19
					c0.05-0.05,0.11-0.08,0.18-0.08h1.2c0.13,0,0.24,0.1,0.25,0.24c0.01,0.15,0.79,14.98,2.86,17.99l-0.41,0.28
					C87,49.69,86.2,36.63,86.09,34.63h-0.7c0.12,1.77,0.8,11.8,1.44,13.48c0.71,1.89,3.14,8.46,3.14,8.46L89.5,56.74z"/>
			</g>
		</g>
	</g>
</g>
<g>
	<g>
		<g>
			<g>
				<rect x="87.7" y="22.35" transform="matrix(0.9824 -0.1866 0.1866 0.9824 -3.9837 16.9288)" width="0.5" height="14.56"/>
			</g>
		</g>
	</g>
</g>
<g>
	<g>
		<g>
			<g>
				<rect x="88.24" y="20.49" transform="matrix(0.9851 -0.1722 0.1722 0.9851 -3.267 15.6344)" width="0.5" height="12.31"/>
			</g>
		</g>
	</g>
</g>
<g>
	<g>
		<g>
			<g>
				<path d="M192.53,67.39c-0.05,0-0.1,0-0.16,0c-3.71-0.13-11.95-6.85-12.3-7.14l0.32-0.39c0.08,0.07,8.46,6.9,12,7.02
					c3.72,0.15,5.86-4.69,6.32-7.76c0.49-3.28,1.84-20.79,0.99-29.06c-0.8-7.79-2.67-12.63-5.27-13.63
					c-2.3-0.87-9.15,2.61-14.45,6.48l-0.29-0.4c4.43-3.23,12.06-7.64,14.93-6.54c2.78,1.06,4.76,6.05,5.59,14.04
					c0.85,8.3-0.51,25.9-1,29.18C198.61,63.2,196.07,67.39,192.53,67.39z"/>
			</g>
		</g>
	</g>
</g>
<g>
	<g>
		<g>
			<g>
				<path d="M193.3,67.31l-0.17-0.47c5.36-1.97,4.82-20.79,4.46-33.24c-0.04-1.36-0.08-2.65-0.11-3.87
					c-0.29-12.41-4.28-13.42-4.32-13.43l0.1-0.49c0.18,0.04,4.41,1.01,4.72,13.91c0.03,1.21,0.07,2.51,0.11,3.86
					C198.48,46.94,199.01,65.21,193.3,67.31z"/>
			</g>
		</g>
	</g>
</g>
<g>
	<g>
		<g>
			<g>
				<path d="M183.8,72.52l-0.26-0.42c0.14-0.09,3.54-2.17,7.46-2.36c2.54-0.13,4.29-0.78,5.36-1.99c1-1.13,1.43-2.8,1.27-4.98
					c-0.01-0.13,0.08-0.24,0.21-0.26c2.94-0.51,2.94-0.51,3.78-8.26c0.81-7.49,0.18-26.37-0.46-30.59
					c-0.21-1.38-0.68-2.31-1.42-2.78c-0.79-0.51-1.6-0.28-1.61-0.28c-0.07,0.02-0.14,0.01-0.2-0.03c-0.06-0.04-0.1-0.1-0.12-0.16
					c-0.24-1.19-0.69-4.44-0.71-4.57c-0.33-1.01-3.27-2.67-7.09-2.89c-3.99-0.23-6.24-1.89-6.34-1.96l0.3-0.4
					c0.02,0.02,2.24,1.64,6.07,1.86c3.89,0.23,7.1,1.91,7.54,3.28c0.01,0.07,0.42,3.02,0.67,4.34c0.37-0.05,1.07-0.05,1.75,0.39
					c0.86,0.55,1.41,1.6,1.64,3.13c0.66,4.35,1.29,23.02,0.46,30.71c-0.83,7.65-0.88,8.11-3.97,8.66c0.12,2.2-0.36,3.93-1.41,5.12
					c-1.16,1.31-3.03,2.02-5.71,2.15C187.23,70.42,183.83,72.5,183.8,72.52z"/>
			</g>
		</g>
	</g>
</g>
<g>
	<g>
		<g>
			<g>
				<path d="M196.35,71.65l-0.29-0.41c2.36-1.68,0.92-3.93,0.85-4.03l0.42-0.28C197.35,66.97,199.11,69.68,196.35,71.65z"/>
			</g>
		</g>
	</g>
</g>
<g>
	<g>
		<g>
			<g>
				<path d="M197.59,15.86l-0.48-0.12c0.71-2.77-0.96-3.79-1.03-3.83l0.25-0.43C196.41,11.52,198.39,12.7,197.59,15.86z"/>
			</g>
		</g>
	</g>
</g>
<g>
	<g>
		<g>
			<g>
				<path d="M70.69,154.53c-0.71,0-1.41-0.01-1.92-0.03c-1.64-0.08-2.24-1-2.26-1.04c-0.03-0.04-0.04-0.09-0.04-0.13v-7.3
					l-4.78,0.36c-0.08,0.01-0.16-0.03-0.21-0.09l-2.3-2.71c-0.47,0.75-1.76,2.57-3.18,2.57c-0.7,0-5.15,0.01-10.19,0.03
					c-6.57,0.02-14.15,0.05-15.71,0.05c-2.3,0-3.52-1.95-3.95-2.82l-1.96,2.64c-0.04,0.06-0.11,0.1-0.19,0.1
					c-1.24,0.07-3.99-0.24-4.88-0.35v7.13c0,0.28-0.12,0.54-0.37,0.75c-1.12,0.97-4.65,0.84-5.5,0.72
					c-1.59-0.23-2.43-0.81-2.35-1.65c0.06-0.65-0.37-21.32-0.61-32.15l0,0c-0.07-3.06,2.31-5.64,3.45-6.87
					c0.18-0.19,0.32-0.35,0.43-0.48c0.7-0.84,2.63-5.51,4.08-9.48c1.43-3.9,3.68-6.04,7.06-6.73c3.38-0.69,26.03-0.7,28.36-0.44
					c0.55,0.06,1.27,0.07,2.11,0.09c2.63,0.04,6.23,0.1,8.27,1.78c1.94,1.6,4.25,7.69,5.63,11.34c0.46,1.22,0.86,2.27,0.99,2.44
					c0.08,0.1,0.23,0.3,0.43,0.55c1.99,2.54,4.25,5.64,4.13,7.06c-0.16,1.8-0.53,32.27-0.53,32.54c0,0.67-0.87,1.85-0.97,1.99
					c-0.05,0.06-0.12,0.1-0.19,0.1C73.51,154.49,72.09,154.53,70.69,154.53z M66.98,153.24c0.14,0.17,0.66,0.7,1.83,0.75
					c1.33,0.06,4,0.01,4.6,0c0.33-0.47,0.8-1.23,0.8-1.59c0-0.26,0.38-30.77,0.54-32.58c0.12-1.41-3-5.4-4.03-6.71
					c-0.21-0.26-0.36-0.46-0.44-0.57c-0.16-0.22-0.45-0.99-1.05-2.56c-1.27-3.36-3.65-9.62-5.48-11.13c-1.9-1.56-5.4-1.62-7.96-1.67
					c-0.85-0.01-1.58-0.03-2.15-0.09c-2.31-0.26-24.84-0.26-28.2,0.43c-3.2,0.65-5.33,2.69-6.69,6.41
					c-1.05,2.86-3.28,8.55-4.17,9.63c-0.11,0.13-0.26,0.29-0.44,0.49c-1.1,1.19-3.38,3.66-3.32,6.52l0,0
					c0.03,1.28,0.69,31.36,0.61,32.21c-0.07,0.74,1.32,1.02,1.93,1.11c1.1,0.16,4.24,0.14,5.1-0.61c0.13-0.12,0.19-0.23,0.19-0.37
					v-7.41c0-0.07,0.03-0.14,0.08-0.19c0.05-0.05,0.12-0.07,0.2-0.06c0.04,0,3.47,0.42,4.96,0.39l2.15-2.89
					c0.06-0.07,0.15-0.11,0.24-0.1c0.09,0.01,0.17,0.07,0.2,0.16c0.01,0.03,1.12,2.9,3.66,2.9c1.56,0,9.13-0.02,15.71-0.05
					c5.04-0.02,9.49-0.03,10.19-0.03c1.45,0,2.91-2.6,2.93-2.62c0.04-0.07,0.11-0.12,0.19-0.13c0.08-0.01,0.16,0.02,0.21,0.09
					l2.44,2.88l4.92-0.37c0.07-0.01,0.14,0.02,0.19,0.07c0.05,0.05,0.08,0.11,0.08,0.18V153.24z"/>
			</g>
		</g>
	</g>
</g>
<g>
	<g>
		<g>
			<g>
				<path d="M62.52,143.55c-0.07,0-0.13-0.03-0.18-0.07c-0.81-0.8-2.27-2.11-2.78-2.21c-0.5-0.08-10.69-0.04-18.88-0.01
					c-6.53,0.03-12.18,0.05-13.19,0.02c-2.23-0.09-4.3,2.04-4.32,2.06c-0.04,0.04-0.09,0.07-0.15,0.07c-0.03,0-2.59,0.31-6.39,0
					c-3.87-0.31-5.76-2.13-5.84-2.21l0.35-0.36c0.02,0.02,1.86,1.77,5.53,2.07c3.37,0.27,5.74,0.06,6.21,0.01
					c0.38-0.37,2.31-2.15,4.5-2.15c0.04,0,0.09,0,0.13,0c1,0.03,6.91,0.01,13.17-0.02c10.84-0.04,18.54-0.07,18.98,0.02
					c0.75,0.15,2.52,1.85,2.96,2.27c0.9-0.02,7.24-0.15,8.42-0.36c1.22-0.22,3.38-1.9,3.4-1.92l0.31,0.39
					c-0.09,0.07-2.28,1.78-3.62,2.02C69.82,143.41,62.82,143.54,62.52,143.55C62.53,143.55,62.52,143.55,62.52,143.55z"/>
			</g>
		</g>
	</g>
</g>
<g>
	<g>
		<g>
			<g>
				<path d="M66.76,146.01l-0.07-0.5c0.06-0.01,6.27-0.92,7.68-2.73l0.39,0.31C73.24,145.05,67.03,145.97,66.76,146.01z"/>
			</g>
		</g>
	</g>
</g>
<g>
	<g>
		<g>
			<g>
				<path d="M18.56,145.78c-5.31,0-7.63-2.57-7.73-2.69l0.38-0.33c0.02,0.03,2.36,2.62,7.67,2.51l0.01,0.5
					C18.77,145.78,18.67,145.78,18.56,145.78z"/>
			</g>
		</g>
	</g>
</g>
<g>
	<g>
		<g>
			<g>
				<path d="M39,131.5c-3.07,0-5.77-0.04-7.08-0.17c-3.23-0.32-3.69-2.6-4.4-6.04c-0.19-0.94-0.41-2.01-0.71-3.16
					c-1.32-5.08-10.14-7.82-10.23-7.85c-0.11-0.03-0.18-0.13-0.18-0.24v-1.63c0-0.04,0.01-0.07,0.02-0.1l4.93-10.89
					c-0.06-0.2-0.14-0.64,0.07-1.02c0.17-0.31,0.48-0.5,0.92-0.59l41.01,0c0.04,0,0.07,0.01,0.1,0.02c0.77,0.35,0.76,1.14,0.62,1.59
					l5.31,11.22c0.03,0.05,0.03,0.11,0.02,0.17l-0.38,1.45c-0.02,0.09-0.1,0.16-0.19,0.18c-5.84,1.23-9.74,4.9-10.43,9.8
					c-0.79,5.6-3.41,7.09-4.83,7.09c-0.24,0-0.97,0.01-2.05,0.03C48.63,131.41,43.43,131.5,39,131.5z M16.91,113.85
					C18.23,114.28,26,117,27.3,122c0.3,1.16,0.52,2.24,0.72,3.19c0.71,3.46,1.1,5.37,3.96,5.65c3.17,0.31,14.65,0.11,19.55,0.03
					c1.08-0.02,1.82-0.03,2.06-0.03c1.18,0,3.6-1.39,4.34-6.66c0.71-5.08,4.7-8.88,10.67-10.19l0.32-1.22l-5.31-11.23
					c-0.03-0.06-0.03-0.13-0.01-0.2c0.03-0.08,0.26-0.75-0.28-1.04H22.39c-0.24,0.05-0.43,0.16-0.52,0.33
					c-0.16,0.29-0.01,0.7-0.01,0.7c0.03,0.06,0.02,0.13,0,0.2l-4.95,10.93V113.85z"/>
			</g>
		</g>
	</g>
</g>
<g>
	<g>
		<g>
			<g>
				<path d="M21.64,101.68l-0.02-0.5c0.3-0.01,30.65-1.36,42.23,0l-0.06,0.5C52.25,100.32,21.95,101.66,21.64,101.68z"/>
			</g>
		</g>
	</g>
</g>
<g>
	<g>
		<g>
			<g>
				<path d="M58.12,124.45c-14.23-2.94-30.35-0.04-30.52-0.01l-0.09-0.49c0.16-0.03,16.38-2.95,30.71,0.01L58.12,124.45z"/>
			</g>
		</g>
	</g>
</g>
<g>
	<g>
		<g>
			<g>
				<path d="M38.88,130.32c-2.81,0-5.24-0.03-6.34-0.14c-3.4-0.32-4.78-3.93-4.84-4.08l0.47-0.17c0.01,0.03,1.33,3.47,4.42,3.76
					c2.61,0.24,12.76,0.1,17.63,0.03c1.23-0.02,2.12-0.03,2.45-0.03c1.41,0,3.86-2.08,4.94-3.8l0.42,0.27
					c-1.06,1.69-3.61,4.04-5.36,4.04c-0.33,0-1.21,0.01-2.44,0.03C47.39,130.26,42.77,130.32,38.88,130.32z"/>
			</g>
		</g>
	</g>
</g>
<g>
	<g>
		<g>
			<g>
				<path d="M10.79,122.94l-0.49-0.12c1.3-5.33,6.01-8.83,6.21-8.98c0.04-0.03,0.09-0.05,0.15-0.05c0,0,0,0,0,0l52.13,0.15
					c0.05,0,0.1,0.02,0.14,0.05c0.21,0.15,5.1,3.65,6.2,8.84l-0.49,0.1c-0.99-4.68-5.36-8.06-5.94-8.49l-51.96-0.15
					C16.18,114.73,11.97,118.12,10.79,122.94z"/>
			</g>
		</g>
	</g>
</g>
<g>
	<g>
		<g>
			<g>
				<path d="M32.79,141.27c-3.01-1.02-3.57-4.42-3.67-5.35c-18.07-0.23-18.71-10.31-18.72-10.41l0.5-0.02
					c0,0.1,0.66,9.79,18.45,9.94c0.13,0,0.24,0.11,0.25,0.24c0,0.04,0.19,4.07,3.35,5.13L32.79,141.27z"/>
			</g>
		</g>
	</g>
</g>
<g>
	<g>
		<g>
			<g>
				<path d="M52.97,141.27l-0.16-0.47c2.86-0.99,2.95-5.09,2.95-5.13c0-0.13,0.11-0.24,0.24-0.25c7.71-0.24,13.35-2.1,16.34-5.38
					c2.39-2.63,2.26-5.26,2.26-5.29l0.5-0.03c0.01,0.12,0.15,2.87-2.39,5.66c-3.09,3.39-8.63,5.25-16.46,5.53
					C56.19,136.86,55.77,140.3,52.97,141.27z"/>
			</g>
		</g>
	</g>
</g>
<g>
	<g>
		<g>
			<g>
				<path d="M49.3,140.2H36.23c-0.14,0-0.25-0.11-0.25-0.25v-7.06c0-0.14,0.11-0.25,0.25-0.25H49.3c0.14,0,0.25,0.11,0.25,0.25v7.06
					C49.55,140.09,49.44,140.2,49.3,140.2z M36.48,139.7h12.57v-6.56H36.48V139.7z"/>
			</g>
		</g>
	</g>
</g>
<g>
	<g>
		<g>
			<g>
				<path d="M53.81,139.21H49.3v-0.5h4.34l0.64-1.64H49.3v-0.5h5.35c0.08,0,0.16,0.04,0.21,0.11c0.05,0.07,0.06,0.15,0.03,0.23
					l-0.84,2.14C54,139.14,53.91,139.21,53.81,139.21z"/>
			</g>
		</g>
	</g>
</g>
<g>
	<g>
		<g>
			<g>
				<path d="M36.23,139.21h-4.81c-0.11,0-0.2-0.07-0.24-0.17l-0.77-2.14c-0.03-0.08-0.02-0.16,0.03-0.23
					c0.05-0.07,0.12-0.11,0.2-0.11h5.58v0.5H31l0.59,1.64h4.63V139.21z"/>
			</g>
		</g>
	</g>
</g>
<g>
	<g>
		<g>
			<g>
				<path d="M21.78,129.42c-5.8,0-7.76-1.5-8.37-2.23c-0.4-0.48-0.73-3.4-0.82-4.29c-0.01-0.13,0.08-0.25,0.2-0.27
					c0.25-0.04,6.14-1.1,9.37,0.01c3.34,1.14,3.31,6.17,3.3,6.38c0,0.13-0.1,0.23-0.23,0.25C23.96,129.38,22.81,129.42,21.78,129.42
					z M13.11,123.08c0.18,1.68,0.49,3.55,0.68,3.79c0.66,0.79,3.08,2.55,11.17,1.92c-0.03-0.97-0.34-4.78-2.96-5.68
					C19.24,122.17,14.24,122.9,13.11,123.08z"/>
			</g>
		</g>
	</g>
</g>
<g>
	<g>
		<g>
			<g>
				<path d="M63.97,129.13c-1.03,0-2.18-0.05-3.46-0.15c-0.13-0.01-0.23-0.12-0.23-0.25c0-0.21-0.04-5.24,3.3-6.38
					c3.23-1.11,9.12-0.06,9.37-0.01c0.13,0.02,0.22,0.14,0.2,0.27c-0.09,0.89-0.42,3.81-0.82,4.29
					C71.73,127.64,69.77,129.13,63.97,129.13z M60.79,128.5c8.1,0.64,10.51-1.12,11.17-1.92c0.2-0.24,0.5-2.1,0.68-3.79
					c-1.13-0.18-6.13-0.91-8.89,0.03C61.13,123.72,60.82,127.53,60.79,128.5z"/>
			</g>
		</g>
	</g>
</g>
<g>
	<g>
		<g>
			<g>
				<path d="M23.47,140.81C23.46,140.81,23.46,140.81,23.47,140.81c-0.68-0.02-6.66-0.17-7.67-0.63c-1.05-0.48-2.21-4.81-2.43-5.67
					c-0.02-0.08,0-0.17,0.06-0.23c0.06-0.06,0.14-0.09,0.22-0.08c6.14,0.89,10.47,2.88,10.68,3.62c0.17,0.58-0.48,2.46-0.62,2.83
					C23.66,140.74,23.57,140.81,23.47,140.81z M13.94,134.75c0.55,2.02,1.48,4.71,2.06,4.97c0.75,0.35,5.35,0.53,7.29,0.58
					c0.29-0.85,0.63-2.05,0.55-2.35C23.64,137.58,20.1,135.69,13.94,134.75z"/>
			</g>
		</g>
	</g>
</g>
<g>
	<g>
		<g>
			<g>
				<path d="M62.11,140.81c-0.11,0-0.2-0.07-0.24-0.17c-0.13-0.37-0.78-2.24-0.62-2.83c0.21-0.74,4.54-2.73,10.68-3.62
					c0.09-0.01,0.17,0.02,0.22,0.08c0.06,0.06,0.08,0.15,0.06,0.23c-0.22,0.86-1.38,5.18-2.43,5.67
					C68.77,140.64,62.8,140.79,62.11,140.81C62.12,140.81,62.11,140.81,62.11,140.81z M71.63,134.75c-6.16,0.94-9.69,2.83-9.9,3.22
					c-0.08,0.29,0.26,1.48,0.55,2.34c1.94-0.05,6.53-0.24,7.29-0.58C70.15,139.46,71.09,136.77,71.63,134.75z"/>
			</g>
		</g>
	</g>
</g>
<g>
	<g>
		<g>
			<g>
				<rect x="18.58" y="114.5" width="48.15" height="0.5"/>
			</g>
		</g>
	</g>
</g>
<g>
	<g>
		<g>
			<g>
				<path d="M48.38,114.27c-11.17-3.9-22.19-0.04-22.3,0l-0.17-0.47c0.11-0.04,11.3-3.96,22.64,0L48.38,114.27z"/>
			</g>
		</g>
	</g>
</g>
<g>
	<g>
		<g>
			<g>
				<path d="M67.27,114.43c-13.75-3.69-22.15-0.2-22.23-0.16l-0.2-0.46c0.09-0.04,8.65-3.59,22.56,0.14L67.27,114.43z"/>
			</g>
		</g>
	</g>
</g>
<g>
	<g>
		<g>
			<g>
				<path d="M11.65,116.59c-0.3-0.58-0.99-0.62-2.4-0.64c-0.46-0.01-0.98-0.01-1.55-0.05c-1.4-0.09-2.54-1.21-3.14-2.23
					c-0.61-1.04-0.77-2.09-0.44-2.8c0.73-1.54,6.9-0.9,8.13-0.75c0.1,0.01,0.19,0.09,0.21,0.19c0.01,0.02,0.6,2.53,1.96,2.87
					l-0.12,0.49c-1.44-0.36-2.11-2.45-2.28-3.07c-2.72-0.3-7.01-0.43-7.45,0.49c-0.26,0.55-0.1,1.44,0.42,2.33
					c0.53,0.91,1.53,1.91,2.74,1.99c0.56,0.04,1.07,0.04,1.52,0.05c1.39,0.02,2.4,0.03,2.84,0.91L11.65,116.59z"/>
			</g>
		</g>
	</g>
</g>
<g>
	<g>
		<g>
			<g>
				<path d="M12.99,114.93c-1.81-1.89-1.04-4.52-1-4.63l0.48,0.15c-0.01,0.02-0.72,2.47,0.89,4.14L12.99,114.93z"/>
			</g>
		</g>
	</g>
</g>
<g>
	<g>
		<g>
			<g>
				<path d="M4.91,113.38l-0.49-0.08c0.01-0.04,0.71-3.9,5.85-3.34l-0.05,0.5C5.55,109.94,4.94,113.23,4.91,113.38z"/>
			</g>
		</g>
	</g>
</g>
<g>
	<g>
		<g>
			<g>
				<path d="M73.93,116.62l-0.45-0.23c0.45-0.88,1.45-0.89,2.84-0.91c0.46-0.01,0.96-0.01,1.52-0.05c1.21-0.08,2.21-1.08,2.74-1.99
					c0.52-0.88,0.68-1.78,0.42-2.33c-0.44-0.92-4.72-0.79-7.45-0.49c-0.17,0.62-0.84,2.71-2.28,3.07l-0.12-0.49
					c1.36-0.34,1.95-2.85,1.96-2.87c0.02-0.1,0.11-0.18,0.21-0.19c1.23-0.14,7.4-0.78,8.13,0.75c0.34,0.71,0.17,1.76-0.44,2.8
					c-0.6,1.02-1.74,2.14-3.14,2.23c-0.57,0.04-1.08,0.04-1.55,0.05C74.92,116,74.22,116.04,73.93,116.62z"/>
			</g>
		</g>
	</g>
</g>
<g>
	<g>
		<g>
			<g>
				<path d="M72.59,114.96l-0.36-0.35c1.61-1.67,0.89-4.12,0.89-4.14l0.48-0.15C73.63,110.44,74.4,113.07,72.59,114.96z"/>
			</g>
		</g>
	</g>
</g>
<g>
	<g>
		<g>
			<g>
				<path d="M80.67,113.41c-0.02-0.14-0.63-3.43-5.3-2.93l-0.05-0.5c5.13-0.56,5.84,3.3,5.85,3.34L80.67,113.41z"/>
			</g>
		</g>
	</g>
</g>
<g>
	<g>
		<g>
			<g>
				<path d="M18.46,213.86c-6.18,0-7.73-3.83-8.76-7.81c-1-3.86-0.73-8.45-0.5-12.5c0.04-0.66,0.08-1.31,0.11-1.94
					c0.23-4.57,3.08-8.31,3.26-8.54c0.3-0.44,1.07-2.71,1.82-4.9c0.44-1.29,0.89-2.62,1.28-3.67c1.21-3.29,4.35-7.52,9.2-8.64
					c4.9-1.13,28.69-0.97,35.94,0c7.36,0.98,10,10.65,10.45,12.57c0.44,1.86,1.84,4.37,2.97,6.39c0.43,0.76,0.79,1.42,1.07,1.97
					c1.02,2.03,1.48,10.92,1.4,13.42c0,0.11-0.38,10.68-5.12,12.68c-4.03,1.7-7.32,0.37-7.46,0.31c-0.08-0.03-0.13-0.1-0.15-0.18
					c0-0.02-0.52-2.46-1.82-2.87c-0.86-0.27-2.12,0.09-3.12,0.38c-0.59,0.17-1.11,0.32-1.47,0.32H29.27c-0.55,0-1.08-0.13-1.75-0.3
					c-0.68-0.17-1.52-0.39-2.72-0.54c-2.15-0.28-4,3.56-4.02,3.6c-0.04,0.08-0.11,0.13-0.2,0.14
					C19.82,213.82,19.11,213.86,18.46,213.86z M41.09,165.57c-7.14,0-13.84,0.24-16.12,0.76c-4.66,1.07-7.67,5.16-8.84,8.33
					c-0.38,1.04-0.84,2.38-1.28,3.66c-0.83,2.44-1.55,4.55-1.89,5.03c0,0-0.01,0.01-0.01,0.01c-0.03,0.04-2.94,3.82-3.16,8.27
					c-0.03,0.64-0.07,1.29-0.11,1.95c-0.23,4.02-0.5,8.57,0.48,12.35c1.12,4.34,2.75,8.15,10.22,7.32c0.36-0.71,2.17-4.07,4.48-3.76
					c1.22,0.16,2.08,0.38,2.78,0.55c0.66,0.17,1.13,0.29,1.62,0.29h28.28c0.29,0,0.79-0.15,1.33-0.3c1.07-0.31,2.4-0.7,3.41-0.38
					c1.39,0.44,1.99,2.54,2.13,3.11c0.61,0.21,3.54,1.1,6.95-0.35c3.69-1.56,4.73-9.36,4.82-12.24c0.07-2.39-0.39-11.25-1.35-13.18
					c-0.27-0.53-0.63-1.19-1.05-1.95c-1.14-2.04-2.56-4.59-3.02-6.52c-0.44-1.87-2.99-11.25-10.03-12.19
					C57.08,165.85,48.83,165.57,41.09,165.57z"/>
			</g>
		</g>
	</g>
</g>
<g>
	<g>
		<g>
			<g>
				<path d="M20.73,195c-4.41,0-8.28-2-8.46-2.09c-0.08-0.04-0.13-0.13-0.13-0.22v-5.58c0-0.05,0.01-0.1,0.04-0.14
					c0.08-0.12,1.95-2.87,5.12-2.63c3.03,0.23,8.75,0.99,8.8,1c0.11,0.02,0.2,0.1,0.21,0.22c0.03,0.21,0.63,5.28-1.44,7.9
					c-0.68,0.86-1.59,1.36-2.68,1.48C21.7,194.98,21.21,195,20.73,195z M12.63,192.53c0.81,0.39,5.13,2.36,9.51,1.89
					c0.96-0.1,1.75-0.54,2.34-1.29c1.72-2.18,1.44-6.39,1.35-7.33c-1.03-0.14-5.88-0.76-8.58-0.97c-2.64-0.21-4.34,1.96-4.62,2.35
					V192.53z"/>
			</g>
		</g>
	</g>
</g>
<g>
	<g>
		<g>
			<g>
				<path d="M16.59,192.56c-0.08,0-0.15-0.04-0.2-0.1c-1.25-1.64-1.64-5.98-1.66-6.17c-0.01-0.07,0.02-0.14,0.07-0.2
					c0.05-0.05,0.12-0.08,0.19-0.08c0.09,0,9,0.46,11.19,0.69l-0.05,0.5c-1.95-0.21-9.31-0.59-10.87-0.67
					c0.11,0.97,0.52,4.16,1.45,5.52l5.37-0.11l0.01,0.5L16.59,192.56C16.59,192.56,16.59,192.56,16.59,192.56z"/>
			</g>
		</g>
	</g>
</g>
<g>
	<g>
		<g>
			<g>
				<path d="M23.85,194.17c-4.06-2.74-3.91-7.59-3.91-7.64l0.5,0.02c0,0.05-0.13,4.62,3.69,7.2L23.85,194.17z"/>
			</g>
		</g>
	</g>
</g>
<g>
	<g>
		<g>
			<g>
				<polygon points="14.79,186.43 14.01,185.57 14.39,185.23 15.17,186.1 				"/>
			</g>
		</g>
	</g>
</g>
<g>
	<g>
		<g>
			<g>
				<path d="M64.62,194.8c-0.48,0-0.97-0.02-1.46-0.08c-1.1-0.12-2-0.62-2.68-1.48c-2.07-2.61-1.46-7.68-1.44-7.9
					c0.01-0.11,0.1-0.2,0.21-0.22c0.06-0.01,5.77-0.77,8.8-1c3.17-0.24,5.04,2.52,5.12,2.63c0.03,0.04,0.04,0.09,0.04,0.14v5.58
					c0,0.09-0.05,0.18-0.13,0.22C72.9,192.8,69.03,194.8,64.62,194.8z M59.51,185.6c-0.09,0.94-0.37,5.16,1.35,7.33
					c0.6,0.75,1.39,1.19,2.34,1.29c4.39,0.47,8.7-1.5,9.51-1.89v-5.35c-0.29-0.39-1.98-2.55-4.62-2.35
					C65.39,184.84,60.54,185.47,59.51,185.6z"/>
			</g>
		</g>
	</g>
</g>
<g>
	<g>
		<g>
			<g>
				<path d="M68.76,192.36C68.76,192.36,68.76,192.36,68.76,192.36l-5.5-0.12l0.01-0.5l5.37,0.11c0.94-1.36,1.35-4.55,1.45-5.52
					c-1.56,0.08-8.92,0.46-10.87,0.67l-0.05-0.5c2.18-0.23,11.1-0.68,11.19-0.69c0.06-0.01,0.14,0.02,0.19,0.08
					c0.05,0.05,0.08,0.12,0.07,0.2c-0.02,0.18-0.4,4.52-1.65,6.17C68.91,192.32,68.84,192.36,68.76,192.36z"/>
			</g>
		</g>
	</g>
</g>
<g>
	<g>
		<g>
			<g>
				<path d="M61.5,193.98l-0.28-0.41c3.82-2.58,3.69-7.16,3.69-7.2l0.5-0.02C65.41,186.39,65.56,191.23,61.5,193.98z"/>
			</g>
		</g>
	</g>
</g>
<g>
	<g>
		<g>
			<g>
				<rect x="70.17" y="185.38" transform="matrix(0.67 -0.7423 0.7423 0.67 -114.4539 113.7751)" width="1.17" height="0.5"/>
			</g>
		</g>
	</g>
</g>
<g>
	<g>
		<g>
			<g>
				<path d="M66.08,200.12h-46.8c-6.02,0-7.13-7.33-7.14-7.4l0.5-0.07c0.01,0.07,1.06,6.97,6.64,6.97h46.8
					c2.77,0,6.64-2.71,6.64-7.13h0.5C73.21,197.22,69.06,200.12,66.08,200.12z"/>
			</g>
		</g>
	</g>
</g>
<g>
	<g>
		<g>
			<g>
				<path d="M39.51,194.82c-2.08,0-3.87-0.01-4.66-0.02c-2.54-0.05-3.85-6.31-3.91-6.57c0,0,0,0,0,0c0,0-0.16-0.46,0.13-0.88
					c0.3-0.43,0.93-0.64,1.87-0.64c0.51,0,1.75,0,3.36-0.01c5.62-0.02,15.02-0.05,16.14,0.01c1.59,0.08,2.11,1.33,2.13,1.38
					c0.02,0.05,0.02,0.1,0.01,0.14c-1.02,4.85-3.08,6.57-4.52,6.57c-0.34,0-1.15,0-2.24,0.01C45.6,194.81,42.29,194.82,39.51,194.82
					z M47.23,187.17c-3.48,0-7.94,0.02-10.92,0.02c-1.62,0.01-2.85,0.01-3.36,0.01c-0.75,0-1.27,0.15-1.46,0.43
					c-0.15,0.21-0.07,0.45-0.06,0.46c0.36,1.74,1.66,6.17,3.44,6.21c1.84,0.04,9.08,0.02,12.97,0.01c1.09,0,1.9-0.01,2.24-0.01
					c1.35,0,3.11-1.88,4.02-6.09c-0.12-0.22-0.57-0.95-1.66-1C51.94,187.18,49.86,187.17,47.23,187.17z"/>
			</g>
		</g>
	</g>
</g>
<g>
	<g>
		<g>
			<g>
				<path d="M36.46,194.8C36.46,194.8,36.46,194.8,36.46,194.8c-2.74-0.02-2.87-1.38-2.96-2.28c-0.01-0.13-0.02-0.25-0.04-0.37
					c-0.15-0.88-0.74-4.98-0.77-5.16l0.5-0.07c0.01,0.04,0.61,4.27,0.76,5.14c0.02,0.12,0.03,0.26,0.05,0.41
					c0.08,0.82,0.16,1.74,2.21,1.82v-7.34h0.5v7.59c0,0.07-0.03,0.13-0.07,0.18C36.59,194.77,36.52,194.8,36.46,194.8z"/>
			</g>
		</g>
	</g>
</g>
<g>
	<g>
		<g>
			<g>
				<path d="M49.3,194.8c-0.06,0-0.12-0.02-0.17-0.07c-0.05-0.05-0.08-0.11-0.08-0.18v-7.59h0.5v7.31c0.62-0.11,1.15-0.43,1.56-0.94
					c1.61-1.99,1.08-6.3,1.08-6.34l0.5-0.06c0.02,0.19,0.55,4.56-1.19,6.72c-0.56,0.69-1.29,1.08-2.17,1.16
					C49.31,194.8,49.31,194.8,49.3,194.8z"/>
			</g>
		</g>
	</g>
</g>
<g>
	<g>
		<g>
			<g>
				<path d="M18.57,209.14c-1.75,0-3.67-1.53-3.75-1.59c-0.07-0.05-0.1-0.14-0.09-0.22c0.01-0.08,0.06-0.16,0.13-0.2
					c0.09-0.05,2.3-1.17,3.75-0.93c0.91,0.15,1.41,1.04,1.35,1.77C19.91,208.68,19.36,209.14,18.57,209.14z M15.47,207.4
					c0.6,0.42,1.93,1.24,3.11,1.24c0.53,0,0.86-0.26,0.9-0.72c0.04-0.51-0.3-1.13-0.94-1.23C17.58,206.53,16.14,207.1,15.47,207.4z"
					/>
			</g>
		</g>
	</g>
</g>
<g>
	<g>
		<g>
			<g>
				<path d="M67.22,209.14c-0.79,0-1.33-0.46-1.39-1.18c-0.06-0.73,0.44-1.61,1.35-1.77c1.44-0.24,3.65,0.88,3.75,0.93
					c0.08,0.04,0.13,0.11,0.13,0.2c0.01,0.08-0.03,0.17-0.09,0.22C70.89,207.61,68.97,209.14,67.22,209.14z M67.63,206.66
					c-0.12,0-0.25,0.01-0.36,0.03c-0.63,0.11-0.98,0.72-0.94,1.23c0.04,0.46,0.37,0.72,0.9,0.72c1.18,0,2.5-0.82,3.11-1.24
					C69.74,207.14,68.55,206.66,67.63,206.66z"/>
			</g>
		</g>
	</g>
</g>
<g>
	<g>
		<g>
			<g>
				<path d="M16.17,221.98h-3.86c-1.23,0-2.23-1-2.23-2.23v-12.39h0.5v12.39c0,0.96,0.78,1.73,1.73,1.73h3.86
					c0.81,0,1.47-0.66,1.47-1.47v-6.41h0.5v6.41C18.14,221.1,17.25,221.98,16.17,221.98z"/>
			</g>
		</g>
	</g>
</g>
<g>
	<g>
		<g>
			<g>
				<path d="M72.95,221.98h-3.86c-1.08,0-1.97-0.88-1.97-1.97v-6.41h0.5v6.41c0,0.81,0.66,1.47,1.47,1.47h3.86
					c0.96,0,1.73-0.78,1.73-1.73V208.2h0.5v11.55C75.18,220.98,74.18,221.98,72.95,221.98z"/>
			</g>
		</g>
	</g>
</g>
<g>
	<g>
		<g>
			<g>
				<path d="M41.75,212.07c-3.22,0-5.83-0.01-6.56-0.03c-0.59-0.02-1.45-0.01-2.42,0c-3.46,0.02-6.16,0.01-6.75-0.38
					c-0.6-0.39-2.74-0.64-3.51-0.7l0.04-0.5c0.3,0.02,2.93,0.25,3.75,0.78c0.51,0.33,4.24,0.31,6.47,0.3c0.98,0,1.85-0.01,2.44,0
					c1.77,0.05,14.79,0.02,20.34,0l2.41,0c0.51,0,1.12-0.25,1.78-0.52c1.09-0.45,2.32-0.95,3.6-0.55l-0.15,0.48
					c-1.12-0.35-2.21,0.1-3.27,0.53c-0.7,0.29-1.36,0.56-1.97,0.56l-2.41,0C52.27,212.06,46.39,212.07,41.75,212.07z"/>
			</g>
		</g>
	</g>
</g>
<g>
	<g>
		<g>
			<g>
				<path d="M66.08,181.21H19.72c-1.2,0-2.53-0.52-2.62-1.66c-0.05-0.61,0.3-1.55,0.74-2.75c0.32-0.87,0.68-1.86,0.95-2.89
					c0.64-2.44,5.97-7.81,6.2-8.04l0.35,0.35c-0.05,0.05-5.46,5.49-6.07,7.81c-0.28,1.05-0.64,2.05-0.96,2.94
					c-0.4,1.1-0.75,2.04-0.71,2.54c0.06,0.79,1.11,1.2,2.12,1.2h46.35c0.79,0,1.39-0.21,1.66-0.57c0.21-0.28,0.23-0.67,0.08-1.17
					c-0.57-1.85-2.59-7.32-3.74-8.68c-1.19-1.41-3.47-4-3.49-4.03l0.38-0.33c0.02,0.03,2.31,2.62,3.5,4.04
					c1.29,1.53,3.38,7.42,3.83,8.86c0.2,0.66,0.15,1.21-0.15,1.62C67.64,181.11,66.63,181.21,66.08,181.21z"/>
			</g>
		</g>
	</g>
</g>
<g>
	<g>
		<g>
			<g>
				<path d="M20.34,172l-0.32-0.38c0.12-0.1,2.86-2.38,6.8-2.55c3.16-0.14,21.74-0.05,29.67-0.02c1.89,0.01,3.22,0.02,3.64,0.02
					c2.3,0,5.17,2.45,5.29,2.56L65.1,172c-0.03-0.02-2.85-2.43-4.97-2.43c-0.42,0-1.75-0.01-3.65-0.02
					c-7.93-0.04-26.5-0.12-29.65,0.02C23.08,169.73,20.37,171.98,20.34,172z"/>
			</g>
		</g>
	</g>
</g>
<g>
	<g>
		<g>
			<g>
				<path d="M24.13,172.61c-2.84,0-3.49-0.99-3.56-1.11l0.43-0.25c0.01,0.01,0.61,0.92,3.36,0.86c2.47-0.05,25.36-0.02,33.98,0
					l3.34,0c1.79,0,2.93-0.87,2.95-0.88l0.31,0.4c-0.05,0.04-1.3,0.98-3.25,0.98l-3.34,0c-8.62-0.01-31.5-0.04-33.97,0
					C24.29,172.61,24.2,172.61,24.13,172.61z"/>
			</g>
		</g>
	</g>
</g>
<g>
	<g>
		<g>
			<g>
				<path d="M34.06,184.12c-5.04,0-8.95-0.01-9.49-0.05c-1.5-0.11-2.09-0.26-5.36-1.09l-0.93-0.24c-4.2-1.07-4.33-3.17-4.33-3.26
					l0.5-0.02c0,0.02,0.15,1.84,3.96,2.8l0.93,0.24c3.24,0.82,3.82,0.97,5.27,1.07c1.29,0.09,22.49,0.03,31.54,0.01
					c2.1-0.01,3.56-0.01,3.99-0.01c2.24,0,9.09-0.72,11.08-3.91l0.42,0.26c-2.12,3.4-9.02,4.14-11.51,4.14c-0.43,0-1.89,0-3.98,0.01
					C50.82,184.1,41.28,184.12,34.06,184.12z"/>
			</g>
		</g>
	</g>
</g>
<g>
	<g>
		<g>
			<g>
				<path d="M34.42,181.16l-0.29-0.41l2.81-1.95c0.04-0.03,0.09-0.04,0.14-0.04h11.52c0.06,0,0.12,0.02,0.16,0.06l2.3,1.95
					l-0.32,0.38l-2.23-1.89H37.17L34.42,181.16z"/>
			</g>
		</g>
	</g>
</g>
<g>
	<g>
		<g>
			<g>
				<path d="M36.62,181.15l-0.32-0.38l1.15-0.97c0.05-0.04,0.1-0.06,0.16-0.06h10.26c0.06,0,0.12,0.02,0.17,0.06l1.09,0.97
					l-0.33,0.37l-1.02-0.91H37.7L36.62,181.15z"/>
			</g>
		</g>
	</g>
</g>
<g>
	<g>
		<g>
			<g>
				<path d="M11.25,185.65c-0.57,0-2.58-0.02-4.13-0.32c-1.06-0.21-2.14-1.1-2.7-2.23c-0.47-0.95-0.51-1.93-0.11-2.75
					c0.97-1.98,7.14-0.77,7.84-0.62c0.08,0.02,0.15,0.07,0.18,0.15c0.01,0.01,0.59,1.49,1.11,2.06l-0.37,0.34
					c-0.49-0.54-1-1.7-1.16-2.09c-1.89-0.37-6.49-0.97-7.16,0.38c-0.33,0.67-0.29,1.49,0.11,2.3c0.49,0.99,1.44,1.78,2.35,1.96
					c1.73,0.33,4.16,0.31,4.18,0.31l0.01,0.5C11.39,185.65,11.33,185.65,11.25,185.65z"/>
			</g>
		</g>
	</g>
</g>
<g>
	<g>
		<g>
			<g>
				<path d="M11.58,184.62c0,0-0.01,0-0.01,0l-4.7-0.26c-0.04,0-0.08-0.01-0.11-0.03c-1.45-0.83-1.81-2.22-1.67-3.24
					c0.03-0.23,0.14-0.78,0.47-0.86c0.4-0.1,3.1-0.09,3.7,0c0.15,0.02,0.38,0.03,0.62,0.05c0.96,0.05,1.6,0.11,1.85,0.4
					c0.08,0.09,0.11,0.2,0.1,0.32c-0.04,0.36-0.01,2.56,0,3.38c0,0.07-0.03,0.14-0.08,0.19C11.71,184.6,11.64,184.62,11.58,184.62z
					 M6.95,183.86l4.37,0.25c-0.01-0.72-0.04-2.66,0-3.14c-0.19-0.13-1.05-0.18-1.47-0.2c-0.26-0.01-0.5-0.03-0.66-0.05
					c-0.64-0.09-3.24-0.07-3.52,0c-0.02,0.05-0.18,0.5-0.1,1.13C5.66,182.44,5.96,183.27,6.95,183.86z"/>
			</g>
		</g>
	</g>
</g>
<g>
	<g>
		<g>
			<g>
				<path d="M74.29,185.59c-0.08,0-0.14,0-0.15,0l0.01-0.5c0.02,0,2.45,0.02,4.18-0.31c0.91-0.18,1.86-0.96,2.35-1.96
					c0.4-0.81,0.44-1.63,0.11-2.3c-0.67-1.35-5.27-0.75-7.16-0.38c-0.16,0.39-0.66,1.55-1.16,2.09l-0.37-0.34
					c0.52-0.57,1.11-2.05,1.11-2.06c0.03-0.08,0.1-0.14,0.18-0.15c0.7-0.15,6.87-1.36,7.84,0.62c0.4,0.82,0.36,1.79-0.11,2.75
					c-0.56,1.13-1.65,2.02-2.7,2.22C76.87,185.57,74.85,185.59,74.29,185.59z"/>
			</g>
		</g>
	</g>
</g>
<g>
	<g>
		<g>
			<g>
				<path d="M73.96,184.57c-0.06,0-0.13-0.02-0.17-0.07c-0.05-0.05-0.08-0.12-0.08-0.19c0.02-0.82,0.05-3.02,0-3.38
					c-0.01-0.12,0.02-0.23,0.1-0.32c0.24-0.29,0.89-0.35,1.85-0.4c0.25-0.01,0.47-0.03,0.62-0.05c0.61-0.08,3.3-0.1,3.71,0
					c0.33,0.08,0.44,0.63,0.47,0.86c0.14,1.02-0.22,2.41-1.67,3.24c-0.03,0.02-0.07,0.03-0.11,0.03l-4.7,0.27
					C73.97,184.57,73.96,184.57,73.96,184.57z M74.21,180.91c0.04,0.48,0.01,2.42,0,3.14l4.37-0.25c0.99-0.59,1.29-1.42,1.37-2.02
					c0.08-0.63-0.07-1.08-0.15-1.16c-0.22-0.04-2.83-0.06-3.46,0.03c-0.16,0.02-0.4,0.04-0.66,0.05
					C75.26,180.73,74.41,180.78,74.21,180.91z"/>
			</g>
		</g>
	</g>
</g>
</svg>
